%TF.GenerationSoftware,KiCad,Pcbnew,7.0.2*%
%TF.CreationDate,2024-05-18T17:34:20+02:00*%
%TF.ProjectId,dsoxlan,64736f78-6c61-46e2-9e6b-696361645f70,rev?*%
%TF.SameCoordinates,Original*%
%TF.FileFunction,Legend,Top*%
%TF.FilePolarity,Positive*%
%FSLAX46Y46*%
G04 Gerber Fmt 4.6, Leading zero omitted, Abs format (unit mm)*
G04 Created by KiCad (PCBNEW 7.0.2) date 2024-05-18 17:34:20*
%MOMM*%
%LPD*%
G01*
G04 APERTURE LIST*
%ADD10C,0.150000*%
%ADD11C,0.120000*%
G04 APERTURE END LIST*
D10*
%TO.C,P1*%
X133862619Y-88638094D02*
X132862619Y-88638094D01*
X132862619Y-88638094D02*
X132862619Y-88257142D01*
X132862619Y-88257142D02*
X132910238Y-88161904D01*
X132910238Y-88161904D02*
X132957857Y-88114285D01*
X132957857Y-88114285D02*
X133053095Y-88066666D01*
X133053095Y-88066666D02*
X133195952Y-88066666D01*
X133195952Y-88066666D02*
X133291190Y-88114285D01*
X133291190Y-88114285D02*
X133338809Y-88161904D01*
X133338809Y-88161904D02*
X133386428Y-88257142D01*
X133386428Y-88257142D02*
X133386428Y-88638094D01*
X133862619Y-87114285D02*
X133862619Y-87685713D01*
X133862619Y-87399999D02*
X132862619Y-87399999D01*
X132862619Y-87399999D02*
X133005476Y-87495237D01*
X133005476Y-87495237D02*
X133100714Y-87590475D01*
X133100714Y-87590475D02*
X133148333Y-87685713D01*
%TO.C,P2*%
X187416619Y-99688094D02*
X186416619Y-99688094D01*
X186416619Y-99688094D02*
X186416619Y-99307142D01*
X186416619Y-99307142D02*
X186464238Y-99211904D01*
X186464238Y-99211904D02*
X186511857Y-99164285D01*
X186511857Y-99164285D02*
X186607095Y-99116666D01*
X186607095Y-99116666D02*
X186749952Y-99116666D01*
X186749952Y-99116666D02*
X186845190Y-99164285D01*
X186845190Y-99164285D02*
X186892809Y-99211904D01*
X186892809Y-99211904D02*
X186940428Y-99307142D01*
X186940428Y-99307142D02*
X186940428Y-99688094D01*
X186511857Y-98735713D02*
X186464238Y-98688094D01*
X186464238Y-98688094D02*
X186416619Y-98592856D01*
X186416619Y-98592856D02*
X186416619Y-98354761D01*
X186416619Y-98354761D02*
X186464238Y-98259523D01*
X186464238Y-98259523D02*
X186511857Y-98211904D01*
X186511857Y-98211904D02*
X186607095Y-98164285D01*
X186607095Y-98164285D02*
X186702333Y-98164285D01*
X186702333Y-98164285D02*
X186845190Y-98211904D01*
X186845190Y-98211904D02*
X187416619Y-98783332D01*
X187416619Y-98783332D02*
X187416619Y-98164285D01*
%TO.C,H104*%
X182435714Y-110912619D02*
X182435714Y-109912619D01*
X182435714Y-110388809D02*
X183007142Y-110388809D01*
X183007142Y-110912619D02*
X183007142Y-109912619D01*
X184007142Y-110912619D02*
X183435714Y-110912619D01*
X183721428Y-110912619D02*
X183721428Y-109912619D01*
X183721428Y-109912619D02*
X183626190Y-110055476D01*
X183626190Y-110055476D02*
X183530952Y-110150714D01*
X183530952Y-110150714D02*
X183435714Y-110198333D01*
X184626190Y-109912619D02*
X184721428Y-109912619D01*
X184721428Y-109912619D02*
X184816666Y-109960238D01*
X184816666Y-109960238D02*
X184864285Y-110007857D01*
X184864285Y-110007857D02*
X184911904Y-110103095D01*
X184911904Y-110103095D02*
X184959523Y-110293571D01*
X184959523Y-110293571D02*
X184959523Y-110531666D01*
X184959523Y-110531666D02*
X184911904Y-110722142D01*
X184911904Y-110722142D02*
X184864285Y-110817380D01*
X184864285Y-110817380D02*
X184816666Y-110865000D01*
X184816666Y-110865000D02*
X184721428Y-110912619D01*
X184721428Y-110912619D02*
X184626190Y-110912619D01*
X184626190Y-110912619D02*
X184530952Y-110865000D01*
X184530952Y-110865000D02*
X184483333Y-110817380D01*
X184483333Y-110817380D02*
X184435714Y-110722142D01*
X184435714Y-110722142D02*
X184388095Y-110531666D01*
X184388095Y-110531666D02*
X184388095Y-110293571D01*
X184388095Y-110293571D02*
X184435714Y-110103095D01*
X184435714Y-110103095D02*
X184483333Y-110007857D01*
X184483333Y-110007857D02*
X184530952Y-109960238D01*
X184530952Y-109960238D02*
X184626190Y-109912619D01*
X185816666Y-110245952D02*
X185816666Y-110912619D01*
X185578571Y-109865000D02*
X185340476Y-110579285D01*
X185340476Y-110579285D02*
X185959523Y-110579285D01*
%TO.C,H103*%
X182435714Y-59096619D02*
X182435714Y-58096619D01*
X182435714Y-58572809D02*
X183007142Y-58572809D01*
X183007142Y-59096619D02*
X183007142Y-58096619D01*
X184007142Y-59096619D02*
X183435714Y-59096619D01*
X183721428Y-59096619D02*
X183721428Y-58096619D01*
X183721428Y-58096619D02*
X183626190Y-58239476D01*
X183626190Y-58239476D02*
X183530952Y-58334714D01*
X183530952Y-58334714D02*
X183435714Y-58382333D01*
X184626190Y-58096619D02*
X184721428Y-58096619D01*
X184721428Y-58096619D02*
X184816666Y-58144238D01*
X184816666Y-58144238D02*
X184864285Y-58191857D01*
X184864285Y-58191857D02*
X184911904Y-58287095D01*
X184911904Y-58287095D02*
X184959523Y-58477571D01*
X184959523Y-58477571D02*
X184959523Y-58715666D01*
X184959523Y-58715666D02*
X184911904Y-58906142D01*
X184911904Y-58906142D02*
X184864285Y-59001380D01*
X184864285Y-59001380D02*
X184816666Y-59049000D01*
X184816666Y-59049000D02*
X184721428Y-59096619D01*
X184721428Y-59096619D02*
X184626190Y-59096619D01*
X184626190Y-59096619D02*
X184530952Y-59049000D01*
X184530952Y-59049000D02*
X184483333Y-59001380D01*
X184483333Y-59001380D02*
X184435714Y-58906142D01*
X184435714Y-58906142D02*
X184388095Y-58715666D01*
X184388095Y-58715666D02*
X184388095Y-58477571D01*
X184388095Y-58477571D02*
X184435714Y-58287095D01*
X184435714Y-58287095D02*
X184483333Y-58191857D01*
X184483333Y-58191857D02*
X184530952Y-58144238D01*
X184530952Y-58144238D02*
X184626190Y-58096619D01*
X185292857Y-58096619D02*
X185911904Y-58096619D01*
X185911904Y-58096619D02*
X185578571Y-58477571D01*
X185578571Y-58477571D02*
X185721428Y-58477571D01*
X185721428Y-58477571D02*
X185816666Y-58525190D01*
X185816666Y-58525190D02*
X185864285Y-58572809D01*
X185864285Y-58572809D02*
X185911904Y-58668047D01*
X185911904Y-58668047D02*
X185911904Y-58906142D01*
X185911904Y-58906142D02*
X185864285Y-59001380D01*
X185864285Y-59001380D02*
X185816666Y-59049000D01*
X185816666Y-59049000D02*
X185721428Y-59096619D01*
X185721428Y-59096619D02*
X185435714Y-59096619D01*
X185435714Y-59096619D02*
X185340476Y-59049000D01*
X185340476Y-59049000D02*
X185292857Y-59001380D01*
%TO.C,H102*%
X113855714Y-110912619D02*
X113855714Y-109912619D01*
X113855714Y-110388809D02*
X114427142Y-110388809D01*
X114427142Y-110912619D02*
X114427142Y-109912619D01*
X115427142Y-110912619D02*
X114855714Y-110912619D01*
X115141428Y-110912619D02*
X115141428Y-109912619D01*
X115141428Y-109912619D02*
X115046190Y-110055476D01*
X115046190Y-110055476D02*
X114950952Y-110150714D01*
X114950952Y-110150714D02*
X114855714Y-110198333D01*
X116046190Y-109912619D02*
X116141428Y-109912619D01*
X116141428Y-109912619D02*
X116236666Y-109960238D01*
X116236666Y-109960238D02*
X116284285Y-110007857D01*
X116284285Y-110007857D02*
X116331904Y-110103095D01*
X116331904Y-110103095D02*
X116379523Y-110293571D01*
X116379523Y-110293571D02*
X116379523Y-110531666D01*
X116379523Y-110531666D02*
X116331904Y-110722142D01*
X116331904Y-110722142D02*
X116284285Y-110817380D01*
X116284285Y-110817380D02*
X116236666Y-110865000D01*
X116236666Y-110865000D02*
X116141428Y-110912619D01*
X116141428Y-110912619D02*
X116046190Y-110912619D01*
X116046190Y-110912619D02*
X115950952Y-110865000D01*
X115950952Y-110865000D02*
X115903333Y-110817380D01*
X115903333Y-110817380D02*
X115855714Y-110722142D01*
X115855714Y-110722142D02*
X115808095Y-110531666D01*
X115808095Y-110531666D02*
X115808095Y-110293571D01*
X115808095Y-110293571D02*
X115855714Y-110103095D01*
X115855714Y-110103095D02*
X115903333Y-110007857D01*
X115903333Y-110007857D02*
X115950952Y-109960238D01*
X115950952Y-109960238D02*
X116046190Y-109912619D01*
X116760476Y-110007857D02*
X116808095Y-109960238D01*
X116808095Y-109960238D02*
X116903333Y-109912619D01*
X116903333Y-109912619D02*
X117141428Y-109912619D01*
X117141428Y-109912619D02*
X117236666Y-109960238D01*
X117236666Y-109960238D02*
X117284285Y-110007857D01*
X117284285Y-110007857D02*
X117331904Y-110103095D01*
X117331904Y-110103095D02*
X117331904Y-110198333D01*
X117331904Y-110198333D02*
X117284285Y-110341190D01*
X117284285Y-110341190D02*
X116712857Y-110912619D01*
X116712857Y-110912619D02*
X117331904Y-110912619D01*
%TO.C,H101*%
X113855714Y-59096619D02*
X113855714Y-58096619D01*
X113855714Y-58572809D02*
X114427142Y-58572809D01*
X114427142Y-59096619D02*
X114427142Y-58096619D01*
X115427142Y-59096619D02*
X114855714Y-59096619D01*
X115141428Y-59096619D02*
X115141428Y-58096619D01*
X115141428Y-58096619D02*
X115046190Y-58239476D01*
X115046190Y-58239476D02*
X114950952Y-58334714D01*
X114950952Y-58334714D02*
X114855714Y-58382333D01*
X116046190Y-58096619D02*
X116141428Y-58096619D01*
X116141428Y-58096619D02*
X116236666Y-58144238D01*
X116236666Y-58144238D02*
X116284285Y-58191857D01*
X116284285Y-58191857D02*
X116331904Y-58287095D01*
X116331904Y-58287095D02*
X116379523Y-58477571D01*
X116379523Y-58477571D02*
X116379523Y-58715666D01*
X116379523Y-58715666D02*
X116331904Y-58906142D01*
X116331904Y-58906142D02*
X116284285Y-59001380D01*
X116284285Y-59001380D02*
X116236666Y-59049000D01*
X116236666Y-59049000D02*
X116141428Y-59096619D01*
X116141428Y-59096619D02*
X116046190Y-59096619D01*
X116046190Y-59096619D02*
X115950952Y-59049000D01*
X115950952Y-59049000D02*
X115903333Y-59001380D01*
X115903333Y-59001380D02*
X115855714Y-58906142D01*
X115855714Y-58906142D02*
X115808095Y-58715666D01*
X115808095Y-58715666D02*
X115808095Y-58477571D01*
X115808095Y-58477571D02*
X115855714Y-58287095D01*
X115855714Y-58287095D02*
X115903333Y-58191857D01*
X115903333Y-58191857D02*
X115950952Y-58144238D01*
X115950952Y-58144238D02*
X116046190Y-58096619D01*
X117331904Y-59096619D02*
X116760476Y-59096619D01*
X117046190Y-59096619D02*
X117046190Y-58096619D01*
X117046190Y-58096619D02*
X116950952Y-58239476D01*
X116950952Y-58239476D02*
X116855714Y-58334714D01*
X116855714Y-58334714D02*
X116760476Y-58382333D01*
%TO.C,C2*%
X140733333Y-78667380D02*
X140685714Y-78715000D01*
X140685714Y-78715000D02*
X140542857Y-78762619D01*
X140542857Y-78762619D02*
X140447619Y-78762619D01*
X140447619Y-78762619D02*
X140304762Y-78715000D01*
X140304762Y-78715000D02*
X140209524Y-78619761D01*
X140209524Y-78619761D02*
X140161905Y-78524523D01*
X140161905Y-78524523D02*
X140114286Y-78334047D01*
X140114286Y-78334047D02*
X140114286Y-78191190D01*
X140114286Y-78191190D02*
X140161905Y-78000714D01*
X140161905Y-78000714D02*
X140209524Y-77905476D01*
X140209524Y-77905476D02*
X140304762Y-77810238D01*
X140304762Y-77810238D02*
X140447619Y-77762619D01*
X140447619Y-77762619D02*
X140542857Y-77762619D01*
X140542857Y-77762619D02*
X140685714Y-77810238D01*
X140685714Y-77810238D02*
X140733333Y-77857857D01*
X141114286Y-77857857D02*
X141161905Y-77810238D01*
X141161905Y-77810238D02*
X141257143Y-77762619D01*
X141257143Y-77762619D02*
X141495238Y-77762619D01*
X141495238Y-77762619D02*
X141590476Y-77810238D01*
X141590476Y-77810238D02*
X141638095Y-77857857D01*
X141638095Y-77857857D02*
X141685714Y-77953095D01*
X141685714Y-77953095D02*
X141685714Y-78048333D01*
X141685714Y-78048333D02*
X141638095Y-78191190D01*
X141638095Y-78191190D02*
X141066667Y-78762619D01*
X141066667Y-78762619D02*
X141685714Y-78762619D01*
%TO.C,R1*%
X129373333Y-71327619D02*
X129040000Y-70851428D01*
X128801905Y-71327619D02*
X128801905Y-70327619D01*
X128801905Y-70327619D02*
X129182857Y-70327619D01*
X129182857Y-70327619D02*
X129278095Y-70375238D01*
X129278095Y-70375238D02*
X129325714Y-70422857D01*
X129325714Y-70422857D02*
X129373333Y-70518095D01*
X129373333Y-70518095D02*
X129373333Y-70660952D01*
X129373333Y-70660952D02*
X129325714Y-70756190D01*
X129325714Y-70756190D02*
X129278095Y-70803809D01*
X129278095Y-70803809D02*
X129182857Y-70851428D01*
X129182857Y-70851428D02*
X128801905Y-70851428D01*
X130325714Y-71327619D02*
X129754286Y-71327619D01*
X130040000Y-71327619D02*
X130040000Y-70327619D01*
X130040000Y-70327619D02*
X129944762Y-70470476D01*
X129944762Y-70470476D02*
X129849524Y-70565714D01*
X129849524Y-70565714D02*
X129754286Y-70613333D01*
%TO.C,R2*%
X129373333Y-95457619D02*
X129040000Y-94981428D01*
X128801905Y-95457619D02*
X128801905Y-94457619D01*
X128801905Y-94457619D02*
X129182857Y-94457619D01*
X129182857Y-94457619D02*
X129278095Y-94505238D01*
X129278095Y-94505238D02*
X129325714Y-94552857D01*
X129325714Y-94552857D02*
X129373333Y-94648095D01*
X129373333Y-94648095D02*
X129373333Y-94790952D01*
X129373333Y-94790952D02*
X129325714Y-94886190D01*
X129325714Y-94886190D02*
X129278095Y-94933809D01*
X129278095Y-94933809D02*
X129182857Y-94981428D01*
X129182857Y-94981428D02*
X128801905Y-94981428D01*
X129754286Y-94552857D02*
X129801905Y-94505238D01*
X129801905Y-94505238D02*
X129897143Y-94457619D01*
X129897143Y-94457619D02*
X130135238Y-94457619D01*
X130135238Y-94457619D02*
X130230476Y-94505238D01*
X130230476Y-94505238D02*
X130278095Y-94552857D01*
X130278095Y-94552857D02*
X130325714Y-94648095D01*
X130325714Y-94648095D02*
X130325714Y-94743333D01*
X130325714Y-94743333D02*
X130278095Y-94886190D01*
X130278095Y-94886190D02*
X129706667Y-95457619D01*
X129706667Y-95457619D02*
X130325714Y-95457619D01*
%TO.C,R3*%
X140733333Y-84462619D02*
X140400000Y-83986428D01*
X140161905Y-84462619D02*
X140161905Y-83462619D01*
X140161905Y-83462619D02*
X140542857Y-83462619D01*
X140542857Y-83462619D02*
X140638095Y-83510238D01*
X140638095Y-83510238D02*
X140685714Y-83557857D01*
X140685714Y-83557857D02*
X140733333Y-83653095D01*
X140733333Y-83653095D02*
X140733333Y-83795952D01*
X140733333Y-83795952D02*
X140685714Y-83891190D01*
X140685714Y-83891190D02*
X140638095Y-83938809D01*
X140638095Y-83938809D02*
X140542857Y-83986428D01*
X140542857Y-83986428D02*
X140161905Y-83986428D01*
X141066667Y-83462619D02*
X141685714Y-83462619D01*
X141685714Y-83462619D02*
X141352381Y-83843571D01*
X141352381Y-83843571D02*
X141495238Y-83843571D01*
X141495238Y-83843571D02*
X141590476Y-83891190D01*
X141590476Y-83891190D02*
X141638095Y-83938809D01*
X141638095Y-83938809D02*
X141685714Y-84034047D01*
X141685714Y-84034047D02*
X141685714Y-84272142D01*
X141685714Y-84272142D02*
X141638095Y-84367380D01*
X141638095Y-84367380D02*
X141590476Y-84415000D01*
X141590476Y-84415000D02*
X141495238Y-84462619D01*
X141495238Y-84462619D02*
X141209524Y-84462619D01*
X141209524Y-84462619D02*
X141114286Y-84415000D01*
X141114286Y-84415000D02*
X141066667Y-84367380D01*
%TO.C,P1*%
X132080000Y-73025000D02*
X125650000Y-73025000D01*
X121650000Y-73025000D02*
X113750000Y-73025000D01*
X132080000Y-89535000D02*
X132080000Y-73025000D01*
X125650000Y-89535000D02*
X132080000Y-89535000D01*
X113750000Y-89535000D02*
X121650000Y-89535000D01*
D11*
%TO.C,C2*%
X143136252Y-80745000D02*
X142613748Y-80745000D01*
X143136252Y-79275000D02*
X142613748Y-79275000D01*
%TO.C,R1*%
X129767064Y-69950000D02*
X129312936Y-69950000D01*
X129767064Y-68480000D02*
X129312936Y-68480000D01*
%TO.C,R2*%
X129767064Y-94080000D02*
X129312936Y-94080000D01*
X129767064Y-92610000D02*
X129312936Y-92610000D01*
%TO.C,R3*%
X143102064Y-82935000D02*
X142647936Y-82935000D01*
X143102064Y-81465000D02*
X142647936Y-81465000D01*
%TD*%
M02*
