%TF.GenerationSoftware,KiCad,Pcbnew,7.0.2*%
%TF.CreationDate,2024-05-20T10:49:14+02:00*%
%TF.ProjectId,dsoxlan,64736f78-6c61-46e2-9e6b-696361645f70,rev?*%
%TF.SameCoordinates,Original*%
%TF.FileFunction,Copper,L2,Bot*%
%TF.FilePolarity,Positive*%
%FSLAX46Y46*%
G04 Gerber Fmt 4.6, Leading zero omitted, Abs format (unit mm)*
G04 Created by KiCad (PCBNEW 7.0.2) date 2024-05-20 10:49:14*
%MOMM*%
%LPD*%
G01*
G04 APERTURE LIST*
%TA.AperFunction,ConnectorPad*%
%ADD10R,3.600000X0.550000*%
%TD*%
%TA.AperFunction,ComponentPad*%
%ADD11C,1.524000*%
%TD*%
%TA.AperFunction,ComponentPad*%
%ADD12C,1.625600*%
%TD*%
%TA.AperFunction,ComponentPad*%
%ADD13C,2.540000*%
%TD*%
%TA.AperFunction,ViaPad*%
%ADD14C,0.800000*%
%TD*%
%TA.AperFunction,Conductor*%
%ADD15C,0.500000*%
%TD*%
%TA.AperFunction,Conductor*%
%ADD16C,0.400000*%
%TD*%
%TA.AperFunction,Conductor*%
%ADD17C,1.000000*%
%TD*%
G04 APERTURE END LIST*
D10*
%TO.P,P2,2,Pin_2*%
%TO.N,unconnected-(P2-Pin_2-Pad2)*%
X190754000Y-104750000D03*
%TO.P,P2,4,Pin_4*%
%TO.N,unconnected-(P2-Pin_4-Pad4)*%
X190754000Y-103950000D03*
%TO.P,P2,6,Pin_6*%
%TO.N,unconnected-(P2-Pin_6-Pad6)*%
X190754000Y-103150000D03*
%TO.P,P2,8,Pin_8*%
%TO.N,unconnected-(P2-Pin_8-Pad8)*%
X190754000Y-102350000D03*
%TO.P,P2,10,Pin_10*%
%TO.N,unconnected-(P2-Pin_10-Pad10)*%
X190754000Y-101550000D03*
%TO.P,P2,12,Pin_12*%
%TO.N,unconnected-(P2-Pin_12-Pad12)*%
X190754000Y-100750000D03*
%TO.P,P2,14,Pin_14*%
%TO.N,unconnected-(P2-Pin_14-Pad14)*%
X190754000Y-99950000D03*
%TO.P,P2,16,Pin_16*%
%TO.N,unconnected-(P2-Pin_16-Pad16)*%
X190754000Y-99150000D03*
%TO.P,P2,18,Pin_18*%
%TO.N,unconnected-(P2-Pin_18-Pad18)*%
X190754000Y-98350000D03*
%TO.P,P2,20,Pin_20*%
%TO.N,unconnected-(P2-Pin_20-Pad20)*%
X190754000Y-97550000D03*
%TO.P,P2,22,Pin_22*%
%TO.N,unconnected-(P2-Pin_22-Pad22)*%
X190754000Y-96750000D03*
%TO.P,P2,24,Pin_24*%
%TO.N,unconnected-(P2-Pin_24-Pad24)*%
X190754000Y-95950000D03*
%TO.P,P2,26,Pin_26*%
%TO.N,unconnected-(P2-Pin_26-Pad26)*%
X190754000Y-95150000D03*
%TO.P,P2,28,Pin_28*%
%TO.N,unconnected-(P2-Pin_28-Pad28)*%
X190754000Y-94350000D03*
%TO.P,P2,30,Pin_30*%
%TO.N,unconnected-(P2-Pin_30-Pad30)*%
X190754000Y-93550000D03*
%TO.P,P2,32,Pin_32*%
%TO.N,unconnected-(P2-Pin_32-Pad32)*%
X190754000Y-92750000D03*
%TO.P,P2,34,Pin_34*%
%TO.N,unconnected-(P2-Pin_34-Pad34)*%
X190754000Y-91950000D03*
%TO.P,P2,36,Pin_36*%
%TO.N,unconnected-(P2-Pin_36-Pad36)*%
X190754000Y-91150000D03*
%TO.P,P2,38,Pin_38*%
%TO.N,unconnected-(P2-Pin_38-Pad38)*%
X190754000Y-90350000D03*
%TO.P,P2,40,Pin_40*%
%TO.N,unconnected-(P2-Pin_40-Pad40)*%
X190754000Y-89550000D03*
%TO.P,P2,42,Pin_42*%
%TO.N,unconnected-(P2-Pin_42-Pad42)*%
X190754000Y-88750000D03*
%TO.P,P2,44,Pin_44*%
%TO.N,unconnected-(P2-Pin_44-Pad44)*%
X190754000Y-87950000D03*
%TO.P,P2,46,Pin_46*%
%TO.N,unconnected-(P2-Pin_46-Pad46)*%
X190754000Y-83950000D03*
%TO.P,P2,48,Pin_48*%
%TO.N,+3.3V*%
X190754000Y-83150000D03*
%TO.P,P2,50,Pin_50*%
X190754000Y-82350000D03*
%TO.P,P2,52,Pin_52*%
%TO.N,GND*%
X190754000Y-81550000D03*
%TO.P,P2,54,Pin_54*%
X190754000Y-80750000D03*
%TO.P,P2,56,Pin_56*%
%TO.N,unconnected-(P2-Pin_56-Pad56)*%
X190754000Y-79950000D03*
%TO.P,P2,58,Pin_58*%
%TO.N,unconnected-(P2-Pin_58-Pad58)*%
X190754000Y-79150000D03*
%TO.P,P2,60,Pin_60*%
%TO.N,unconnected-(P2-Pin_60-Pad60)*%
X190754000Y-78350000D03*
%TO.P,P2,62,Pin_62*%
%TO.N,unconnected-(P2-Pin_62-Pad62)*%
X190754000Y-77550000D03*
%TO.P,P2,64,Pin_64*%
%TO.N,unconnected-(P2-Pin_64-Pad64)*%
X190754000Y-76750000D03*
%TO.P,P2,66,Pin_66*%
%TO.N,unconnected-(P2-Pin_66-Pad66)*%
X190754000Y-75950000D03*
%TO.P,P2,68,Pin_68*%
%TO.N,unconnected-(P2-Pin_68-Pad68)*%
X190754000Y-75150000D03*
%TO.P,P2,70,Pin_70*%
%TO.N,unconnected-(P2-Pin_70-Pad70)*%
X190754000Y-74350000D03*
%TO.P,P2,72,Pin_72*%
%TO.N,unconnected-(P2-Pin_72-Pad72)*%
X190754000Y-73550000D03*
%TO.P,P2,74,Pin_74*%
%TO.N,unconnected-(P2-Pin_74-Pad74)*%
X190754000Y-72750000D03*
%TO.P,P2,76,Pin_76*%
%TO.N,unconnected-(P2-Pin_76-Pad76)*%
X190754000Y-71950000D03*
%TO.P,P2,78,Pin_78*%
%TO.N,Net-(P2-Pin_78)*%
X190754000Y-71150000D03*
%TO.P,P2,80,Pin_80*%
X190754000Y-70350000D03*
%TD*%
D11*
%TO.P,P1,1,TD+*%
%TO.N,TX+*%
X129900000Y-92830000D03*
%TO.P,P1,2,CTD*%
%TO.N,Net-(P1-CRD)*%
X127360000Y-91560000D03*
%TO.P,P1,3,TD-*%
%TO.N,TX-*%
X129900000Y-90290000D03*
%TO.P,P1,4,RD+*%
%TO.N,RX+*%
X127360000Y-89020000D03*
%TO.P,P1,5,CRD*%
%TO.N,Net-(P1-CRD)*%
X129900000Y-87750000D03*
%TO.P,P1,6,RD-*%
%TO.N,RX-*%
X127360000Y-86480000D03*
%TO.P,P1,7,NC*%
%TO.N,unconnected-(P1-NC-Pad7)*%
X129900000Y-85210000D03*
%TO.P,P1,8,GND*%
%TO.N,GND*%
X127360000Y-83940000D03*
D12*
%TO.P,P1,9,KG*%
%TO.N,LED1*%
X134730000Y-93850000D03*
%TO.P,P1,10,AG*%
%TO.N,Net-(P1-AG)*%
X134730000Y-91310000D03*
%TO.P,P1,11,KY*%
%TO.N,LED2*%
X134730000Y-85460000D03*
%TO.P,P1,12,AY*%
%TO.N,Net-(P1-AY)*%
X134730000Y-82920000D03*
D13*
%TO.P,P1,13,Shield*%
%TO.N,GND*%
X124060000Y-80485000D03*
%TO.P,P1,14,Shield*%
X124060000Y-96285000D03*
%TD*%
D14*
%TO.N,GND*%
X132500000Y-94500000D03*
X163500000Y-85500000D03*
X183680000Y-81280000D03*
X142500000Y-85680500D03*
X146500000Y-96000000D03*
X178000000Y-89500000D03*
X186000000Y-85000000D03*
X159500000Y-85500000D03*
X145500000Y-89000000D03*
X132500000Y-82500000D03*
X142500000Y-92500000D03*
X145500000Y-85500000D03*
X136800000Y-85700000D03*
X186000000Y-89500000D03*
X161500000Y-82500000D03*
X170500000Y-89000000D03*
X186000000Y-75000000D03*
X132400000Y-89300000D03*
X167199272Y-81245799D03*
X164000000Y-92500000D03*
X181000000Y-86500000D03*
X143000000Y-82500000D03*
X176000000Y-84500000D03*
X177500000Y-81400500D03*
X132000000Y-84500000D03*
X137000000Y-96000000D03*
X162000000Y-96000000D03*
X142000000Y-96000000D03*
X159500000Y-89000000D03*
X167500000Y-92500000D03*
X158500000Y-92500000D03*
%TO.N,LED2*%
X169000000Y-85000000D03*
%TO.N,TX+*%
X181100000Y-83900000D03*
%TO.N,TX-*%
X179500000Y-84000000D03*
%TO.N,RX+*%
X180300000Y-80300000D03*
%TO.N,RX-*%
X181400000Y-79100000D03*
%TO.N,LED1*%
X161600000Y-93000000D03*
%TO.N,+3.3V*%
X176500000Y-82500000D03*
%TD*%
D15*
%TO.N,GND*%
X186100998Y-81550000D02*
X186055000Y-81504002D01*
X186055000Y-81504002D02*
X186055000Y-81280000D01*
X186585000Y-80750000D02*
X186055000Y-81280000D01*
X190754000Y-81550000D02*
X186100998Y-81550000D01*
X186055000Y-81280000D02*
X183680000Y-81280000D01*
X190754000Y-80750000D02*
X186585000Y-80750000D01*
%TO.N,LED2*%
X135912536Y-84277464D02*
X168277464Y-84277464D01*
X168277464Y-84277464D02*
X169000000Y-85000000D01*
X134730000Y-85460000D02*
X135912536Y-84277464D01*
D16*
%TO.N,TX+*%
X129900000Y-92830000D02*
X130092800Y-92637200D01*
X136362800Y-92637200D02*
X138000000Y-91000000D01*
X138000000Y-91000000D02*
X174000000Y-91000000D01*
X174000000Y-91000000D02*
X181100000Y-83900000D01*
X130092800Y-92637200D02*
X136362800Y-92637200D01*
%TO.N,TX-*%
X129900000Y-90290000D02*
X132710000Y-90290000D01*
X133500000Y-89500000D02*
X136851180Y-89500000D01*
X132710000Y-90290000D02*
X133500000Y-89500000D01*
X136851180Y-89500000D02*
X137751679Y-90400499D01*
X173099501Y-90400499D02*
X179500000Y-84000000D01*
X137751679Y-90400499D02*
X173099501Y-90400499D01*
%TO.N,RX+*%
X171400499Y-87599501D02*
X174000000Y-85000000D01*
X175200000Y-80300000D02*
X180300000Y-80300000D01*
X132900499Y-87599501D02*
X171400499Y-87599501D01*
X131480000Y-89020000D02*
X132900499Y-87599501D01*
X174000000Y-81500000D02*
X175200000Y-80300000D01*
X127360000Y-89020000D02*
X131480000Y-89020000D01*
X174000000Y-85000000D02*
X174000000Y-81500000D01*
%TO.N,RX-*%
X174200000Y-79100000D02*
X181400000Y-79100000D01*
X133000000Y-87000000D02*
X170500000Y-87000000D01*
X170500000Y-87000000D02*
X173100000Y-84400000D01*
X127360000Y-86480000D02*
X132480000Y-86480000D01*
X173100000Y-80200000D02*
X174200000Y-79100000D01*
X173100000Y-84400000D02*
X173100000Y-80200000D01*
X132480000Y-86480000D02*
X133000000Y-87000000D01*
D15*
%TO.N,LED1*%
X160750000Y-93850000D02*
X161600000Y-93000000D01*
X134730000Y-93850000D02*
X160750000Y-93850000D01*
D17*
%TO.N,+3.3V*%
X176500000Y-82500000D02*
X183000000Y-82500000D01*
D16*
X186100000Y-83000000D02*
X186100000Y-83100000D01*
X186150000Y-82350000D02*
X186100000Y-82400000D01*
X186100000Y-83100000D02*
X186150000Y-83150000D01*
D15*
X183500000Y-83000000D02*
X186100000Y-83000000D01*
D16*
X186100000Y-82400000D02*
X186100000Y-83000000D01*
D15*
X183000000Y-82500000D02*
X183500000Y-83000000D01*
D16*
X190754000Y-82350000D02*
X186150000Y-82350000D01*
X186150000Y-83150000D02*
X190754000Y-83150000D01*
D15*
%TO.N,Net-(P2-Pin_78)*%
X186720000Y-71150000D02*
X186436000Y-70866000D01*
X186436000Y-70866000D02*
X186436000Y-70612000D01*
X186436000Y-70612000D02*
X186698000Y-70350000D01*
X186698000Y-70350000D02*
X190754000Y-70350000D01*
X190754000Y-71150000D02*
X186720000Y-71150000D01*
%TD*%
%TA.AperFunction,Conductor*%
%TO.N,GND*%
G36*
X187020621Y-59702502D02*
G01*
X187067114Y-59756158D01*
X187078500Y-59808500D01*
X187078500Y-69465500D01*
X187058498Y-69533621D01*
X187004842Y-69580114D01*
X186952500Y-69591500D01*
X186762442Y-69591500D01*
X186744182Y-69590170D01*
X186720212Y-69586659D01*
X186720211Y-69586659D01*
X186694075Y-69588945D01*
X186670353Y-69591021D01*
X186659372Y-69591500D01*
X186653820Y-69591500D01*
X186650182Y-69591925D01*
X186650167Y-69591926D01*
X186622711Y-69595135D01*
X186619070Y-69595507D01*
X186542260Y-69602227D01*
X186523123Y-69606470D01*
X186450634Y-69632853D01*
X186447176Y-69634055D01*
X186374000Y-69658303D01*
X186356372Y-69666838D01*
X186291918Y-69709229D01*
X186288831Y-69711196D01*
X186223218Y-69751667D01*
X186208032Y-69764038D01*
X186155087Y-69820156D01*
X186152534Y-69822783D01*
X185945225Y-70030092D01*
X185931377Y-70042061D01*
X185911944Y-70056529D01*
X185879773Y-70094868D01*
X185872360Y-70102958D01*
X185871017Y-70104301D01*
X185871011Y-70104307D01*
X185868420Y-70106899D01*
X185866149Y-70109770D01*
X185866140Y-70109781D01*
X185848997Y-70131460D01*
X185846688Y-70134294D01*
X185797119Y-70193369D01*
X185786589Y-70209899D01*
X185753995Y-70279794D01*
X185752401Y-70283087D01*
X185717795Y-70351997D01*
X185711363Y-70370500D01*
X185695759Y-70446064D01*
X185694967Y-70449637D01*
X185677192Y-70524640D01*
X185675202Y-70544115D01*
X185677447Y-70621258D01*
X185677500Y-70624922D01*
X185677500Y-70801559D01*
X185676170Y-70819820D01*
X185672658Y-70843790D01*
X185677020Y-70893633D01*
X185677500Y-70904616D01*
X185677500Y-70910180D01*
X185677924Y-70913815D01*
X185677926Y-70913834D01*
X185681135Y-70941291D01*
X185681507Y-70944932D01*
X185688228Y-71021744D01*
X185692469Y-71040873D01*
X185718846Y-71113342D01*
X185720049Y-71116804D01*
X185744304Y-71190000D01*
X185752837Y-71207627D01*
X185795232Y-71272084D01*
X185797171Y-71275127D01*
X185836970Y-71339651D01*
X185837674Y-71340792D01*
X185850038Y-71355967D01*
X185906155Y-71408911D01*
X185908784Y-71411465D01*
X186138092Y-71640773D01*
X186150060Y-71654620D01*
X186164531Y-71674058D01*
X186202870Y-71706228D01*
X186210974Y-71713655D01*
X186214900Y-71717581D01*
X186217780Y-71719858D01*
X186239455Y-71736997D01*
X186242296Y-71739311D01*
X186301377Y-71788885D01*
X186317890Y-71799405D01*
X186387786Y-71831998D01*
X186391078Y-71833591D01*
X186458812Y-71867609D01*
X186458814Y-71867609D01*
X186460008Y-71868209D01*
X186478490Y-71874633D01*
X186479791Y-71874901D01*
X186479794Y-71874903D01*
X186554078Y-71890241D01*
X186557630Y-71891029D01*
X186631344Y-71908500D01*
X186631346Y-71908500D01*
X186632641Y-71908807D01*
X186652114Y-71910797D01*
X186653439Y-71910758D01*
X186653442Y-71910759D01*
X186727477Y-71908604D01*
X186729259Y-71908553D01*
X186732923Y-71908500D01*
X187453000Y-71908500D01*
X187521121Y-71928502D01*
X187567614Y-71982158D01*
X187579000Y-72034500D01*
X187579000Y-81515500D01*
X187558998Y-81583621D01*
X187505342Y-81630114D01*
X187453000Y-81641500D01*
X186175223Y-81641500D01*
X186167616Y-81641270D01*
X186165540Y-81641144D01*
X186106906Y-81637597D01*
X186047090Y-81648559D01*
X186039569Y-81649704D01*
X185979197Y-81657035D01*
X185969662Y-81660651D01*
X185947711Y-81666770D01*
X185945609Y-81667155D01*
X185937668Y-81668611D01*
X185882213Y-81693569D01*
X185875186Y-81696480D01*
X185818322Y-81718046D01*
X185809926Y-81723842D01*
X185790076Y-81735038D01*
X185780776Y-81739224D01*
X185780774Y-81739225D01*
X185780775Y-81739225D01*
X185732899Y-81776731D01*
X185726785Y-81781230D01*
X185676730Y-81815781D01*
X185636388Y-81861317D01*
X185631172Y-81866856D01*
X185616856Y-81881172D01*
X185611317Y-81886388D01*
X185565782Y-81926729D01*
X185531238Y-81976773D01*
X185526731Y-81982898D01*
X185489224Y-82030774D01*
X185485036Y-82040078D01*
X185473843Y-82059923D01*
X185468048Y-82068319D01*
X185446482Y-82125183D01*
X185443570Y-82132211D01*
X185427819Y-82167210D01*
X185381623Y-82221121D01*
X185313613Y-82241498D01*
X185312919Y-82241500D01*
X184068913Y-82241500D01*
X184000792Y-82221498D01*
X183954299Y-82167842D01*
X183948339Y-82152076D01*
X183942312Y-82132211D01*
X183936241Y-82112196D01*
X183842595Y-81936996D01*
X183842593Y-81936992D01*
X183716568Y-81783431D01*
X183563007Y-81657406D01*
X183387802Y-81563758D01*
X183197701Y-81506091D01*
X183052627Y-81491803D01*
X183052619Y-81491802D01*
X183049547Y-81491500D01*
X176450453Y-81491500D01*
X176447381Y-81491802D01*
X176447372Y-81491803D01*
X176302298Y-81506091D01*
X176112197Y-81563758D01*
X175936992Y-81657406D01*
X175783431Y-81783431D01*
X175657406Y-81936992D01*
X175563758Y-82112197D01*
X175506091Y-82302298D01*
X175486619Y-82499999D01*
X175506091Y-82697701D01*
X175563758Y-82887802D01*
X175657406Y-83063007D01*
X175783431Y-83216568D01*
X175936992Y-83342593D01*
X175936996Y-83342595D01*
X176112196Y-83436241D01*
X176207247Y-83465074D01*
X176302298Y-83493908D01*
X176324474Y-83496092D01*
X176450453Y-83508500D01*
X178531021Y-83508500D01*
X178599142Y-83528502D01*
X178645635Y-83582158D01*
X178655739Y-83652432D01*
X178650854Y-83673436D01*
X178606458Y-83810070D01*
X178601550Y-83856769D01*
X178574536Y-83922426D01*
X178565335Y-83932692D01*
X172842936Y-89655094D01*
X172780624Y-89689119D01*
X172753841Y-89691999D01*
X138097339Y-89691999D01*
X138029218Y-89671997D01*
X138008244Y-89655094D01*
X137370007Y-89016857D01*
X137364790Y-89011316D01*
X137364783Y-89011308D01*
X137324453Y-88965785D01*
X137274404Y-88931238D01*
X137274400Y-88931235D01*
X137268272Y-88926725D01*
X137220404Y-88889223D01*
X137211102Y-88885036D01*
X137191248Y-88873839D01*
X137189961Y-88872951D01*
X137182855Y-88868046D01*
X137182853Y-88868045D01*
X137126002Y-88846483D01*
X137118974Y-88843572D01*
X137063509Y-88818610D01*
X137053469Y-88816770D01*
X137031512Y-88810649D01*
X137021981Y-88807035D01*
X136961612Y-88799704D01*
X136954094Y-88798559D01*
X136946333Y-88797137D01*
X136894273Y-88787597D01*
X136833570Y-88791270D01*
X136825962Y-88791500D01*
X133525223Y-88791500D01*
X133517616Y-88791270D01*
X133515540Y-88791144D01*
X133456906Y-88787597D01*
X133397090Y-88798559D01*
X133389569Y-88799704D01*
X133329197Y-88807035D01*
X133319662Y-88810651D01*
X133297711Y-88816770D01*
X133295609Y-88817155D01*
X133287668Y-88818611D01*
X133232211Y-88843570D01*
X133225183Y-88846482D01*
X133168319Y-88868048D01*
X133159923Y-88873843D01*
X133140078Y-88885036D01*
X133130774Y-88889224D01*
X133082898Y-88926731D01*
X133076773Y-88931238D01*
X133026729Y-88965782D01*
X132986396Y-89011308D01*
X132981181Y-89016847D01*
X132453435Y-89544595D01*
X132391122Y-89578620D01*
X132364339Y-89581500D01*
X132224659Y-89581500D01*
X132156538Y-89561498D01*
X132110045Y-89507842D01*
X132099941Y-89437568D01*
X132129435Y-89372988D01*
X132135564Y-89366405D01*
X132612745Y-88889225D01*
X133157063Y-88344906D01*
X133219376Y-88310880D01*
X133246159Y-88308001D01*
X171375281Y-88308001D01*
X171382889Y-88308231D01*
X171443590Y-88311903D01*
X171443590Y-88311902D01*
X171443592Y-88311903D01*
X171503440Y-88300935D01*
X171510897Y-88299800D01*
X171571300Y-88292466D01*
X171580827Y-88288852D01*
X171602793Y-88282728D01*
X171612828Y-88280890D01*
X171668296Y-88255924D01*
X171675301Y-88253023D01*
X171732174Y-88231455D01*
X171740568Y-88225660D01*
X171760425Y-88214461D01*
X171769725Y-88210276D01*
X171817639Y-88172736D01*
X171823678Y-88168292D01*
X171873772Y-88133716D01*
X171914111Y-88088181D01*
X171919310Y-88082658D01*
X174483157Y-85518811D01*
X174488683Y-85513610D01*
X174500631Y-85503025D01*
X174534215Y-85473273D01*
X174568774Y-85423204D01*
X174573256Y-85417113D01*
X174610775Y-85369225D01*
X174614956Y-85359934D01*
X174626163Y-85340064D01*
X174631955Y-85331673D01*
X174653516Y-85274818D01*
X174656418Y-85267809D01*
X174681389Y-85212329D01*
X174683228Y-85202290D01*
X174689350Y-85180332D01*
X174692965Y-85170801D01*
X174700299Y-85110396D01*
X174701433Y-85102945D01*
X174712402Y-85043092D01*
X174709795Y-84999999D01*
X174708730Y-84982384D01*
X174708500Y-84974776D01*
X174708500Y-81845660D01*
X174728502Y-81777539D01*
X174745405Y-81756565D01*
X175456565Y-81045405D01*
X175518877Y-81011379D01*
X175545660Y-81008500D01*
X179688595Y-81008500D01*
X179756716Y-81028502D01*
X179762655Y-81032563D01*
X179843248Y-81091118D01*
X180017712Y-81168794D01*
X180204513Y-81208500D01*
X180204515Y-81208500D01*
X180395485Y-81208500D01*
X180395487Y-81208500D01*
X180582288Y-81168794D01*
X180756752Y-81091118D01*
X180911253Y-80978866D01*
X181039040Y-80836944D01*
X181134527Y-80671556D01*
X181193542Y-80489928D01*
X181213504Y-80300000D01*
X181197493Y-80147668D01*
X181210265Y-80077832D01*
X181258767Y-80025986D01*
X181322803Y-80008500D01*
X181495485Y-80008500D01*
X181495487Y-80008500D01*
X181682288Y-79968794D01*
X181856752Y-79891118D01*
X182011253Y-79778866D01*
X182139040Y-79636944D01*
X182234527Y-79471556D01*
X182293542Y-79289928D01*
X182313504Y-79100000D01*
X182293542Y-78910072D01*
X182234527Y-78728444D01*
X182234527Y-78728443D01*
X182139041Y-78563057D01*
X182058712Y-78473843D01*
X182011253Y-78421134D01*
X182007780Y-78418611D01*
X181856753Y-78308883D01*
X181856752Y-78308882D01*
X181682288Y-78231206D01*
X181495487Y-78191500D01*
X181304513Y-78191500D01*
X181179979Y-78217970D01*
X181117711Y-78231206D01*
X180943246Y-78308883D01*
X180862656Y-78367436D01*
X180795788Y-78391294D01*
X180788595Y-78391500D01*
X174225223Y-78391500D01*
X174217616Y-78391270D01*
X174215540Y-78391144D01*
X174156906Y-78387597D01*
X174097090Y-78398559D01*
X174089569Y-78399704D01*
X174029197Y-78407035D01*
X174019662Y-78410651D01*
X173997711Y-78416770D01*
X173995609Y-78417155D01*
X173987668Y-78418611D01*
X173932211Y-78443570D01*
X173925183Y-78446482D01*
X173868319Y-78468048D01*
X173859923Y-78473843D01*
X173840078Y-78485036D01*
X173830774Y-78489224D01*
X173782898Y-78526731D01*
X173776773Y-78531238D01*
X173726729Y-78565782D01*
X173686388Y-78611317D01*
X173681172Y-78616856D01*
X172616856Y-79681172D01*
X172611317Y-79686388D01*
X172565782Y-79726729D01*
X172531238Y-79776773D01*
X172526731Y-79782898D01*
X172489224Y-79830774D01*
X172485036Y-79840078D01*
X172473843Y-79859923D01*
X172468048Y-79868319D01*
X172446482Y-79925183D01*
X172443570Y-79932211D01*
X172418611Y-79987668D01*
X172416771Y-79997710D01*
X172410651Y-80019662D01*
X172407035Y-80029197D01*
X172399705Y-80089554D01*
X172398561Y-80097071D01*
X172387597Y-80156906D01*
X172391270Y-80217608D01*
X172391500Y-80225217D01*
X172391500Y-84054340D01*
X172371498Y-84122461D01*
X172354595Y-84143435D01*
X170243435Y-86254595D01*
X170181123Y-86288621D01*
X170154340Y-86291500D01*
X135997938Y-86291500D01*
X135929817Y-86271498D01*
X135883324Y-86217842D01*
X135873220Y-86147568D01*
X135883741Y-86112255D01*
X135976358Y-85913637D01*
X136036197Y-85690318D01*
X136056347Y-85460000D01*
X136041060Y-85285266D01*
X136055048Y-85215667D01*
X136077481Y-85185198D01*
X136189812Y-85072868D01*
X136252126Y-85038843D01*
X136278908Y-85035964D01*
X167911093Y-85035964D01*
X167979214Y-85055966D01*
X168000188Y-85072869D01*
X168079874Y-85152555D01*
X168110612Y-85202714D01*
X168165472Y-85371555D01*
X168260958Y-85536942D01*
X168260960Y-85536944D01*
X168388747Y-85678866D01*
X168543248Y-85791118D01*
X168717712Y-85868794D01*
X168904513Y-85908500D01*
X168904515Y-85908500D01*
X169095485Y-85908500D01*
X169095487Y-85908500D01*
X169282288Y-85868794D01*
X169456752Y-85791118D01*
X169611253Y-85678866D01*
X169739040Y-85536944D01*
X169834527Y-85371556D01*
X169893542Y-85189928D01*
X169913504Y-85000000D01*
X169893542Y-84810072D01*
X169834527Y-84628444D01*
X169834527Y-84628443D01*
X169739041Y-84463057D01*
X169611252Y-84321133D01*
X169497307Y-84238347D01*
X169456752Y-84208882D01*
X169282288Y-84131206D01*
X169282284Y-84131204D01*
X169219228Y-84117801D01*
X169156755Y-84084072D01*
X169156331Y-84083650D01*
X168859373Y-83786692D01*
X168847401Y-83772839D01*
X168832934Y-83753407D01*
X168794591Y-83721233D01*
X168786488Y-83713807D01*
X168785158Y-83712477D01*
X168782565Y-83709884D01*
X168779699Y-83707617D01*
X168779688Y-83707608D01*
X168757994Y-83690455D01*
X168755172Y-83688156D01*
X168697104Y-83639432D01*
X168697103Y-83639431D01*
X168696085Y-83638577D01*
X168679574Y-83628058D01*
X168609669Y-83595460D01*
X168606373Y-83593865D01*
X168594963Y-83588135D01*
X168580338Y-83580790D01*
X168537460Y-83559256D01*
X168518968Y-83552829D01*
X168443406Y-83537226D01*
X168439831Y-83536433D01*
X168364820Y-83518655D01*
X168345349Y-83516666D01*
X168268205Y-83518911D01*
X168264541Y-83518964D01*
X136101624Y-83518964D01*
X136033503Y-83498962D01*
X135987010Y-83445306D01*
X135976906Y-83375032D01*
X135979918Y-83360352D01*
X136036196Y-83150322D01*
X136036196Y-83150321D01*
X136036197Y-83150318D01*
X136056347Y-82920000D01*
X136036197Y-82689682D01*
X136029623Y-82665149D01*
X136018418Y-82623332D01*
X135976358Y-82466363D01*
X135878650Y-82256827D01*
X135777380Y-82112198D01*
X135746040Y-82067439D01*
X135582562Y-81903961D01*
X135393173Y-81771349D01*
X135183635Y-81673641D01*
X134960322Y-81613803D01*
X134776063Y-81597682D01*
X134730000Y-81593653D01*
X134729999Y-81593653D01*
X134499677Y-81613803D01*
X134276366Y-81673641D01*
X134276365Y-81673641D01*
X134276363Y-81673642D01*
X134098534Y-81756565D01*
X134066823Y-81771352D01*
X133877439Y-81903959D01*
X133713959Y-82067439D01*
X133581352Y-82256823D01*
X133581350Y-82256826D01*
X133581350Y-82256827D01*
X133484593Y-82464325D01*
X133483641Y-82466366D01*
X133423803Y-82689677D01*
X133403653Y-82920000D01*
X133423803Y-83150322D01*
X133483641Y-83373635D01*
X133581349Y-83583173D01*
X133713961Y-83772562D01*
X133877437Y-83936038D01*
X133877440Y-83936040D01*
X133877441Y-83936041D01*
X133933396Y-83975221D01*
X134066826Y-84068650D01*
X134082170Y-84075805D01*
X134135455Y-84122721D01*
X134154917Y-84190998D01*
X134134376Y-84258958D01*
X134082173Y-84304194D01*
X134066825Y-84311351D01*
X133877439Y-84443959D01*
X133713959Y-84607439D01*
X133581352Y-84796823D01*
X133581350Y-84796826D01*
X133581350Y-84796827D01*
X133486697Y-84999813D01*
X133483641Y-85006366D01*
X133423803Y-85229677D01*
X133403653Y-85460000D01*
X133423803Y-85690322D01*
X133467619Y-85853839D01*
X133483642Y-85913637D01*
X133576257Y-86112252D01*
X133586918Y-86182442D01*
X133557938Y-86247255D01*
X133498518Y-86286111D01*
X133462062Y-86291500D01*
X133345660Y-86291500D01*
X133277539Y-86271498D01*
X133256565Y-86254595D01*
X132998827Y-85996857D01*
X132993610Y-85991316D01*
X132953273Y-85945785D01*
X132922743Y-85924711D01*
X132903220Y-85911235D01*
X132897092Y-85906725D01*
X132849224Y-85869223D01*
X132839922Y-85865036D01*
X132820068Y-85853839D01*
X132818781Y-85852951D01*
X132811675Y-85848046D01*
X132811673Y-85848045D01*
X132754822Y-85826483D01*
X132747794Y-85823572D01*
X132692329Y-85798610D01*
X132682289Y-85796770D01*
X132660332Y-85790649D01*
X132650801Y-85787035D01*
X132590432Y-85779704D01*
X132582914Y-85778559D01*
X132575153Y-85777137D01*
X132523093Y-85767597D01*
X132462390Y-85771270D01*
X132454782Y-85771500D01*
X131229072Y-85771500D01*
X131160951Y-85751498D01*
X131114458Y-85697842D01*
X131104354Y-85627568D01*
X131107365Y-85612889D01*
X131133292Y-85516127D01*
X131155978Y-85431463D01*
X131175353Y-85210000D01*
X131155978Y-84988537D01*
X131154329Y-84982384D01*
X131114954Y-84835436D01*
X131098440Y-84773804D01*
X131004488Y-84572324D01*
X130992641Y-84555405D01*
X130902334Y-84426433D01*
X130876977Y-84390219D01*
X130876976Y-84390218D01*
X130876974Y-84390215D01*
X130719784Y-84233025D01*
X130537678Y-84105512D01*
X130427938Y-84054340D01*
X130336196Y-84011560D01*
X130322709Y-84007946D01*
X130121467Y-83954022D01*
X129900000Y-83934647D01*
X129678532Y-83954022D01*
X129463807Y-84011559D01*
X129463806Y-84011559D01*
X129463804Y-84011560D01*
X129403442Y-84039707D01*
X129262322Y-84105512D01*
X129080215Y-84233025D01*
X128923025Y-84390215D01*
X128795512Y-84572322D01*
X128740118Y-84691116D01*
X128703897Y-84768794D01*
X128701559Y-84773807D01*
X128644022Y-84988532D01*
X128624647Y-85210000D01*
X128644022Y-85431463D01*
X128692635Y-85612889D01*
X128690945Y-85683865D01*
X128651151Y-85742661D01*
X128585887Y-85770609D01*
X128570928Y-85771500D01*
X128480488Y-85771500D01*
X128412367Y-85751498D01*
X128377275Y-85717770D01*
X128336976Y-85660217D01*
X128179784Y-85503025D01*
X127997676Y-85375511D01*
X127887035Y-85323919D01*
X127833749Y-85277002D01*
X127814288Y-85208725D01*
X127834830Y-85140765D01*
X127887035Y-85095529D01*
X127997425Y-85044053D01*
X128060603Y-84999814D01*
X128060603Y-84999812D01*
X127443316Y-84382525D01*
X127494138Y-84374865D01*
X127616357Y-84316007D01*
X127715798Y-84223740D01*
X127783625Y-84106260D01*
X127802550Y-84023341D01*
X128419812Y-84640603D01*
X128419814Y-84640603D01*
X128464052Y-84577427D01*
X128557968Y-84376024D01*
X128615482Y-84161376D01*
X128634850Y-83939999D01*
X128615482Y-83718623D01*
X128557968Y-83503975D01*
X128464051Y-83302571D01*
X128419815Y-83239395D01*
X128419813Y-83239395D01*
X127804844Y-83854364D01*
X127803673Y-83838735D01*
X127754113Y-83712459D01*
X127669535Y-83606401D01*
X127557453Y-83529984D01*
X127445376Y-83495413D01*
X128060603Y-82880185D01*
X128060603Y-82880184D01*
X127997426Y-82835947D01*
X127796024Y-82742031D01*
X127581376Y-82684517D01*
X127360000Y-82665149D01*
X127138623Y-82684517D01*
X126923975Y-82742031D01*
X126722572Y-82835948D01*
X126659394Y-82880185D01*
X127276683Y-83497474D01*
X127225862Y-83505135D01*
X127103643Y-83563993D01*
X127004202Y-83656260D01*
X126936375Y-83773740D01*
X126917449Y-83856658D01*
X126300185Y-83239394D01*
X126255948Y-83302572D01*
X126162031Y-83503975D01*
X126104517Y-83718623D01*
X126085149Y-83939999D01*
X126104517Y-84161376D01*
X126162031Y-84376024D01*
X126255947Y-84577426D01*
X126300184Y-84640603D01*
X126300185Y-84640603D01*
X126915155Y-84025632D01*
X126916327Y-84041265D01*
X126965887Y-84167541D01*
X127050465Y-84273599D01*
X127162547Y-84350016D01*
X127274623Y-84384586D01*
X126659395Y-84999813D01*
X126659395Y-84999814D01*
X126722573Y-85044052D01*
X126832965Y-85095529D01*
X126886250Y-85142446D01*
X126905711Y-85210724D01*
X126885169Y-85278683D01*
X126832965Y-85323919D01*
X126722323Y-85375512D01*
X126540215Y-85503025D01*
X126383025Y-85660215D01*
X126255512Y-85842322D01*
X126161559Y-86043807D01*
X126104022Y-86258532D01*
X126084647Y-86480000D01*
X126104022Y-86701467D01*
X126127979Y-86790872D01*
X126161560Y-86916196D01*
X126222609Y-87047117D01*
X126255512Y-87117678D01*
X126383025Y-87299784D01*
X126540215Y-87456974D01*
X126540218Y-87456976D01*
X126540219Y-87456977D01*
X126568545Y-87476811D01*
X126722321Y-87584487D01*
X126722322Y-87584487D01*
X126722323Y-87584488D01*
X126832375Y-87635806D01*
X126885659Y-87682722D01*
X126905120Y-87750999D01*
X126884578Y-87818959D01*
X126832374Y-87864194D01*
X126802991Y-87877895D01*
X126722322Y-87915512D01*
X126540215Y-88043025D01*
X126383025Y-88200215D01*
X126255512Y-88382322D01*
X126161559Y-88583807D01*
X126104022Y-88798532D01*
X126084647Y-89020000D01*
X126104022Y-89241467D01*
X126137500Y-89366405D01*
X126161560Y-89456196D01*
X126185643Y-89507842D01*
X126255512Y-89657678D01*
X126383025Y-89839784D01*
X126540215Y-89996974D01*
X126722321Y-90124487D01*
X126722322Y-90124487D01*
X126722323Y-90124488D01*
X126832375Y-90175806D01*
X126885659Y-90222722D01*
X126905120Y-90290999D01*
X126884578Y-90358959D01*
X126832374Y-90404194D01*
X126802991Y-90417895D01*
X126722322Y-90455512D01*
X126540215Y-90583025D01*
X126383025Y-90740215D01*
X126255512Y-90922322D01*
X126194936Y-91052230D01*
X126182135Y-91079682D01*
X126161559Y-91123807D01*
X126104022Y-91338532D01*
X126084647Y-91560000D01*
X126104022Y-91781467D01*
X126143474Y-91928700D01*
X126161560Y-91996196D01*
X126206001Y-92091500D01*
X126255512Y-92197678D01*
X126383025Y-92379784D01*
X126540215Y-92536974D01*
X126722321Y-92664487D01*
X126722322Y-92664487D01*
X126722323Y-92664488D01*
X126923804Y-92758440D01*
X127059418Y-92794778D01*
X127138532Y-92815977D01*
X127138533Y-92815977D01*
X127138537Y-92815978D01*
X127360000Y-92835353D01*
X127581463Y-92815978D01*
X127796196Y-92758440D01*
X127997677Y-92664488D01*
X128179781Y-92536977D01*
X128336977Y-92379781D01*
X128464488Y-92197677D01*
X128558440Y-91996196D01*
X128615978Y-91781463D01*
X128635353Y-91560000D01*
X128615978Y-91338537D01*
X128608331Y-91310000D01*
X128596803Y-91266974D01*
X128558440Y-91123804D01*
X128464488Y-90922324D01*
X128458311Y-90913503D01*
X128336974Y-90740215D01*
X128179784Y-90583025D01*
X127997678Y-90455512D01*
X127947247Y-90431996D01*
X127887624Y-90404193D01*
X127834341Y-90357278D01*
X127814880Y-90289001D01*
X127835422Y-90221041D01*
X127887624Y-90175806D01*
X127997677Y-90124488D01*
X128179781Y-89996977D01*
X128336977Y-89839781D01*
X128377274Y-89782230D01*
X128432732Y-89737901D01*
X128480488Y-89728500D01*
X128570928Y-89728500D01*
X128639049Y-89748502D01*
X128685542Y-89802158D01*
X128695646Y-89872432D01*
X128692635Y-89887111D01*
X128644022Y-90068536D01*
X128624647Y-90290000D01*
X128644022Y-90511467D01*
X128680292Y-90646823D01*
X128701560Y-90726196D01*
X128758737Y-90848812D01*
X128795512Y-90927678D01*
X128923025Y-91109784D01*
X129080215Y-91266974D01*
X129262321Y-91394487D01*
X129262322Y-91394487D01*
X129262323Y-91394488D01*
X129372375Y-91445806D01*
X129425659Y-91492722D01*
X129445120Y-91560999D01*
X129424578Y-91628959D01*
X129372374Y-91674194D01*
X129356950Y-91681387D01*
X129262322Y-91725512D01*
X129080215Y-91853025D01*
X128923025Y-92010215D01*
X128795512Y-92192322D01*
X128701559Y-92393807D01*
X128644022Y-92608532D01*
X128624647Y-92830000D01*
X128644022Y-93051467D01*
X128681124Y-93189928D01*
X128701560Y-93266196D01*
X128750690Y-93371556D01*
X128795512Y-93467678D01*
X128923025Y-93649784D01*
X129080215Y-93806974D01*
X129262321Y-93934487D01*
X129262322Y-93934487D01*
X129262323Y-93934488D01*
X129463804Y-94028440D01*
X129614739Y-94068883D01*
X129678532Y-94085977D01*
X129678533Y-94085977D01*
X129678537Y-94085978D01*
X129900000Y-94105353D01*
X130121463Y-94085978D01*
X130336196Y-94028440D01*
X130537677Y-93934488D01*
X130719781Y-93806977D01*
X130876977Y-93649781D01*
X131004488Y-93467677D01*
X131027443Y-93418449D01*
X131074361Y-93365165D01*
X131141638Y-93345700D01*
X133333010Y-93345700D01*
X133401131Y-93365702D01*
X133447624Y-93419358D01*
X133457728Y-93489632D01*
X133454717Y-93504311D01*
X133423803Y-93619681D01*
X133403653Y-93850000D01*
X133423803Y-94080322D01*
X133483641Y-94303635D01*
X133581349Y-94513173D01*
X133713961Y-94702562D01*
X133877437Y-94866038D01*
X133877440Y-94866040D01*
X133877441Y-94866041D01*
X134066826Y-94998650D01*
X134276363Y-95096358D01*
X134374826Y-95122741D01*
X134499677Y-95156196D01*
X134499678Y-95156196D01*
X134499682Y-95156197D01*
X134730000Y-95176347D01*
X134960318Y-95156197D01*
X135183637Y-95096358D01*
X135393174Y-94998650D01*
X135582559Y-94866041D01*
X135746041Y-94702559D01*
X135774279Y-94662230D01*
X135829737Y-94617901D01*
X135877493Y-94608500D01*
X160685559Y-94608500D01*
X160703820Y-94609830D01*
X160727789Y-94613341D01*
X160774253Y-94609275D01*
X160777647Y-94608979D01*
X160788628Y-94608500D01*
X160790513Y-94608500D01*
X160794180Y-94608500D01*
X160825301Y-94604861D01*
X160828896Y-94604494D01*
X160904426Y-94597887D01*
X160904430Y-94597885D01*
X160905751Y-94597770D01*
X160924856Y-94593535D01*
X160926106Y-94593079D01*
X160926113Y-94593079D01*
X160997400Y-94567132D01*
X161000769Y-94565961D01*
X161072738Y-94542114D01*
X161072739Y-94542112D01*
X161074007Y-94541693D01*
X161091613Y-94533169D01*
X161092725Y-94532437D01*
X161092732Y-94532435D01*
X161156138Y-94490730D01*
X161159161Y-94488806D01*
X161223651Y-94449030D01*
X161223652Y-94449028D01*
X161224788Y-94448328D01*
X161239959Y-94435970D01*
X161240871Y-94435002D01*
X161240874Y-94435001D01*
X161292929Y-94379824D01*
X161295448Y-94377231D01*
X161756332Y-93916347D01*
X161818642Y-93882323D01*
X161818946Y-93882257D01*
X161882288Y-93868794D01*
X162056752Y-93791118D01*
X162211253Y-93678866D01*
X162339040Y-93536944D01*
X162434527Y-93371556D01*
X162493542Y-93189928D01*
X162513504Y-93000000D01*
X162493542Y-92810072D01*
X162434527Y-92628444D01*
X162434527Y-92628443D01*
X162339041Y-92463057D01*
X162211252Y-92321133D01*
X162133263Y-92264471D01*
X162056752Y-92208882D01*
X161882288Y-92131206D01*
X161695487Y-92091500D01*
X161504513Y-92091500D01*
X161379979Y-92117970D01*
X161317711Y-92131206D01*
X161143246Y-92208883D01*
X160988747Y-92321133D01*
X160860958Y-92463057D01*
X160765473Y-92628442D01*
X160710613Y-92797283D01*
X160679876Y-92847441D01*
X160472724Y-93054595D01*
X160410412Y-93088620D01*
X160383628Y-93091500D01*
X137214660Y-93091500D01*
X137146539Y-93071498D01*
X137100046Y-93017842D01*
X137089942Y-92947568D01*
X137119436Y-92882988D01*
X137125565Y-92876405D01*
X137604682Y-92397289D01*
X138256565Y-91745405D01*
X138318878Y-91711379D01*
X138345661Y-91708500D01*
X173974782Y-91708500D01*
X173982390Y-91708730D01*
X174043091Y-91712402D01*
X174043091Y-91712401D01*
X174043093Y-91712402D01*
X174102941Y-91701434D01*
X174110398Y-91700299D01*
X174170801Y-91692965D01*
X174180328Y-91689351D01*
X174202294Y-91683227D01*
X174212329Y-91681389D01*
X174267797Y-91656423D01*
X174274802Y-91653522D01*
X174331675Y-91631954D01*
X174340069Y-91626159D01*
X174359926Y-91614960D01*
X174369226Y-91610775D01*
X174417140Y-91573235D01*
X174423179Y-91568791D01*
X174473273Y-91534215D01*
X174513612Y-91488680D01*
X174518811Y-91483157D01*
X181166535Y-84835434D01*
X181228845Y-84801410D01*
X181229048Y-84801366D01*
X181382288Y-84768794D01*
X181556752Y-84691118D01*
X181711253Y-84578866D01*
X181839040Y-84436944D01*
X181934527Y-84271556D01*
X181993542Y-84089928D01*
X182013504Y-83900000D01*
X181993542Y-83710072D01*
X181981637Y-83673435D01*
X181979611Y-83602468D01*
X182016273Y-83541670D01*
X182079985Y-83510345D01*
X182101471Y-83508500D01*
X182880130Y-83508500D01*
X182948251Y-83528502D01*
X182961117Y-83537975D01*
X182978500Y-83552561D01*
X182982871Y-83556229D01*
X182990974Y-83563655D01*
X182994900Y-83567581D01*
X182997780Y-83569858D01*
X183019455Y-83586997D01*
X183022296Y-83589311D01*
X183054072Y-83615974D01*
X183068933Y-83628444D01*
X183081377Y-83638885D01*
X183097890Y-83649405D01*
X183099094Y-83649966D01*
X183099095Y-83649967D01*
X183149424Y-83673436D01*
X183167786Y-83681998D01*
X183171078Y-83683591D01*
X183238812Y-83717609D01*
X183238814Y-83717609D01*
X183240008Y-83718209D01*
X183258490Y-83724633D01*
X183259791Y-83724901D01*
X183259794Y-83724903D01*
X183334078Y-83740241D01*
X183337630Y-83741029D01*
X183411344Y-83758500D01*
X183411346Y-83758500D01*
X183412641Y-83758807D01*
X183432114Y-83760797D01*
X183433439Y-83760758D01*
X183433442Y-83760759D01*
X183507477Y-83758604D01*
X183509259Y-83758553D01*
X183512923Y-83758500D01*
X185745083Y-83758500D01*
X185813204Y-83778502D01*
X185816630Y-83780784D01*
X185818325Y-83781954D01*
X185875204Y-83803525D01*
X185882193Y-83806420D01*
X185937671Y-83831389D01*
X185947704Y-83833227D01*
X185969666Y-83839349D01*
X185979199Y-83842965D01*
X186039565Y-83850294D01*
X186047064Y-83851435D01*
X186106908Y-83862402D01*
X186167616Y-83858729D01*
X186175223Y-83858500D01*
X187453000Y-83858500D01*
X187521121Y-83878502D01*
X187567614Y-83932158D01*
X187579000Y-83984500D01*
X187578999Y-84347047D01*
X187558997Y-84415168D01*
X187505341Y-84461661D01*
X187488494Y-84467944D01*
X187480987Y-84470148D01*
X187463429Y-84473968D01*
X187436541Y-84477834D01*
X187411842Y-84489114D01*
X187395007Y-84495393D01*
X187368947Y-84503046D01*
X187346093Y-84517732D01*
X187330327Y-84526341D01*
X187305625Y-84537623D01*
X187285103Y-84555405D01*
X187270717Y-84566174D01*
X187247871Y-84580856D01*
X187230083Y-84601383D01*
X187217383Y-84614083D01*
X187196856Y-84631871D01*
X187182174Y-84654717D01*
X187171405Y-84669103D01*
X187153623Y-84689625D01*
X187142341Y-84714327D01*
X187133732Y-84730093D01*
X187119046Y-84752947D01*
X187111393Y-84779007D01*
X187105114Y-84795842D01*
X187093834Y-84820541D01*
X187089968Y-84847429D01*
X187086149Y-84864985D01*
X187078500Y-84891039D01*
X187078500Y-84927201D01*
X187078500Y-87050038D01*
X187078500Y-87050039D01*
X187078500Y-87193961D01*
X187085364Y-87217339D01*
X187086149Y-87220012D01*
X187089969Y-87237574D01*
X187093834Y-87264454D01*
X187093834Y-87264455D01*
X187093835Y-87264457D01*
X187099168Y-87276135D01*
X187105115Y-87289156D01*
X187111397Y-87305999D01*
X187119047Y-87332053D01*
X187133727Y-87354896D01*
X187142340Y-87370669D01*
X187153622Y-87395372D01*
X187171403Y-87415892D01*
X187182176Y-87430283D01*
X187196857Y-87453128D01*
X187217378Y-87470910D01*
X187230088Y-87483620D01*
X187247871Y-87504143D01*
X187270715Y-87518823D01*
X187285108Y-87529597D01*
X187305627Y-87547377D01*
X187330333Y-87558660D01*
X187346091Y-87567264D01*
X187368947Y-87581953D01*
X187395005Y-87589604D01*
X187411842Y-87595884D01*
X187436543Y-87607165D01*
X187463435Y-87611031D01*
X187480969Y-87614845D01*
X187488495Y-87617055D01*
X187548220Y-87655434D01*
X187577717Y-87720013D01*
X187579000Y-87737951D01*
X187579000Y-105175047D01*
X187558998Y-105243168D01*
X187505342Y-105289661D01*
X187488490Y-105295945D01*
X187480982Y-105298149D01*
X187463429Y-105301968D01*
X187436541Y-105305834D01*
X187411842Y-105317114D01*
X187395007Y-105323393D01*
X187368947Y-105331046D01*
X187346093Y-105345732D01*
X187330327Y-105354341D01*
X187305625Y-105365623D01*
X187285103Y-105383405D01*
X187270717Y-105394174D01*
X187247871Y-105408856D01*
X187230083Y-105429383D01*
X187217383Y-105442083D01*
X187196856Y-105459871D01*
X187182174Y-105482717D01*
X187171405Y-105497103D01*
X187153623Y-105517625D01*
X187142341Y-105542327D01*
X187133732Y-105558093D01*
X187119046Y-105580947D01*
X187111393Y-105607007D01*
X187105114Y-105623842D01*
X187093834Y-105648541D01*
X187089968Y-105675429D01*
X187086149Y-105692985D01*
X187078500Y-105719039D01*
X187078500Y-116975500D01*
X187058498Y-117043621D01*
X187004842Y-117090114D01*
X186952500Y-117101500D01*
X112894500Y-117101500D01*
X112826379Y-117081498D01*
X112779886Y-117027842D01*
X112768500Y-116975500D01*
X112768500Y-110209766D01*
X125645787Y-110209766D01*
X125675413Y-110479015D01*
X125675414Y-110479018D01*
X125743928Y-110741088D01*
X125849870Y-110990390D01*
X125990982Y-111221610D01*
X126164255Y-111429820D01*
X126164256Y-111429821D01*
X126164258Y-111429823D01*
X126365993Y-111610578D01*
X126365995Y-111610579D01*
X126365998Y-111610582D01*
X126591910Y-111760044D01*
X126724104Y-111822014D01*
X126837171Y-111875018D01*
X126837173Y-111875018D01*
X126837176Y-111875020D01*
X127096569Y-111953060D01*
X127096572Y-111953060D01*
X127096574Y-111953061D01*
X127364558Y-111992500D01*
X127364561Y-111992500D01*
X127565330Y-111992500D01*
X127567631Y-111992500D01*
X127770156Y-111977677D01*
X128034553Y-111918780D01*
X128287558Y-111822014D01*
X128523777Y-111689441D01*
X128738177Y-111523888D01*
X128926186Y-111328881D01*
X129083799Y-111108579D01*
X129207656Y-110867675D01*
X129295118Y-110611305D01*
X129344319Y-110344933D01*
X129349259Y-110209766D01*
X168145787Y-110209766D01*
X168175413Y-110479015D01*
X168175414Y-110479018D01*
X168243928Y-110741088D01*
X168349870Y-110990390D01*
X168490982Y-111221610D01*
X168664255Y-111429820D01*
X168664256Y-111429821D01*
X168664258Y-111429823D01*
X168865993Y-111610578D01*
X168865995Y-111610579D01*
X168865998Y-111610582D01*
X169091910Y-111760044D01*
X169224104Y-111822014D01*
X169337171Y-111875018D01*
X169337173Y-111875018D01*
X169337176Y-111875020D01*
X169596569Y-111953060D01*
X169596572Y-111953060D01*
X169596574Y-111953061D01*
X169864558Y-111992500D01*
X169864561Y-111992500D01*
X170065330Y-111992500D01*
X170067631Y-111992500D01*
X170270156Y-111977677D01*
X170534553Y-111918780D01*
X170787558Y-111822014D01*
X171023777Y-111689441D01*
X171238177Y-111523888D01*
X171426186Y-111328881D01*
X171583799Y-111108579D01*
X171707656Y-110867675D01*
X171795118Y-110611305D01*
X171844319Y-110344933D01*
X171854212Y-110074235D01*
X171824586Y-109804982D01*
X171756072Y-109542912D01*
X171650130Y-109293610D01*
X171509018Y-109062390D01*
X171335745Y-108854180D01*
X171230759Y-108760112D01*
X171134006Y-108673421D01*
X171134003Y-108673419D01*
X171134002Y-108673418D01*
X170908090Y-108523956D01*
X170908086Y-108523954D01*
X170662828Y-108408981D01*
X170403425Y-108330938D01*
X170135442Y-108291500D01*
X170135439Y-108291500D01*
X169932369Y-108291500D01*
X169930099Y-108291666D01*
X169930075Y-108291667D01*
X169729839Y-108306323D01*
X169465449Y-108365219D01*
X169212441Y-108461985D01*
X168976225Y-108594557D01*
X168761820Y-108760114D01*
X168573815Y-108955117D01*
X168416200Y-109175422D01*
X168292342Y-109416328D01*
X168204882Y-109672693D01*
X168155681Y-109939065D01*
X168145787Y-110209766D01*
X129349259Y-110209766D01*
X129354212Y-110074235D01*
X129324586Y-109804982D01*
X129256072Y-109542912D01*
X129150130Y-109293610D01*
X129009018Y-109062390D01*
X128835745Y-108854180D01*
X128730759Y-108760112D01*
X128634006Y-108673421D01*
X128634003Y-108673419D01*
X128634002Y-108673418D01*
X128408090Y-108523956D01*
X128408086Y-108523954D01*
X128162828Y-108408981D01*
X127903425Y-108330938D01*
X127635442Y-108291500D01*
X127635439Y-108291500D01*
X127432369Y-108291500D01*
X127430099Y-108291666D01*
X127430075Y-108291667D01*
X127229839Y-108306323D01*
X126965449Y-108365219D01*
X126712441Y-108461985D01*
X126476225Y-108594557D01*
X126261820Y-108760114D01*
X126073815Y-108955117D01*
X125916200Y-109175422D01*
X125792342Y-109416328D01*
X125704882Y-109672693D01*
X125655681Y-109939065D01*
X125645787Y-110209766D01*
X112768500Y-110209766D01*
X112768500Y-94168681D01*
X119130737Y-94168681D01*
X119160763Y-94441568D01*
X119184519Y-94532435D01*
X119230204Y-94707182D01*
X119337577Y-94959852D01*
X119480595Y-95194196D01*
X119656209Y-95405218D01*
X119860677Y-95588423D01*
X120089641Y-95739904D01*
X120338221Y-95856433D01*
X120601119Y-95935527D01*
X120601122Y-95935527D01*
X120601124Y-95935528D01*
X120872729Y-95975500D01*
X120872731Y-95975500D01*
X121076246Y-95975500D01*
X121078547Y-95975500D01*
X121283805Y-95960477D01*
X121551775Y-95900784D01*
X121808198Y-95802711D01*
X122047609Y-95668347D01*
X122047608Y-95668347D01*
X122047611Y-95668346D01*
X122180862Y-95565452D01*
X122247003Y-95539649D01*
X122316595Y-95553702D01*
X122367542Y-95603148D01*
X122383669Y-95672289D01*
X122375161Y-95711212D01*
X122356226Y-95759457D01*
X122296928Y-96019258D01*
X122277014Y-96285000D01*
X122296928Y-96550741D01*
X122356227Y-96810545D01*
X122453585Y-97058610D01*
X122586828Y-97289393D01*
X122635439Y-97350348D01*
X122635440Y-97350349D01*
X123341155Y-96644633D01*
X123430577Y-96786948D01*
X123558052Y-96914423D01*
X123700364Y-97003843D01*
X122994044Y-97710163D01*
X122994044Y-97710165D01*
X123168506Y-97829110D01*
X123408601Y-97944735D01*
X123663245Y-98023281D01*
X123926759Y-98063000D01*
X124193241Y-98063000D01*
X124456754Y-98023281D01*
X124711398Y-97944735D01*
X124951493Y-97829110D01*
X125125954Y-97710165D01*
X125125954Y-97710163D01*
X124419634Y-97003843D01*
X124561948Y-96914423D01*
X124689423Y-96786948D01*
X124778843Y-96644634D01*
X125484558Y-97350349D01*
X125484559Y-97350348D01*
X125533171Y-97289394D01*
X125666414Y-97058610D01*
X125763772Y-96810545D01*
X125823071Y-96550741D01*
X125842985Y-96284999D01*
X125823071Y-96019258D01*
X125763772Y-95759454D01*
X125666414Y-95511389D01*
X125533171Y-95280606D01*
X125484559Y-95219650D01*
X125484558Y-95219649D01*
X124778843Y-95925364D01*
X124689423Y-95783052D01*
X124561948Y-95655577D01*
X124419633Y-95566155D01*
X125125954Y-94859835D01*
X125125954Y-94859833D01*
X124951495Y-94740890D01*
X124711395Y-94625263D01*
X124456754Y-94546718D01*
X124193241Y-94507000D01*
X123926759Y-94507000D01*
X123663245Y-94546718D01*
X123408601Y-94625264D01*
X123168506Y-94740889D01*
X122965374Y-94879381D01*
X122897822Y-94901228D01*
X122829183Y-94883086D01*
X122781248Y-94830715D01*
X122769237Y-94760741D01*
X122775145Y-94734592D01*
X122786073Y-94702559D01*
X122829370Y-94575646D01*
X122879236Y-94305674D01*
X122889262Y-94031320D01*
X122859236Y-93758429D01*
X122789796Y-93492818D01*
X122682423Y-93240148D01*
X122539405Y-93005804D01*
X122363791Y-92794782D01*
X122159323Y-92611577D01*
X121930359Y-92460096D01*
X121681779Y-92343567D01*
X121607215Y-92321134D01*
X121418875Y-92264471D01*
X121147271Y-92224500D01*
X121147269Y-92224500D01*
X120941453Y-92224500D01*
X120939183Y-92224666D01*
X120939159Y-92224667D01*
X120736191Y-92239523D01*
X120468226Y-92299215D01*
X120211801Y-92397288D01*
X119972388Y-92531653D01*
X119755097Y-92699441D01*
X119564547Y-92897082D01*
X119404803Y-93120364D01*
X119279271Y-93364524D01*
X119190630Y-93624352D01*
X119140764Y-93894325D01*
X119130737Y-94168681D01*
X112768500Y-94168681D01*
X112768500Y-82738681D01*
X119130737Y-82738681D01*
X119160763Y-83011568D01*
X119160764Y-83011571D01*
X119230204Y-83277182D01*
X119271192Y-83373635D01*
X119332927Y-83518911D01*
X119337577Y-83529852D01*
X119480595Y-83764196D01*
X119656209Y-83975218D01*
X119860677Y-84158423D01*
X120089641Y-84309904D01*
X120338221Y-84426433D01*
X120601119Y-84505527D01*
X120601122Y-84505527D01*
X120601124Y-84505528D01*
X120872729Y-84545500D01*
X120872731Y-84545500D01*
X121076246Y-84545500D01*
X121078547Y-84545500D01*
X121283805Y-84530477D01*
X121551775Y-84470784D01*
X121808198Y-84372711D01*
X122047609Y-84238347D01*
X122047608Y-84238347D01*
X122047611Y-84238346D01*
X122186361Y-84131206D01*
X122264904Y-84070557D01*
X122455454Y-83872916D01*
X122615196Y-83649637D01*
X122740727Y-83405479D01*
X122829370Y-83145646D01*
X122879236Y-82875674D01*
X122889262Y-82601320D01*
X122859236Y-82328429D01*
X122789796Y-82062818D01*
X122783174Y-82047235D01*
X122774941Y-81976718D01*
X122806140Y-81912943D01*
X122866865Y-81876160D01*
X122937836Y-81878047D01*
X122970116Y-81893851D01*
X123168506Y-82029110D01*
X123408601Y-82144735D01*
X123663245Y-82223281D01*
X123926759Y-82263000D01*
X124193241Y-82263000D01*
X124456754Y-82223281D01*
X124711398Y-82144735D01*
X124951493Y-82029110D01*
X125125954Y-81910165D01*
X125125954Y-81910163D01*
X124419634Y-81203844D01*
X124561948Y-81114423D01*
X124689423Y-80986948D01*
X124778844Y-80844634D01*
X125484558Y-81550349D01*
X125484559Y-81550348D01*
X125533171Y-81489394D01*
X125666414Y-81258610D01*
X125763772Y-81010545D01*
X125823071Y-80750741D01*
X125842985Y-80484999D01*
X125823071Y-80219258D01*
X125763772Y-79959454D01*
X125666414Y-79711389D01*
X125533171Y-79480606D01*
X125484559Y-79419650D01*
X125484558Y-79419649D01*
X124778843Y-80125363D01*
X124689423Y-79983052D01*
X124561948Y-79855577D01*
X124419634Y-79766155D01*
X125125954Y-79059835D01*
X125125954Y-79059833D01*
X124951495Y-78940890D01*
X124711395Y-78825263D01*
X124456754Y-78746718D01*
X124193241Y-78707000D01*
X123926759Y-78707000D01*
X123663245Y-78746718D01*
X123408604Y-78825263D01*
X123168509Y-78940888D01*
X122994044Y-79059834D01*
X122994044Y-79059835D01*
X123700365Y-79766155D01*
X123558052Y-79855577D01*
X123430577Y-79983052D01*
X123341155Y-80125365D01*
X122635441Y-79419650D01*
X122635439Y-79419650D01*
X122586828Y-79480607D01*
X122453585Y-79711390D01*
X122356227Y-79959454D01*
X122296928Y-80219258D01*
X122277014Y-80485000D01*
X122296928Y-80750741D01*
X122356227Y-81010545D01*
X122372665Y-81052428D01*
X122378933Y-81123148D01*
X122345972Y-81186029D01*
X122284247Y-81221108D01*
X122213356Y-81217248D01*
X122171293Y-81192302D01*
X122159326Y-81181580D01*
X122159327Y-81181580D01*
X122159323Y-81181577D01*
X121930359Y-81030096D01*
X121681779Y-80913567D01*
X121681778Y-80913566D01*
X121418875Y-80834471D01*
X121147271Y-80794500D01*
X121147269Y-80794500D01*
X120941453Y-80794500D01*
X120939183Y-80794666D01*
X120939159Y-80794667D01*
X120736191Y-80809523D01*
X120468226Y-80869215D01*
X120211801Y-80967288D01*
X119972388Y-81101653D01*
X119755097Y-81269441D01*
X119564547Y-81467082D01*
X119404803Y-81690364D01*
X119279271Y-81934524D01*
X119190630Y-82194352D01*
X119140764Y-82464325D01*
X119130737Y-82738681D01*
X112768500Y-82738681D01*
X112768500Y-66709766D01*
X125645787Y-66709766D01*
X125675413Y-66979015D01*
X125675414Y-66979018D01*
X125743928Y-67241088D01*
X125849870Y-67490390D01*
X125990982Y-67721610D01*
X126164255Y-67929820D01*
X126164256Y-67929821D01*
X126164258Y-67929823D01*
X126365993Y-68110578D01*
X126365995Y-68110579D01*
X126365998Y-68110582D01*
X126591910Y-68260044D01*
X126724104Y-68322014D01*
X126837171Y-68375018D01*
X126837173Y-68375018D01*
X126837176Y-68375020D01*
X127096569Y-68453060D01*
X127096572Y-68453060D01*
X127096574Y-68453061D01*
X127364558Y-68492500D01*
X127364561Y-68492500D01*
X127565330Y-68492500D01*
X127567631Y-68492500D01*
X127770156Y-68477677D01*
X128034553Y-68418780D01*
X128287558Y-68322014D01*
X128523777Y-68189441D01*
X128738177Y-68023888D01*
X128926186Y-67828881D01*
X129083799Y-67608579D01*
X129207656Y-67367675D01*
X129295118Y-67111305D01*
X129344319Y-66844933D01*
X129349259Y-66709766D01*
X168145787Y-66709766D01*
X168175413Y-66979015D01*
X168175414Y-66979018D01*
X168243928Y-67241088D01*
X168349870Y-67490390D01*
X168490982Y-67721610D01*
X168664255Y-67929820D01*
X168664256Y-67929821D01*
X168664258Y-67929823D01*
X168865993Y-68110578D01*
X168865995Y-68110579D01*
X168865998Y-68110582D01*
X169091910Y-68260044D01*
X169224104Y-68322014D01*
X169337171Y-68375018D01*
X169337173Y-68375018D01*
X169337176Y-68375020D01*
X169596569Y-68453060D01*
X169596572Y-68453060D01*
X169596574Y-68453061D01*
X169864558Y-68492500D01*
X169864561Y-68492500D01*
X170065330Y-68492500D01*
X170067631Y-68492500D01*
X170270156Y-68477677D01*
X170534553Y-68418780D01*
X170787558Y-68322014D01*
X171023777Y-68189441D01*
X171238177Y-68023888D01*
X171426186Y-67828881D01*
X171583799Y-67608579D01*
X171707656Y-67367675D01*
X171795118Y-67111305D01*
X171844319Y-66844933D01*
X171854212Y-66574235D01*
X171824586Y-66304982D01*
X171756072Y-66042912D01*
X171650130Y-65793610D01*
X171509018Y-65562390D01*
X171335745Y-65354180D01*
X171230759Y-65260112D01*
X171134006Y-65173421D01*
X171134003Y-65173419D01*
X171134002Y-65173418D01*
X170908090Y-65023956D01*
X170908086Y-65023954D01*
X170662828Y-64908981D01*
X170403425Y-64830938D01*
X170135442Y-64791500D01*
X170135439Y-64791500D01*
X169932369Y-64791500D01*
X169930099Y-64791666D01*
X169930075Y-64791667D01*
X169729839Y-64806323D01*
X169465449Y-64865219D01*
X169212441Y-64961985D01*
X168976225Y-65094557D01*
X168761820Y-65260114D01*
X168573815Y-65455117D01*
X168416200Y-65675422D01*
X168292342Y-65916328D01*
X168204882Y-66172693D01*
X168155681Y-66439065D01*
X168145787Y-66709766D01*
X129349259Y-66709766D01*
X129354212Y-66574235D01*
X129324586Y-66304982D01*
X129256072Y-66042912D01*
X129150130Y-65793610D01*
X129009018Y-65562390D01*
X128835745Y-65354180D01*
X128730759Y-65260112D01*
X128634006Y-65173421D01*
X128634003Y-65173419D01*
X128634002Y-65173418D01*
X128408090Y-65023956D01*
X128408086Y-65023954D01*
X128162828Y-64908981D01*
X127903425Y-64830938D01*
X127635442Y-64791500D01*
X127635439Y-64791500D01*
X127432369Y-64791500D01*
X127430099Y-64791666D01*
X127430075Y-64791667D01*
X127229839Y-64806323D01*
X126965449Y-64865219D01*
X126712441Y-64961985D01*
X126476225Y-65094557D01*
X126261820Y-65260114D01*
X126073815Y-65455117D01*
X125916200Y-65675422D01*
X125792342Y-65916328D01*
X125704882Y-66172693D01*
X125655681Y-66439065D01*
X125645787Y-66709766D01*
X112768500Y-66709766D01*
X112768500Y-59808500D01*
X112788502Y-59740379D01*
X112842158Y-59693886D01*
X112894500Y-59682500D01*
X186952500Y-59682500D01*
X187020621Y-59702502D01*
G37*
%TD.AperFunction*%
%TD*%
M02*
