%TF.GenerationSoftware,KiCad,Pcbnew,7.0.2*%
%TF.CreationDate,2024-05-18T23:20:31+02:00*%
%TF.ProjectId,dsoxlan,64736f78-6c61-46e2-9e6b-696361645f70,rev?*%
%TF.SameCoordinates,Original*%
%TF.FileFunction,Copper,L2,Bot*%
%TF.FilePolarity,Positive*%
%FSLAX46Y46*%
G04 Gerber Fmt 4.6, Leading zero omitted, Abs format (unit mm)*
G04 Created by KiCad (PCBNEW 7.0.2) date 2024-05-18 23:20:31*
%MOMM*%
%LPD*%
G01*
G04 APERTURE LIST*
%TA.AperFunction,ConnectorPad*%
%ADD10R,3.600000X0.550000*%
%TD*%
%TA.AperFunction,ComponentPad*%
%ADD11C,1.520000*%
%TD*%
%TA.AperFunction,ComponentPad*%
%ADD12C,1.750000*%
%TD*%
%TA.AperFunction,ComponentPad*%
%ADD13C,2.370000*%
%TD*%
%TA.AperFunction,ViaPad*%
%ADD14C,0.800000*%
%TD*%
%TA.AperFunction,ViaPad*%
%ADD15C,1.200000*%
%TD*%
%TA.AperFunction,Conductor*%
%ADD16C,0.500000*%
%TD*%
G04 APERTURE END LIST*
D10*
%TO.P,P2,2,Pin_2*%
%TO.N,unconnected-(P2-Pin_2-Pad2)*%
X190754000Y-104750000D03*
%TO.P,P2,4,Pin_4*%
%TO.N,unconnected-(P2-Pin_4-Pad4)*%
X190754000Y-103950000D03*
%TO.P,P2,6,Pin_6*%
%TO.N,unconnected-(P2-Pin_6-Pad6)*%
X190754000Y-103150000D03*
%TO.P,P2,8,Pin_8*%
%TO.N,unconnected-(P2-Pin_8-Pad8)*%
X190754000Y-102350000D03*
%TO.P,P2,10,Pin_10*%
%TO.N,unconnected-(P2-Pin_10-Pad10)*%
X190754000Y-101550000D03*
%TO.P,P2,12,Pin_12*%
%TO.N,unconnected-(P2-Pin_12-Pad12)*%
X190754000Y-100750000D03*
%TO.P,P2,14,Pin_14*%
%TO.N,unconnected-(P2-Pin_14-Pad14)*%
X190754000Y-99950000D03*
%TO.P,P2,16,Pin_16*%
%TO.N,unconnected-(P2-Pin_16-Pad16)*%
X190754000Y-99150000D03*
%TO.P,P2,18,Pin_18*%
%TO.N,unconnected-(P2-Pin_18-Pad18)*%
X190754000Y-98350000D03*
%TO.P,P2,20,Pin_20*%
%TO.N,unconnected-(P2-Pin_20-Pad20)*%
X190754000Y-97550000D03*
%TO.P,P2,22,Pin_22*%
%TO.N,unconnected-(P2-Pin_22-Pad22)*%
X190754000Y-96750000D03*
%TO.P,P2,24,Pin_24*%
%TO.N,unconnected-(P2-Pin_24-Pad24)*%
X190754000Y-95950000D03*
%TO.P,P2,26,Pin_26*%
%TO.N,unconnected-(P2-Pin_26-Pad26)*%
X190754000Y-95150000D03*
%TO.P,P2,28,Pin_28*%
%TO.N,unconnected-(P2-Pin_28-Pad28)*%
X190754000Y-94350000D03*
%TO.P,P2,30,Pin_30*%
%TO.N,unconnected-(P2-Pin_30-Pad30)*%
X190754000Y-93550000D03*
%TO.P,P2,32,Pin_32*%
%TO.N,unconnected-(P2-Pin_32-Pad32)*%
X190754000Y-92750000D03*
%TO.P,P2,34,Pin_34*%
%TO.N,unconnected-(P2-Pin_34-Pad34)*%
X190754000Y-91950000D03*
%TO.P,P2,36,Pin_36*%
%TO.N,unconnected-(P2-Pin_36-Pad36)*%
X190754000Y-91150000D03*
%TO.P,P2,38,Pin_38*%
%TO.N,unconnected-(P2-Pin_38-Pad38)*%
X190754000Y-90350000D03*
%TO.P,P2,40,Pin_40*%
%TO.N,unconnected-(P2-Pin_40-Pad40)*%
X190754000Y-89550000D03*
%TO.P,P2,42,Pin_42*%
%TO.N,unconnected-(P2-Pin_42-Pad42)*%
X190754000Y-88750000D03*
%TO.P,P2,44,Pin_44*%
%TO.N,unconnected-(P2-Pin_44-Pad44)*%
X190754000Y-87950000D03*
%TO.P,P2,46,Pin_46*%
%TO.N,unconnected-(P2-Pin_46-Pad46)*%
X190754000Y-83950000D03*
%TO.P,P2,48,Pin_48*%
%TO.N,+3.3V*%
X190754000Y-83150000D03*
%TO.P,P2,50,Pin_50*%
X190754000Y-82350000D03*
%TO.P,P2,52,Pin_52*%
%TO.N,GND*%
X190754000Y-81550000D03*
%TO.P,P2,54,Pin_54*%
X190754000Y-80750000D03*
%TO.P,P2,56,Pin_56*%
%TO.N,unconnected-(P2-Pin_56-Pad56)*%
X190754000Y-79950000D03*
%TO.P,P2,58,Pin_58*%
%TO.N,unconnected-(P2-Pin_58-Pad58)*%
X190754000Y-79150000D03*
%TO.P,P2,60,Pin_60*%
%TO.N,unconnected-(P2-Pin_60-Pad60)*%
X190754000Y-78350000D03*
%TO.P,P2,62,Pin_62*%
%TO.N,unconnected-(P2-Pin_62-Pad62)*%
X190754000Y-77550000D03*
%TO.P,P2,64,Pin_64*%
%TO.N,unconnected-(P2-Pin_64-Pad64)*%
X190754000Y-76750000D03*
%TO.P,P2,66,Pin_66*%
%TO.N,unconnected-(P2-Pin_66-Pad66)*%
X190754000Y-75950000D03*
%TO.P,P2,68,Pin_68*%
%TO.N,unconnected-(P2-Pin_68-Pad68)*%
X190754000Y-75150000D03*
%TO.P,P2,70,Pin_70*%
%TO.N,unconnected-(P2-Pin_70-Pad70)*%
X190754000Y-74350000D03*
%TO.P,P2,72,Pin_72*%
%TO.N,unconnected-(P2-Pin_72-Pad72)*%
X190754000Y-73550000D03*
%TO.P,P2,74,Pin_74*%
%TO.N,unconnected-(P2-Pin_74-Pad74)*%
X190754000Y-72750000D03*
%TO.P,P2,76,Pin_76*%
%TO.N,unconnected-(P2-Pin_76-Pad76)*%
X190754000Y-71950000D03*
%TO.P,P2,78,Pin_78*%
%TO.N,Net-(P2-Pin_78)*%
X190754000Y-71150000D03*
%TO.P,P2,80,Pin_80*%
X190754000Y-70350000D03*
%TD*%
D11*
%TO.P,P1,1,1*%
%TO.N,Net-(C2-Pad2)*%
X132300000Y-86360000D03*
%TO.P,P1,2,2*%
%TO.N,RX+*%
X132300000Y-84330000D03*
%TO.P,P1,3,3*%
%TO.N,RX-*%
X132300000Y-82300000D03*
%TO.P,P1,4,4*%
%TO.N,TX+*%
X132300000Y-80270000D03*
%TO.P,P1,5,5*%
%TO.N,TX-*%
X132300000Y-78240000D03*
%TO.P,P1,6,6*%
%TO.N,Net-(C2-Pad2)*%
X132300000Y-76210000D03*
D12*
%TO.P,P1,7,D1*%
%TO.N,LED1*%
X134770000Y-88510000D03*
%TO.P,P1,8,D2*%
%TO.N,Net-(P1-D2)*%
X134770000Y-85970000D03*
%TO.P,P1,9,D3*%
%TO.N,LED2*%
X134770000Y-76720000D03*
%TO.P,P1,10,D4*%
%TO.N,Net-(P1-D4)*%
X134770000Y-74180000D03*
D13*
%TO.P,P1,13,Shield*%
%TO.N,GND*%
X117960000Y-73230000D03*
%TO.P,P1,14,Shield*%
X117960000Y-89360000D03*
%TD*%
D14*
%TO.N,GND*%
X136600000Y-72700000D03*
X183680000Y-81280000D03*
X184900000Y-84400000D03*
X179500000Y-76500000D03*
X136600000Y-75400000D03*
X177000000Y-86400000D03*
X137900000Y-88600000D03*
D15*
%TO.N,LED2*%
X183515000Y-86995000D03*
D14*
%TO.N,TX+*%
X181100000Y-84900000D03*
%TO.N,TX-*%
X180200000Y-83198494D03*
%TO.N,RX+*%
X178270792Y-84949500D03*
%TO.N,RX-*%
X176800000Y-83700000D03*
%TO.N,LED1*%
X174700000Y-85900000D03*
%TO.N,+3.3V*%
X173160000Y-74100000D03*
X178800000Y-78400000D03*
%TD*%
D16*
%TO.N,GND*%
X186100998Y-81550000D02*
X186055000Y-81504002D01*
X186055000Y-81504002D02*
X186055000Y-81280000D01*
X186585000Y-80750000D02*
X186055000Y-81280000D01*
X190754000Y-81550000D02*
X186100998Y-81550000D01*
X183680000Y-81280000D02*
X179500000Y-77100000D01*
X186055000Y-81280000D02*
X183680000Y-81280000D01*
X179500000Y-77100000D02*
X179500000Y-76500000D01*
X190754000Y-80750000D02*
X186585000Y-80750000D01*
%TO.N,LED2*%
X175118625Y-76720000D02*
X134770000Y-76720000D01*
X183515000Y-85116375D02*
X175118625Y-76720000D01*
X183515000Y-86995000D02*
X183515000Y-85116375D01*
%TO.N,TX+*%
X180100000Y-84900000D02*
X181100000Y-84900000D01*
X132300000Y-80270000D02*
X175470000Y-80270000D01*
X175470000Y-80270000D02*
X180100000Y-84900000D01*
%TO.N,TX-*%
X134700000Y-79300000D02*
X176301506Y-79300000D01*
X132300000Y-78240000D02*
X133640000Y-78240000D01*
X176301506Y-79300000D02*
X180200000Y-83198494D01*
X133640000Y-78240000D02*
X134700000Y-79300000D01*
%TO.N,RX+*%
X134200000Y-83300000D02*
X174200000Y-83300000D01*
X133170000Y-84330000D02*
X134200000Y-83300000D01*
X174200000Y-83300000D02*
X175849500Y-84949500D01*
X175849500Y-84949500D02*
X178270792Y-84949500D01*
X132300000Y-84330000D02*
X133170000Y-84330000D01*
%TO.N,RX-*%
X176300000Y-83700000D02*
X176800000Y-83700000D01*
X174900000Y-82300000D02*
X176300000Y-83700000D01*
X132300000Y-82300000D02*
X174900000Y-82300000D01*
%TO.N,LED1*%
X174700000Y-85900000D02*
X138700000Y-85900000D01*
X138700000Y-85900000D02*
X136090000Y-88510000D01*
X136090000Y-88510000D02*
X134770000Y-88510000D01*
%TO.N,+3.3V*%
X186255000Y-82350000D02*
X186055000Y-82550000D01*
X186055000Y-82550000D02*
X186055000Y-83185000D01*
X186055000Y-83185000D02*
X186090000Y-83150000D01*
X186090000Y-83150000D02*
X190754000Y-83150000D01*
X187325000Y-82350000D02*
X186255000Y-82350000D01*
X182750000Y-82350000D02*
X178800000Y-78400000D01*
X173160000Y-74100000D02*
X174500000Y-74100000D01*
X187325000Y-82350000D02*
X182750000Y-82350000D01*
X174500000Y-74100000D02*
X178800000Y-78400000D01*
X190754000Y-82350000D02*
X187325000Y-82350000D01*
%TO.N,Net-(P2-Pin_78)*%
X186720000Y-71150000D02*
X186436000Y-70866000D01*
X186436000Y-70866000D02*
X186436000Y-70612000D01*
X186436000Y-70612000D02*
X186698000Y-70350000D01*
X186698000Y-70350000D02*
X190754000Y-70350000D01*
X190754000Y-71150000D02*
X186720000Y-71150000D01*
%TD*%
%TA.AperFunction,Conductor*%
%TO.N,GND*%
G36*
X187020621Y-59702502D02*
G01*
X187067114Y-59756158D01*
X187078500Y-59808500D01*
X187078500Y-69465500D01*
X187058498Y-69533621D01*
X187004842Y-69580114D01*
X186952500Y-69591500D01*
X186762442Y-69591500D01*
X186744182Y-69590170D01*
X186720212Y-69586659D01*
X186720211Y-69586659D01*
X186694075Y-69588945D01*
X186670353Y-69591021D01*
X186659372Y-69591500D01*
X186653820Y-69591500D01*
X186650182Y-69591925D01*
X186650167Y-69591926D01*
X186622711Y-69595135D01*
X186619070Y-69595507D01*
X186542260Y-69602227D01*
X186523123Y-69606470D01*
X186450634Y-69632853D01*
X186447176Y-69634055D01*
X186374000Y-69658303D01*
X186356372Y-69666838D01*
X186291918Y-69709229D01*
X186288831Y-69711196D01*
X186223218Y-69751667D01*
X186208032Y-69764038D01*
X186155087Y-69820156D01*
X186152534Y-69822783D01*
X185945225Y-70030092D01*
X185931377Y-70042061D01*
X185911944Y-70056529D01*
X185879773Y-70094868D01*
X185872360Y-70102958D01*
X185871017Y-70104301D01*
X185871011Y-70104307D01*
X185868420Y-70106899D01*
X185866149Y-70109770D01*
X185866140Y-70109781D01*
X185848997Y-70131460D01*
X185846688Y-70134294D01*
X185797119Y-70193369D01*
X185786589Y-70209899D01*
X185753995Y-70279794D01*
X185752401Y-70283087D01*
X185717795Y-70351997D01*
X185711363Y-70370500D01*
X185695759Y-70446064D01*
X185694967Y-70449637D01*
X185677192Y-70524640D01*
X185675202Y-70544115D01*
X185677447Y-70621258D01*
X185677500Y-70624922D01*
X185677500Y-70801559D01*
X185676170Y-70819820D01*
X185672658Y-70843790D01*
X185677020Y-70893633D01*
X185677500Y-70904616D01*
X185677500Y-70910180D01*
X185677924Y-70913815D01*
X185677926Y-70913834D01*
X185681135Y-70941291D01*
X185681507Y-70944932D01*
X185688228Y-71021744D01*
X185692469Y-71040873D01*
X185718846Y-71113342D01*
X185720049Y-71116804D01*
X185744304Y-71190000D01*
X185752837Y-71207627D01*
X185795232Y-71272084D01*
X185797171Y-71275127D01*
X185836970Y-71339651D01*
X185837674Y-71340792D01*
X185850038Y-71355967D01*
X185906155Y-71408911D01*
X185908784Y-71411465D01*
X186138092Y-71640773D01*
X186150060Y-71654620D01*
X186164531Y-71674058D01*
X186202870Y-71706228D01*
X186210974Y-71713655D01*
X186214900Y-71717581D01*
X186217780Y-71719858D01*
X186239455Y-71736997D01*
X186242296Y-71739311D01*
X186301377Y-71788885D01*
X186317890Y-71799405D01*
X186387786Y-71831998D01*
X186391078Y-71833591D01*
X186458812Y-71867609D01*
X186458814Y-71867609D01*
X186460008Y-71868209D01*
X186478490Y-71874633D01*
X186479791Y-71874901D01*
X186479794Y-71874903D01*
X186554078Y-71890241D01*
X186557630Y-71891029D01*
X186631344Y-71908500D01*
X186631346Y-71908500D01*
X186632641Y-71908807D01*
X186652114Y-71910797D01*
X186653439Y-71910758D01*
X186653442Y-71910759D01*
X186727477Y-71908604D01*
X186729259Y-71908553D01*
X186732923Y-71908500D01*
X187453000Y-71908500D01*
X187521121Y-71928502D01*
X187567614Y-71982158D01*
X187579000Y-72034500D01*
X187579000Y-81465500D01*
X187558998Y-81533621D01*
X187505342Y-81580114D01*
X187453000Y-81591500D01*
X186319442Y-81591500D01*
X186301182Y-81590170D01*
X186277212Y-81586659D01*
X186277211Y-81586659D01*
X186251075Y-81588945D01*
X186227353Y-81591021D01*
X186216372Y-81591500D01*
X183116371Y-81591500D01*
X183048250Y-81571498D01*
X183027276Y-81554595D01*
X179720126Y-78247445D01*
X179689388Y-78197286D01*
X179634527Y-78028444D01*
X179539041Y-77863057D01*
X179411252Y-77721133D01*
X179256753Y-77608883D01*
X179256752Y-77608882D01*
X179131678Y-77553196D01*
X179082284Y-77531204D01*
X179019228Y-77517801D01*
X178956755Y-77484072D01*
X178956331Y-77483650D01*
X175081909Y-73609228D01*
X175069937Y-73595375D01*
X175055470Y-73575943D01*
X175017127Y-73543769D01*
X175009024Y-73536343D01*
X175007694Y-73535013D01*
X175005101Y-73532420D01*
X175002235Y-73530153D01*
X175002224Y-73530144D01*
X174980530Y-73512991D01*
X174977708Y-73510692D01*
X174919640Y-73461968D01*
X174919639Y-73461967D01*
X174918621Y-73461113D01*
X174902110Y-73450594D01*
X174832205Y-73417996D01*
X174828909Y-73416401D01*
X174759996Y-73381792D01*
X174741504Y-73375365D01*
X174665942Y-73359762D01*
X174662367Y-73358969D01*
X174587356Y-73341191D01*
X174567885Y-73339202D01*
X174490741Y-73341447D01*
X174487077Y-73341500D01*
X173702586Y-73341500D01*
X173634465Y-73321498D01*
X173628551Y-73317454D01*
X173616752Y-73308882D01*
X173442288Y-73231206D01*
X173255487Y-73191500D01*
X173064513Y-73191500D01*
X172939978Y-73217970D01*
X172877711Y-73231206D01*
X172703246Y-73308883D01*
X172548747Y-73421133D01*
X172420958Y-73563057D01*
X172325472Y-73728443D01*
X172266458Y-73910070D01*
X172246496Y-74100000D01*
X172266458Y-74289929D01*
X172325472Y-74471556D01*
X172420958Y-74636942D01*
X172420960Y-74636944D01*
X172548747Y-74778866D01*
X172703248Y-74891118D01*
X172877712Y-74968794D01*
X173064513Y-75008500D01*
X173064515Y-75008500D01*
X173255485Y-75008500D01*
X173255487Y-75008500D01*
X173442288Y-74968794D01*
X173616752Y-74891118D01*
X173628527Y-74882562D01*
X173695392Y-74858706D01*
X173702586Y-74858500D01*
X174133629Y-74858500D01*
X174201750Y-74878502D01*
X174222724Y-74895405D01*
X175073724Y-75746405D01*
X175107750Y-75808717D01*
X175102685Y-75879532D01*
X175060138Y-75936368D01*
X174993618Y-75961179D01*
X174984629Y-75961500D01*
X135995234Y-75961500D01*
X135927113Y-75941498D01*
X135889751Y-75904416D01*
X135865518Y-75867324D01*
X135865517Y-75867323D01*
X135865514Y-75867318D01*
X135710234Y-75698640D01*
X135710233Y-75698639D01*
X135710231Y-75698637D01*
X135529296Y-75557810D01*
X135529294Y-75557808D01*
X135521056Y-75551397D01*
X135522931Y-75548986D01*
X135484462Y-75510813D01*
X135469102Y-75441498D01*
X135493655Y-75374882D01*
X135522234Y-75350117D01*
X135521056Y-75348603D01*
X135529293Y-75342191D01*
X135529296Y-75342190D01*
X135710231Y-75201363D01*
X135865518Y-75032676D01*
X135990922Y-74840730D01*
X136083023Y-74630761D01*
X136139308Y-74408497D01*
X136158242Y-74180000D01*
X136139308Y-73951503D01*
X136083023Y-73729239D01*
X135990922Y-73519270D01*
X135990921Y-73519268D01*
X135990920Y-73519266D01*
X135865517Y-73327322D01*
X135710234Y-73158640D01*
X135710233Y-73158639D01*
X135710231Y-73158637D01*
X135640638Y-73104471D01*
X135529295Y-73017808D01*
X135327649Y-72908684D01*
X135180851Y-72858289D01*
X135110793Y-72834238D01*
X134884640Y-72796500D01*
X134655360Y-72796500D01*
X134429207Y-72834238D01*
X134429204Y-72834238D01*
X134429204Y-72834239D01*
X134212350Y-72908684D01*
X134010704Y-73017808D01*
X133829765Y-73158640D01*
X133674482Y-73327322D01*
X133549079Y-73519266D01*
X133456975Y-73729243D01*
X133403165Y-73941736D01*
X133400692Y-73951503D01*
X133381758Y-74180000D01*
X133400692Y-74408497D01*
X133400692Y-74408500D01*
X133400693Y-74408501D01*
X133456975Y-74630756D01*
X133549079Y-74840733D01*
X133674482Y-75032677D01*
X133829765Y-75201359D01*
X133829769Y-75201363D01*
X133932817Y-75281568D01*
X134018943Y-75348603D01*
X134017067Y-75351012D01*
X134055543Y-75389200D01*
X134070895Y-75458516D01*
X134046334Y-75525129D01*
X134017765Y-75549884D01*
X134018943Y-75551397D01*
X133829768Y-75698637D01*
X133711060Y-75827589D01*
X133650207Y-75864160D01*
X133579243Y-75862025D01*
X133520697Y-75821864D01*
X133501504Y-75784344D01*
X133501212Y-75784481D01*
X133497473Y-75776464D01*
X133496651Y-75774856D01*
X133496553Y-75774490D01*
X133402749Y-75573328D01*
X133275439Y-75391510D01*
X133275438Y-75391509D01*
X133275436Y-75391506D01*
X133118493Y-75234563D01*
X132936673Y-75107251D01*
X132735510Y-75013446D01*
X132521114Y-74956000D01*
X132300000Y-74936655D01*
X132299999Y-74936655D01*
X132078885Y-74956000D01*
X131864490Y-75013446D01*
X131663327Y-75107251D01*
X131481506Y-75234563D01*
X131324563Y-75391506D01*
X131197251Y-75573327D01*
X131103446Y-75774490D01*
X131046000Y-75988885D01*
X131026655Y-76210000D01*
X131046000Y-76431114D01*
X131103446Y-76645510D01*
X131197251Y-76846673D01*
X131324563Y-77028493D01*
X131431975Y-77135905D01*
X131466001Y-77198217D01*
X131460936Y-77269032D01*
X131431975Y-77314095D01*
X131324563Y-77421506D01*
X131197251Y-77603327D01*
X131103446Y-77804490D01*
X131046000Y-78018885D01*
X131026655Y-78240000D01*
X131046000Y-78461114D01*
X131103446Y-78675510D01*
X131197251Y-78876673D01*
X131324563Y-79058493D01*
X131431975Y-79165905D01*
X131466001Y-79228217D01*
X131460936Y-79299032D01*
X131431975Y-79344095D01*
X131324563Y-79451506D01*
X131197251Y-79633327D01*
X131103446Y-79834490D01*
X131046000Y-80048885D01*
X131026655Y-80270000D01*
X131046000Y-80491114D01*
X131103446Y-80705510D01*
X131197251Y-80906673D01*
X131324563Y-81088493D01*
X131431975Y-81195905D01*
X131466001Y-81258217D01*
X131460936Y-81329032D01*
X131431975Y-81374095D01*
X131324563Y-81481506D01*
X131197251Y-81663327D01*
X131103446Y-81864490D01*
X131046000Y-82078885D01*
X131026655Y-82300000D01*
X131046000Y-82521114D01*
X131103446Y-82735510D01*
X131197251Y-82936673D01*
X131324563Y-83118493D01*
X131431975Y-83225905D01*
X131466001Y-83288217D01*
X131460936Y-83359032D01*
X131431975Y-83404095D01*
X131324563Y-83511506D01*
X131197251Y-83693327D01*
X131103446Y-83894490D01*
X131046000Y-84108885D01*
X131026655Y-84330000D01*
X131046000Y-84551114D01*
X131103446Y-84765510D01*
X131197251Y-84966673D01*
X131324563Y-85148493D01*
X131431975Y-85255905D01*
X131466001Y-85318217D01*
X131460936Y-85389032D01*
X131431975Y-85434095D01*
X131324563Y-85541506D01*
X131197251Y-85723327D01*
X131103446Y-85924490D01*
X131046000Y-86138885D01*
X131026655Y-86360000D01*
X131046000Y-86581114D01*
X131103446Y-86795510D01*
X131197251Y-86996673D01*
X131324563Y-87178493D01*
X131481506Y-87335436D01*
X131481509Y-87335438D01*
X131481510Y-87335439D01*
X131663327Y-87462749D01*
X131752097Y-87504143D01*
X131864489Y-87556553D01*
X131919594Y-87571318D01*
X132078886Y-87614000D01*
X132300000Y-87633345D01*
X132521114Y-87614000D01*
X132735510Y-87556553D01*
X132936673Y-87462749D01*
X133118490Y-87335439D01*
X133275439Y-87178490D01*
X133402749Y-86996673D01*
X133468473Y-86855725D01*
X133515389Y-86802442D01*
X133583666Y-86782981D01*
X133651626Y-86803522D01*
X133675368Y-86823639D01*
X133829765Y-86991359D01*
X133829769Y-86991363D01*
X133883031Y-87032818D01*
X134018943Y-87138603D01*
X134017067Y-87141012D01*
X134055543Y-87179200D01*
X134070895Y-87248516D01*
X134046334Y-87315129D01*
X134017765Y-87339884D01*
X134018943Y-87341397D01*
X133829765Y-87488640D01*
X133674482Y-87657322D01*
X133549079Y-87849266D01*
X133456975Y-88059243D01*
X133409383Y-88247182D01*
X133400692Y-88281503D01*
X133381758Y-88510000D01*
X133400692Y-88738497D01*
X133400692Y-88738500D01*
X133400693Y-88738501D01*
X133456975Y-88960756D01*
X133549079Y-89170733D01*
X133674482Y-89362677D01*
X133801336Y-89500477D01*
X133829769Y-89531363D01*
X133914800Y-89597545D01*
X134010704Y-89672191D01*
X134212349Y-89781314D01*
X134212350Y-89781315D01*
X134429207Y-89855762D01*
X134655360Y-89893500D01*
X134655363Y-89893500D01*
X134884637Y-89893500D01*
X134884640Y-89893500D01*
X135110793Y-89855762D01*
X135327650Y-89781315D01*
X135442410Y-89719210D01*
X135529295Y-89672191D01*
X135550553Y-89655644D01*
X135710231Y-89531363D01*
X135834443Y-89396433D01*
X135865514Y-89362681D01*
X135865517Y-89362677D01*
X135865518Y-89362676D01*
X135889751Y-89325583D01*
X135943754Y-89279497D01*
X135995234Y-89268500D01*
X136025559Y-89268500D01*
X136043820Y-89269830D01*
X136067789Y-89273341D01*
X136114253Y-89269275D01*
X136117647Y-89268979D01*
X136128628Y-89268500D01*
X136130513Y-89268500D01*
X136134180Y-89268500D01*
X136165301Y-89264861D01*
X136168896Y-89264494D01*
X136244426Y-89257887D01*
X136244430Y-89257885D01*
X136245751Y-89257770D01*
X136264856Y-89253535D01*
X136266106Y-89253079D01*
X136266113Y-89253079D01*
X136337400Y-89227132D01*
X136340769Y-89225961D01*
X136412738Y-89202114D01*
X136412739Y-89202112D01*
X136414007Y-89201693D01*
X136431613Y-89193169D01*
X136432725Y-89192437D01*
X136432732Y-89192435D01*
X136496138Y-89150730D01*
X136499161Y-89148806D01*
X136563651Y-89109030D01*
X136563652Y-89109028D01*
X136564788Y-89108328D01*
X136579959Y-89095970D01*
X136580871Y-89095002D01*
X136580874Y-89095001D01*
X136632929Y-89039824D01*
X136635448Y-89037231D01*
X138977275Y-86695405D01*
X139039588Y-86661379D01*
X139066371Y-86658500D01*
X174157414Y-86658500D01*
X174225535Y-86678502D01*
X174231448Y-86682545D01*
X174243248Y-86691118D01*
X174417712Y-86768794D01*
X174604513Y-86808500D01*
X174604515Y-86808500D01*
X174795485Y-86808500D01*
X174795487Y-86808500D01*
X174982288Y-86768794D01*
X175156752Y-86691118D01*
X175311253Y-86578866D01*
X175439040Y-86436944D01*
X175534527Y-86271556D01*
X175593542Y-86089928D01*
X175613504Y-85900000D01*
X175607622Y-85844042D01*
X175620394Y-85774208D01*
X175668895Y-85722361D01*
X175737728Y-85704966D01*
X175761993Y-85708272D01*
X175762142Y-85708307D01*
X175781611Y-85710296D01*
X175782938Y-85710257D01*
X175782942Y-85710258D01*
X175857197Y-85708097D01*
X175858724Y-85708053D01*
X175862388Y-85708000D01*
X177728206Y-85708000D01*
X177796327Y-85728002D01*
X177802240Y-85732045D01*
X177814040Y-85740618D01*
X177988504Y-85818294D01*
X178175305Y-85858000D01*
X178175307Y-85858000D01*
X178366277Y-85858000D01*
X178366279Y-85858000D01*
X178553080Y-85818294D01*
X178727544Y-85740618D01*
X178882045Y-85628366D01*
X179009832Y-85486444D01*
X179105319Y-85321056D01*
X179125911Y-85257679D01*
X179165984Y-85199074D01*
X179231380Y-85171436D01*
X179301337Y-85183542D01*
X179334839Y-85207520D01*
X179518092Y-85390773D01*
X179530060Y-85404620D01*
X179544531Y-85424058D01*
X179582870Y-85456228D01*
X179590974Y-85463655D01*
X179594900Y-85467581D01*
X179597780Y-85469858D01*
X179619455Y-85486997D01*
X179622296Y-85489311D01*
X179625526Y-85492021D01*
X179671387Y-85530503D01*
X179681377Y-85538885D01*
X179697890Y-85549405D01*
X179699094Y-85549966D01*
X179699095Y-85549967D01*
X179736467Y-85567394D01*
X179767786Y-85581998D01*
X179771078Y-85583591D01*
X179838812Y-85617609D01*
X179838814Y-85617609D01*
X179840008Y-85618209D01*
X179858490Y-85624633D01*
X179859791Y-85624901D01*
X179859794Y-85624903D01*
X179934078Y-85640241D01*
X179937630Y-85641029D01*
X180011344Y-85658500D01*
X180011346Y-85658500D01*
X180012641Y-85658807D01*
X180032114Y-85660797D01*
X180033439Y-85660758D01*
X180033442Y-85660759D01*
X180107477Y-85658604D01*
X180109259Y-85658553D01*
X180112923Y-85658500D01*
X180557414Y-85658500D01*
X180625535Y-85678502D01*
X180631448Y-85682545D01*
X180643248Y-85691118D01*
X180817712Y-85768794D01*
X181004513Y-85808500D01*
X181004515Y-85808500D01*
X181195485Y-85808500D01*
X181195487Y-85808500D01*
X181382288Y-85768794D01*
X181556752Y-85691118D01*
X181711253Y-85578866D01*
X181839040Y-85436944D01*
X181934527Y-85271556D01*
X181993542Y-85089928D01*
X182006096Y-84970476D01*
X182033108Y-84904824D01*
X182091329Y-84864194D01*
X182162274Y-84861491D01*
X182220500Y-84894556D01*
X182719595Y-85393651D01*
X182753621Y-85455963D01*
X182756500Y-85482746D01*
X182756500Y-86130847D01*
X182736498Y-86198968D01*
X182715387Y-86223961D01*
X182692298Y-86245009D01*
X182568497Y-86408949D01*
X182476925Y-86592848D01*
X182420705Y-86790442D01*
X182401750Y-86994999D01*
X182420705Y-87199557D01*
X182476925Y-87397151D01*
X182537511Y-87518823D01*
X182568497Y-87581050D01*
X182692299Y-87744991D01*
X182844118Y-87883392D01*
X182970232Y-87961479D01*
X183002681Y-87981571D01*
X183018782Y-87991540D01*
X183210345Y-88065751D01*
X183412282Y-88103500D01*
X183412284Y-88103500D01*
X183617716Y-88103500D01*
X183617718Y-88103500D01*
X183819655Y-88065751D01*
X184011218Y-87991540D01*
X184185882Y-87883392D01*
X184337701Y-87744991D01*
X184461503Y-87581050D01*
X184553074Y-87397152D01*
X184609294Y-87199559D01*
X184628249Y-86995000D01*
X184609294Y-86790441D01*
X184553074Y-86592848D01*
X184461503Y-86408950D01*
X184337701Y-86245009D01*
X184337700Y-86245009D01*
X184314613Y-86223961D01*
X184277747Y-86163286D01*
X184273500Y-86130847D01*
X184273500Y-85180810D01*
X184274831Y-85162547D01*
X184275845Y-85155625D01*
X184278341Y-85138586D01*
X184273979Y-85088726D01*
X184273500Y-85077746D01*
X184273500Y-85075862D01*
X184273500Y-85072195D01*
X184269862Y-85041080D01*
X184269492Y-85037453D01*
X184269274Y-85034961D01*
X184262887Y-84961948D01*
X184262886Y-84961945D01*
X184262770Y-84960617D01*
X184258537Y-84941522D01*
X184258079Y-84940264D01*
X184258079Y-84940262D01*
X184232137Y-84868986D01*
X184230977Y-84865652D01*
X184207114Y-84793636D01*
X184207111Y-84793631D01*
X184206691Y-84792363D01*
X184198170Y-84774761D01*
X184155776Y-84710303D01*
X184153808Y-84707214D01*
X184113326Y-84641584D01*
X184100964Y-84626409D01*
X184044825Y-84573444D01*
X184042197Y-84570891D01*
X182794901Y-83323595D01*
X182760875Y-83261283D01*
X182765940Y-83190468D01*
X182808487Y-83133632D01*
X182875007Y-83108821D01*
X182883996Y-83108500D01*
X185170810Y-83108500D01*
X185238931Y-83128502D01*
X185285424Y-83182158D01*
X185296500Y-83226782D01*
X185296500Y-83229180D01*
X185296924Y-83232813D01*
X185296926Y-83232837D01*
X185297144Y-83234697D01*
X185297941Y-83245637D01*
X185299398Y-83295678D01*
X185305669Y-83319083D01*
X185309109Y-83337059D01*
X185311921Y-83361114D01*
X185329031Y-83408125D01*
X185332335Y-83418605D01*
X185345288Y-83466947D01*
X185356785Y-83488269D01*
X185364279Y-83504970D01*
X185372563Y-83527730D01*
X185400064Y-83569543D01*
X185405697Y-83578981D01*
X185429441Y-83623016D01*
X185429443Y-83623019D01*
X185445541Y-83641108D01*
X185456685Y-83655631D01*
X185469999Y-83675875D01*
X185488498Y-83693327D01*
X185506400Y-83710216D01*
X185514053Y-83718095D01*
X185547319Y-83755476D01*
X185567163Y-83769370D01*
X185581352Y-83780930D01*
X185598969Y-83797552D01*
X185642311Y-83822575D01*
X185651583Y-83828482D01*
X185692565Y-83857178D01*
X185715067Y-83866117D01*
X185731547Y-83874095D01*
X185752528Y-83886209D01*
X185800472Y-83900561D01*
X185810852Y-83904169D01*
X185857350Y-83922642D01*
X185881317Y-83926152D01*
X185899185Y-83930115D01*
X185922389Y-83937062D01*
X185933810Y-83937727D01*
X185972355Y-83939971D01*
X185983276Y-83941087D01*
X186032789Y-83948341D01*
X186032789Y-83948340D01*
X186032790Y-83948341D01*
X186056917Y-83946230D01*
X186075215Y-83945963D01*
X186099403Y-83947372D01*
X186148692Y-83938680D01*
X186159571Y-83937248D01*
X186209426Y-83932887D01*
X186232421Y-83925266D01*
X186250158Y-83920788D01*
X186274021Y-83916582D01*
X186274022Y-83916581D01*
X186288530Y-83914024D01*
X186288652Y-83914719D01*
X186318774Y-83908500D01*
X187453000Y-83908500D01*
X187521121Y-83928502D01*
X187567614Y-83982158D01*
X187579000Y-84034500D01*
X187579000Y-84347047D01*
X187558998Y-84415168D01*
X187505342Y-84461661D01*
X187488490Y-84467945D01*
X187480982Y-84470149D01*
X187463429Y-84473968D01*
X187436541Y-84477834D01*
X187411842Y-84489114D01*
X187395007Y-84495393D01*
X187368947Y-84503046D01*
X187346093Y-84517732D01*
X187330327Y-84526341D01*
X187305625Y-84537623D01*
X187285103Y-84555405D01*
X187270717Y-84566174D01*
X187247871Y-84580856D01*
X187230083Y-84601383D01*
X187217383Y-84614083D01*
X187196856Y-84631871D01*
X187182174Y-84654717D01*
X187171405Y-84669103D01*
X187153623Y-84689625D01*
X187142341Y-84714327D01*
X187133732Y-84730093D01*
X187119046Y-84752947D01*
X187111393Y-84779007D01*
X187105114Y-84795842D01*
X187093834Y-84820541D01*
X187089968Y-84847429D01*
X187086149Y-84864985D01*
X187078500Y-84891039D01*
X187078500Y-84927201D01*
X187078500Y-87050038D01*
X187078500Y-87050039D01*
X187078500Y-87193961D01*
X187080144Y-87199559D01*
X187086149Y-87220012D01*
X187089969Y-87237574D01*
X187093834Y-87264454D01*
X187105115Y-87289156D01*
X187111397Y-87305999D01*
X187119047Y-87332053D01*
X187133727Y-87354896D01*
X187142340Y-87370669D01*
X187153622Y-87395372D01*
X187171403Y-87415892D01*
X187182173Y-87430279D01*
X187184774Y-87434326D01*
X187196857Y-87453128D01*
X187217378Y-87470910D01*
X187230088Y-87483620D01*
X187247871Y-87504143D01*
X187270715Y-87518823D01*
X187285108Y-87529597D01*
X187305627Y-87547377D01*
X187330333Y-87558660D01*
X187346091Y-87567264D01*
X187368947Y-87581953D01*
X187395005Y-87589604D01*
X187411842Y-87595884D01*
X187436543Y-87607165D01*
X187463435Y-87611031D01*
X187480969Y-87614845D01*
X187488495Y-87617055D01*
X187548220Y-87655434D01*
X187577717Y-87720013D01*
X187579000Y-87737951D01*
X187579000Y-105175047D01*
X187558998Y-105243168D01*
X187505342Y-105289661D01*
X187488490Y-105295945D01*
X187480982Y-105298149D01*
X187463429Y-105301968D01*
X187436541Y-105305834D01*
X187411842Y-105317114D01*
X187395007Y-105323393D01*
X187368947Y-105331046D01*
X187346093Y-105345732D01*
X187330327Y-105354341D01*
X187305625Y-105365623D01*
X187285103Y-105383405D01*
X187270717Y-105394174D01*
X187247871Y-105408856D01*
X187230083Y-105429383D01*
X187217383Y-105442083D01*
X187196856Y-105459871D01*
X187182174Y-105482717D01*
X187171405Y-105497103D01*
X187153623Y-105517625D01*
X187142341Y-105542327D01*
X187133732Y-105558093D01*
X187119046Y-105580947D01*
X187111393Y-105607007D01*
X187105114Y-105623842D01*
X187093834Y-105648541D01*
X187089968Y-105675429D01*
X187086149Y-105692985D01*
X187078500Y-105719039D01*
X187078500Y-116975500D01*
X187058498Y-117043621D01*
X187004842Y-117090114D01*
X186952500Y-117101500D01*
X112894500Y-117101500D01*
X112826379Y-117081498D01*
X112779886Y-117027842D01*
X112768500Y-116975500D01*
X112768500Y-114367766D01*
X113715787Y-114367766D01*
X113745413Y-114637015D01*
X113745414Y-114637018D01*
X113813928Y-114899088D01*
X113919870Y-115148390D01*
X114060982Y-115379610D01*
X114234255Y-115587820D01*
X114234256Y-115587821D01*
X114234258Y-115587823D01*
X114435993Y-115768578D01*
X114435995Y-115768579D01*
X114435998Y-115768582D01*
X114661910Y-115918044D01*
X114794104Y-115980014D01*
X114907171Y-116033018D01*
X114907173Y-116033018D01*
X114907176Y-116033020D01*
X115166569Y-116111060D01*
X115166572Y-116111060D01*
X115166574Y-116111061D01*
X115434558Y-116150500D01*
X115434561Y-116150500D01*
X115635330Y-116150500D01*
X115637631Y-116150500D01*
X115840156Y-116135677D01*
X116104553Y-116076780D01*
X116357558Y-115980014D01*
X116593777Y-115847441D01*
X116808177Y-115681888D01*
X116996186Y-115486881D01*
X117153799Y-115266579D01*
X117277656Y-115025675D01*
X117365118Y-114769305D01*
X117414319Y-114502933D01*
X117419259Y-114367766D01*
X182295787Y-114367766D01*
X182325413Y-114637015D01*
X182325414Y-114637018D01*
X182393928Y-114899088D01*
X182499870Y-115148390D01*
X182640982Y-115379610D01*
X182814255Y-115587820D01*
X182814256Y-115587821D01*
X182814258Y-115587823D01*
X183015993Y-115768578D01*
X183015995Y-115768579D01*
X183015998Y-115768582D01*
X183241910Y-115918044D01*
X183374104Y-115980014D01*
X183487171Y-116033018D01*
X183487173Y-116033018D01*
X183487176Y-116033020D01*
X183746569Y-116111060D01*
X183746572Y-116111060D01*
X183746574Y-116111061D01*
X184014558Y-116150500D01*
X184014561Y-116150500D01*
X184215330Y-116150500D01*
X184217631Y-116150500D01*
X184420156Y-116135677D01*
X184684553Y-116076780D01*
X184937558Y-115980014D01*
X185173777Y-115847441D01*
X185388177Y-115681888D01*
X185576186Y-115486881D01*
X185733799Y-115266579D01*
X185857656Y-115025675D01*
X185945118Y-114769305D01*
X185994319Y-114502933D01*
X186004212Y-114232235D01*
X185974586Y-113962982D01*
X185906072Y-113700912D01*
X185800130Y-113451610D01*
X185659018Y-113220390D01*
X185485745Y-113012180D01*
X185380759Y-112918112D01*
X185284006Y-112831421D01*
X185284003Y-112831419D01*
X185284002Y-112831418D01*
X185058090Y-112681956D01*
X185058086Y-112681954D01*
X184812828Y-112566981D01*
X184553425Y-112488938D01*
X184285442Y-112449500D01*
X184285439Y-112449500D01*
X184082369Y-112449500D01*
X184080099Y-112449666D01*
X184080075Y-112449667D01*
X183879839Y-112464323D01*
X183615449Y-112523219D01*
X183362441Y-112619985D01*
X183126225Y-112752557D01*
X182911820Y-112918114D01*
X182723815Y-113113117D01*
X182566200Y-113333422D01*
X182442342Y-113574328D01*
X182354882Y-113830693D01*
X182305681Y-114097065D01*
X182295787Y-114367766D01*
X117419259Y-114367766D01*
X117424212Y-114232235D01*
X117394586Y-113962982D01*
X117326072Y-113700912D01*
X117220130Y-113451610D01*
X117079018Y-113220390D01*
X116905745Y-113012180D01*
X116800759Y-112918112D01*
X116704006Y-112831421D01*
X116704003Y-112831419D01*
X116704002Y-112831418D01*
X116478090Y-112681956D01*
X116478086Y-112681954D01*
X116232828Y-112566981D01*
X115973425Y-112488938D01*
X115705442Y-112449500D01*
X115705439Y-112449500D01*
X115502369Y-112449500D01*
X115500099Y-112449666D01*
X115500075Y-112449667D01*
X115299839Y-112464323D01*
X115035449Y-112523219D01*
X114782441Y-112619985D01*
X114546225Y-112752557D01*
X114331820Y-112918114D01*
X114143815Y-113113117D01*
X113986200Y-113333422D01*
X113862342Y-113574328D01*
X113774882Y-113830693D01*
X113725681Y-114097065D01*
X113715787Y-114367766D01*
X112768500Y-114367766D01*
X112768500Y-89360000D01*
X116262253Y-89360000D01*
X116281215Y-89613037D01*
X116337679Y-89860421D01*
X116430383Y-90096625D01*
X116557256Y-90316376D01*
X116595924Y-90364863D01*
X116595925Y-90364864D01*
X117252034Y-89708754D01*
X117342379Y-89852536D01*
X117467464Y-89977621D01*
X117611243Y-90067964D01*
X116955216Y-90723991D01*
X116955216Y-90723992D01*
X117111130Y-90830293D01*
X117339742Y-90940388D01*
X117582212Y-91015179D01*
X117833130Y-91053000D01*
X118086870Y-91053000D01*
X118337787Y-91015179D01*
X118580257Y-90940388D01*
X118808871Y-90830293D01*
X118964783Y-90723993D01*
X118964783Y-90723992D01*
X118308755Y-90067965D01*
X118452536Y-89977621D01*
X118577621Y-89852536D01*
X118667964Y-89708755D01*
X119324073Y-90364864D01*
X119362744Y-90316372D01*
X119489616Y-90096625D01*
X119582320Y-89860421D01*
X119638784Y-89613037D01*
X119657746Y-89360000D01*
X119639290Y-89113715D01*
X119654146Y-89044290D01*
X119704177Y-88993917D01*
X119773499Y-88978590D01*
X119840104Y-89003175D01*
X119849020Y-89010458D01*
X119980672Y-89128419D01*
X119980674Y-89128420D01*
X119980677Y-89128423D01*
X120209641Y-89279904D01*
X120458221Y-89396433D01*
X120721119Y-89475527D01*
X120721122Y-89475527D01*
X120721124Y-89475528D01*
X120992729Y-89515500D01*
X120992731Y-89515500D01*
X121196246Y-89515500D01*
X121198547Y-89515500D01*
X121403805Y-89500477D01*
X121671775Y-89440784D01*
X121928198Y-89342711D01*
X122134095Y-89227156D01*
X122167611Y-89208346D01*
X122290161Y-89113715D01*
X122384904Y-89040557D01*
X122575454Y-88842916D01*
X122735196Y-88619637D01*
X122860727Y-88375479D01*
X122949370Y-88115646D01*
X122999236Y-87845674D01*
X123009262Y-87571320D01*
X123008816Y-87567270D01*
X122989903Y-87395372D01*
X122979236Y-87298429D01*
X122909796Y-87032818D01*
X122802423Y-86780148D01*
X122659405Y-86545804D01*
X122483791Y-86334782D01*
X122279323Y-86151577D01*
X122050359Y-86000096D01*
X121801779Y-85883567D01*
X121670420Y-85844047D01*
X121538875Y-85804471D01*
X121267271Y-85764500D01*
X121267269Y-85764500D01*
X121061453Y-85764500D01*
X121059183Y-85764666D01*
X121059159Y-85764667D01*
X120856191Y-85779523D01*
X120588226Y-85839215D01*
X120331801Y-85937288D01*
X120092388Y-86071653D01*
X119875097Y-86239441D01*
X119684547Y-86437082D01*
X119524803Y-86660364D01*
X119399271Y-86904524D01*
X119310630Y-87164352D01*
X119260764Y-87434325D01*
X119250737Y-87708681D01*
X119279847Y-87973242D01*
X119267415Y-88043141D01*
X119219166Y-88095223D01*
X119150419Y-88112953D01*
X119083000Y-88090700D01*
X119068902Y-88079387D01*
X119018528Y-88032647D01*
X118808874Y-87889708D01*
X118580257Y-87779611D01*
X118337787Y-87704820D01*
X118086870Y-87667000D01*
X117833130Y-87667000D01*
X117582212Y-87704820D01*
X117339742Y-87779611D01*
X117111126Y-87889708D01*
X116955216Y-87996005D01*
X116955216Y-87996007D01*
X117611244Y-88652034D01*
X117467464Y-88742379D01*
X117342379Y-88867464D01*
X117252035Y-89011244D01*
X116595926Y-88355135D01*
X116595924Y-88355135D01*
X116557256Y-88403624D01*
X116430383Y-88623374D01*
X116337679Y-88859578D01*
X116281215Y-89106962D01*
X116262253Y-89360000D01*
X112768500Y-89360000D01*
X112768500Y-73229999D01*
X116262253Y-73229999D01*
X116281215Y-73483037D01*
X116337679Y-73730421D01*
X116430383Y-73966625D01*
X116557256Y-74186376D01*
X116595924Y-74234863D01*
X116595925Y-74234864D01*
X117252034Y-73578754D01*
X117342379Y-73722536D01*
X117467464Y-73847621D01*
X117611244Y-73937965D01*
X116955216Y-74593992D01*
X117111129Y-74700293D01*
X117339742Y-74810388D01*
X117582212Y-74885179D01*
X117833130Y-74923000D01*
X118086870Y-74923000D01*
X118337787Y-74885179D01*
X118580257Y-74810388D01*
X118808874Y-74700291D01*
X119018527Y-74557352D01*
X119071664Y-74508048D01*
X119135205Y-74476375D01*
X119205781Y-74484084D01*
X119260987Y-74528725D01*
X119283294Y-74596126D01*
X119281271Y-74623296D01*
X119260764Y-74734323D01*
X119250737Y-75008681D01*
X119280763Y-75281568D01*
X119298684Y-75350117D01*
X119350204Y-75547182D01*
X119361315Y-75573328D01*
X119434864Y-75746405D01*
X119457577Y-75799852D01*
X119600595Y-76034196D01*
X119776209Y-76245218D01*
X119980677Y-76428423D01*
X120209641Y-76579904D01*
X120458221Y-76696433D01*
X120721119Y-76775527D01*
X120721122Y-76775527D01*
X120721124Y-76775528D01*
X120992729Y-76815500D01*
X120992731Y-76815500D01*
X121196246Y-76815500D01*
X121198547Y-76815500D01*
X121403805Y-76800477D01*
X121671775Y-76740784D01*
X121928198Y-76642711D01*
X122167609Y-76508347D01*
X122167608Y-76508347D01*
X122167611Y-76508346D01*
X122276256Y-76424451D01*
X122384904Y-76340557D01*
X122575454Y-76142916D01*
X122735196Y-75919637D01*
X122860727Y-75675479D01*
X122949370Y-75415646D01*
X122999236Y-75145674D01*
X123009262Y-74871320D01*
X123007851Y-74858500D01*
X122983474Y-74636944D01*
X122979236Y-74598429D01*
X122909796Y-74332818D01*
X122802423Y-74080148D01*
X122659405Y-73845804D01*
X122483791Y-73634782D01*
X122455271Y-73609228D01*
X122366952Y-73530093D01*
X122279323Y-73451577D01*
X122050359Y-73300096D01*
X121801779Y-73183567D01*
X121718915Y-73158637D01*
X121538875Y-73104471D01*
X121267271Y-73064500D01*
X121267269Y-73064500D01*
X121061453Y-73064500D01*
X121059183Y-73064666D01*
X121059159Y-73064667D01*
X120856191Y-73079523D01*
X120588226Y-73139215D01*
X120331801Y-73237288D01*
X120092388Y-73371653D01*
X119875095Y-73539442D01*
X119856744Y-73558477D01*
X119795063Y-73593633D01*
X119724167Y-73589861D01*
X119666564Y-73548359D01*
X119640544Y-73482302D01*
X119640390Y-73461606D01*
X119657746Y-73229999D01*
X119638784Y-72976962D01*
X119582320Y-72729578D01*
X119489616Y-72493374D01*
X119362743Y-72273623D01*
X119324074Y-72225135D01*
X119324074Y-72225134D01*
X118667964Y-72881244D01*
X118577621Y-72737464D01*
X118452536Y-72612379D01*
X118308755Y-72522034D01*
X118964783Y-71866006D01*
X118964783Y-71866004D01*
X118808873Y-71759708D01*
X118580257Y-71649611D01*
X118337787Y-71574820D01*
X118086870Y-71537000D01*
X117833130Y-71537000D01*
X117582212Y-71574820D01*
X117339742Y-71649611D01*
X117111126Y-71759708D01*
X116955216Y-71866005D01*
X116955216Y-71866007D01*
X117611244Y-72522035D01*
X117467464Y-72612379D01*
X117342379Y-72737464D01*
X117252035Y-72881244D01*
X116595926Y-72225135D01*
X116595924Y-72225135D01*
X116557256Y-72273624D01*
X116430383Y-72493374D01*
X116337679Y-72729578D01*
X116281215Y-72976962D01*
X116262253Y-73229999D01*
X112768500Y-73229999D01*
X112768500Y-62551766D01*
X113715787Y-62551766D01*
X113745413Y-62821015D01*
X113745414Y-62821018D01*
X113813928Y-63083088D01*
X113919870Y-63332390D01*
X114060982Y-63563610D01*
X114234255Y-63771820D01*
X114234256Y-63771821D01*
X114234258Y-63771823D01*
X114435993Y-63952578D01*
X114435995Y-63952579D01*
X114435998Y-63952582D01*
X114661910Y-64102044D01*
X114794104Y-64164014D01*
X114907171Y-64217018D01*
X114907173Y-64217018D01*
X114907176Y-64217020D01*
X115166569Y-64295060D01*
X115166572Y-64295060D01*
X115166574Y-64295061D01*
X115434558Y-64334500D01*
X115434561Y-64334500D01*
X115635330Y-64334500D01*
X115637631Y-64334500D01*
X115840156Y-64319677D01*
X116104553Y-64260780D01*
X116357558Y-64164014D01*
X116593777Y-64031441D01*
X116808177Y-63865888D01*
X116996186Y-63670881D01*
X117153799Y-63450579D01*
X117277656Y-63209675D01*
X117365118Y-62953305D01*
X117414319Y-62686933D01*
X117419259Y-62551766D01*
X182295787Y-62551766D01*
X182325413Y-62821015D01*
X182325414Y-62821018D01*
X182393928Y-63083088D01*
X182499870Y-63332390D01*
X182640982Y-63563610D01*
X182814255Y-63771820D01*
X182814256Y-63771821D01*
X182814258Y-63771823D01*
X183015993Y-63952578D01*
X183015995Y-63952579D01*
X183015998Y-63952582D01*
X183241910Y-64102044D01*
X183374104Y-64164014D01*
X183487171Y-64217018D01*
X183487173Y-64217018D01*
X183487176Y-64217020D01*
X183746569Y-64295060D01*
X183746572Y-64295060D01*
X183746574Y-64295061D01*
X184014558Y-64334500D01*
X184014561Y-64334500D01*
X184215330Y-64334500D01*
X184217631Y-64334500D01*
X184420156Y-64319677D01*
X184684553Y-64260780D01*
X184937558Y-64164014D01*
X185173777Y-64031441D01*
X185388177Y-63865888D01*
X185576186Y-63670881D01*
X185733799Y-63450579D01*
X185857656Y-63209675D01*
X185945118Y-62953305D01*
X185994319Y-62686933D01*
X186004212Y-62416235D01*
X185974586Y-62146982D01*
X185906072Y-61884912D01*
X185800130Y-61635610D01*
X185659018Y-61404390D01*
X185485745Y-61196180D01*
X185380759Y-61102112D01*
X185284006Y-61015421D01*
X185284003Y-61015419D01*
X185284002Y-61015418D01*
X185058090Y-60865956D01*
X185058086Y-60865954D01*
X184812828Y-60750981D01*
X184553425Y-60672938D01*
X184285442Y-60633500D01*
X184285439Y-60633500D01*
X184082369Y-60633500D01*
X184080099Y-60633666D01*
X184080075Y-60633667D01*
X183879839Y-60648323D01*
X183615449Y-60707219D01*
X183362441Y-60803985D01*
X183126225Y-60936557D01*
X182911820Y-61102114D01*
X182723815Y-61297117D01*
X182566200Y-61517422D01*
X182442342Y-61758328D01*
X182354882Y-62014693D01*
X182305681Y-62281065D01*
X182295787Y-62551766D01*
X117419259Y-62551766D01*
X117424212Y-62416235D01*
X117394586Y-62146982D01*
X117326072Y-61884912D01*
X117220130Y-61635610D01*
X117079018Y-61404390D01*
X116905745Y-61196180D01*
X116800759Y-61102112D01*
X116704006Y-61015421D01*
X116704003Y-61015419D01*
X116704002Y-61015418D01*
X116478090Y-60865956D01*
X116478086Y-60865954D01*
X116232828Y-60750981D01*
X115973425Y-60672938D01*
X115705442Y-60633500D01*
X115705439Y-60633500D01*
X115502369Y-60633500D01*
X115500099Y-60633666D01*
X115500075Y-60633667D01*
X115299839Y-60648323D01*
X115035449Y-60707219D01*
X114782441Y-60803985D01*
X114546225Y-60936557D01*
X114331820Y-61102114D01*
X114143815Y-61297117D01*
X113986200Y-61517422D01*
X113862342Y-61758328D01*
X113774882Y-62014693D01*
X113725681Y-62281065D01*
X113715787Y-62551766D01*
X112768500Y-62551766D01*
X112768500Y-59808500D01*
X112788502Y-59740379D01*
X112842158Y-59693886D01*
X112894500Y-59682500D01*
X186952500Y-59682500D01*
X187020621Y-59702502D01*
G37*
%TD.AperFunction*%
%TD*%
M02*
