%TF.GenerationSoftware,KiCad,Pcbnew,7.0.2*%
%TF.CreationDate,2024-05-18T23:20:31+02:00*%
%TF.ProjectId,dsoxlan,64736f78-6c61-46e2-9e6b-696361645f70,rev?*%
%TF.SameCoordinates,Original*%
%TF.FileFunction,Copper,L1,Top*%
%TF.FilePolarity,Positive*%
%FSLAX46Y46*%
G04 Gerber Fmt 4.6, Leading zero omitted, Abs format (unit mm)*
G04 Created by KiCad (PCBNEW 7.0.2) date 2024-05-18 23:20:31*
%MOMM*%
%LPD*%
G01*
G04 APERTURE LIST*
G04 Aperture macros list*
%AMRoundRect*
0 Rectangle with rounded corners*
0 $1 Rounding radius*
0 $2 $3 $4 $5 $6 $7 $8 $9 X,Y pos of 4 corners*
0 Add a 4 corners polygon primitive as box body*
4,1,4,$2,$3,$4,$5,$6,$7,$8,$9,$2,$3,0*
0 Add four circle primitives for the rounded corners*
1,1,$1+$1,$2,$3*
1,1,$1+$1,$4,$5*
1,1,$1+$1,$6,$7*
1,1,$1+$1,$8,$9*
0 Add four rect primitives between the rounded corners*
20,1,$1+$1,$2,$3,$4,$5,0*
20,1,$1+$1,$4,$5,$6,$7,0*
20,1,$1+$1,$6,$7,$8,$9,0*
20,1,$1+$1,$8,$9,$2,$3,0*%
G04 Aperture macros list end*
%ADD10C,0.300000*%
%TA.AperFunction,NonConductor*%
%ADD11C,0.300000*%
%TD*%
%TA.AperFunction,EtchedComponent*%
%ADD12C,0.010000*%
%TD*%
%TA.AperFunction,SMDPad,CuDef*%
%ADD13RoundRect,0.250000X0.337500X0.475000X-0.337500X0.475000X-0.337500X-0.475000X0.337500X-0.475000X0*%
%TD*%
%TA.AperFunction,ConnectorPad*%
%ADD14R,3.600000X0.550000*%
%TD*%
%TA.AperFunction,SMDPad,CuDef*%
%ADD15RoundRect,0.250000X0.350000X0.450000X-0.350000X0.450000X-0.350000X-0.450000X0.350000X-0.450000X0*%
%TD*%
%TA.AperFunction,ComponentPad*%
%ADD16C,1.520000*%
%TD*%
%TA.AperFunction,ComponentPad*%
%ADD17C,1.750000*%
%TD*%
%TA.AperFunction,ComponentPad*%
%ADD18C,2.370000*%
%TD*%
%TA.AperFunction,ViaPad*%
%ADD19C,0.800000*%
%TD*%
%TA.AperFunction,ViaPad*%
%ADD20C,1.200000*%
%TD*%
%TA.AperFunction,Conductor*%
%ADD21C,0.500000*%
%TD*%
G04 APERTURE END LIST*
D10*
D11*
X160135714Y-111263928D02*
X160135714Y-109763928D01*
X160135714Y-109763928D02*
X160492857Y-109763928D01*
X160492857Y-109763928D02*
X160707143Y-109835357D01*
X160707143Y-109835357D02*
X160850000Y-109978214D01*
X160850000Y-109978214D02*
X160921429Y-110121071D01*
X160921429Y-110121071D02*
X160992857Y-110406785D01*
X160992857Y-110406785D02*
X160992857Y-110621071D01*
X160992857Y-110621071D02*
X160921429Y-110906785D01*
X160921429Y-110906785D02*
X160850000Y-111049642D01*
X160850000Y-111049642D02*
X160707143Y-111192500D01*
X160707143Y-111192500D02*
X160492857Y-111263928D01*
X160492857Y-111263928D02*
X160135714Y-111263928D01*
X161635714Y-111263928D02*
X161635714Y-109763928D01*
X162635715Y-110549642D02*
X162635715Y-111263928D01*
X162135715Y-109763928D02*
X162635715Y-110549642D01*
X162635715Y-110549642D02*
X163135715Y-109763928D01*
X164778571Y-111263928D02*
X164778571Y-109763928D01*
X164778571Y-109763928D02*
X165135714Y-109763928D01*
X165135714Y-109763928D02*
X165350000Y-109835357D01*
X165350000Y-109835357D02*
X165492857Y-109978214D01*
X165492857Y-109978214D02*
X165564286Y-110121071D01*
X165564286Y-110121071D02*
X165635714Y-110406785D01*
X165635714Y-110406785D02*
X165635714Y-110621071D01*
X165635714Y-110621071D02*
X165564286Y-110906785D01*
X165564286Y-110906785D02*
X165492857Y-111049642D01*
X165492857Y-111049642D02*
X165350000Y-111192500D01*
X165350000Y-111192500D02*
X165135714Y-111263928D01*
X165135714Y-111263928D02*
X164778571Y-111263928D01*
X166207143Y-111192500D02*
X166421429Y-111263928D01*
X166421429Y-111263928D02*
X166778571Y-111263928D01*
X166778571Y-111263928D02*
X166921429Y-111192500D01*
X166921429Y-111192500D02*
X166992857Y-111121071D01*
X166992857Y-111121071D02*
X167064286Y-110978214D01*
X167064286Y-110978214D02*
X167064286Y-110835357D01*
X167064286Y-110835357D02*
X166992857Y-110692500D01*
X166992857Y-110692500D02*
X166921429Y-110621071D01*
X166921429Y-110621071D02*
X166778571Y-110549642D01*
X166778571Y-110549642D02*
X166492857Y-110478214D01*
X166492857Y-110478214D02*
X166350000Y-110406785D01*
X166350000Y-110406785D02*
X166278571Y-110335357D01*
X166278571Y-110335357D02*
X166207143Y-110192500D01*
X166207143Y-110192500D02*
X166207143Y-110049642D01*
X166207143Y-110049642D02*
X166278571Y-109906785D01*
X166278571Y-109906785D02*
X166350000Y-109835357D01*
X166350000Y-109835357D02*
X166492857Y-109763928D01*
X166492857Y-109763928D02*
X166850000Y-109763928D01*
X166850000Y-109763928D02*
X167064286Y-109835357D01*
X167992857Y-109763928D02*
X168278571Y-109763928D01*
X168278571Y-109763928D02*
X168421428Y-109835357D01*
X168421428Y-109835357D02*
X168564285Y-109978214D01*
X168564285Y-109978214D02*
X168635714Y-110263928D01*
X168635714Y-110263928D02*
X168635714Y-110763928D01*
X168635714Y-110763928D02*
X168564285Y-111049642D01*
X168564285Y-111049642D02*
X168421428Y-111192500D01*
X168421428Y-111192500D02*
X168278571Y-111263928D01*
X168278571Y-111263928D02*
X167992857Y-111263928D01*
X167992857Y-111263928D02*
X167850000Y-111192500D01*
X167850000Y-111192500D02*
X167707142Y-111049642D01*
X167707142Y-111049642D02*
X167635714Y-110763928D01*
X167635714Y-110763928D02*
X167635714Y-110263928D01*
X167635714Y-110263928D02*
X167707142Y-109978214D01*
X167707142Y-109978214D02*
X167850000Y-109835357D01*
X167850000Y-109835357D02*
X167992857Y-109763928D01*
X169135714Y-109763928D02*
X170135714Y-111263928D01*
X170135714Y-109763928D02*
X169135714Y-111263928D01*
X171421428Y-111263928D02*
X170707142Y-111263928D01*
X170707142Y-111263928D02*
X170707142Y-109763928D01*
X171850000Y-110835357D02*
X172564286Y-110835357D01*
X171707143Y-111263928D02*
X172207143Y-109763928D01*
X172207143Y-109763928D02*
X172707143Y-111263928D01*
X173207142Y-111263928D02*
X173207142Y-109763928D01*
X173207142Y-109763928D02*
X174064285Y-111263928D01*
X174064285Y-111263928D02*
X174064285Y-109763928D01*
X157742859Y-113265357D02*
X158457145Y-113265357D01*
X157600002Y-113693928D02*
X158100002Y-112193928D01*
X158100002Y-112193928D02*
X158600002Y-113693928D01*
X158957144Y-112193928D02*
X159314287Y-113693928D01*
X159314287Y-113693928D02*
X159600001Y-112622500D01*
X159600001Y-112622500D02*
X159885716Y-113693928D01*
X159885716Y-113693928D02*
X160242859Y-112193928D01*
X161885716Y-112336785D02*
X161957144Y-112265357D01*
X161957144Y-112265357D02*
X162100002Y-112193928D01*
X162100002Y-112193928D02*
X162457144Y-112193928D01*
X162457144Y-112193928D02*
X162600002Y-112265357D01*
X162600002Y-112265357D02*
X162671430Y-112336785D01*
X162671430Y-112336785D02*
X162742859Y-112479642D01*
X162742859Y-112479642D02*
X162742859Y-112622500D01*
X162742859Y-112622500D02*
X162671430Y-112836785D01*
X162671430Y-112836785D02*
X161814287Y-113693928D01*
X161814287Y-113693928D02*
X162742859Y-113693928D01*
X163671430Y-112193928D02*
X163814287Y-112193928D01*
X163814287Y-112193928D02*
X163957144Y-112265357D01*
X163957144Y-112265357D02*
X164028573Y-112336785D01*
X164028573Y-112336785D02*
X164100001Y-112479642D01*
X164100001Y-112479642D02*
X164171430Y-112765357D01*
X164171430Y-112765357D02*
X164171430Y-113122500D01*
X164171430Y-113122500D02*
X164100001Y-113408214D01*
X164100001Y-113408214D02*
X164028573Y-113551071D01*
X164028573Y-113551071D02*
X163957144Y-113622500D01*
X163957144Y-113622500D02*
X163814287Y-113693928D01*
X163814287Y-113693928D02*
X163671430Y-113693928D01*
X163671430Y-113693928D02*
X163528573Y-113622500D01*
X163528573Y-113622500D02*
X163457144Y-113551071D01*
X163457144Y-113551071D02*
X163385715Y-113408214D01*
X163385715Y-113408214D02*
X163314287Y-113122500D01*
X163314287Y-113122500D02*
X163314287Y-112765357D01*
X163314287Y-112765357D02*
X163385715Y-112479642D01*
X163385715Y-112479642D02*
X163457144Y-112336785D01*
X163457144Y-112336785D02*
X163528573Y-112265357D01*
X163528573Y-112265357D02*
X163671430Y-112193928D01*
X165600001Y-113693928D02*
X164742858Y-113693928D01*
X165171429Y-113693928D02*
X165171429Y-112193928D01*
X165171429Y-112193928D02*
X165028572Y-112408214D01*
X165028572Y-112408214D02*
X164885715Y-112551071D01*
X164885715Y-112551071D02*
X164742858Y-112622500D01*
X166885715Y-112693928D02*
X166885715Y-113693928D01*
X166528572Y-112122500D02*
X166171429Y-113193928D01*
X166171429Y-113193928D02*
X167100000Y-113193928D01*
X167671428Y-113122500D02*
X168814286Y-113122500D01*
X170314286Y-113693928D02*
X169457143Y-113693928D01*
X169885714Y-113693928D02*
X169885714Y-112193928D01*
X169885714Y-112193928D02*
X169742857Y-112408214D01*
X169742857Y-112408214D02*
X169600000Y-112551071D01*
X169600000Y-112551071D02*
X169457143Y-112622500D01*
X170885714Y-112336785D02*
X170957142Y-112265357D01*
X170957142Y-112265357D02*
X171100000Y-112193928D01*
X171100000Y-112193928D02*
X171457142Y-112193928D01*
X171457142Y-112193928D02*
X171600000Y-112265357D01*
X171600000Y-112265357D02*
X171671428Y-112336785D01*
X171671428Y-112336785D02*
X171742857Y-112479642D01*
X171742857Y-112479642D02*
X171742857Y-112622500D01*
X171742857Y-112622500D02*
X171671428Y-112836785D01*
X171671428Y-112836785D02*
X170814285Y-113693928D01*
X170814285Y-113693928D02*
X171742857Y-113693928D01*
X172385713Y-113122500D02*
X173528571Y-113122500D01*
X175028571Y-113693928D02*
X174171428Y-113693928D01*
X174599999Y-113693928D02*
X174599999Y-112193928D01*
X174599999Y-112193928D02*
X174457142Y-112408214D01*
X174457142Y-112408214D02*
X174314285Y-112551071D01*
X174314285Y-112551071D02*
X174171428Y-112622500D01*
X175528570Y-112193928D02*
X176457142Y-112193928D01*
X176457142Y-112193928D02*
X175957142Y-112765357D01*
X175957142Y-112765357D02*
X176171427Y-112765357D01*
X176171427Y-112765357D02*
X176314285Y-112836785D01*
X176314285Y-112836785D02*
X176385713Y-112908214D01*
X176385713Y-112908214D02*
X176457142Y-113051071D01*
X176457142Y-113051071D02*
X176457142Y-113408214D01*
X176457142Y-113408214D02*
X176385713Y-113551071D01*
X176385713Y-113551071D02*
X176314285Y-113622500D01*
X176314285Y-113622500D02*
X176171427Y-113693928D01*
X176171427Y-113693928D02*
X175742856Y-113693928D01*
X175742856Y-113693928D02*
X175599999Y-113622500D01*
X175599999Y-113622500D02*
X175528570Y-113551071D01*
X155314287Y-116123928D02*
X155314287Y-114623928D01*
X155314287Y-114623928D02*
X155671430Y-114623928D01*
X155671430Y-114623928D02*
X155885716Y-114695357D01*
X155885716Y-114695357D02*
X156028573Y-114838214D01*
X156028573Y-114838214D02*
X156100002Y-114981071D01*
X156100002Y-114981071D02*
X156171430Y-115266785D01*
X156171430Y-115266785D02*
X156171430Y-115481071D01*
X156171430Y-115481071D02*
X156100002Y-115766785D01*
X156100002Y-115766785D02*
X156028573Y-115909642D01*
X156028573Y-115909642D02*
X155885716Y-116052500D01*
X155885716Y-116052500D02*
X155671430Y-116123928D01*
X155671430Y-116123928D02*
X155314287Y-116123928D01*
X157528573Y-116123928D02*
X156814287Y-116123928D01*
X156814287Y-116123928D02*
X156814287Y-114623928D01*
X158242859Y-115266785D02*
X158100002Y-115195357D01*
X158100002Y-115195357D02*
X158028573Y-115123928D01*
X158028573Y-115123928D02*
X157957145Y-114981071D01*
X157957145Y-114981071D02*
X157957145Y-114909642D01*
X157957145Y-114909642D02*
X158028573Y-114766785D01*
X158028573Y-114766785D02*
X158100002Y-114695357D01*
X158100002Y-114695357D02*
X158242859Y-114623928D01*
X158242859Y-114623928D02*
X158528573Y-114623928D01*
X158528573Y-114623928D02*
X158671431Y-114695357D01*
X158671431Y-114695357D02*
X158742859Y-114766785D01*
X158742859Y-114766785D02*
X158814288Y-114909642D01*
X158814288Y-114909642D02*
X158814288Y-114981071D01*
X158814288Y-114981071D02*
X158742859Y-115123928D01*
X158742859Y-115123928D02*
X158671431Y-115195357D01*
X158671431Y-115195357D02*
X158528573Y-115266785D01*
X158528573Y-115266785D02*
X158242859Y-115266785D01*
X158242859Y-115266785D02*
X158100002Y-115338214D01*
X158100002Y-115338214D02*
X158028573Y-115409642D01*
X158028573Y-115409642D02*
X157957145Y-115552500D01*
X157957145Y-115552500D02*
X157957145Y-115838214D01*
X157957145Y-115838214D02*
X158028573Y-115981071D01*
X158028573Y-115981071D02*
X158100002Y-116052500D01*
X158100002Y-116052500D02*
X158242859Y-116123928D01*
X158242859Y-116123928D02*
X158528573Y-116123928D01*
X158528573Y-116123928D02*
X158671431Y-116052500D01*
X158671431Y-116052500D02*
X158742859Y-115981071D01*
X158742859Y-115981071D02*
X158814288Y-115838214D01*
X158814288Y-115838214D02*
X158814288Y-115552500D01*
X158814288Y-115552500D02*
X158742859Y-115409642D01*
X158742859Y-115409642D02*
X158671431Y-115338214D01*
X158671431Y-115338214D02*
X158528573Y-115266785D01*
X159457144Y-116123928D02*
X159457144Y-114623928D01*
X159457144Y-114623928D02*
X159814287Y-114623928D01*
X159814287Y-114623928D02*
X160028573Y-114695357D01*
X160028573Y-114695357D02*
X160171430Y-114838214D01*
X160171430Y-114838214D02*
X160242859Y-114981071D01*
X160242859Y-114981071D02*
X160314287Y-115266785D01*
X160314287Y-115266785D02*
X160314287Y-115481071D01*
X160314287Y-115481071D02*
X160242859Y-115766785D01*
X160242859Y-115766785D02*
X160171430Y-115909642D01*
X160171430Y-115909642D02*
X160028573Y-116052500D01*
X160028573Y-116052500D02*
X159814287Y-116123928D01*
X159814287Y-116123928D02*
X159457144Y-116123928D01*
X160742859Y-114623928D02*
X161600002Y-114623928D01*
X161171430Y-116123928D02*
X161171430Y-114623928D01*
X162814287Y-116123928D02*
X162100001Y-116123928D01*
X162100001Y-116123928D02*
X162100001Y-114623928D01*
X164385716Y-114766785D02*
X164457144Y-114695357D01*
X164457144Y-114695357D02*
X164600002Y-114623928D01*
X164600002Y-114623928D02*
X164957144Y-114623928D01*
X164957144Y-114623928D02*
X165100002Y-114695357D01*
X165100002Y-114695357D02*
X165171430Y-114766785D01*
X165171430Y-114766785D02*
X165242859Y-114909642D01*
X165242859Y-114909642D02*
X165242859Y-115052500D01*
X165242859Y-115052500D02*
X165171430Y-115266785D01*
X165171430Y-115266785D02*
X164314287Y-116123928D01*
X164314287Y-116123928D02*
X165242859Y-116123928D01*
X166171430Y-114623928D02*
X166314287Y-114623928D01*
X166314287Y-114623928D02*
X166457144Y-114695357D01*
X166457144Y-114695357D02*
X166528573Y-114766785D01*
X166528573Y-114766785D02*
X166600001Y-114909642D01*
X166600001Y-114909642D02*
X166671430Y-115195357D01*
X166671430Y-115195357D02*
X166671430Y-115552500D01*
X166671430Y-115552500D02*
X166600001Y-115838214D01*
X166600001Y-115838214D02*
X166528573Y-115981071D01*
X166528573Y-115981071D02*
X166457144Y-116052500D01*
X166457144Y-116052500D02*
X166314287Y-116123928D01*
X166314287Y-116123928D02*
X166171430Y-116123928D01*
X166171430Y-116123928D02*
X166028573Y-116052500D01*
X166028573Y-116052500D02*
X165957144Y-115981071D01*
X165957144Y-115981071D02*
X165885715Y-115838214D01*
X165885715Y-115838214D02*
X165814287Y-115552500D01*
X165814287Y-115552500D02*
X165814287Y-115195357D01*
X165814287Y-115195357D02*
X165885715Y-114909642D01*
X165885715Y-114909642D02*
X165957144Y-114766785D01*
X165957144Y-114766785D02*
X166028573Y-114695357D01*
X166028573Y-114695357D02*
X166171430Y-114623928D01*
X167242858Y-114766785D02*
X167314286Y-114695357D01*
X167314286Y-114695357D02*
X167457144Y-114623928D01*
X167457144Y-114623928D02*
X167814286Y-114623928D01*
X167814286Y-114623928D02*
X167957144Y-114695357D01*
X167957144Y-114695357D02*
X168028572Y-114766785D01*
X168028572Y-114766785D02*
X168100001Y-114909642D01*
X168100001Y-114909642D02*
X168100001Y-115052500D01*
X168100001Y-115052500D02*
X168028572Y-115266785D01*
X168028572Y-115266785D02*
X167171429Y-116123928D01*
X167171429Y-116123928D02*
X168100001Y-116123928D01*
X169385715Y-115123928D02*
X169385715Y-116123928D01*
X169028572Y-114552500D02*
X168671429Y-115623928D01*
X168671429Y-115623928D02*
X169600000Y-115623928D01*
X170171428Y-115552500D02*
X171314286Y-115552500D01*
X172314286Y-114623928D02*
X172457143Y-114623928D01*
X172457143Y-114623928D02*
X172600000Y-114695357D01*
X172600000Y-114695357D02*
X172671429Y-114766785D01*
X172671429Y-114766785D02*
X172742857Y-114909642D01*
X172742857Y-114909642D02*
X172814286Y-115195357D01*
X172814286Y-115195357D02*
X172814286Y-115552500D01*
X172814286Y-115552500D02*
X172742857Y-115838214D01*
X172742857Y-115838214D02*
X172671429Y-115981071D01*
X172671429Y-115981071D02*
X172600000Y-116052500D01*
X172600000Y-116052500D02*
X172457143Y-116123928D01*
X172457143Y-116123928D02*
X172314286Y-116123928D01*
X172314286Y-116123928D02*
X172171429Y-116052500D01*
X172171429Y-116052500D02*
X172100000Y-115981071D01*
X172100000Y-115981071D02*
X172028571Y-115838214D01*
X172028571Y-115838214D02*
X171957143Y-115552500D01*
X171957143Y-115552500D02*
X171957143Y-115195357D01*
X171957143Y-115195357D02*
X172028571Y-114909642D01*
X172028571Y-114909642D02*
X172100000Y-114766785D01*
X172100000Y-114766785D02*
X172171429Y-114695357D01*
X172171429Y-114695357D02*
X172314286Y-114623928D01*
X174171428Y-114623928D02*
X173457142Y-114623928D01*
X173457142Y-114623928D02*
X173385714Y-115338214D01*
X173385714Y-115338214D02*
X173457142Y-115266785D01*
X173457142Y-115266785D02*
X173600000Y-115195357D01*
X173600000Y-115195357D02*
X173957142Y-115195357D01*
X173957142Y-115195357D02*
X174100000Y-115266785D01*
X174100000Y-115266785D02*
X174171428Y-115338214D01*
X174171428Y-115338214D02*
X174242857Y-115481071D01*
X174242857Y-115481071D02*
X174242857Y-115838214D01*
X174242857Y-115838214D02*
X174171428Y-115981071D01*
X174171428Y-115981071D02*
X174100000Y-116052500D01*
X174100000Y-116052500D02*
X173957142Y-116123928D01*
X173957142Y-116123928D02*
X173600000Y-116123928D01*
X173600000Y-116123928D02*
X173457142Y-116052500D01*
X173457142Y-116052500D02*
X173385714Y-115981071D01*
X174885713Y-115552500D02*
X176028571Y-115552500D01*
X177528571Y-116123928D02*
X176671428Y-116123928D01*
X177099999Y-116123928D02*
X177099999Y-114623928D01*
X177099999Y-114623928D02*
X176957142Y-114838214D01*
X176957142Y-114838214D02*
X176814285Y-114981071D01*
X176814285Y-114981071D02*
X176671428Y-115052500D01*
X178385713Y-115266785D02*
X178242856Y-115195357D01*
X178242856Y-115195357D02*
X178171427Y-115123928D01*
X178171427Y-115123928D02*
X178099999Y-114981071D01*
X178099999Y-114981071D02*
X178099999Y-114909642D01*
X178099999Y-114909642D02*
X178171427Y-114766785D01*
X178171427Y-114766785D02*
X178242856Y-114695357D01*
X178242856Y-114695357D02*
X178385713Y-114623928D01*
X178385713Y-114623928D02*
X178671427Y-114623928D01*
X178671427Y-114623928D02*
X178814285Y-114695357D01*
X178814285Y-114695357D02*
X178885713Y-114766785D01*
X178885713Y-114766785D02*
X178957142Y-114909642D01*
X178957142Y-114909642D02*
X178957142Y-114981071D01*
X178957142Y-114981071D02*
X178885713Y-115123928D01*
X178885713Y-115123928D02*
X178814285Y-115195357D01*
X178814285Y-115195357D02*
X178671427Y-115266785D01*
X178671427Y-115266785D02*
X178385713Y-115266785D01*
X178385713Y-115266785D02*
X178242856Y-115338214D01*
X178242856Y-115338214D02*
X178171427Y-115409642D01*
X178171427Y-115409642D02*
X178099999Y-115552500D01*
X178099999Y-115552500D02*
X178099999Y-115838214D01*
X178099999Y-115838214D02*
X178171427Y-115981071D01*
X178171427Y-115981071D02*
X178242856Y-116052500D01*
X178242856Y-116052500D02*
X178385713Y-116123928D01*
X178385713Y-116123928D02*
X178671427Y-116123928D01*
X178671427Y-116123928D02*
X178814285Y-116052500D01*
X178814285Y-116052500D02*
X178885713Y-115981071D01*
X178885713Y-115981071D02*
X178957142Y-115838214D01*
X178957142Y-115838214D02*
X178957142Y-115552500D01*
X178957142Y-115552500D02*
X178885713Y-115409642D01*
X178885713Y-115409642D02*
X178814285Y-115338214D01*
X178814285Y-115338214D02*
X178671427Y-115266785D01*
%TO.C,SYM101*%
D12*
X149955814Y-110268931D02*
X150039635Y-110713555D01*
X150348920Y-110841053D01*
X150658206Y-110968551D01*
X151029246Y-110716246D01*
X151133157Y-110645996D01*
X151227087Y-110583272D01*
X151306652Y-110530938D01*
X151367470Y-110491857D01*
X151405157Y-110468893D01*
X151415421Y-110463942D01*
X151433910Y-110476676D01*
X151473420Y-110511882D01*
X151529522Y-110565062D01*
X151597787Y-110631718D01*
X151673786Y-110707354D01*
X151753092Y-110787472D01*
X151831275Y-110867574D01*
X151903907Y-110943164D01*
X151966559Y-111009745D01*
X152014803Y-111062818D01*
X152044210Y-111097887D01*
X152051241Y-111109623D01*
X152041123Y-111131260D01*
X152012759Y-111178662D01*
X151969129Y-111247193D01*
X151913218Y-111332215D01*
X151848006Y-111429093D01*
X151810219Y-111484350D01*
X151741343Y-111585248D01*
X151680140Y-111676299D01*
X151629578Y-111752970D01*
X151592628Y-111810728D01*
X151572258Y-111845043D01*
X151569197Y-111852254D01*
X151576136Y-111872748D01*
X151595051Y-111920513D01*
X151623087Y-111988832D01*
X151657391Y-112070989D01*
X151695109Y-112160270D01*
X151733387Y-112249958D01*
X151769370Y-112333338D01*
X151800206Y-112403694D01*
X151823039Y-112454310D01*
X151835017Y-112478471D01*
X151835724Y-112479422D01*
X151854531Y-112484036D01*
X151904618Y-112494328D01*
X151980793Y-112509287D01*
X152077865Y-112527901D01*
X152190643Y-112549159D01*
X152256442Y-112561418D01*
X152376950Y-112584362D01*
X152485797Y-112606195D01*
X152577476Y-112625722D01*
X152646481Y-112641748D01*
X152687304Y-112653079D01*
X152695511Y-112656674D01*
X152703548Y-112681006D01*
X152710033Y-112735959D01*
X152714970Y-112815108D01*
X152718364Y-112912026D01*
X152720218Y-113020287D01*
X152720538Y-113133465D01*
X152719327Y-113245135D01*
X152716590Y-113348868D01*
X152712331Y-113438241D01*
X152706555Y-113506826D01*
X152699267Y-113548197D01*
X152694895Y-113556810D01*
X152668764Y-113567133D01*
X152613393Y-113581892D01*
X152536107Y-113599352D01*
X152444230Y-113617780D01*
X152412158Y-113623741D01*
X152257524Y-113652066D01*
X152135375Y-113674876D01*
X152041673Y-113693080D01*
X151972384Y-113707583D01*
X151923471Y-113719292D01*
X151890897Y-113729115D01*
X151870628Y-113737956D01*
X151858626Y-113746724D01*
X151856947Y-113748457D01*
X151840184Y-113776371D01*
X151814614Y-113830695D01*
X151782788Y-113904777D01*
X151747260Y-113991965D01*
X151710583Y-114085608D01*
X151675311Y-114179052D01*
X151643996Y-114265647D01*
X151619193Y-114338740D01*
X151603454Y-114391678D01*
X151599332Y-114417811D01*
X151599676Y-114418726D01*
X151613641Y-114440086D01*
X151645322Y-114487084D01*
X151691391Y-114554827D01*
X151748518Y-114638423D01*
X151813373Y-114732982D01*
X151831843Y-114759854D01*
X151897699Y-114857275D01*
X151955650Y-114946163D01*
X152002538Y-115021412D01*
X152035207Y-115077920D01*
X152050500Y-115110581D01*
X152051241Y-115114593D01*
X152038392Y-115135684D01*
X152002888Y-115177464D01*
X151949293Y-115235445D01*
X151882171Y-115305135D01*
X151806087Y-115382045D01*
X151725604Y-115461683D01*
X151645287Y-115539561D01*
X151569699Y-115611186D01*
X151503405Y-115672070D01*
X151450969Y-115717721D01*
X151416955Y-115743650D01*
X151407545Y-115747883D01*
X151385643Y-115737912D01*
X151340800Y-115711020D01*
X151280321Y-115671736D01*
X151233789Y-115640117D01*
X151149475Y-115582098D01*
X151049626Y-115513784D01*
X150949473Y-115445579D01*
X150895627Y-115409075D01*
X150713371Y-115285800D01*
X150560381Y-115368520D01*
X150490682Y-115404759D01*
X150431414Y-115432926D01*
X150391311Y-115448991D01*
X150381103Y-115451226D01*
X150368829Y-115434722D01*
X150344613Y-115388082D01*
X150310263Y-115315609D01*
X150267588Y-115221606D01*
X150218394Y-115110374D01*
X150164490Y-114986215D01*
X150107684Y-114853432D01*
X150049782Y-114716327D01*
X149992593Y-114579202D01*
X149937924Y-114446358D01*
X149887584Y-114322098D01*
X149843380Y-114210725D01*
X149807119Y-114116539D01*
X149780609Y-114043844D01*
X149765658Y-113996941D01*
X149763254Y-113980833D01*
X149782311Y-113960286D01*
X149824036Y-113926933D01*
X149879706Y-113887702D01*
X149884378Y-113884599D01*
X150028264Y-113769423D01*
X150144283Y-113635053D01*
X150231430Y-113485784D01*
X150288699Y-113325913D01*
X150315086Y-113159737D01*
X150309585Y-112991552D01*
X150271190Y-112825655D01*
X150198895Y-112666342D01*
X150177626Y-112631487D01*
X150066996Y-112490737D01*
X149936302Y-112377714D01*
X149790064Y-112293003D01*
X149632808Y-112237194D01*
X149469057Y-112210874D01*
X149303333Y-112214630D01*
X149140162Y-112249050D01*
X148984065Y-112314723D01*
X148839567Y-112412235D01*
X148794869Y-112451813D01*
X148681112Y-112575703D01*
X148598218Y-112706124D01*
X148541356Y-112852315D01*
X148509687Y-112997088D01*
X148501869Y-113159860D01*
X148527938Y-113323440D01*
X148585245Y-113482298D01*
X148671144Y-113630906D01*
X148782986Y-113763735D01*
X148918123Y-113875256D01*
X148935883Y-113887011D01*
X148992150Y-113925508D01*
X149034923Y-113958863D01*
X149055372Y-113980160D01*
X149055669Y-113980833D01*
X149051279Y-114003871D01*
X149033876Y-114056157D01*
X149005268Y-114133390D01*
X148967265Y-114231268D01*
X148921674Y-114345491D01*
X148870303Y-114471758D01*
X148814962Y-114605767D01*
X148757458Y-114743218D01*
X148699601Y-114879808D01*
X148643198Y-115011237D01*
X148590058Y-115133205D01*
X148541990Y-115241409D01*
X148500801Y-115331549D01*
X148468301Y-115399323D01*
X148446297Y-115440430D01*
X148437436Y-115451226D01*
X148410360Y-115442819D01*
X148359697Y-115420272D01*
X148294183Y-115387613D01*
X148258159Y-115368520D01*
X148105168Y-115285800D01*
X147922912Y-115409075D01*
X147829875Y-115472228D01*
X147728015Y-115541727D01*
X147632562Y-115607165D01*
X147584750Y-115640117D01*
X147517505Y-115685273D01*
X147460564Y-115721057D01*
X147421354Y-115742938D01*
X147408619Y-115747563D01*
X147390083Y-115735085D01*
X147349059Y-115700252D01*
X147289525Y-115646678D01*
X147215458Y-115577983D01*
X147130835Y-115497781D01*
X147077315Y-115446286D01*
X146983681Y-115354286D01*
X146902759Y-115271999D01*
X146837823Y-115202945D01*
X146792142Y-115150644D01*
X146768989Y-115118616D01*
X146766768Y-115112116D01*
X146777076Y-115087394D01*
X146805561Y-115037405D01*
X146849063Y-114967212D01*
X146904423Y-114881875D01*
X146968480Y-114786456D01*
X146986697Y-114759854D01*
X147053073Y-114663167D01*
X147112622Y-114576117D01*
X147162016Y-114503595D01*
X147197925Y-114450493D01*
X147217019Y-114421703D01*
X147218864Y-114418726D01*
X147216105Y-114395782D01*
X147201462Y-114345336D01*
X147177487Y-114274041D01*
X147146734Y-114188547D01*
X147111756Y-114095507D01*
X147075107Y-114001574D01*
X147039339Y-113913399D01*
X147007006Y-113837634D01*
X146980662Y-113780931D01*
X146962858Y-113749943D01*
X146961593Y-113748457D01*
X146950706Y-113739601D01*
X146932318Y-113730843D01*
X146902394Y-113721277D01*
X146856897Y-113709996D01*
X146791791Y-113696093D01*
X146703039Y-113678663D01*
X146586607Y-113656798D01*
X146438458Y-113629591D01*
X146406382Y-113623741D01*
X146311314Y-113605374D01*
X146228435Y-113587405D01*
X146165070Y-113571569D01*
X146128542Y-113559600D01*
X146123644Y-113556810D01*
X146115573Y-113532072D01*
X146109013Y-113476790D01*
X146103967Y-113397389D01*
X146100441Y-113300296D01*
X146098439Y-113191938D01*
X146097964Y-113078740D01*
X146099023Y-112967128D01*
X146101618Y-112863529D01*
X146105754Y-112774368D01*
X146111437Y-112706072D01*
X146118669Y-112665066D01*
X146123029Y-112656674D01*
X146147302Y-112648208D01*
X146202574Y-112634435D01*
X146283338Y-112616550D01*
X146384088Y-112595748D01*
X146499317Y-112573223D01*
X146562098Y-112561418D01*
X146681213Y-112539151D01*
X146787435Y-112518979D01*
X146875573Y-112501915D01*
X146940434Y-112488969D01*
X146976826Y-112481155D01*
X146982816Y-112479422D01*
X146992939Y-112459890D01*
X147014338Y-112412843D01*
X147044161Y-112345003D01*
X147079555Y-112263091D01*
X147117668Y-112173828D01*
X147155647Y-112083935D01*
X147190640Y-112000135D01*
X147219794Y-111929147D01*
X147240257Y-111877694D01*
X147249177Y-111852497D01*
X147249343Y-111851396D01*
X147239231Y-111831519D01*
X147210883Y-111785777D01*
X147167277Y-111718717D01*
X147111394Y-111634884D01*
X147046213Y-111538826D01*
X147008321Y-111483650D01*
X146939275Y-111382481D01*
X146877950Y-111290630D01*
X146827337Y-111212744D01*
X146790429Y-111153469D01*
X146770218Y-111117451D01*
X146767299Y-111109377D01*
X146779847Y-111090584D01*
X146814537Y-111050457D01*
X146866937Y-110993493D01*
X146932616Y-110924185D01*
X147007144Y-110847031D01*
X147086087Y-110766525D01*
X147165017Y-110687163D01*
X147239500Y-110613440D01*
X147305106Y-110549852D01*
X147357404Y-110500894D01*
X147391961Y-110471061D01*
X147403522Y-110463942D01*
X147422346Y-110473953D01*
X147467369Y-110502078D01*
X147534213Y-110545454D01*
X147618501Y-110601218D01*
X147715856Y-110666506D01*
X147789293Y-110716246D01*
X148160333Y-110968551D01*
X148778905Y-110713555D01*
X148862725Y-110268931D01*
X148946546Y-109824307D01*
X149871994Y-109824307D01*
X149955814Y-110268931D01*
%TA.AperFunction,EtchedComponent*%
G36*
X149955814Y-110268931D02*
G01*
X150039635Y-110713555D01*
X150348920Y-110841053D01*
X150658206Y-110968551D01*
X151029246Y-110716246D01*
X151133157Y-110645996D01*
X151227087Y-110583272D01*
X151306652Y-110530938D01*
X151367470Y-110491857D01*
X151405157Y-110468893D01*
X151415421Y-110463942D01*
X151433910Y-110476676D01*
X151473420Y-110511882D01*
X151529522Y-110565062D01*
X151597787Y-110631718D01*
X151673786Y-110707354D01*
X151753092Y-110787472D01*
X151831275Y-110867574D01*
X151903907Y-110943164D01*
X151966559Y-111009745D01*
X152014803Y-111062818D01*
X152044210Y-111097887D01*
X152051241Y-111109623D01*
X152041123Y-111131260D01*
X152012759Y-111178662D01*
X151969129Y-111247193D01*
X151913218Y-111332215D01*
X151848006Y-111429093D01*
X151810219Y-111484350D01*
X151741343Y-111585248D01*
X151680140Y-111676299D01*
X151629578Y-111752970D01*
X151592628Y-111810728D01*
X151572258Y-111845043D01*
X151569197Y-111852254D01*
X151576136Y-111872748D01*
X151595051Y-111920513D01*
X151623087Y-111988832D01*
X151657391Y-112070989D01*
X151695109Y-112160270D01*
X151733387Y-112249958D01*
X151769370Y-112333338D01*
X151800206Y-112403694D01*
X151823039Y-112454310D01*
X151835017Y-112478471D01*
X151835724Y-112479422D01*
X151854531Y-112484036D01*
X151904618Y-112494328D01*
X151980793Y-112509287D01*
X152077865Y-112527901D01*
X152190643Y-112549159D01*
X152256442Y-112561418D01*
X152376950Y-112584362D01*
X152485797Y-112606195D01*
X152577476Y-112625722D01*
X152646481Y-112641748D01*
X152687304Y-112653079D01*
X152695511Y-112656674D01*
X152703548Y-112681006D01*
X152710033Y-112735959D01*
X152714970Y-112815108D01*
X152718364Y-112912026D01*
X152720218Y-113020287D01*
X152720538Y-113133465D01*
X152719327Y-113245135D01*
X152716590Y-113348868D01*
X152712331Y-113438241D01*
X152706555Y-113506826D01*
X152699267Y-113548197D01*
X152694895Y-113556810D01*
X152668764Y-113567133D01*
X152613393Y-113581892D01*
X152536107Y-113599352D01*
X152444230Y-113617780D01*
X152412158Y-113623741D01*
X152257524Y-113652066D01*
X152135375Y-113674876D01*
X152041673Y-113693080D01*
X151972384Y-113707583D01*
X151923471Y-113719292D01*
X151890897Y-113729115D01*
X151870628Y-113737956D01*
X151858626Y-113746724D01*
X151856947Y-113748457D01*
X151840184Y-113776371D01*
X151814614Y-113830695D01*
X151782788Y-113904777D01*
X151747260Y-113991965D01*
X151710583Y-114085608D01*
X151675311Y-114179052D01*
X151643996Y-114265647D01*
X151619193Y-114338740D01*
X151603454Y-114391678D01*
X151599332Y-114417811D01*
X151599676Y-114418726D01*
X151613641Y-114440086D01*
X151645322Y-114487084D01*
X151691391Y-114554827D01*
X151748518Y-114638423D01*
X151813373Y-114732982D01*
X151831843Y-114759854D01*
X151897699Y-114857275D01*
X151955650Y-114946163D01*
X152002538Y-115021412D01*
X152035207Y-115077920D01*
X152050500Y-115110581D01*
X152051241Y-115114593D01*
X152038392Y-115135684D01*
X152002888Y-115177464D01*
X151949293Y-115235445D01*
X151882171Y-115305135D01*
X151806087Y-115382045D01*
X151725604Y-115461683D01*
X151645287Y-115539561D01*
X151569699Y-115611186D01*
X151503405Y-115672070D01*
X151450969Y-115717721D01*
X151416955Y-115743650D01*
X151407545Y-115747883D01*
X151385643Y-115737912D01*
X151340800Y-115711020D01*
X151280321Y-115671736D01*
X151233789Y-115640117D01*
X151149475Y-115582098D01*
X151049626Y-115513784D01*
X150949473Y-115445579D01*
X150895627Y-115409075D01*
X150713371Y-115285800D01*
X150560381Y-115368520D01*
X150490682Y-115404759D01*
X150431414Y-115432926D01*
X150391311Y-115448991D01*
X150381103Y-115451226D01*
X150368829Y-115434722D01*
X150344613Y-115388082D01*
X150310263Y-115315609D01*
X150267588Y-115221606D01*
X150218394Y-115110374D01*
X150164490Y-114986215D01*
X150107684Y-114853432D01*
X150049782Y-114716327D01*
X149992593Y-114579202D01*
X149937924Y-114446358D01*
X149887584Y-114322098D01*
X149843380Y-114210725D01*
X149807119Y-114116539D01*
X149780609Y-114043844D01*
X149765658Y-113996941D01*
X149763254Y-113980833D01*
X149782311Y-113960286D01*
X149824036Y-113926933D01*
X149879706Y-113887702D01*
X149884378Y-113884599D01*
X150028264Y-113769423D01*
X150144283Y-113635053D01*
X150231430Y-113485784D01*
X150288699Y-113325913D01*
X150315086Y-113159737D01*
X150309585Y-112991552D01*
X150271190Y-112825655D01*
X150198895Y-112666342D01*
X150177626Y-112631487D01*
X150066996Y-112490737D01*
X149936302Y-112377714D01*
X149790064Y-112293003D01*
X149632808Y-112237194D01*
X149469057Y-112210874D01*
X149303333Y-112214630D01*
X149140162Y-112249050D01*
X148984065Y-112314723D01*
X148839567Y-112412235D01*
X148794869Y-112451813D01*
X148681112Y-112575703D01*
X148598218Y-112706124D01*
X148541356Y-112852315D01*
X148509687Y-112997088D01*
X148501869Y-113159860D01*
X148527938Y-113323440D01*
X148585245Y-113482298D01*
X148671144Y-113630906D01*
X148782986Y-113763735D01*
X148918123Y-113875256D01*
X148935883Y-113887011D01*
X148992150Y-113925508D01*
X149034923Y-113958863D01*
X149055372Y-113980160D01*
X149055669Y-113980833D01*
X149051279Y-114003871D01*
X149033876Y-114056157D01*
X149005268Y-114133390D01*
X148967265Y-114231268D01*
X148921674Y-114345491D01*
X148870303Y-114471758D01*
X148814962Y-114605767D01*
X148757458Y-114743218D01*
X148699601Y-114879808D01*
X148643198Y-115011237D01*
X148590058Y-115133205D01*
X148541990Y-115241409D01*
X148500801Y-115331549D01*
X148468301Y-115399323D01*
X148446297Y-115440430D01*
X148437436Y-115451226D01*
X148410360Y-115442819D01*
X148359697Y-115420272D01*
X148294183Y-115387613D01*
X148258159Y-115368520D01*
X148105168Y-115285800D01*
X147922912Y-115409075D01*
X147829875Y-115472228D01*
X147728015Y-115541727D01*
X147632562Y-115607165D01*
X147584750Y-115640117D01*
X147517505Y-115685273D01*
X147460564Y-115721057D01*
X147421354Y-115742938D01*
X147408619Y-115747563D01*
X147390083Y-115735085D01*
X147349059Y-115700252D01*
X147289525Y-115646678D01*
X147215458Y-115577983D01*
X147130835Y-115497781D01*
X147077315Y-115446286D01*
X146983681Y-115354286D01*
X146902759Y-115271999D01*
X146837823Y-115202945D01*
X146792142Y-115150644D01*
X146768989Y-115118616D01*
X146766768Y-115112116D01*
X146777076Y-115087394D01*
X146805561Y-115037405D01*
X146849063Y-114967212D01*
X146904423Y-114881875D01*
X146968480Y-114786456D01*
X146986697Y-114759854D01*
X147053073Y-114663167D01*
X147112622Y-114576117D01*
X147162016Y-114503595D01*
X147197925Y-114450493D01*
X147217019Y-114421703D01*
X147218864Y-114418726D01*
X147216105Y-114395782D01*
X147201462Y-114345336D01*
X147177487Y-114274041D01*
X147146734Y-114188547D01*
X147111756Y-114095507D01*
X147075107Y-114001574D01*
X147039339Y-113913399D01*
X147007006Y-113837634D01*
X146980662Y-113780931D01*
X146962858Y-113749943D01*
X146961593Y-113748457D01*
X146950706Y-113739601D01*
X146932318Y-113730843D01*
X146902394Y-113721277D01*
X146856897Y-113709996D01*
X146791791Y-113696093D01*
X146703039Y-113678663D01*
X146586607Y-113656798D01*
X146438458Y-113629591D01*
X146406382Y-113623741D01*
X146311314Y-113605374D01*
X146228435Y-113587405D01*
X146165070Y-113571569D01*
X146128542Y-113559600D01*
X146123644Y-113556810D01*
X146115573Y-113532072D01*
X146109013Y-113476790D01*
X146103967Y-113397389D01*
X146100441Y-113300296D01*
X146098439Y-113191938D01*
X146097964Y-113078740D01*
X146099023Y-112967128D01*
X146101618Y-112863529D01*
X146105754Y-112774368D01*
X146111437Y-112706072D01*
X146118669Y-112665066D01*
X146123029Y-112656674D01*
X146147302Y-112648208D01*
X146202574Y-112634435D01*
X146283338Y-112616550D01*
X146384088Y-112595748D01*
X146499317Y-112573223D01*
X146562098Y-112561418D01*
X146681213Y-112539151D01*
X146787435Y-112518979D01*
X146875573Y-112501915D01*
X146940434Y-112488969D01*
X146976826Y-112481155D01*
X146982816Y-112479422D01*
X146992939Y-112459890D01*
X147014338Y-112412843D01*
X147044161Y-112345003D01*
X147079555Y-112263091D01*
X147117668Y-112173828D01*
X147155647Y-112083935D01*
X147190640Y-112000135D01*
X147219794Y-111929147D01*
X147240257Y-111877694D01*
X147249177Y-111852497D01*
X147249343Y-111851396D01*
X147239231Y-111831519D01*
X147210883Y-111785777D01*
X147167277Y-111718717D01*
X147111394Y-111634884D01*
X147046213Y-111538826D01*
X147008321Y-111483650D01*
X146939275Y-111382481D01*
X146877950Y-111290630D01*
X146827337Y-111212744D01*
X146790429Y-111153469D01*
X146770218Y-111117451D01*
X146767299Y-111109377D01*
X146779847Y-111090584D01*
X146814537Y-111050457D01*
X146866937Y-110993493D01*
X146932616Y-110924185D01*
X147007144Y-110847031D01*
X147086087Y-110766525D01*
X147165017Y-110687163D01*
X147239500Y-110613440D01*
X147305106Y-110549852D01*
X147357404Y-110500894D01*
X147391961Y-110471061D01*
X147403522Y-110463942D01*
X147422346Y-110473953D01*
X147467369Y-110502078D01*
X147534213Y-110545454D01*
X147618501Y-110601218D01*
X147715856Y-110666506D01*
X147789293Y-110716246D01*
X148160333Y-110968551D01*
X148778905Y-110713555D01*
X148862725Y-110268931D01*
X148946546Y-109824307D01*
X149871994Y-109824307D01*
X149955814Y-110268931D01*
G37*
%TD.AperFunction*%
%TD*%
D13*
%TO.P,C2,1*%
%TO.N,GND*%
X143912500Y-80010000D03*
%TO.P,C2,2*%
%TO.N,Net-(C2-Pad2)*%
X141837500Y-80010000D03*
%TD*%
D14*
%TO.P,P2,1,Pin_1*%
%TO.N,unconnected-(P2-Pin_1-Pad1)*%
X190754000Y-104750000D03*
%TO.P,P2,3,Pin_3*%
%TO.N,unconnected-(P2-Pin_3-Pad3)*%
X190754000Y-103950000D03*
%TO.P,P2,5,Pin_5*%
%TO.N,unconnected-(P2-Pin_5-Pad5)*%
X190754000Y-103150000D03*
%TO.P,P2,7,Pin_7*%
%TO.N,unconnected-(P2-Pin_7-Pad7)*%
X190754000Y-102350000D03*
%TO.P,P2,9,Pin_9*%
%TO.N,unconnected-(P2-Pin_9-Pad9)*%
X190754000Y-101550000D03*
%TO.P,P2,11,Pin_11*%
%TO.N,unconnected-(P2-Pin_11-Pad11)*%
X190754000Y-100750000D03*
%TO.P,P2,13,Pin_13*%
%TO.N,unconnected-(P2-Pin_13-Pad13)*%
X190754000Y-99950000D03*
%TO.P,P2,15,Pin_15*%
%TO.N,unconnected-(P2-Pin_15-Pad15)*%
X190754000Y-99150000D03*
%TO.P,P2,17,Pin_17*%
%TO.N,unconnected-(P2-Pin_17-Pad17)*%
X190754000Y-98350000D03*
%TO.P,P2,19,Pin_19*%
%TO.N,unconnected-(P2-Pin_19-Pad19)*%
X190754000Y-97550000D03*
%TO.P,P2,21,Pin_21*%
%TO.N,unconnected-(P2-Pin_21-Pad21)*%
X190754000Y-96750000D03*
%TO.P,P2,23,Pin_23*%
%TO.N,unconnected-(P2-Pin_23-Pad23)*%
X190754000Y-95950000D03*
%TO.P,P2,25,Pin_25*%
%TO.N,unconnected-(P2-Pin_25-Pad25)*%
X190754000Y-95150000D03*
%TO.P,P2,27,Pin_27*%
%TO.N,unconnected-(P2-Pin_27-Pad27)*%
X190754000Y-94350000D03*
%TO.P,P2,29,Pin_29*%
%TO.N,unconnected-(P2-Pin_29-Pad29)*%
X190754000Y-93550000D03*
%TO.P,P2,31,Pin_31*%
%TO.N,unconnected-(P2-Pin_31-Pad31)*%
X190754000Y-92750000D03*
%TO.P,P2,33,Pin_33*%
%TO.N,unconnected-(P2-Pin_33-Pad33)*%
X190754000Y-91950000D03*
%TO.P,P2,35,Pin_35*%
%TO.N,unconnected-(P2-Pin_35-Pad35)*%
X190754000Y-91150000D03*
%TO.P,P2,37,Pin_37*%
%TO.N,unconnected-(P2-Pin_37-Pad37)*%
X190754000Y-90350000D03*
%TO.P,P2,39,Pin_39*%
%TO.N,unconnected-(P2-Pin_39-Pad39)*%
X190754000Y-89550000D03*
%TO.P,P2,41,Pin_41*%
%TO.N,unconnected-(P2-Pin_41-Pad41)*%
X190754000Y-88750000D03*
%TO.P,P2,43,Pin_43*%
%TO.N,LED2*%
X190754000Y-87950000D03*
%TO.P,P2,45,Pin_45*%
%TO.N,unconnected-(P2-Pin_45-Pad45)*%
X190754000Y-83950000D03*
%TO.P,P2,47,Pin_47*%
%TO.N,TX+*%
X190754000Y-83150000D03*
%TO.P,P2,49,Pin_49*%
%TO.N,TX-*%
X190754000Y-82350000D03*
%TO.P,P2,51,Pin_51*%
%TO.N,GND*%
X190754000Y-81550000D03*
%TO.P,P2,53,Pin_53*%
X190754000Y-80750000D03*
%TO.P,P2,55,Pin_55*%
%TO.N,RX+*%
X190754000Y-79950000D03*
%TO.P,P2,57,Pin_57*%
%TO.N,RX-*%
X190754000Y-79150000D03*
%TO.P,P2,59,Pin_59*%
%TO.N,unconnected-(P2-Pin_59-Pad59)*%
X190754000Y-78350000D03*
%TO.P,P2,61,Pin_61*%
%TO.N,unconnected-(P2-Pin_61-Pad61)*%
X190754000Y-77550000D03*
%TO.P,P2,63,Pin_63*%
%TO.N,LED1*%
X190754000Y-76750000D03*
%TO.P,P2,65,Pin_65*%
%TO.N,unconnected-(P2-Pin_65-Pad65)*%
X190754000Y-75950000D03*
%TO.P,P2,67,Pin_67*%
%TO.N,unconnected-(P2-Pin_67-Pad67)*%
X190754000Y-75150000D03*
%TO.P,P2,69,Pin_69*%
%TO.N,unconnected-(P2-Pin_69-Pad69)*%
X190754000Y-74350000D03*
%TO.P,P2,71,Pin_71*%
%TO.N,unconnected-(P2-Pin_71-Pad71)*%
X190754000Y-73550000D03*
%TO.P,P2,73,Pin_73*%
%TO.N,unconnected-(P2-Pin_73-Pad73)*%
X190754000Y-72750000D03*
%TO.P,P2,75,Pin_75*%
%TO.N,unconnected-(P2-Pin_75-Pad75)*%
X190754000Y-71950000D03*
%TO.P,P2,77,Pin_77*%
%TO.N,unconnected-(P2-Pin_77-Pad77)*%
X190754000Y-71150000D03*
%TO.P,P2,79,Pin_79*%
%TO.N,unconnected-(P2-Pin_79-Pad79)*%
X190754000Y-70350000D03*
%TD*%
D15*
%TO.P,R1,1*%
%TO.N,+3.3V*%
X140600000Y-85900000D03*
%TO.P,R1,2*%
%TO.N,Net-(P1-D2)*%
X138600000Y-85900000D03*
%TD*%
%TO.P,R2,1*%
%TO.N,+3.3V*%
X140800000Y-74100000D03*
%TO.P,R2,2*%
%TO.N,Net-(P1-D4)*%
X138800000Y-74100000D03*
%TD*%
%TO.P,R3,1*%
%TO.N,+3.3V*%
X143875000Y-82200000D03*
%TO.P,R3,2*%
%TO.N,Net-(C2-Pad2)*%
X141875000Y-82200000D03*
%TD*%
D16*
%TO.P,P1,1,1*%
%TO.N,Net-(C2-Pad2)*%
X132300000Y-86360000D03*
%TO.P,P1,2,2*%
%TO.N,RX+*%
X132300000Y-84330000D03*
%TO.P,P1,3,3*%
%TO.N,RX-*%
X132300000Y-82300000D03*
%TO.P,P1,4,4*%
%TO.N,TX+*%
X132300000Y-80270000D03*
%TO.P,P1,5,5*%
%TO.N,TX-*%
X132300000Y-78240000D03*
%TO.P,P1,6,6*%
%TO.N,Net-(C2-Pad2)*%
X132300000Y-76210000D03*
D17*
%TO.P,P1,7,D1*%
%TO.N,LED1*%
X134770000Y-88510000D03*
%TO.P,P1,8,D2*%
%TO.N,Net-(P1-D2)*%
X134770000Y-85970000D03*
%TO.P,P1,9,D3*%
%TO.N,LED2*%
X134770000Y-76720000D03*
%TO.P,P1,10,D4*%
%TO.N,Net-(P1-D4)*%
X134770000Y-74180000D03*
D18*
%TO.P,P1,13,Shield*%
%TO.N,GND*%
X117960000Y-73230000D03*
%TO.P,P1,14,Shield*%
X117960000Y-89360000D03*
%TD*%
D19*
%TO.N,GND*%
X136600000Y-72700000D03*
X183680000Y-81280000D03*
X184900000Y-84400000D03*
X179500000Y-76500000D03*
X136600000Y-75400000D03*
X177000000Y-86400000D03*
X137900000Y-88600000D03*
D20*
%TO.N,LED2*%
X183515000Y-86995000D03*
D19*
%TO.N,TX+*%
X181100000Y-84900000D03*
%TO.N,TX-*%
X180200000Y-83198494D03*
%TO.N,RX+*%
X178270792Y-84949500D03*
%TO.N,RX-*%
X176800000Y-83700000D03*
%TO.N,LED1*%
X174700000Y-85900000D03*
%TO.N,+3.3V*%
X173160000Y-74100000D03*
X178800000Y-78400000D03*
%TD*%
D21*
%TO.N,GND*%
X117960000Y-73230000D02*
X121090000Y-70100000D01*
X176400000Y-76500000D02*
X179500000Y-76500000D01*
X117960000Y-89360000D02*
X117960000Y-73230000D01*
X183950000Y-81550000D02*
X183680000Y-81280000D01*
X183680000Y-81280000D02*
X184210000Y-80750000D01*
X190754000Y-81550000D02*
X183950000Y-81550000D01*
X184210000Y-80750000D02*
X190754000Y-80750000D01*
X173100000Y-70100000D02*
X179500000Y-76500000D01*
X121090000Y-70100000D02*
X173100000Y-70100000D01*
X143912500Y-80010000D02*
X172890000Y-80010000D01*
X172890000Y-80010000D02*
X176400000Y-76500000D01*
%TO.N,Net-(C2-Pad2)*%
X141875000Y-80047500D02*
X141837500Y-80010000D01*
X136100000Y-82560000D02*
X132300000Y-86360000D01*
X141875000Y-82200000D02*
X141875000Y-80047500D01*
X136100000Y-80010000D02*
X132300000Y-76210000D01*
X136100000Y-80010000D02*
X136100000Y-82560000D01*
X141837500Y-80010000D02*
X136100000Y-80010000D01*
%TO.N,LED2*%
X183515000Y-86995000D02*
X184470000Y-87950000D01*
X184470000Y-87950000D02*
X190754000Y-87950000D01*
%TO.N,TX+*%
X182850000Y-83150000D02*
X181100000Y-84900000D01*
X190754000Y-83150000D02*
X182850000Y-83150000D01*
%TO.N,TX-*%
X190754000Y-82350000D02*
X181048494Y-82350000D01*
X181048494Y-82350000D02*
X180200000Y-83198494D01*
%TO.N,RX+*%
X181950000Y-79950000D02*
X178270792Y-83629208D01*
X178270792Y-83629208D02*
X178270792Y-84949500D01*
X190754000Y-79950000D02*
X181950000Y-79950000D01*
%TO.N,RX-*%
X190754000Y-79150000D02*
X181350000Y-79150000D01*
X181350000Y-79150000D02*
X176800000Y-83700000D01*
%TO.N,LED1*%
X174700000Y-84300000D02*
X182250000Y-76750000D01*
X174700000Y-85900000D02*
X174700000Y-84300000D01*
X182250000Y-76750000D02*
X190754000Y-76750000D01*
%TO.N,Net-(P1-D2)*%
X134840000Y-85900000D02*
X134770000Y-85970000D01*
X138600000Y-85900000D02*
X134840000Y-85900000D01*
%TO.N,Net-(P1-D4)*%
X134850000Y-74100000D02*
X134770000Y-74180000D01*
X138800000Y-74100000D02*
X134850000Y-74100000D01*
%TO.N,+3.3V*%
X142400000Y-85900000D02*
X140600000Y-85900000D01*
X143875000Y-82200000D02*
X143875000Y-84425000D01*
X143875000Y-82200000D02*
X175000000Y-82200000D01*
X140800000Y-74100000D02*
X173160000Y-74100000D01*
X175000000Y-82200000D02*
X178800000Y-78400000D01*
X143875000Y-84425000D02*
X142400000Y-85900000D01*
%TD*%
%TA.AperFunction,Conductor*%
%TO.N,GND*%
G36*
X187020621Y-59702502D02*
G01*
X187067114Y-59756158D01*
X187078500Y-59808499D01*
X187078500Y-69397038D01*
X187078500Y-69397039D01*
X187078500Y-69540961D01*
X187086149Y-69567012D01*
X187089969Y-69584574D01*
X187093834Y-69611454D01*
X187105115Y-69636156D01*
X187111397Y-69652999D01*
X187119047Y-69679053D01*
X187133727Y-69701896D01*
X187142340Y-69717669D01*
X187153622Y-69742372D01*
X187171403Y-69762892D01*
X187182176Y-69777283D01*
X187196857Y-69800128D01*
X187217378Y-69817910D01*
X187230088Y-69830620D01*
X187247871Y-69851143D01*
X187270715Y-69865823D01*
X187285108Y-69876597D01*
X187305627Y-69894377D01*
X187330333Y-69905660D01*
X187346091Y-69914264D01*
X187368947Y-69928953D01*
X187395005Y-69936604D01*
X187411842Y-69942884D01*
X187436543Y-69954165D01*
X187463435Y-69958031D01*
X187480969Y-69961845D01*
X187488495Y-69964055D01*
X187548220Y-70002434D01*
X187577717Y-70067013D01*
X187579000Y-70084951D01*
X187579000Y-75865500D01*
X187558998Y-75933621D01*
X187505342Y-75980114D01*
X187453000Y-75991500D01*
X182314441Y-75991500D01*
X182296180Y-75990170D01*
X182272211Y-75986659D01*
X182222353Y-75991021D01*
X182211372Y-75991500D01*
X182205820Y-75991500D01*
X182202185Y-75991924D01*
X182202165Y-75991926D01*
X182174709Y-75995135D01*
X182171068Y-75995507D01*
X182094251Y-76002228D01*
X182075139Y-76006465D01*
X182002653Y-76032846D01*
X181999198Y-76034047D01*
X181925995Y-76058305D01*
X181908373Y-76066837D01*
X181843927Y-76109224D01*
X181840838Y-76111192D01*
X181775218Y-76151667D01*
X181760036Y-76164034D01*
X181707087Y-76220156D01*
X181704534Y-76222783D01*
X179844745Y-78082572D01*
X179782433Y-78116598D01*
X179711618Y-78111533D01*
X179654782Y-78068986D01*
X179635817Y-78032413D01*
X179634527Y-78028444D01*
X179539041Y-77863057D01*
X179411252Y-77721133D01*
X179256753Y-77608883D01*
X179256752Y-77608882D01*
X179082288Y-77531206D01*
X178895487Y-77491500D01*
X178704513Y-77491500D01*
X178579978Y-77517970D01*
X178517711Y-77531206D01*
X178343246Y-77608883D01*
X178188747Y-77721133D01*
X178060958Y-77863057D01*
X177965473Y-78028443D01*
X177910612Y-78197285D01*
X177879874Y-78247443D01*
X174722724Y-81404595D01*
X174660412Y-81438620D01*
X174633629Y-81441500D01*
X144996220Y-81441500D01*
X144928099Y-81421498D01*
X144888979Y-81381647D01*
X144884321Y-81374095D01*
X144824030Y-81276348D01*
X144824028Y-81276346D01*
X144824027Y-81276344D01*
X144766424Y-81218741D01*
X144732398Y-81156429D01*
X144737463Y-81085614D01*
X144766424Y-81040551D01*
X144848632Y-80958342D01*
X144941659Y-80807522D01*
X144997393Y-80639327D01*
X145007674Y-80538692D01*
X145008000Y-80532302D01*
X145008000Y-80264000D01*
X143784500Y-80264000D01*
X143716379Y-80243998D01*
X143669886Y-80190342D01*
X143658500Y-80138000D01*
X143658500Y-78777000D01*
X144166500Y-78777000D01*
X144166500Y-79756000D01*
X145008000Y-79756000D01*
X145008000Y-79487697D01*
X145007674Y-79481307D01*
X144997393Y-79380672D01*
X144941659Y-79212477D01*
X144848632Y-79061657D01*
X144723342Y-78936367D01*
X144572522Y-78843340D01*
X144404327Y-78787606D01*
X144303692Y-78777325D01*
X144297303Y-78777000D01*
X144166500Y-78777000D01*
X143658500Y-78777000D01*
X143527697Y-78777000D01*
X143521307Y-78777325D01*
X143420672Y-78787606D01*
X143252477Y-78843340D01*
X143101657Y-78936367D01*
X142965951Y-79072074D01*
X142963055Y-79069178D01*
X142929741Y-79099140D01*
X142859665Y-79110538D01*
X142794552Y-79082241D01*
X142784994Y-79071210D01*
X142784444Y-79071761D01*
X142648655Y-78935972D01*
X142640560Y-78930979D01*
X142497738Y-78842885D01*
X142329426Y-78787113D01*
X142329423Y-78787112D01*
X142329421Y-78787112D01*
X142228746Y-78776826D01*
X142228725Y-78776824D01*
X142225545Y-78776500D01*
X142222339Y-78776500D01*
X141452661Y-78776500D01*
X141452641Y-78776500D01*
X141449456Y-78776501D01*
X141446279Y-78776825D01*
X141446270Y-78776826D01*
X141345573Y-78787113D01*
X141177262Y-78842885D01*
X141026344Y-78935972D01*
X140900972Y-79061344D01*
X140873677Y-79105597D01*
X140836479Y-79165905D01*
X140820601Y-79191647D01*
X140767815Y-79239125D01*
X140713360Y-79251500D01*
X136466371Y-79251500D01*
X136398250Y-79231498D01*
X136377276Y-79214595D01*
X135334458Y-78171777D01*
X135300432Y-78109465D01*
X135305497Y-78038650D01*
X135348044Y-77981814D01*
X135363578Y-77971871D01*
X135529296Y-77882190D01*
X135710231Y-77741363D01*
X135865518Y-77572676D01*
X135990922Y-77380730D01*
X136083023Y-77170761D01*
X136139308Y-76948497D01*
X136158242Y-76720000D01*
X136139308Y-76491503D01*
X136083023Y-76269239D01*
X135990922Y-76059270D01*
X135990921Y-76059268D01*
X135990920Y-76059266D01*
X135865517Y-75867322D01*
X135710234Y-75698640D01*
X135710233Y-75698639D01*
X135710231Y-75698637D01*
X135529296Y-75557810D01*
X135529294Y-75557808D01*
X135521056Y-75551397D01*
X135522931Y-75548986D01*
X135484462Y-75510813D01*
X135469102Y-75441498D01*
X135493655Y-75374882D01*
X135522234Y-75350117D01*
X135521056Y-75348603D01*
X135529293Y-75342191D01*
X135529296Y-75342190D01*
X135710231Y-75201363D01*
X135865518Y-75032676D01*
X135928251Y-74936655D01*
X135942017Y-74915585D01*
X135996020Y-74869497D01*
X136047500Y-74858500D01*
X137678780Y-74858500D01*
X137746901Y-74878502D01*
X137786020Y-74918352D01*
X137850970Y-75023652D01*
X137850972Y-75023655D01*
X137976344Y-75149027D01*
X137976346Y-75149028D01*
X137976348Y-75149030D01*
X138127262Y-75242115D01*
X138295574Y-75297887D01*
X138371637Y-75305658D01*
X138396253Y-75308173D01*
X138396255Y-75308173D01*
X138399455Y-75308500D01*
X139200544Y-75308499D01*
X139304426Y-75297887D01*
X139472738Y-75242115D01*
X139623652Y-75149030D01*
X139710906Y-75061775D01*
X139773216Y-75027752D01*
X139844032Y-75032816D01*
X139889093Y-75061775D01*
X139976348Y-75149030D01*
X140127262Y-75242115D01*
X140295574Y-75297887D01*
X140371637Y-75305658D01*
X140396253Y-75308173D01*
X140396255Y-75308173D01*
X140399455Y-75308500D01*
X141200544Y-75308499D01*
X141304426Y-75297887D01*
X141472738Y-75242115D01*
X141623652Y-75149030D01*
X141749030Y-75023652D01*
X141813979Y-74918352D01*
X141866765Y-74870875D01*
X141921220Y-74858500D01*
X172617414Y-74858500D01*
X172685535Y-74878502D01*
X172691448Y-74882545D01*
X172703248Y-74891118D01*
X172877712Y-74968794D01*
X173064513Y-75008500D01*
X173064515Y-75008500D01*
X173255485Y-75008500D01*
X173255487Y-75008500D01*
X173442288Y-74968794D01*
X173616752Y-74891118D01*
X173771253Y-74778866D01*
X173899040Y-74636944D01*
X173994527Y-74471556D01*
X174053542Y-74289928D01*
X174073504Y-74100000D01*
X174053542Y-73910072D01*
X174022931Y-73815862D01*
X173994527Y-73728443D01*
X173899041Y-73563057D01*
X173771252Y-73421133D01*
X173694002Y-73365007D01*
X173616752Y-73308882D01*
X173442288Y-73231206D01*
X173255487Y-73191500D01*
X173064513Y-73191500D01*
X172939978Y-73217970D01*
X172877711Y-73231206D01*
X172790480Y-73270044D01*
X172703248Y-73308882D01*
X172691472Y-73317437D01*
X172624608Y-73341294D01*
X172617414Y-73341500D01*
X141921220Y-73341500D01*
X141853099Y-73321498D01*
X141813979Y-73281647D01*
X141786618Y-73237288D01*
X141749030Y-73176348D01*
X141749028Y-73176346D01*
X141749027Y-73176344D01*
X141623655Y-73050972D01*
X141569891Y-73017810D01*
X141472738Y-72957885D01*
X141304426Y-72902113D01*
X141304423Y-72902112D01*
X141304421Y-72902112D01*
X141203746Y-72891826D01*
X141203725Y-72891824D01*
X141200545Y-72891500D01*
X141197339Y-72891500D01*
X140402661Y-72891500D01*
X140402641Y-72891500D01*
X140399456Y-72891501D01*
X140396279Y-72891825D01*
X140396270Y-72891826D01*
X140295573Y-72902113D01*
X140127262Y-72957885D01*
X139976344Y-73050972D01*
X139889095Y-73138222D01*
X139826783Y-73172248D01*
X139755968Y-73167183D01*
X139710905Y-73138222D01*
X139623655Y-73050972D01*
X139569891Y-73017810D01*
X139472738Y-72957885D01*
X139304426Y-72902113D01*
X139304423Y-72902112D01*
X139304421Y-72902112D01*
X139203746Y-72891826D01*
X139203725Y-72891824D01*
X139200545Y-72891500D01*
X139197339Y-72891500D01*
X138402661Y-72891500D01*
X138402641Y-72891500D01*
X138399456Y-72891501D01*
X138396279Y-72891825D01*
X138396270Y-72891826D01*
X138295573Y-72902113D01*
X138127262Y-72957885D01*
X137976344Y-73050972D01*
X137850972Y-73176344D01*
X137786021Y-73281647D01*
X137733235Y-73329125D01*
X137678780Y-73341500D01*
X135933837Y-73341500D01*
X135865716Y-73321498D01*
X135841136Y-73300837D01*
X135710234Y-73158640D01*
X135710233Y-73158639D01*
X135710231Y-73158637D01*
X135640638Y-73104471D01*
X135529295Y-73017808D01*
X135327649Y-72908684D01*
X135180851Y-72858289D01*
X135110793Y-72834238D01*
X134884640Y-72796500D01*
X134655360Y-72796500D01*
X134429207Y-72834238D01*
X134429204Y-72834238D01*
X134429204Y-72834239D01*
X134212350Y-72908684D01*
X134010704Y-73017808D01*
X133829765Y-73158640D01*
X133674482Y-73327322D01*
X133549079Y-73519266D01*
X133456975Y-73729243D01*
X133403165Y-73941736D01*
X133400692Y-73951503D01*
X133381758Y-74180000D01*
X133400692Y-74408497D01*
X133400692Y-74408500D01*
X133400693Y-74408501D01*
X133456975Y-74630756D01*
X133549079Y-74840733D01*
X133674482Y-75032677D01*
X133781590Y-75149027D01*
X133829769Y-75201363D01*
X133932817Y-75281568D01*
X134018943Y-75348603D01*
X134017067Y-75351012D01*
X134055543Y-75389200D01*
X134070895Y-75458516D01*
X134046334Y-75525129D01*
X134017765Y-75549884D01*
X134018943Y-75551397D01*
X133829768Y-75698637D01*
X133711060Y-75827589D01*
X133650207Y-75864160D01*
X133579243Y-75862025D01*
X133520697Y-75821864D01*
X133501504Y-75784344D01*
X133501212Y-75784481D01*
X133497473Y-75776464D01*
X133496651Y-75774856D01*
X133496553Y-75774490D01*
X133402749Y-75573328D01*
X133275439Y-75391510D01*
X133275438Y-75391509D01*
X133275436Y-75391506D01*
X133118493Y-75234563D01*
X132936673Y-75107251D01*
X132735510Y-75013446D01*
X132521114Y-74956000D01*
X132349846Y-74941016D01*
X132300000Y-74936655D01*
X132299999Y-74936655D01*
X132078885Y-74956000D01*
X131864490Y-75013446D01*
X131663327Y-75107251D01*
X131481506Y-75234563D01*
X131324563Y-75391506D01*
X131197251Y-75573327D01*
X131103446Y-75774490D01*
X131046000Y-75988885D01*
X131026655Y-76210000D01*
X131046000Y-76431114D01*
X131103446Y-76645510D01*
X131197251Y-76846673D01*
X131324563Y-77028493D01*
X131431975Y-77135905D01*
X131466001Y-77198217D01*
X131460936Y-77269032D01*
X131431975Y-77314095D01*
X131324563Y-77421506D01*
X131197251Y-77603327D01*
X131103446Y-77804490D01*
X131046000Y-78018885D01*
X131026655Y-78240000D01*
X131046000Y-78461114D01*
X131103446Y-78675510D01*
X131197251Y-78876673D01*
X131324563Y-79058493D01*
X131431975Y-79165905D01*
X131466001Y-79228217D01*
X131460936Y-79299032D01*
X131431975Y-79344095D01*
X131324563Y-79451506D01*
X131197251Y-79633327D01*
X131103446Y-79834490D01*
X131046000Y-80048885D01*
X131026655Y-80270000D01*
X131046000Y-80491114D01*
X131103446Y-80705510D01*
X131197251Y-80906673D01*
X131324563Y-81088493D01*
X131431975Y-81195905D01*
X131466001Y-81258217D01*
X131460936Y-81329032D01*
X131431975Y-81374095D01*
X131324563Y-81481506D01*
X131197251Y-81663327D01*
X131103446Y-81864490D01*
X131046000Y-82078885D01*
X131026655Y-82300000D01*
X131046000Y-82521114D01*
X131103446Y-82735510D01*
X131197251Y-82936673D01*
X131324563Y-83118493D01*
X131431975Y-83225905D01*
X131466001Y-83288217D01*
X131460936Y-83359032D01*
X131431975Y-83404095D01*
X131324563Y-83511506D01*
X131197251Y-83693327D01*
X131103446Y-83894490D01*
X131046000Y-84108885D01*
X131026655Y-84330000D01*
X131046000Y-84551114D01*
X131103446Y-84765510D01*
X131197251Y-84966673D01*
X131324563Y-85148493D01*
X131431975Y-85255905D01*
X131466001Y-85318217D01*
X131460936Y-85389032D01*
X131431975Y-85434095D01*
X131324563Y-85541506D01*
X131197251Y-85723327D01*
X131103446Y-85924490D01*
X131046000Y-86138885D01*
X131026655Y-86360000D01*
X131046000Y-86581114D01*
X131103446Y-86795510D01*
X131197251Y-86996673D01*
X131324563Y-87178493D01*
X131481506Y-87335436D01*
X131481509Y-87335438D01*
X131481510Y-87335439D01*
X131663327Y-87462749D01*
X131770685Y-87512810D01*
X131864489Y-87556553D01*
X131919594Y-87571318D01*
X132078886Y-87614000D01*
X132300000Y-87633345D01*
X132521114Y-87614000D01*
X132735510Y-87556553D01*
X132936673Y-87462749D01*
X133118490Y-87335439D01*
X133275439Y-87178490D01*
X133402749Y-86996673D01*
X133468473Y-86855725D01*
X133515389Y-86802442D01*
X133583666Y-86782981D01*
X133651626Y-86803522D01*
X133675368Y-86823639D01*
X133790796Y-86949027D01*
X133829769Y-86991363D01*
X133853160Y-87009569D01*
X134018943Y-87138603D01*
X134017067Y-87141012D01*
X134055543Y-87179200D01*
X134070895Y-87248516D01*
X134046334Y-87315129D01*
X134017765Y-87339884D01*
X134018943Y-87341397D01*
X133829765Y-87488640D01*
X133674482Y-87657322D01*
X133549079Y-87849266D01*
X133456975Y-88059243D01*
X133400693Y-88281498D01*
X133400692Y-88281503D01*
X133384736Y-88474058D01*
X133382071Y-88506228D01*
X133381758Y-88510000D01*
X133400692Y-88738497D01*
X133400692Y-88738500D01*
X133400693Y-88738501D01*
X133456975Y-88960756D01*
X133549079Y-89170733D01*
X133674482Y-89362677D01*
X133801336Y-89500477D01*
X133829769Y-89531363D01*
X133914800Y-89597545D01*
X134010704Y-89672191D01*
X134212349Y-89781314D01*
X134212350Y-89781315D01*
X134429207Y-89855762D01*
X134655360Y-89893500D01*
X134655363Y-89893500D01*
X134884637Y-89893500D01*
X134884640Y-89893500D01*
X135110793Y-89855762D01*
X135327650Y-89781315D01*
X135442410Y-89719210D01*
X135529295Y-89672191D01*
X135550553Y-89655644D01*
X135710231Y-89531363D01*
X135865518Y-89362676D01*
X135990922Y-89170730D01*
X136083023Y-88960761D01*
X136139308Y-88738497D01*
X136158242Y-88510000D01*
X136139308Y-88281503D01*
X136083023Y-88059239D01*
X135990922Y-87849270D01*
X135990921Y-87849268D01*
X135990920Y-87849266D01*
X135865517Y-87657322D01*
X135710234Y-87488640D01*
X135710233Y-87488639D01*
X135710231Y-87488637D01*
X135529296Y-87347810D01*
X135529294Y-87347808D01*
X135521056Y-87341397D01*
X135522931Y-87338986D01*
X135484462Y-87300813D01*
X135469102Y-87231498D01*
X135493655Y-87164882D01*
X135522234Y-87140117D01*
X135521056Y-87138603D01*
X135529293Y-87132191D01*
X135529296Y-87132190D01*
X135710231Y-86991363D01*
X135865518Y-86822676D01*
X135918869Y-86741016D01*
X135935484Y-86715585D01*
X135989487Y-86669496D01*
X136040967Y-86658500D01*
X137478780Y-86658500D01*
X137546901Y-86678502D01*
X137586020Y-86718352D01*
X137638554Y-86803522D01*
X137650972Y-86823655D01*
X137776344Y-86949027D01*
X137776346Y-86949028D01*
X137776348Y-86949030D01*
X137927262Y-87042115D01*
X138095574Y-87097887D01*
X138171637Y-87105658D01*
X138196253Y-87108173D01*
X138196255Y-87108173D01*
X138199455Y-87108500D01*
X139000544Y-87108499D01*
X139104426Y-87097887D01*
X139272738Y-87042115D01*
X139423652Y-86949030D01*
X139510906Y-86861775D01*
X139573216Y-86827752D01*
X139644032Y-86832816D01*
X139689093Y-86861775D01*
X139776348Y-86949030D01*
X139927262Y-87042115D01*
X140095574Y-87097887D01*
X140171637Y-87105658D01*
X140196253Y-87108173D01*
X140196255Y-87108173D01*
X140199455Y-87108500D01*
X141000544Y-87108499D01*
X141104426Y-87097887D01*
X141272738Y-87042115D01*
X141423652Y-86949030D01*
X141549030Y-86823652D01*
X141613979Y-86718352D01*
X141666765Y-86670875D01*
X141721220Y-86658500D01*
X142335559Y-86658500D01*
X142353820Y-86659830D01*
X142377789Y-86663341D01*
X142424253Y-86659275D01*
X142427647Y-86658979D01*
X142438628Y-86658500D01*
X142440513Y-86658500D01*
X142444180Y-86658500D01*
X142475301Y-86654861D01*
X142478896Y-86654494D01*
X142554426Y-86647887D01*
X142554430Y-86647885D01*
X142555751Y-86647770D01*
X142574856Y-86643535D01*
X142576106Y-86643079D01*
X142576113Y-86643079D01*
X142647400Y-86617132D01*
X142650769Y-86615961D01*
X142722738Y-86592114D01*
X142722739Y-86592112D01*
X142724007Y-86591693D01*
X142741613Y-86583169D01*
X142742725Y-86582437D01*
X142742732Y-86582435D01*
X142806138Y-86540730D01*
X142809161Y-86538806D01*
X142873651Y-86499030D01*
X142873652Y-86499028D01*
X142874788Y-86498328D01*
X142889959Y-86485970D01*
X142890871Y-86485002D01*
X142890874Y-86485001D01*
X142942929Y-86429824D01*
X142945448Y-86427231D01*
X144365777Y-85006902D01*
X144379624Y-84994936D01*
X144399058Y-84980469D01*
X144410634Y-84966673D01*
X144431221Y-84942138D01*
X144438660Y-84934020D01*
X144442580Y-84930101D01*
X144462070Y-84905450D01*
X144464234Y-84902794D01*
X144513032Y-84844640D01*
X144513035Y-84844632D01*
X144513892Y-84843612D01*
X144524402Y-84827116D01*
X144524965Y-84825908D01*
X144524967Y-84825906D01*
X144557005Y-84757198D01*
X144558582Y-84753940D01*
X144592609Y-84686188D01*
X144592610Y-84686183D01*
X144593212Y-84684985D01*
X144599634Y-84666509D01*
X144608362Y-84624238D01*
X144615241Y-84590919D01*
X144616022Y-84587397D01*
X144633500Y-84513656D01*
X144633500Y-84513651D01*
X144633807Y-84512356D01*
X144635797Y-84492883D01*
X144635758Y-84491560D01*
X144635759Y-84491558D01*
X144633553Y-84415740D01*
X144633500Y-84412076D01*
X144633500Y-83359539D01*
X144653502Y-83291418D01*
X144693354Y-83252298D01*
X144694332Y-83251694D01*
X144698652Y-83249030D01*
X144824030Y-83123652D01*
X144888979Y-83018352D01*
X144941765Y-82970875D01*
X144996220Y-82958500D01*
X174664628Y-82958500D01*
X174732749Y-82978502D01*
X174779242Y-83032158D01*
X174789346Y-83102432D01*
X174759852Y-83167012D01*
X174753736Y-83173581D01*
X174474846Y-83452472D01*
X174209225Y-83718093D01*
X174195377Y-83730061D01*
X174175944Y-83744529D01*
X174143773Y-83782868D01*
X174136360Y-83790958D01*
X174135017Y-83792301D01*
X174135011Y-83792307D01*
X174132420Y-83794899D01*
X174130149Y-83797770D01*
X174130140Y-83797781D01*
X174112997Y-83819460D01*
X174110688Y-83822294D01*
X174061119Y-83881369D01*
X174050589Y-83897899D01*
X174017995Y-83967794D01*
X174016401Y-83971087D01*
X173981795Y-84039997D01*
X173975363Y-84058500D01*
X173959759Y-84134064D01*
X173958967Y-84137637D01*
X173941192Y-84212640D01*
X173939202Y-84232115D01*
X173941447Y-84309258D01*
X173941500Y-84312922D01*
X173941500Y-85362999D01*
X173924619Y-85425999D01*
X173865472Y-85528443D01*
X173806458Y-85710070D01*
X173786496Y-85900000D01*
X173806458Y-86089929D01*
X173865472Y-86271556D01*
X173960958Y-86436942D01*
X173960960Y-86436944D01*
X174088747Y-86578866D01*
X174243248Y-86691118D01*
X174417712Y-86768794D01*
X174604513Y-86808500D01*
X174604515Y-86808500D01*
X174795485Y-86808500D01*
X174795487Y-86808500D01*
X174982288Y-86768794D01*
X175156752Y-86691118D01*
X175311253Y-86578866D01*
X175439040Y-86436944D01*
X175534527Y-86271556D01*
X175593542Y-86089928D01*
X175613504Y-85900000D01*
X175593542Y-85710072D01*
X175550910Y-85578866D01*
X175534527Y-85528443D01*
X175475381Y-85425999D01*
X175458500Y-85362999D01*
X175458500Y-84666371D01*
X175478502Y-84598250D01*
X175495405Y-84577276D01*
X175862411Y-84210270D01*
X175924723Y-84176244D01*
X175995538Y-84181309D01*
X176052374Y-84223856D01*
X176060625Y-84236364D01*
X176060960Y-84236944D01*
X176188747Y-84378866D01*
X176343248Y-84491118D01*
X176517712Y-84568794D01*
X176704513Y-84608500D01*
X176704515Y-84608500D01*
X176895485Y-84608500D01*
X176895487Y-84608500D01*
X177082288Y-84568794D01*
X177241078Y-84498096D01*
X177311441Y-84488663D01*
X177375738Y-84518769D01*
X177413551Y-84578858D01*
X177412876Y-84649851D01*
X177412156Y-84652139D01*
X177377798Y-84757885D01*
X177377250Y-84759572D01*
X177359632Y-84927201D01*
X177357288Y-84949500D01*
X177377250Y-85139429D01*
X177436264Y-85321056D01*
X177531750Y-85486442D01*
X177614969Y-85578866D01*
X177659539Y-85628366D01*
X177814040Y-85740618D01*
X177988504Y-85818294D01*
X178175305Y-85858000D01*
X178175307Y-85858000D01*
X178366277Y-85858000D01*
X178366279Y-85858000D01*
X178553080Y-85818294D01*
X178727544Y-85740618D01*
X178882045Y-85628366D01*
X179009832Y-85486444D01*
X179105319Y-85321056D01*
X179164334Y-85139428D01*
X179184296Y-84949500D01*
X179164334Y-84759572D01*
X179128126Y-84648137D01*
X179105319Y-84577943D01*
X179046173Y-84475499D01*
X179029292Y-84412499D01*
X179029292Y-83995577D01*
X179049294Y-83927456D01*
X179066192Y-83906487D01*
X179262964Y-83709715D01*
X179325274Y-83675691D01*
X179396089Y-83680756D01*
X179452925Y-83723303D01*
X179460846Y-83735312D01*
X179539165Y-83822294D01*
X179588747Y-83877360D01*
X179743248Y-83989612D01*
X179917712Y-84067288D01*
X180104513Y-84106994D01*
X180104515Y-84106994D01*
X180308518Y-84106994D01*
X180376639Y-84126996D01*
X180423132Y-84180652D01*
X180433236Y-84250926D01*
X180403742Y-84315506D01*
X180402154Y-84317304D01*
X180360960Y-84363054D01*
X180265472Y-84528443D01*
X180206458Y-84710070D01*
X180186496Y-84900000D01*
X180206458Y-85089929D01*
X180265472Y-85271556D01*
X180360958Y-85436942D01*
X180488746Y-85578866D01*
X180488747Y-85578866D01*
X180643248Y-85691118D01*
X180817712Y-85768794D01*
X181004513Y-85808500D01*
X181004515Y-85808500D01*
X181195485Y-85808500D01*
X181195487Y-85808500D01*
X181382288Y-85768794D01*
X181556752Y-85691118D01*
X181711253Y-85578866D01*
X181839040Y-85436944D01*
X181934527Y-85271556D01*
X181989388Y-85102711D01*
X182020122Y-85052557D01*
X183127278Y-83945402D01*
X183189588Y-83911379D01*
X183216371Y-83908500D01*
X187453000Y-83908500D01*
X187521121Y-83928502D01*
X187567614Y-83982158D01*
X187579000Y-84034500D01*
X187579000Y-84347047D01*
X187558998Y-84415168D01*
X187505342Y-84461661D01*
X187488490Y-84467945D01*
X187480982Y-84470149D01*
X187463429Y-84473968D01*
X187436541Y-84477834D01*
X187411842Y-84489114D01*
X187395007Y-84495393D01*
X187368947Y-84503046D01*
X187346093Y-84517732D01*
X187330327Y-84526341D01*
X187305625Y-84537623D01*
X187285103Y-84555405D01*
X187270717Y-84566174D01*
X187247871Y-84580856D01*
X187230083Y-84601383D01*
X187217383Y-84614083D01*
X187196856Y-84631871D01*
X187182174Y-84654717D01*
X187171405Y-84669103D01*
X187153623Y-84689625D01*
X187142341Y-84714327D01*
X187133732Y-84730093D01*
X187119046Y-84752947D01*
X187111393Y-84779007D01*
X187105114Y-84795842D01*
X187093834Y-84820541D01*
X187089968Y-84847429D01*
X187086149Y-84864985D01*
X187078500Y-84891039D01*
X187078500Y-87065500D01*
X187058498Y-87133621D01*
X187004842Y-87180114D01*
X186952500Y-87191500D01*
X184836371Y-87191500D01*
X184768250Y-87171498D01*
X184747276Y-87154595D01*
X184664562Y-87071881D01*
X184630536Y-87009569D01*
X184628195Y-86994420D01*
X184609294Y-86790441D01*
X184553074Y-86592848D01*
X184461503Y-86408950D01*
X184337701Y-86245009D01*
X184185882Y-86106608D01*
X184129428Y-86071653D01*
X184011219Y-85998460D01*
X183819655Y-85924249D01*
X183819654Y-85924248D01*
X183617718Y-85886500D01*
X183412282Y-85886500D01*
X183277657Y-85911666D01*
X183210344Y-85924249D01*
X183018780Y-85998460D01*
X182844119Y-86106607D01*
X182692298Y-86245010D01*
X182568497Y-86408949D01*
X182476925Y-86592848D01*
X182420705Y-86790442D01*
X182401750Y-86994999D01*
X182420705Y-87199557D01*
X182476925Y-87397151D01*
X182522480Y-87488637D01*
X182568497Y-87581050D01*
X182692299Y-87744991D01*
X182844118Y-87883392D01*
X182970232Y-87961479D01*
X183002681Y-87981571D01*
X183018782Y-87991540D01*
X183210345Y-88065751D01*
X183412282Y-88103500D01*
X183498629Y-88103500D01*
X183566750Y-88123502D01*
X183587724Y-88140405D01*
X183888092Y-88440773D01*
X183900060Y-88454620D01*
X183914531Y-88474058D01*
X183952870Y-88506228D01*
X183960974Y-88513655D01*
X183964900Y-88517581D01*
X183967780Y-88519858D01*
X183989455Y-88536997D01*
X183992296Y-88539311D01*
X184051377Y-88588885D01*
X184067890Y-88599405D01*
X184069094Y-88599966D01*
X184069095Y-88599967D01*
X184119291Y-88623374D01*
X184137786Y-88631998D01*
X184141078Y-88633591D01*
X184208812Y-88667609D01*
X184208814Y-88667609D01*
X184210008Y-88668209D01*
X184228490Y-88674633D01*
X184229791Y-88674901D01*
X184229794Y-88674903D01*
X184304078Y-88690241D01*
X184307630Y-88691029D01*
X184381344Y-88708500D01*
X184381346Y-88708500D01*
X184382641Y-88708807D01*
X184402114Y-88710797D01*
X184403439Y-88710758D01*
X184403442Y-88710759D01*
X184477477Y-88708604D01*
X184479259Y-88708553D01*
X184482923Y-88708500D01*
X187453000Y-88708500D01*
X187521121Y-88728502D01*
X187567614Y-88782158D01*
X187579000Y-88834500D01*
X187579000Y-105175047D01*
X187558998Y-105243168D01*
X187505342Y-105289661D01*
X187488490Y-105295945D01*
X187480982Y-105298149D01*
X187463429Y-105301968D01*
X187436541Y-105305834D01*
X187411842Y-105317114D01*
X187395007Y-105323393D01*
X187368947Y-105331046D01*
X187346093Y-105345732D01*
X187330327Y-105354341D01*
X187305625Y-105365623D01*
X187285103Y-105383405D01*
X187270717Y-105394174D01*
X187247871Y-105408856D01*
X187230083Y-105429383D01*
X187217383Y-105442083D01*
X187196856Y-105459871D01*
X187182174Y-105482717D01*
X187171405Y-105497103D01*
X187153623Y-105517625D01*
X187142341Y-105542327D01*
X187133732Y-105558093D01*
X187119046Y-105580947D01*
X187111393Y-105607007D01*
X187105114Y-105623842D01*
X187093834Y-105648541D01*
X187089968Y-105675429D01*
X187086149Y-105692985D01*
X187078500Y-105719039D01*
X187078500Y-116975500D01*
X187058498Y-117043621D01*
X187004842Y-117090114D01*
X186952500Y-117101500D01*
X180316642Y-117101500D01*
X180248521Y-117081498D01*
X180202028Y-117027842D01*
X180190642Y-116975500D01*
X180190642Y-114367766D01*
X182295787Y-114367766D01*
X182325413Y-114637015D01*
X182325414Y-114637018D01*
X182393928Y-114899088D01*
X182499870Y-115148390D01*
X182640982Y-115379610D01*
X182814255Y-115587820D01*
X182814256Y-115587821D01*
X182814258Y-115587823D01*
X183015993Y-115768578D01*
X183015995Y-115768579D01*
X183015998Y-115768582D01*
X183241910Y-115918044D01*
X183374104Y-115980014D01*
X183487171Y-116033018D01*
X183487173Y-116033018D01*
X183487176Y-116033020D01*
X183746569Y-116111060D01*
X183746572Y-116111060D01*
X183746574Y-116111061D01*
X184014558Y-116150500D01*
X184014561Y-116150500D01*
X184215330Y-116150500D01*
X184217631Y-116150500D01*
X184420156Y-116135677D01*
X184684553Y-116076780D01*
X184937558Y-115980014D01*
X185173777Y-115847441D01*
X185388177Y-115681888D01*
X185576186Y-115486881D01*
X185733799Y-115266579D01*
X185857656Y-115025675D01*
X185945118Y-114769305D01*
X185994319Y-114502933D01*
X186004212Y-114232235D01*
X185974586Y-113962982D01*
X185906072Y-113700912D01*
X185800130Y-113451610D01*
X185659018Y-113220390D01*
X185485745Y-113012180D01*
X185466540Y-112994972D01*
X185284006Y-112831421D01*
X185284003Y-112831419D01*
X185284002Y-112831418D01*
X185058090Y-112681956D01*
X185039781Y-112673373D01*
X184812828Y-112566981D01*
X184553425Y-112488938D01*
X184285442Y-112449500D01*
X184285439Y-112449500D01*
X184082369Y-112449500D01*
X184080099Y-112449666D01*
X184080075Y-112449667D01*
X183879839Y-112464323D01*
X183615449Y-112523219D01*
X183362441Y-112619985D01*
X183126225Y-112752557D01*
X182911820Y-112918114D01*
X182723815Y-113113117D01*
X182566200Y-113333422D01*
X182442342Y-113574328D01*
X182354882Y-113830693D01*
X182305681Y-114097065D01*
X182295787Y-114367766D01*
X180190642Y-114367766D01*
X180190642Y-108722214D01*
X154009359Y-108722214D01*
X154009359Y-116975500D01*
X153989357Y-117043621D01*
X153935701Y-117090114D01*
X153883359Y-117101500D01*
X112894500Y-117101500D01*
X112826379Y-117081498D01*
X112779886Y-117027842D01*
X112768500Y-116975500D01*
X112768500Y-114367766D01*
X113715787Y-114367766D01*
X113745413Y-114637015D01*
X113745414Y-114637018D01*
X113813928Y-114899088D01*
X113919870Y-115148390D01*
X114060982Y-115379610D01*
X114234255Y-115587820D01*
X114234256Y-115587821D01*
X114234258Y-115587823D01*
X114435993Y-115768578D01*
X114435995Y-115768579D01*
X114435998Y-115768582D01*
X114661910Y-115918044D01*
X114794104Y-115980014D01*
X114907171Y-116033018D01*
X114907173Y-116033018D01*
X114907176Y-116033020D01*
X115166569Y-116111060D01*
X115166572Y-116111060D01*
X115166574Y-116111061D01*
X115434558Y-116150500D01*
X115434561Y-116150500D01*
X115635330Y-116150500D01*
X115637631Y-116150500D01*
X115840156Y-116135677D01*
X116104553Y-116076780D01*
X116357558Y-115980014D01*
X116593777Y-115847441D01*
X116808177Y-115681888D01*
X116996186Y-115486881D01*
X117153799Y-115266579D01*
X117277656Y-115025675D01*
X117365118Y-114769305D01*
X117414319Y-114502933D01*
X117424212Y-114232235D01*
X117394586Y-113962982D01*
X117326072Y-113700912D01*
X117220130Y-113451610D01*
X117079018Y-113220390D01*
X116990807Y-113114393D01*
X145584102Y-113114393D01*
X145584641Y-113122221D01*
X145584770Y-113152955D01*
X145584281Y-113161098D01*
X145584959Y-113197789D01*
X145585113Y-113234433D01*
X145585785Y-113242547D01*
X145586289Y-113269768D01*
X145585853Y-113279673D01*
X145587113Y-113314377D01*
X145587754Y-113349054D01*
X145588729Y-113358900D01*
X145589461Y-113379044D01*
X145589159Y-113393113D01*
X145590949Y-113421290D01*
X145591119Y-113424697D01*
X145592144Y-113452923D01*
X145593848Y-113466899D01*
X145594757Y-113481201D01*
X145594973Y-113492296D01*
X145594762Y-113500834D01*
X145596902Y-113518864D01*
X145596975Y-113547241D01*
X145598128Y-113553854D01*
X145600000Y-113575491D01*
X145600000Y-116300000D01*
X153300000Y-116300000D01*
X153300000Y-109200000D01*
X145600000Y-109200000D01*
X145600000Y-112638413D01*
X145599507Y-112644043D01*
X145599649Y-112644048D01*
X145598716Y-112673373D01*
X145598346Y-112679813D01*
X145596838Y-112697938D01*
X145595026Y-112711173D01*
X145594506Y-112713888D01*
X145593346Y-112738884D01*
X145593048Y-112743488D01*
X145590976Y-112768386D01*
X145591141Y-112771137D01*
X145591231Y-112784496D01*
X145590470Y-112800898D01*
X145589238Y-112812359D01*
X145588450Y-112843820D01*
X145588355Y-112846497D01*
X145586893Y-112878028D01*
X145587304Y-112889554D01*
X145586702Y-112913561D01*
X145585925Y-112922323D01*
X145585584Y-112958214D01*
X145584683Y-112994201D01*
X145585159Y-113003001D01*
X145584879Y-113032527D01*
X145584297Y-113040375D01*
X145584453Y-113077425D01*
X145584102Y-113114393D01*
X116990807Y-113114393D01*
X116905745Y-113012180D01*
X116886540Y-112994972D01*
X116704006Y-112831421D01*
X116704003Y-112831419D01*
X116704002Y-112831418D01*
X116478090Y-112681956D01*
X116459781Y-112673373D01*
X116232828Y-112566981D01*
X115973425Y-112488938D01*
X115705442Y-112449500D01*
X115705439Y-112449500D01*
X115502369Y-112449500D01*
X115500099Y-112449666D01*
X115500075Y-112449667D01*
X115299839Y-112464323D01*
X115035449Y-112523219D01*
X114782441Y-112619985D01*
X114546225Y-112752557D01*
X114331820Y-112918114D01*
X114143815Y-113113117D01*
X113986200Y-113333422D01*
X113862342Y-113574328D01*
X113774882Y-113830693D01*
X113725681Y-114097065D01*
X113715787Y-114367766D01*
X112768500Y-114367766D01*
X112768500Y-89360000D01*
X116262253Y-89360000D01*
X116281215Y-89613037D01*
X116337679Y-89860421D01*
X116430383Y-90096625D01*
X116557256Y-90316376D01*
X116595924Y-90364863D01*
X116595925Y-90364864D01*
X117252034Y-89708754D01*
X117342379Y-89852536D01*
X117467464Y-89977621D01*
X117611243Y-90067964D01*
X116955216Y-90723991D01*
X116955216Y-90723992D01*
X117111130Y-90830293D01*
X117339742Y-90940388D01*
X117582212Y-91015179D01*
X117833130Y-91053000D01*
X118086870Y-91053000D01*
X118337787Y-91015179D01*
X118580257Y-90940388D01*
X118808871Y-90830293D01*
X118964783Y-90723993D01*
X118964783Y-90723992D01*
X118308755Y-90067965D01*
X118452536Y-89977621D01*
X118577621Y-89852536D01*
X118667964Y-89708755D01*
X119324073Y-90364864D01*
X119362744Y-90316372D01*
X119489616Y-90096625D01*
X119582320Y-89860421D01*
X119638784Y-89613037D01*
X119657746Y-89360000D01*
X119639290Y-89113715D01*
X119654146Y-89044290D01*
X119704177Y-88993917D01*
X119773499Y-88978590D01*
X119840104Y-89003175D01*
X119849020Y-89010458D01*
X119980672Y-89128419D01*
X119980674Y-89128420D01*
X119980677Y-89128423D01*
X120209641Y-89279904D01*
X120458221Y-89396433D01*
X120721119Y-89475527D01*
X120721122Y-89475527D01*
X120721124Y-89475528D01*
X120992729Y-89515500D01*
X120992731Y-89515500D01*
X121196246Y-89515500D01*
X121198547Y-89515500D01*
X121403805Y-89500477D01*
X121671775Y-89440784D01*
X121928198Y-89342711D01*
X122167609Y-89208347D01*
X122167608Y-89208347D01*
X122167611Y-89208346D01*
X122298907Y-89106962D01*
X122384904Y-89040557D01*
X122575454Y-88842916D01*
X122735196Y-88619637D01*
X122860727Y-88375479D01*
X122949370Y-88115646D01*
X122999236Y-87845674D01*
X123009262Y-87571320D01*
X123000164Y-87488637D01*
X122983308Y-87335436D01*
X122979236Y-87298429D01*
X122909796Y-87032818D01*
X122802423Y-86780148D01*
X122659405Y-86545804D01*
X122483791Y-86334782D01*
X122279323Y-86151577D01*
X122050359Y-86000096D01*
X121801779Y-85883567D01*
X121716798Y-85858000D01*
X121538875Y-85804471D01*
X121267271Y-85764500D01*
X121267269Y-85764500D01*
X121061453Y-85764500D01*
X121059183Y-85764666D01*
X121059159Y-85764667D01*
X120856191Y-85779523D01*
X120588226Y-85839215D01*
X120331801Y-85937288D01*
X120092388Y-86071653D01*
X119875097Y-86239441D01*
X119684547Y-86437082D01*
X119524803Y-86660364D01*
X119399271Y-86904524D01*
X119310630Y-87164352D01*
X119260764Y-87434325D01*
X119250737Y-87708681D01*
X119279847Y-87973242D01*
X119267415Y-88043141D01*
X119219166Y-88095223D01*
X119150419Y-88112953D01*
X119083000Y-88090700D01*
X119068902Y-88079387D01*
X119018528Y-88032647D01*
X118808874Y-87889708D01*
X118580257Y-87779611D01*
X118337787Y-87704820D01*
X118086870Y-87667000D01*
X117833130Y-87667000D01*
X117582212Y-87704820D01*
X117339742Y-87779611D01*
X117111126Y-87889708D01*
X116955216Y-87996005D01*
X116955216Y-87996007D01*
X117611244Y-88652034D01*
X117467464Y-88742379D01*
X117342379Y-88867464D01*
X117252035Y-89011244D01*
X116595926Y-88355135D01*
X116595924Y-88355135D01*
X116557256Y-88403624D01*
X116430383Y-88623374D01*
X116337679Y-88859578D01*
X116281215Y-89106962D01*
X116262253Y-89360000D01*
X112768500Y-89360000D01*
X112768500Y-73229999D01*
X116262253Y-73229999D01*
X116281215Y-73483037D01*
X116337679Y-73730421D01*
X116430383Y-73966625D01*
X116557256Y-74186376D01*
X116595924Y-74234863D01*
X116595925Y-74234864D01*
X117252034Y-73578754D01*
X117342379Y-73722536D01*
X117467464Y-73847621D01*
X117611244Y-73937965D01*
X116955216Y-74593992D01*
X117111129Y-74700293D01*
X117339742Y-74810388D01*
X117582212Y-74885179D01*
X117833130Y-74923000D01*
X118086870Y-74923000D01*
X118337787Y-74885179D01*
X118580257Y-74810388D01*
X118808874Y-74700291D01*
X119018527Y-74557352D01*
X119071664Y-74508048D01*
X119135205Y-74476375D01*
X119205781Y-74484084D01*
X119260987Y-74528725D01*
X119283294Y-74596126D01*
X119281271Y-74623296D01*
X119260764Y-74734323D01*
X119250737Y-75008681D01*
X119280763Y-75281568D01*
X119298684Y-75350117D01*
X119350204Y-75547182D01*
X119457577Y-75799852D01*
X119600595Y-76034196D01*
X119776209Y-76245218D01*
X119980677Y-76428423D01*
X120209641Y-76579904D01*
X120458221Y-76696433D01*
X120721119Y-76775527D01*
X120721122Y-76775527D01*
X120721124Y-76775528D01*
X120992729Y-76815500D01*
X120992731Y-76815500D01*
X121196246Y-76815500D01*
X121198547Y-76815500D01*
X121403805Y-76800477D01*
X121671775Y-76740784D01*
X121928198Y-76642711D01*
X122167609Y-76508347D01*
X122167608Y-76508347D01*
X122167611Y-76508346D01*
X122276256Y-76424451D01*
X122384904Y-76340557D01*
X122575454Y-76142916D01*
X122735196Y-75919637D01*
X122860727Y-75675479D01*
X122949370Y-75415646D01*
X122999236Y-75145674D01*
X123009262Y-74871320D01*
X123009061Y-74869497D01*
X122983474Y-74636944D01*
X122979236Y-74598429D01*
X122909796Y-74332818D01*
X122802423Y-74080148D01*
X122659405Y-73845804D01*
X122483791Y-73634782D01*
X122433656Y-73589861D01*
X122366952Y-73530093D01*
X122279323Y-73451577D01*
X122050359Y-73300096D01*
X121801779Y-73183567D01*
X121718915Y-73158637D01*
X121538875Y-73104471D01*
X121267271Y-73064500D01*
X121267269Y-73064500D01*
X121061453Y-73064500D01*
X121059183Y-73064666D01*
X121059159Y-73064667D01*
X120856191Y-73079523D01*
X120588226Y-73139215D01*
X120331801Y-73237288D01*
X120092388Y-73371653D01*
X119875095Y-73539442D01*
X119856744Y-73558477D01*
X119795063Y-73593633D01*
X119724167Y-73589861D01*
X119666564Y-73548359D01*
X119640544Y-73482302D01*
X119640390Y-73461606D01*
X119657746Y-73229999D01*
X119638784Y-72976962D01*
X119582320Y-72729578D01*
X119489616Y-72493374D01*
X119362743Y-72273623D01*
X119324074Y-72225135D01*
X119324074Y-72225134D01*
X118667964Y-72881244D01*
X118577621Y-72737464D01*
X118452536Y-72612379D01*
X118308755Y-72522034D01*
X118964783Y-71866006D01*
X118964783Y-71866004D01*
X118808873Y-71759708D01*
X118580257Y-71649611D01*
X118337787Y-71574820D01*
X118086870Y-71537000D01*
X117833130Y-71537000D01*
X117582212Y-71574820D01*
X117339742Y-71649611D01*
X117111126Y-71759708D01*
X116955216Y-71866005D01*
X116955216Y-71866007D01*
X117611244Y-72522035D01*
X117467464Y-72612379D01*
X117342379Y-72737464D01*
X117252035Y-72881244D01*
X116595926Y-72225135D01*
X116595924Y-72225135D01*
X116557256Y-72273624D01*
X116430383Y-72493374D01*
X116337679Y-72729578D01*
X116281215Y-72976962D01*
X116262253Y-73229999D01*
X112768500Y-73229999D01*
X112768500Y-62551766D01*
X113715787Y-62551766D01*
X113745413Y-62821015D01*
X113745414Y-62821018D01*
X113813928Y-63083088D01*
X113919870Y-63332390D01*
X114060982Y-63563610D01*
X114234255Y-63771820D01*
X114234256Y-63771821D01*
X114234258Y-63771823D01*
X114435993Y-63952578D01*
X114435995Y-63952579D01*
X114435998Y-63952582D01*
X114661910Y-64102044D01*
X114794104Y-64164014D01*
X114907171Y-64217018D01*
X114907173Y-64217018D01*
X114907176Y-64217020D01*
X115166569Y-64295060D01*
X115166572Y-64295060D01*
X115166574Y-64295061D01*
X115434558Y-64334500D01*
X115434561Y-64334500D01*
X115635330Y-64334500D01*
X115637631Y-64334500D01*
X115840156Y-64319677D01*
X116104553Y-64260780D01*
X116357558Y-64164014D01*
X116593777Y-64031441D01*
X116808177Y-63865888D01*
X116996186Y-63670881D01*
X117153799Y-63450579D01*
X117277656Y-63209675D01*
X117365118Y-62953305D01*
X117414319Y-62686933D01*
X117419259Y-62551766D01*
X182295787Y-62551766D01*
X182325413Y-62821015D01*
X182325414Y-62821018D01*
X182393928Y-63083088D01*
X182499870Y-63332390D01*
X182640982Y-63563610D01*
X182814255Y-63771820D01*
X182814256Y-63771821D01*
X182814258Y-63771823D01*
X183015993Y-63952578D01*
X183015995Y-63952579D01*
X183015998Y-63952582D01*
X183241910Y-64102044D01*
X183374104Y-64164014D01*
X183487171Y-64217018D01*
X183487173Y-64217018D01*
X183487176Y-64217020D01*
X183746569Y-64295060D01*
X183746572Y-64295060D01*
X183746574Y-64295061D01*
X184014558Y-64334500D01*
X184014561Y-64334500D01*
X184215330Y-64334500D01*
X184217631Y-64334500D01*
X184420156Y-64319677D01*
X184684553Y-64260780D01*
X184937558Y-64164014D01*
X185173777Y-64031441D01*
X185388177Y-63865888D01*
X185576186Y-63670881D01*
X185733799Y-63450579D01*
X185857656Y-63209675D01*
X185945118Y-62953305D01*
X185994319Y-62686933D01*
X186004212Y-62416235D01*
X185974586Y-62146982D01*
X185906072Y-61884912D01*
X185800130Y-61635610D01*
X185659018Y-61404390D01*
X185485745Y-61196180D01*
X185380759Y-61102112D01*
X185284006Y-61015421D01*
X185284003Y-61015419D01*
X185284002Y-61015418D01*
X185058090Y-60865956D01*
X185058086Y-60865954D01*
X184812828Y-60750981D01*
X184553425Y-60672938D01*
X184285442Y-60633500D01*
X184285439Y-60633500D01*
X184082369Y-60633500D01*
X184080099Y-60633666D01*
X184080075Y-60633667D01*
X183879839Y-60648323D01*
X183615449Y-60707219D01*
X183362441Y-60803985D01*
X183126225Y-60936557D01*
X182911820Y-61102114D01*
X182723815Y-61297117D01*
X182566200Y-61517422D01*
X182442342Y-61758328D01*
X182354882Y-62014693D01*
X182305681Y-62281065D01*
X182295787Y-62551766D01*
X117419259Y-62551766D01*
X117424212Y-62416235D01*
X117394586Y-62146982D01*
X117326072Y-61884912D01*
X117220130Y-61635610D01*
X117079018Y-61404390D01*
X116905745Y-61196180D01*
X116800759Y-61102112D01*
X116704006Y-61015421D01*
X116704003Y-61015419D01*
X116704002Y-61015418D01*
X116478090Y-60865956D01*
X116478086Y-60865954D01*
X116232828Y-60750981D01*
X115973425Y-60672938D01*
X115705442Y-60633500D01*
X115705439Y-60633500D01*
X115502369Y-60633500D01*
X115500099Y-60633666D01*
X115500075Y-60633667D01*
X115299839Y-60648323D01*
X115035449Y-60707219D01*
X114782441Y-60803985D01*
X114546225Y-60936557D01*
X114331820Y-61102114D01*
X114143815Y-61297117D01*
X113986200Y-61517422D01*
X113862342Y-61758328D01*
X113774882Y-62014693D01*
X113725681Y-62281065D01*
X113715787Y-62551766D01*
X112768500Y-62551766D01*
X112768500Y-59808500D01*
X112788502Y-59740379D01*
X112842158Y-59693886D01*
X112894500Y-59682500D01*
X186952500Y-59682500D01*
X187020621Y-59702502D01*
G37*
%TD.AperFunction*%
%TA.AperFunction,Conductor*%
G36*
X187521121Y-80728502D02*
G01*
X187567614Y-80782158D01*
X187579000Y-80834500D01*
X187579000Y-81465500D01*
X187558998Y-81533621D01*
X187505342Y-81580114D01*
X187453000Y-81591500D01*
X181685371Y-81591500D01*
X181617250Y-81571498D01*
X181570757Y-81517842D01*
X181560653Y-81447568D01*
X181590147Y-81382988D01*
X181596276Y-81376405D01*
X182227276Y-80745405D01*
X182289588Y-80711379D01*
X182316371Y-80708500D01*
X187453000Y-80708500D01*
X187521121Y-80728502D01*
G37*
%TD.AperFunction*%
%TD*%
M02*
