M48
;DRILL file {kicad (2014-10-27 BZR 5228)-product} date 17.12.2014 12:59:52
;FORMAT={-:-/ absolute / inch / decimal}
FMAT,2
INCH,TZ
T1C0.031
T2C0.035
T3C0.040
T4C0.062
T5C0.118
T6C0.126
%
G90
G05
M72
T1
X4.65Y-2.775
X4.65Y-3.6
X5.45Y-3.175
X5.45Y-3.375
X6.975Y-3.15
X6.975Y-3.225
X7.15Y-3.075
X7.15Y-3.15
X7.15Y-3.325
X7.225Y-3.325
X7.225Y-3.425
X7.25Y-3.
T2
X5.Y-3.025
X5.Y-3.125
X5.Y-3.225
X5.Y-3.325
X5.1Y-3.075
X5.1Y-3.175
X5.1Y-3.275
X5.1Y-3.375
T3
X4.57Y-2.933
X4.57Y-3.467
X4.65Y-2.933
X4.65Y-3.467
T4
X4.87Y-2.895
X4.87Y-3.505
T5
X4.55Y-2.46
X4.55Y-4.5
X7.25Y-2.46
X7.25Y-4.5
T6
X4.75Y-2.975
X4.75Y-3.425
T0
M30
