%TF.GenerationSoftware,KiCad,Pcbnew,7.0.2*%
%TF.CreationDate,2024-05-20T10:52:18+02:00*%
%TF.ProjectId,dsoxlan,64736f78-6c61-46e2-9e6b-696361645f70,rev?*%
%TF.SameCoordinates,Original*%
%TF.FileFunction,Soldermask,Bot*%
%TF.FilePolarity,Negative*%
%FSLAX46Y46*%
G04 Gerber Fmt 4.6, Leading zero omitted, Abs format (unit mm)*
G04 Created by KiCad (PCBNEW 7.0.2) date 2024-05-20 10:52:18*
%MOMM*%
%LPD*%
G01*
G04 APERTURE LIST*
%ADD10R,3.600000X0.550000*%
%ADD11C,3.250000*%
%ADD12C,1.524000*%
%ADD13C,1.625600*%
%ADD14C,2.540000*%
%ADD15C,3.200000*%
%ADD16C,0.800000*%
G04 APERTURE END LIST*
D10*
%TO.C,P2*%
X190754000Y-104750000D03*
X190754000Y-103950000D03*
X190754000Y-103150000D03*
X190754000Y-102350000D03*
X190754000Y-101550000D03*
X190754000Y-100750000D03*
X190754000Y-99950000D03*
X190754000Y-99150000D03*
X190754000Y-98350000D03*
X190754000Y-97550000D03*
X190754000Y-96750000D03*
X190754000Y-95950000D03*
X190754000Y-95150000D03*
X190754000Y-94350000D03*
X190754000Y-93550000D03*
X190754000Y-92750000D03*
X190754000Y-91950000D03*
X190754000Y-91150000D03*
X190754000Y-90350000D03*
X190754000Y-89550000D03*
X190754000Y-88750000D03*
X190754000Y-87950000D03*
X190754000Y-83950000D03*
X190754000Y-83150000D03*
X190754000Y-82350000D03*
X190754000Y-81550000D03*
X190754000Y-80750000D03*
X190754000Y-79950000D03*
X190754000Y-79150000D03*
X190754000Y-78350000D03*
X190754000Y-77550000D03*
X190754000Y-76750000D03*
X190754000Y-75950000D03*
X190754000Y-75150000D03*
X190754000Y-74350000D03*
X190754000Y-73550000D03*
X190754000Y-72750000D03*
X190754000Y-71950000D03*
X190754000Y-71150000D03*
X190754000Y-70350000D03*
%TD*%
D11*
%TO.C,P1*%
X121010000Y-94100000D03*
X121010000Y-82670000D03*
D12*
X129900000Y-92830000D03*
X127360000Y-91560000D03*
X129900000Y-90290000D03*
X127360000Y-89020000D03*
X129900000Y-87750000D03*
X127360000Y-86480000D03*
X129900000Y-85210000D03*
X127360000Y-83940000D03*
D13*
X134730000Y-93850000D03*
X134730000Y-91310000D03*
X134730000Y-85460000D03*
X134730000Y-82920000D03*
D14*
X124060000Y-80485000D03*
X124060000Y-96285000D03*
%TD*%
D15*
%TO.C,H102*%
X127500000Y-110142000D03*
%TD*%
%TO.C,H101*%
X127500000Y-66642000D03*
%TD*%
%TO.C,H103*%
X170000000Y-66642000D03*
%TD*%
%TO.C,H104*%
X170000000Y-110142000D03*
%TD*%
D16*
X132500000Y-94500000D03*
X163500000Y-85500000D03*
X183680000Y-81280000D03*
X142500000Y-85680500D03*
X146500000Y-96000000D03*
X178000000Y-89500000D03*
X186000000Y-85000000D03*
X159500000Y-85500000D03*
X145500000Y-89000000D03*
X132500000Y-82500000D03*
X142500000Y-92500000D03*
X145500000Y-85500000D03*
X136800000Y-85700000D03*
X186000000Y-89500000D03*
X161500000Y-82500000D03*
X170500000Y-89000000D03*
X186000000Y-75000000D03*
X132400000Y-89300000D03*
X167199272Y-81245799D03*
X164000000Y-92500000D03*
X181000000Y-86500000D03*
X143000000Y-82500000D03*
X176000000Y-84500000D03*
X177500000Y-81400500D03*
X132000000Y-84500000D03*
X137000000Y-96000000D03*
X162000000Y-96000000D03*
X142000000Y-96000000D03*
X159500000Y-89000000D03*
X167500000Y-92500000D03*
X158500000Y-92500000D03*
X169000000Y-85000000D03*
X181100000Y-83900000D03*
X179500000Y-84000000D03*
X180300000Y-80300000D03*
X181400000Y-79100000D03*
X161600000Y-93000000D03*
X176500000Y-82500000D03*
G36*
X193491039Y-69819685D02*
G01*
X193536794Y-69872489D01*
X193548000Y-69924000D01*
X193548000Y-84839000D01*
X193528315Y-84906039D01*
X193475511Y-84951794D01*
X193424000Y-84963000D01*
X188466246Y-84963000D01*
X188399207Y-84943315D01*
X188353452Y-84890511D01*
X188342246Y-84839348D01*
X188300349Y-69924348D01*
X188319846Y-69857254D01*
X188372521Y-69811351D01*
X188424349Y-69800000D01*
X193424000Y-69800000D01*
X193491039Y-69819685D01*
G37*
G36*
X193491039Y-87141685D02*
G01*
X193536794Y-87194489D01*
X193548000Y-87246000D01*
X193548000Y-105276000D01*
X193528315Y-105343039D01*
X193475511Y-105388794D01*
X193424000Y-105400000D01*
X188523653Y-105400000D01*
X188456614Y-105380315D01*
X188410859Y-105327511D01*
X188399653Y-105276348D01*
X188349006Y-87246348D01*
X188368503Y-87179254D01*
X188421178Y-87133351D01*
X188473006Y-87122000D01*
X193424000Y-87122000D01*
X193491039Y-87141685D01*
G37*
M02*
