M48
; DRILL file {KiCad 7.0.2} date Sat May 18 23:20:28 2024
; FORMAT={-:-/ absolute / metric / decimal}
; #@! TF.CreationDate,2024-05-18T23:20:28+02:00
; #@! TF.GenerationSoftware,Kicad,Pcbnew,7.0.2
; #@! TF.FileFunction,Plated,1,2,PTH
FMAT,2
METRIC
; #@! TA.AperFunction,Plated,PTH,ViaDrill
T1C0.400
; #@! TA.AperFunction,Plated,PTH,ComponentDrill
T2C1.020
; #@! TA.AperFunction,Plated,PTH,ComponentDrill
T3C1.150
; #@! TA.AperFunction,Plated,PTH,ComponentDrill
T4C1.570
%
G90
G05
T1
X136.6Y-72.7
X136.6Y-75.4
X137.9Y-88.6
X173.16Y-74.1
X174.7Y-85.9
X176.8Y-83.7
X177.0Y-86.4
X178.271Y-84.95
X178.8Y-78.4
X179.5Y-76.5
X180.2Y-83.198
X181.1Y-84.9
X183.515Y-86.995
X183.68Y-81.28
X184.9Y-84.4
T2
X132.3Y-76.21
X132.3Y-78.24
X132.3Y-80.27
X132.3Y-82.3
X132.3Y-84.33
X132.3Y-86.36
T3
X134.77Y-74.18
X134.77Y-76.72
X134.77Y-85.97
X134.77Y-88.51
T4
X117.96Y-73.23
X117.96Y-89.36
T0
M30
