M48
; DRILL file {KiCad 7.0.2} date Mon May 20 10:49:11 2024
; FORMAT={-:-/ absolute / metric / decimal}
; #@! TF.CreationDate,2024-05-20T10:49:11+02:00
; #@! TF.GenerationSoftware,Kicad,Pcbnew,7.0.2
; #@! TF.FileFunction,Plated,1,2,PTH
FMAT,2
METRIC
; #@! TA.AperFunction,Plated,PTH,ViaDrill
T1C0.400
; #@! TA.AperFunction,Plated,PTH,ComponentDrill
T2C0.900
; #@! TA.AperFunction,Plated,PTH,ComponentDrill
T3C1.020
; #@! TA.AperFunction,Plated,PTH,ComponentDrill
T4C1.600
%
G90
G05
T1
X132.0Y-84.5
X132.4Y-89.3
X132.5Y-82.5
X132.5Y-94.5
X136.8Y-85.7
X137.0Y-96.0
X142.0Y-96.0
X142.5Y-85.68
X142.5Y-92.5
X143.0Y-82.5
X145.5Y-85.5
X145.5Y-89.0
X146.5Y-96.0
X158.5Y-92.5
X159.5Y-85.5
X159.5Y-89.0
X161.5Y-82.5
X161.6Y-93.0
X162.0Y-96.0
X163.5Y-85.5
X164.0Y-92.5
X167.199Y-81.246
X167.5Y-92.5
X169.0Y-85.0
X170.5Y-89.0
X176.0Y-84.5
X176.5Y-82.5
X177.5Y-81.4
X178.0Y-89.5
X179.5Y-84.0
X180.3Y-80.3
X181.0Y-86.5
X181.1Y-83.9
X181.4Y-79.1
X183.68Y-81.28
X186.0Y-75.0
X186.0Y-85.0
X186.0Y-89.5
T2
X127.36Y-83.94
X127.36Y-86.48
X127.36Y-89.02
X127.36Y-91.56
X129.9Y-85.21
X129.9Y-87.75
X129.9Y-90.29
X129.9Y-92.83
T3
X134.73Y-82.92
X134.73Y-85.46
X134.73Y-91.31
X134.73Y-93.85
T4
X124.06Y-80.485
X124.06Y-96.285
T0
M30
