%TF.GenerationSoftware,KiCad,Pcbnew,7.0.2*%
%TF.CreationDate,2024-05-19T13:58:45+02:00*%
%TF.ProjectId,dsoxlan,64736f78-6c61-46e2-9e6b-696361645f70,rev?*%
%TF.SameCoordinates,Original*%
%TF.FileFunction,Soldermask,Bot*%
%TF.FilePolarity,Negative*%
%FSLAX46Y46*%
G04 Gerber Fmt 4.6, Leading zero omitted, Abs format (unit mm)*
G04 Created by KiCad (PCBNEW 7.0.2) date 2024-05-19 13:58:45*
%MOMM*%
%LPD*%
G01*
G04 APERTURE LIST*
%ADD10R,3.600000X0.550000*%
%ADD11C,3.250000*%
%ADD12C,1.520000*%
%ADD13C,1.750000*%
%ADD14C,2.370000*%
%ADD15C,3.200000*%
%ADD16C,0.800000*%
%ADD17C,1.200000*%
G04 APERTURE END LIST*
D10*
%TO.C,P2*%
X190754000Y-104750000D03*
X190754000Y-103950000D03*
X190754000Y-103150000D03*
X190754000Y-102350000D03*
X190754000Y-101550000D03*
X190754000Y-100750000D03*
X190754000Y-99950000D03*
X190754000Y-99150000D03*
X190754000Y-98350000D03*
X190754000Y-97550000D03*
X190754000Y-96750000D03*
X190754000Y-95950000D03*
X190754000Y-95150000D03*
X190754000Y-94350000D03*
X190754000Y-93550000D03*
X190754000Y-92750000D03*
X190754000Y-91950000D03*
X190754000Y-91150000D03*
X190754000Y-90350000D03*
X190754000Y-89550000D03*
X190754000Y-88750000D03*
X190754000Y-87950000D03*
X190754000Y-83950000D03*
X190754000Y-83150000D03*
X190754000Y-82350000D03*
X190754000Y-81550000D03*
X190754000Y-80750000D03*
X190754000Y-79950000D03*
X190754000Y-79150000D03*
X190754000Y-78350000D03*
X190754000Y-77550000D03*
X190754000Y-76750000D03*
X190754000Y-75950000D03*
X190754000Y-75150000D03*
X190754000Y-74350000D03*
X190754000Y-73550000D03*
X190754000Y-72750000D03*
X190754000Y-71950000D03*
X190754000Y-71150000D03*
X190754000Y-70350000D03*
%TD*%
D11*
%TO.C,P1*%
X121130000Y-87640000D03*
X121130000Y-74940000D03*
D12*
X132300000Y-86360000D03*
X132300000Y-84330000D03*
X132300000Y-82300000D03*
X132300000Y-80270000D03*
X132300000Y-78240000D03*
X132300000Y-76210000D03*
D13*
X134770000Y-88510000D03*
X134770000Y-85970000D03*
X134770000Y-76720000D03*
X134770000Y-74180000D03*
D14*
X117960000Y-73230000D03*
X117960000Y-89360000D03*
%TD*%
D15*
%TO.C,H102*%
X115570000Y-114300000D03*
%TD*%
%TO.C,H101*%
X115570000Y-62484000D03*
%TD*%
%TO.C,H103*%
X184150000Y-62484000D03*
%TD*%
%TO.C,H104*%
X184150000Y-114300000D03*
%TD*%
D16*
X136600000Y-72700000D03*
X183680000Y-81280000D03*
X184900000Y-84400000D03*
X179500000Y-76500000D03*
X136600000Y-75400000D03*
X177000000Y-86400000D03*
X137900000Y-88600000D03*
D17*
X183515000Y-86995000D03*
D16*
X181100000Y-84900000D03*
X180200000Y-83198494D03*
X178270792Y-84949500D03*
X176800000Y-83700000D03*
X174700000Y-85900000D03*
X173160000Y-74100000D03*
X178800000Y-78400000D03*
G36*
X193040852Y-69720921D02*
G01*
X193087697Y-69772760D01*
X193100000Y-69826610D01*
X193100000Y-84839000D01*
X193080315Y-84906039D01*
X193027511Y-84951794D01*
X192976000Y-84963000D01*
X188466246Y-84963000D01*
X188399207Y-84943315D01*
X188353452Y-84890511D01*
X188342246Y-84839348D01*
X188300342Y-69921784D01*
X188319839Y-69854690D01*
X188372514Y-69808787D01*
X188421759Y-69797463D01*
X192973417Y-69702637D01*
X193040852Y-69720921D01*
G37*
G36*
X193043039Y-87141685D02*
G01*
X193088794Y-87194489D01*
X193100000Y-87246000D01*
X193100000Y-105178610D01*
X193080315Y-105245649D01*
X193027511Y-105291404D01*
X192978638Y-105302582D01*
X188526283Y-105397313D01*
X188458840Y-105379059D01*
X188411972Y-105327240D01*
X188399645Y-105273689D01*
X188349006Y-87246348D01*
X188368503Y-87179254D01*
X188421178Y-87133351D01*
X188473006Y-87122000D01*
X192976000Y-87122000D01*
X193043039Y-87141685D01*
G37*
M02*
