%TF.GenerationSoftware,KiCad,Pcbnew,7.0.2*%
%TF.CreationDate,2024-05-20T10:49:14+02:00*%
%TF.ProjectId,dsoxlan,64736f78-6c61-46e2-9e6b-696361645f70,rev?*%
%TF.SameCoordinates,Original*%
%TF.FileFunction,Soldermask,Top*%
%TF.FilePolarity,Negative*%
%FSLAX46Y46*%
G04 Gerber Fmt 4.6, Leading zero omitted, Abs format (unit mm)*
G04 Created by KiCad (PCBNEW 7.0.2) date 2024-05-20 10:49:14*
%MOMM*%
%LPD*%
G01*
G04 APERTURE LIST*
G04 Aperture macros list*
%AMRoundRect*
0 Rectangle with rounded corners*
0 $1 Rounding radius*
0 $2 $3 $4 $5 $6 $7 $8 $9 X,Y pos of 4 corners*
0 Add a 4 corners polygon primitive as box body*
4,1,4,$2,$3,$4,$5,$6,$7,$8,$9,$2,$3,0*
0 Add four circle primitives for the rounded corners*
1,1,$1+$1,$2,$3*
1,1,$1+$1,$4,$5*
1,1,$1+$1,$6,$7*
1,1,$1+$1,$8,$9*
0 Add four rect primitives between the rounded corners*
20,1,$1+$1,$2,$3,$4,$5,0*
20,1,$1+$1,$4,$5,$6,$7,0*
20,1,$1+$1,$6,$7,$8,$9,0*
20,1,$1+$1,$8,$9,$2,$3,0*%
G04 Aperture macros list end*
%ADD10RoundRect,0.250000X0.337500X0.475000X-0.337500X0.475000X-0.337500X-0.475000X0.337500X-0.475000X0*%
%ADD11R,3.600000X0.550000*%
%ADD12RoundRect,0.250000X0.350000X0.450000X-0.350000X0.450000X-0.350000X-0.450000X0.350000X-0.450000X0*%
%ADD13C,3.250000*%
%ADD14C,1.524000*%
%ADD15C,1.625600*%
%ADD16C,2.540000*%
%ADD17C,3.200000*%
%ADD18C,0.800000*%
G04 APERTURE END LIST*
D10*
%TO.C,C2*%
X140775000Y-86400000D03*
X138700000Y-86400000D03*
%TD*%
D11*
%TO.C,P2*%
X190754000Y-104750000D03*
X190754000Y-103950000D03*
X190754000Y-103150000D03*
X190754000Y-102350000D03*
X190754000Y-101550000D03*
X190754000Y-100750000D03*
X190754000Y-99950000D03*
X190754000Y-99150000D03*
X190754000Y-98350000D03*
X190754000Y-97550000D03*
X190754000Y-96750000D03*
X190754000Y-95950000D03*
X190754000Y-95150000D03*
X190754000Y-94350000D03*
X190754000Y-93550000D03*
X190754000Y-92750000D03*
X190754000Y-91950000D03*
X190754000Y-91150000D03*
X190754000Y-90350000D03*
X190754000Y-89550000D03*
X190754000Y-88750000D03*
X190754000Y-87950000D03*
X190754000Y-83950000D03*
X190754000Y-83150000D03*
X190754000Y-82350000D03*
X190754000Y-81550000D03*
X190754000Y-80750000D03*
X190754000Y-79950000D03*
X190754000Y-79150000D03*
X190754000Y-78350000D03*
X190754000Y-77550000D03*
X190754000Y-76750000D03*
X190754000Y-75950000D03*
X190754000Y-75150000D03*
X190754000Y-74350000D03*
X190754000Y-73550000D03*
X190754000Y-72750000D03*
X190754000Y-71950000D03*
X190754000Y-71150000D03*
X190754000Y-70350000D03*
%TD*%
D12*
%TO.C,R1*%
X140700000Y-91200000D03*
X138700000Y-91200000D03*
%TD*%
%TO.C,R2*%
X140600000Y-82800000D03*
X138600000Y-82800000D03*
%TD*%
%TO.C,R3*%
X140737500Y-88590000D03*
X138737500Y-88590000D03*
%TD*%
D13*
%TO.C,P1*%
X121010000Y-94100000D03*
X121010000Y-82670000D03*
D14*
X129900000Y-92830000D03*
X127360000Y-91560000D03*
X129900000Y-90290000D03*
X127360000Y-89020000D03*
X129900000Y-87750000D03*
X127360000Y-86480000D03*
X129900000Y-85210000D03*
X127360000Y-83940000D03*
D15*
X134730000Y-93850000D03*
X134730000Y-91310000D03*
X134730000Y-85460000D03*
X134730000Y-82920000D03*
D16*
X124060000Y-80485000D03*
X124060000Y-96285000D03*
%TD*%
D17*
%TO.C,H102*%
X127500000Y-110142000D03*
%TD*%
%TO.C,H101*%
X127500000Y-66642000D03*
%TD*%
%TO.C,H103*%
X170000000Y-66642000D03*
%TD*%
%TO.C,H104*%
X170000000Y-110142000D03*
%TD*%
D18*
X132500000Y-94500000D03*
X163500000Y-85500000D03*
X183680000Y-81280000D03*
X142500000Y-85680500D03*
X146500000Y-96000000D03*
X178000000Y-89500000D03*
X186000000Y-85000000D03*
X159500000Y-85500000D03*
X145500000Y-89000000D03*
X132500000Y-82500000D03*
X142500000Y-92500000D03*
X145500000Y-85500000D03*
X136800000Y-85700000D03*
X186000000Y-89500000D03*
X161500000Y-82500000D03*
X170500000Y-89000000D03*
X186000000Y-75000000D03*
X132400000Y-89300000D03*
X167199272Y-81245799D03*
X164000000Y-92500000D03*
X181000000Y-86500000D03*
X143000000Y-82500000D03*
X176000000Y-84500000D03*
X177500000Y-81400500D03*
X132000000Y-84500000D03*
X137000000Y-96000000D03*
X162000000Y-96000000D03*
X142000000Y-96000000D03*
X159500000Y-89000000D03*
X167500000Y-92500000D03*
X158500000Y-92500000D03*
X169000000Y-85000000D03*
X181100000Y-83900000D03*
X179500000Y-84000000D03*
X180300000Y-80300000D03*
X181400000Y-79100000D03*
X161600000Y-93000000D03*
X176500000Y-82500000D03*
G36*
X193491039Y-69819685D02*
G01*
X193536794Y-69872489D01*
X193548000Y-69924000D01*
X193548000Y-84839000D01*
X193528315Y-84906039D01*
X193475511Y-84951794D01*
X193424000Y-84963000D01*
X188466246Y-84963000D01*
X188399207Y-84943315D01*
X188353452Y-84890511D01*
X188342246Y-84839348D01*
X188300349Y-69924348D01*
X188319846Y-69857254D01*
X188372521Y-69811351D01*
X188424349Y-69800000D01*
X193424000Y-69800000D01*
X193491039Y-69819685D01*
G37*
G36*
X193491039Y-87141685D02*
G01*
X193536794Y-87194489D01*
X193548000Y-87246000D01*
X193548000Y-105276000D01*
X193528315Y-105343039D01*
X193475511Y-105388794D01*
X193424000Y-105400000D01*
X188523653Y-105400000D01*
X188456614Y-105380315D01*
X188410859Y-105327511D01*
X188399653Y-105276348D01*
X188349006Y-87246348D01*
X188368503Y-87179254D01*
X188421178Y-87133351D01*
X188473006Y-87122000D01*
X193424000Y-87122000D01*
X193491039Y-87141685D01*
G37*
G36*
X152443039Y-61419685D02*
G01*
X152488794Y-61472489D01*
X152500000Y-61524000D01*
X152500000Y-67574189D01*
X152480315Y-67641228D01*
X152427511Y-67686983D01*
X152374203Y-67698176D01*
X145722203Y-67601771D01*
X145655456Y-67581117D01*
X145610471Y-67527656D01*
X145600000Y-67477784D01*
X145600000Y-61524000D01*
X145619685Y-61456961D01*
X145672489Y-61411206D01*
X145724000Y-61400000D01*
X152376000Y-61400000D01*
X152443039Y-61419685D01*
G37*
G36*
X163753169Y-108936587D02*
G01*
X163798924Y-108989391D01*
X163810130Y-109040902D01*
X163810130Y-116892414D01*
X163790445Y-116959453D01*
X163737641Y-117005208D01*
X163685644Y-117016413D01*
X138433644Y-116917386D01*
X138366682Y-116897439D01*
X138321134Y-116844456D01*
X138310130Y-116793387D01*
X138310130Y-109040902D01*
X138329815Y-108973863D01*
X138382619Y-108928108D01*
X138434130Y-108916902D01*
X163686130Y-108916902D01*
X163753169Y-108936587D01*
G37*
M02*
