%TF.GenerationSoftware,KiCad,Pcbnew,7.0.2*%
%TF.CreationDate,2024-05-18T17:34:20+02:00*%
%TF.ProjectId,dsoxlan,64736f78-6c61-46e2-9e6b-696361645f70,rev?*%
%TF.SameCoordinates,Original*%
%TF.FileFunction,Copper,L1,Top*%
%TF.FilePolarity,Positive*%
%FSLAX46Y46*%
G04 Gerber Fmt 4.6, Leading zero omitted, Abs format (unit mm)*
G04 Created by KiCad (PCBNEW 7.0.2) date 2024-05-18 17:34:20*
%MOMM*%
%LPD*%
G01*
G04 APERTURE LIST*
G04 Aperture macros list*
%AMRoundRect*
0 Rectangle with rounded corners*
0 $1 Rounding radius*
0 $2 $3 $4 $5 $6 $7 $8 $9 X,Y pos of 4 corners*
0 Add a 4 corners polygon primitive as box body*
4,1,4,$2,$3,$4,$5,$6,$7,$8,$9,$2,$3,0*
0 Add four circle primitives for the rounded corners*
1,1,$1+$1,$2,$3*
1,1,$1+$1,$4,$5*
1,1,$1+$1,$6,$7*
1,1,$1+$1,$8,$9*
0 Add four rect primitives between the rounded corners*
20,1,$1+$1,$2,$3,$4,$5,0*
20,1,$1+$1,$4,$5,$6,$7,0*
20,1,$1+$1,$6,$7,$8,$9,0*
20,1,$1+$1,$8,$9,$2,$3,0*%
G04 Aperture macros list end*
%ADD10C,0.300000*%
%TA.AperFunction,NonConductor*%
%ADD11C,0.300000*%
%TD*%
%TA.AperFunction,EtchedComponent*%
%ADD12C,0.010000*%
%TD*%
%TA.AperFunction,ComponentPad*%
%ADD13C,1.600000*%
%TD*%
%TA.AperFunction,ComponentPad*%
%ADD14C,2.200000*%
%TD*%
%TA.AperFunction,ConnectorPad*%
%ADD15R,3.600000X0.550000*%
%TD*%
%TA.AperFunction,SMDPad,CuDef*%
%ADD16RoundRect,0.250000X0.337500X0.475000X-0.337500X0.475000X-0.337500X-0.475000X0.337500X-0.475000X0*%
%TD*%
%TA.AperFunction,SMDPad,CuDef*%
%ADD17RoundRect,0.250000X0.350000X0.450000X-0.350000X0.450000X-0.350000X-0.450000X0.350000X-0.450000X0*%
%TD*%
%TA.AperFunction,ViaPad*%
%ADD18C,1.200000*%
%TD*%
%TA.AperFunction,Conductor*%
%ADD19C,0.500000*%
%TD*%
G04 APERTURE END LIST*
D10*
D11*
X160135714Y-111263928D02*
X160135714Y-109763928D01*
X160135714Y-109763928D02*
X160492857Y-109763928D01*
X160492857Y-109763928D02*
X160707143Y-109835357D01*
X160707143Y-109835357D02*
X160850000Y-109978214D01*
X160850000Y-109978214D02*
X160921429Y-110121071D01*
X160921429Y-110121071D02*
X160992857Y-110406785D01*
X160992857Y-110406785D02*
X160992857Y-110621071D01*
X160992857Y-110621071D02*
X160921429Y-110906785D01*
X160921429Y-110906785D02*
X160850000Y-111049642D01*
X160850000Y-111049642D02*
X160707143Y-111192500D01*
X160707143Y-111192500D02*
X160492857Y-111263928D01*
X160492857Y-111263928D02*
X160135714Y-111263928D01*
X161635714Y-111263928D02*
X161635714Y-109763928D01*
X162635715Y-110549642D02*
X162635715Y-111263928D01*
X162135715Y-109763928D02*
X162635715Y-110549642D01*
X162635715Y-110549642D02*
X163135715Y-109763928D01*
X164778571Y-111263928D02*
X164778571Y-109763928D01*
X164778571Y-109763928D02*
X165135714Y-109763928D01*
X165135714Y-109763928D02*
X165350000Y-109835357D01*
X165350000Y-109835357D02*
X165492857Y-109978214D01*
X165492857Y-109978214D02*
X165564286Y-110121071D01*
X165564286Y-110121071D02*
X165635714Y-110406785D01*
X165635714Y-110406785D02*
X165635714Y-110621071D01*
X165635714Y-110621071D02*
X165564286Y-110906785D01*
X165564286Y-110906785D02*
X165492857Y-111049642D01*
X165492857Y-111049642D02*
X165350000Y-111192500D01*
X165350000Y-111192500D02*
X165135714Y-111263928D01*
X165135714Y-111263928D02*
X164778571Y-111263928D01*
X166207143Y-111192500D02*
X166421429Y-111263928D01*
X166421429Y-111263928D02*
X166778571Y-111263928D01*
X166778571Y-111263928D02*
X166921429Y-111192500D01*
X166921429Y-111192500D02*
X166992857Y-111121071D01*
X166992857Y-111121071D02*
X167064286Y-110978214D01*
X167064286Y-110978214D02*
X167064286Y-110835357D01*
X167064286Y-110835357D02*
X166992857Y-110692500D01*
X166992857Y-110692500D02*
X166921429Y-110621071D01*
X166921429Y-110621071D02*
X166778571Y-110549642D01*
X166778571Y-110549642D02*
X166492857Y-110478214D01*
X166492857Y-110478214D02*
X166350000Y-110406785D01*
X166350000Y-110406785D02*
X166278571Y-110335357D01*
X166278571Y-110335357D02*
X166207143Y-110192500D01*
X166207143Y-110192500D02*
X166207143Y-110049642D01*
X166207143Y-110049642D02*
X166278571Y-109906785D01*
X166278571Y-109906785D02*
X166350000Y-109835357D01*
X166350000Y-109835357D02*
X166492857Y-109763928D01*
X166492857Y-109763928D02*
X166850000Y-109763928D01*
X166850000Y-109763928D02*
X167064286Y-109835357D01*
X167992857Y-109763928D02*
X168278571Y-109763928D01*
X168278571Y-109763928D02*
X168421428Y-109835357D01*
X168421428Y-109835357D02*
X168564285Y-109978214D01*
X168564285Y-109978214D02*
X168635714Y-110263928D01*
X168635714Y-110263928D02*
X168635714Y-110763928D01*
X168635714Y-110763928D02*
X168564285Y-111049642D01*
X168564285Y-111049642D02*
X168421428Y-111192500D01*
X168421428Y-111192500D02*
X168278571Y-111263928D01*
X168278571Y-111263928D02*
X167992857Y-111263928D01*
X167992857Y-111263928D02*
X167850000Y-111192500D01*
X167850000Y-111192500D02*
X167707142Y-111049642D01*
X167707142Y-111049642D02*
X167635714Y-110763928D01*
X167635714Y-110763928D02*
X167635714Y-110263928D01*
X167635714Y-110263928D02*
X167707142Y-109978214D01*
X167707142Y-109978214D02*
X167850000Y-109835357D01*
X167850000Y-109835357D02*
X167992857Y-109763928D01*
X169135714Y-109763928D02*
X170135714Y-111263928D01*
X170135714Y-109763928D02*
X169135714Y-111263928D01*
X171421428Y-111263928D02*
X170707142Y-111263928D01*
X170707142Y-111263928D02*
X170707142Y-109763928D01*
X171850000Y-110835357D02*
X172564286Y-110835357D01*
X171707143Y-111263928D02*
X172207143Y-109763928D01*
X172207143Y-109763928D02*
X172707143Y-111263928D01*
X173207142Y-111263928D02*
X173207142Y-109763928D01*
X173207142Y-109763928D02*
X174064285Y-111263928D01*
X174064285Y-111263928D02*
X174064285Y-109763928D01*
X157742859Y-113265357D02*
X158457145Y-113265357D01*
X157600002Y-113693928D02*
X158100002Y-112193928D01*
X158100002Y-112193928D02*
X158600002Y-113693928D01*
X158957144Y-112193928D02*
X159314287Y-113693928D01*
X159314287Y-113693928D02*
X159600001Y-112622500D01*
X159600001Y-112622500D02*
X159885716Y-113693928D01*
X159885716Y-113693928D02*
X160242859Y-112193928D01*
X161885716Y-112336785D02*
X161957144Y-112265357D01*
X161957144Y-112265357D02*
X162100002Y-112193928D01*
X162100002Y-112193928D02*
X162457144Y-112193928D01*
X162457144Y-112193928D02*
X162600002Y-112265357D01*
X162600002Y-112265357D02*
X162671430Y-112336785D01*
X162671430Y-112336785D02*
X162742859Y-112479642D01*
X162742859Y-112479642D02*
X162742859Y-112622500D01*
X162742859Y-112622500D02*
X162671430Y-112836785D01*
X162671430Y-112836785D02*
X161814287Y-113693928D01*
X161814287Y-113693928D02*
X162742859Y-113693928D01*
X163671430Y-112193928D02*
X163814287Y-112193928D01*
X163814287Y-112193928D02*
X163957144Y-112265357D01*
X163957144Y-112265357D02*
X164028573Y-112336785D01*
X164028573Y-112336785D02*
X164100001Y-112479642D01*
X164100001Y-112479642D02*
X164171430Y-112765357D01*
X164171430Y-112765357D02*
X164171430Y-113122500D01*
X164171430Y-113122500D02*
X164100001Y-113408214D01*
X164100001Y-113408214D02*
X164028573Y-113551071D01*
X164028573Y-113551071D02*
X163957144Y-113622500D01*
X163957144Y-113622500D02*
X163814287Y-113693928D01*
X163814287Y-113693928D02*
X163671430Y-113693928D01*
X163671430Y-113693928D02*
X163528573Y-113622500D01*
X163528573Y-113622500D02*
X163457144Y-113551071D01*
X163457144Y-113551071D02*
X163385715Y-113408214D01*
X163385715Y-113408214D02*
X163314287Y-113122500D01*
X163314287Y-113122500D02*
X163314287Y-112765357D01*
X163314287Y-112765357D02*
X163385715Y-112479642D01*
X163385715Y-112479642D02*
X163457144Y-112336785D01*
X163457144Y-112336785D02*
X163528573Y-112265357D01*
X163528573Y-112265357D02*
X163671430Y-112193928D01*
X165600001Y-113693928D02*
X164742858Y-113693928D01*
X165171429Y-113693928D02*
X165171429Y-112193928D01*
X165171429Y-112193928D02*
X165028572Y-112408214D01*
X165028572Y-112408214D02*
X164885715Y-112551071D01*
X164885715Y-112551071D02*
X164742858Y-112622500D01*
X166885715Y-112693928D02*
X166885715Y-113693928D01*
X166528572Y-112122500D02*
X166171429Y-113193928D01*
X166171429Y-113193928D02*
X167100000Y-113193928D01*
X167671428Y-113122500D02*
X168814286Y-113122500D01*
X170314286Y-113693928D02*
X169457143Y-113693928D01*
X169885714Y-113693928D02*
X169885714Y-112193928D01*
X169885714Y-112193928D02*
X169742857Y-112408214D01*
X169742857Y-112408214D02*
X169600000Y-112551071D01*
X169600000Y-112551071D02*
X169457143Y-112622500D01*
X170885714Y-112336785D02*
X170957142Y-112265357D01*
X170957142Y-112265357D02*
X171100000Y-112193928D01*
X171100000Y-112193928D02*
X171457142Y-112193928D01*
X171457142Y-112193928D02*
X171600000Y-112265357D01*
X171600000Y-112265357D02*
X171671428Y-112336785D01*
X171671428Y-112336785D02*
X171742857Y-112479642D01*
X171742857Y-112479642D02*
X171742857Y-112622500D01*
X171742857Y-112622500D02*
X171671428Y-112836785D01*
X171671428Y-112836785D02*
X170814285Y-113693928D01*
X170814285Y-113693928D02*
X171742857Y-113693928D01*
X172385713Y-113122500D02*
X173528571Y-113122500D01*
X175028571Y-113693928D02*
X174171428Y-113693928D01*
X174599999Y-113693928D02*
X174599999Y-112193928D01*
X174599999Y-112193928D02*
X174457142Y-112408214D01*
X174457142Y-112408214D02*
X174314285Y-112551071D01*
X174314285Y-112551071D02*
X174171428Y-112622500D01*
X175528570Y-112193928D02*
X176457142Y-112193928D01*
X176457142Y-112193928D02*
X175957142Y-112765357D01*
X175957142Y-112765357D02*
X176171427Y-112765357D01*
X176171427Y-112765357D02*
X176314285Y-112836785D01*
X176314285Y-112836785D02*
X176385713Y-112908214D01*
X176385713Y-112908214D02*
X176457142Y-113051071D01*
X176457142Y-113051071D02*
X176457142Y-113408214D01*
X176457142Y-113408214D02*
X176385713Y-113551071D01*
X176385713Y-113551071D02*
X176314285Y-113622500D01*
X176314285Y-113622500D02*
X176171427Y-113693928D01*
X176171427Y-113693928D02*
X175742856Y-113693928D01*
X175742856Y-113693928D02*
X175599999Y-113622500D01*
X175599999Y-113622500D02*
X175528570Y-113551071D01*
X155314287Y-116123928D02*
X155314287Y-114623928D01*
X155314287Y-114623928D02*
X155671430Y-114623928D01*
X155671430Y-114623928D02*
X155885716Y-114695357D01*
X155885716Y-114695357D02*
X156028573Y-114838214D01*
X156028573Y-114838214D02*
X156100002Y-114981071D01*
X156100002Y-114981071D02*
X156171430Y-115266785D01*
X156171430Y-115266785D02*
X156171430Y-115481071D01*
X156171430Y-115481071D02*
X156100002Y-115766785D01*
X156100002Y-115766785D02*
X156028573Y-115909642D01*
X156028573Y-115909642D02*
X155885716Y-116052500D01*
X155885716Y-116052500D02*
X155671430Y-116123928D01*
X155671430Y-116123928D02*
X155314287Y-116123928D01*
X157528573Y-116123928D02*
X156814287Y-116123928D01*
X156814287Y-116123928D02*
X156814287Y-114623928D01*
X158242859Y-115266785D02*
X158100002Y-115195357D01*
X158100002Y-115195357D02*
X158028573Y-115123928D01*
X158028573Y-115123928D02*
X157957145Y-114981071D01*
X157957145Y-114981071D02*
X157957145Y-114909642D01*
X157957145Y-114909642D02*
X158028573Y-114766785D01*
X158028573Y-114766785D02*
X158100002Y-114695357D01*
X158100002Y-114695357D02*
X158242859Y-114623928D01*
X158242859Y-114623928D02*
X158528573Y-114623928D01*
X158528573Y-114623928D02*
X158671431Y-114695357D01*
X158671431Y-114695357D02*
X158742859Y-114766785D01*
X158742859Y-114766785D02*
X158814288Y-114909642D01*
X158814288Y-114909642D02*
X158814288Y-114981071D01*
X158814288Y-114981071D02*
X158742859Y-115123928D01*
X158742859Y-115123928D02*
X158671431Y-115195357D01*
X158671431Y-115195357D02*
X158528573Y-115266785D01*
X158528573Y-115266785D02*
X158242859Y-115266785D01*
X158242859Y-115266785D02*
X158100002Y-115338214D01*
X158100002Y-115338214D02*
X158028573Y-115409642D01*
X158028573Y-115409642D02*
X157957145Y-115552500D01*
X157957145Y-115552500D02*
X157957145Y-115838214D01*
X157957145Y-115838214D02*
X158028573Y-115981071D01*
X158028573Y-115981071D02*
X158100002Y-116052500D01*
X158100002Y-116052500D02*
X158242859Y-116123928D01*
X158242859Y-116123928D02*
X158528573Y-116123928D01*
X158528573Y-116123928D02*
X158671431Y-116052500D01*
X158671431Y-116052500D02*
X158742859Y-115981071D01*
X158742859Y-115981071D02*
X158814288Y-115838214D01*
X158814288Y-115838214D02*
X158814288Y-115552500D01*
X158814288Y-115552500D02*
X158742859Y-115409642D01*
X158742859Y-115409642D02*
X158671431Y-115338214D01*
X158671431Y-115338214D02*
X158528573Y-115266785D01*
X159457144Y-116123928D02*
X159457144Y-114623928D01*
X159457144Y-114623928D02*
X159814287Y-114623928D01*
X159814287Y-114623928D02*
X160028573Y-114695357D01*
X160028573Y-114695357D02*
X160171430Y-114838214D01*
X160171430Y-114838214D02*
X160242859Y-114981071D01*
X160242859Y-114981071D02*
X160314287Y-115266785D01*
X160314287Y-115266785D02*
X160314287Y-115481071D01*
X160314287Y-115481071D02*
X160242859Y-115766785D01*
X160242859Y-115766785D02*
X160171430Y-115909642D01*
X160171430Y-115909642D02*
X160028573Y-116052500D01*
X160028573Y-116052500D02*
X159814287Y-116123928D01*
X159814287Y-116123928D02*
X159457144Y-116123928D01*
X160742859Y-114623928D02*
X161600002Y-114623928D01*
X161171430Y-116123928D02*
X161171430Y-114623928D01*
X162814287Y-116123928D02*
X162100001Y-116123928D01*
X162100001Y-116123928D02*
X162100001Y-114623928D01*
X164385716Y-114766785D02*
X164457144Y-114695357D01*
X164457144Y-114695357D02*
X164600002Y-114623928D01*
X164600002Y-114623928D02*
X164957144Y-114623928D01*
X164957144Y-114623928D02*
X165100002Y-114695357D01*
X165100002Y-114695357D02*
X165171430Y-114766785D01*
X165171430Y-114766785D02*
X165242859Y-114909642D01*
X165242859Y-114909642D02*
X165242859Y-115052500D01*
X165242859Y-115052500D02*
X165171430Y-115266785D01*
X165171430Y-115266785D02*
X164314287Y-116123928D01*
X164314287Y-116123928D02*
X165242859Y-116123928D01*
X166171430Y-114623928D02*
X166314287Y-114623928D01*
X166314287Y-114623928D02*
X166457144Y-114695357D01*
X166457144Y-114695357D02*
X166528573Y-114766785D01*
X166528573Y-114766785D02*
X166600001Y-114909642D01*
X166600001Y-114909642D02*
X166671430Y-115195357D01*
X166671430Y-115195357D02*
X166671430Y-115552500D01*
X166671430Y-115552500D02*
X166600001Y-115838214D01*
X166600001Y-115838214D02*
X166528573Y-115981071D01*
X166528573Y-115981071D02*
X166457144Y-116052500D01*
X166457144Y-116052500D02*
X166314287Y-116123928D01*
X166314287Y-116123928D02*
X166171430Y-116123928D01*
X166171430Y-116123928D02*
X166028573Y-116052500D01*
X166028573Y-116052500D02*
X165957144Y-115981071D01*
X165957144Y-115981071D02*
X165885715Y-115838214D01*
X165885715Y-115838214D02*
X165814287Y-115552500D01*
X165814287Y-115552500D02*
X165814287Y-115195357D01*
X165814287Y-115195357D02*
X165885715Y-114909642D01*
X165885715Y-114909642D02*
X165957144Y-114766785D01*
X165957144Y-114766785D02*
X166028573Y-114695357D01*
X166028573Y-114695357D02*
X166171430Y-114623928D01*
X167242858Y-114766785D02*
X167314286Y-114695357D01*
X167314286Y-114695357D02*
X167457144Y-114623928D01*
X167457144Y-114623928D02*
X167814286Y-114623928D01*
X167814286Y-114623928D02*
X167957144Y-114695357D01*
X167957144Y-114695357D02*
X168028572Y-114766785D01*
X168028572Y-114766785D02*
X168100001Y-114909642D01*
X168100001Y-114909642D02*
X168100001Y-115052500D01*
X168100001Y-115052500D02*
X168028572Y-115266785D01*
X168028572Y-115266785D02*
X167171429Y-116123928D01*
X167171429Y-116123928D02*
X168100001Y-116123928D01*
X169385715Y-115123928D02*
X169385715Y-116123928D01*
X169028572Y-114552500D02*
X168671429Y-115623928D01*
X168671429Y-115623928D02*
X169600000Y-115623928D01*
X170171428Y-115552500D02*
X171314286Y-115552500D01*
X172314286Y-114623928D02*
X172457143Y-114623928D01*
X172457143Y-114623928D02*
X172600000Y-114695357D01*
X172600000Y-114695357D02*
X172671429Y-114766785D01*
X172671429Y-114766785D02*
X172742857Y-114909642D01*
X172742857Y-114909642D02*
X172814286Y-115195357D01*
X172814286Y-115195357D02*
X172814286Y-115552500D01*
X172814286Y-115552500D02*
X172742857Y-115838214D01*
X172742857Y-115838214D02*
X172671429Y-115981071D01*
X172671429Y-115981071D02*
X172600000Y-116052500D01*
X172600000Y-116052500D02*
X172457143Y-116123928D01*
X172457143Y-116123928D02*
X172314286Y-116123928D01*
X172314286Y-116123928D02*
X172171429Y-116052500D01*
X172171429Y-116052500D02*
X172100000Y-115981071D01*
X172100000Y-115981071D02*
X172028571Y-115838214D01*
X172028571Y-115838214D02*
X171957143Y-115552500D01*
X171957143Y-115552500D02*
X171957143Y-115195357D01*
X171957143Y-115195357D02*
X172028571Y-114909642D01*
X172028571Y-114909642D02*
X172100000Y-114766785D01*
X172100000Y-114766785D02*
X172171429Y-114695357D01*
X172171429Y-114695357D02*
X172314286Y-114623928D01*
X174171428Y-114623928D02*
X173457142Y-114623928D01*
X173457142Y-114623928D02*
X173385714Y-115338214D01*
X173385714Y-115338214D02*
X173457142Y-115266785D01*
X173457142Y-115266785D02*
X173600000Y-115195357D01*
X173600000Y-115195357D02*
X173957142Y-115195357D01*
X173957142Y-115195357D02*
X174100000Y-115266785D01*
X174100000Y-115266785D02*
X174171428Y-115338214D01*
X174171428Y-115338214D02*
X174242857Y-115481071D01*
X174242857Y-115481071D02*
X174242857Y-115838214D01*
X174242857Y-115838214D02*
X174171428Y-115981071D01*
X174171428Y-115981071D02*
X174100000Y-116052500D01*
X174100000Y-116052500D02*
X173957142Y-116123928D01*
X173957142Y-116123928D02*
X173600000Y-116123928D01*
X173600000Y-116123928D02*
X173457142Y-116052500D01*
X173457142Y-116052500D02*
X173385714Y-115981071D01*
X174885713Y-115552500D02*
X176028571Y-115552500D01*
X177528571Y-116123928D02*
X176671428Y-116123928D01*
X177099999Y-116123928D02*
X177099999Y-114623928D01*
X177099999Y-114623928D02*
X176957142Y-114838214D01*
X176957142Y-114838214D02*
X176814285Y-114981071D01*
X176814285Y-114981071D02*
X176671428Y-115052500D01*
X178385713Y-115266785D02*
X178242856Y-115195357D01*
X178242856Y-115195357D02*
X178171427Y-115123928D01*
X178171427Y-115123928D02*
X178099999Y-114981071D01*
X178099999Y-114981071D02*
X178099999Y-114909642D01*
X178099999Y-114909642D02*
X178171427Y-114766785D01*
X178171427Y-114766785D02*
X178242856Y-114695357D01*
X178242856Y-114695357D02*
X178385713Y-114623928D01*
X178385713Y-114623928D02*
X178671427Y-114623928D01*
X178671427Y-114623928D02*
X178814285Y-114695357D01*
X178814285Y-114695357D02*
X178885713Y-114766785D01*
X178885713Y-114766785D02*
X178957142Y-114909642D01*
X178957142Y-114909642D02*
X178957142Y-114981071D01*
X178957142Y-114981071D02*
X178885713Y-115123928D01*
X178885713Y-115123928D02*
X178814285Y-115195357D01*
X178814285Y-115195357D02*
X178671427Y-115266785D01*
X178671427Y-115266785D02*
X178385713Y-115266785D01*
X178385713Y-115266785D02*
X178242856Y-115338214D01*
X178242856Y-115338214D02*
X178171427Y-115409642D01*
X178171427Y-115409642D02*
X178099999Y-115552500D01*
X178099999Y-115552500D02*
X178099999Y-115838214D01*
X178099999Y-115838214D02*
X178171427Y-115981071D01*
X178171427Y-115981071D02*
X178242856Y-116052500D01*
X178242856Y-116052500D02*
X178385713Y-116123928D01*
X178385713Y-116123928D02*
X178671427Y-116123928D01*
X178671427Y-116123928D02*
X178814285Y-116052500D01*
X178814285Y-116052500D02*
X178885713Y-115981071D01*
X178885713Y-115981071D02*
X178957142Y-115838214D01*
X178957142Y-115838214D02*
X178957142Y-115552500D01*
X178957142Y-115552500D02*
X178885713Y-115409642D01*
X178885713Y-115409642D02*
X178814285Y-115338214D01*
X178814285Y-115338214D02*
X178671427Y-115266785D01*
%TO.C,SYM101*%
D12*
X149955814Y-110268931D02*
X150039635Y-110713555D01*
X150348920Y-110841053D01*
X150658206Y-110968551D01*
X151029246Y-110716246D01*
X151133157Y-110645996D01*
X151227087Y-110583272D01*
X151306652Y-110530938D01*
X151367470Y-110491857D01*
X151405157Y-110468893D01*
X151415421Y-110463942D01*
X151433910Y-110476676D01*
X151473420Y-110511882D01*
X151529522Y-110565062D01*
X151597787Y-110631718D01*
X151673786Y-110707354D01*
X151753092Y-110787472D01*
X151831275Y-110867574D01*
X151903907Y-110943164D01*
X151966559Y-111009745D01*
X152014803Y-111062818D01*
X152044210Y-111097887D01*
X152051241Y-111109623D01*
X152041123Y-111131260D01*
X152012759Y-111178662D01*
X151969129Y-111247193D01*
X151913218Y-111332215D01*
X151848006Y-111429093D01*
X151810219Y-111484350D01*
X151741343Y-111585248D01*
X151680140Y-111676299D01*
X151629578Y-111752970D01*
X151592628Y-111810728D01*
X151572258Y-111845043D01*
X151569197Y-111852254D01*
X151576136Y-111872748D01*
X151595051Y-111920513D01*
X151623087Y-111988832D01*
X151657391Y-112070989D01*
X151695109Y-112160270D01*
X151733387Y-112249958D01*
X151769370Y-112333338D01*
X151800206Y-112403694D01*
X151823039Y-112454310D01*
X151835017Y-112478471D01*
X151835724Y-112479422D01*
X151854531Y-112484036D01*
X151904618Y-112494328D01*
X151980793Y-112509287D01*
X152077865Y-112527901D01*
X152190643Y-112549159D01*
X152256442Y-112561418D01*
X152376950Y-112584362D01*
X152485797Y-112606195D01*
X152577476Y-112625722D01*
X152646481Y-112641748D01*
X152687304Y-112653079D01*
X152695511Y-112656674D01*
X152703548Y-112681006D01*
X152710033Y-112735959D01*
X152714970Y-112815108D01*
X152718364Y-112912026D01*
X152720218Y-113020287D01*
X152720538Y-113133465D01*
X152719327Y-113245135D01*
X152716590Y-113348868D01*
X152712331Y-113438241D01*
X152706555Y-113506826D01*
X152699267Y-113548197D01*
X152694895Y-113556810D01*
X152668764Y-113567133D01*
X152613393Y-113581892D01*
X152536107Y-113599352D01*
X152444230Y-113617780D01*
X152412158Y-113623741D01*
X152257524Y-113652066D01*
X152135375Y-113674876D01*
X152041673Y-113693080D01*
X151972384Y-113707583D01*
X151923471Y-113719292D01*
X151890897Y-113729115D01*
X151870628Y-113737956D01*
X151858626Y-113746724D01*
X151856947Y-113748457D01*
X151840184Y-113776371D01*
X151814614Y-113830695D01*
X151782788Y-113904777D01*
X151747260Y-113991965D01*
X151710583Y-114085608D01*
X151675311Y-114179052D01*
X151643996Y-114265647D01*
X151619193Y-114338740D01*
X151603454Y-114391678D01*
X151599332Y-114417811D01*
X151599676Y-114418726D01*
X151613641Y-114440086D01*
X151645322Y-114487084D01*
X151691391Y-114554827D01*
X151748518Y-114638423D01*
X151813373Y-114732982D01*
X151831843Y-114759854D01*
X151897699Y-114857275D01*
X151955650Y-114946163D01*
X152002538Y-115021412D01*
X152035207Y-115077920D01*
X152050500Y-115110581D01*
X152051241Y-115114593D01*
X152038392Y-115135684D01*
X152002888Y-115177464D01*
X151949293Y-115235445D01*
X151882171Y-115305135D01*
X151806087Y-115382045D01*
X151725604Y-115461683D01*
X151645287Y-115539561D01*
X151569699Y-115611186D01*
X151503405Y-115672070D01*
X151450969Y-115717721D01*
X151416955Y-115743650D01*
X151407545Y-115747883D01*
X151385643Y-115737912D01*
X151340800Y-115711020D01*
X151280321Y-115671736D01*
X151233789Y-115640117D01*
X151149475Y-115582098D01*
X151049626Y-115513784D01*
X150949473Y-115445579D01*
X150895627Y-115409075D01*
X150713371Y-115285800D01*
X150560381Y-115368520D01*
X150490682Y-115404759D01*
X150431414Y-115432926D01*
X150391311Y-115448991D01*
X150381103Y-115451226D01*
X150368829Y-115434722D01*
X150344613Y-115388082D01*
X150310263Y-115315609D01*
X150267588Y-115221606D01*
X150218394Y-115110374D01*
X150164490Y-114986215D01*
X150107684Y-114853432D01*
X150049782Y-114716327D01*
X149992593Y-114579202D01*
X149937924Y-114446358D01*
X149887584Y-114322098D01*
X149843380Y-114210725D01*
X149807119Y-114116539D01*
X149780609Y-114043844D01*
X149765658Y-113996941D01*
X149763254Y-113980833D01*
X149782311Y-113960286D01*
X149824036Y-113926933D01*
X149879706Y-113887702D01*
X149884378Y-113884599D01*
X150028264Y-113769423D01*
X150144283Y-113635053D01*
X150231430Y-113485784D01*
X150288699Y-113325913D01*
X150315086Y-113159737D01*
X150309585Y-112991552D01*
X150271190Y-112825655D01*
X150198895Y-112666342D01*
X150177626Y-112631487D01*
X150066996Y-112490737D01*
X149936302Y-112377714D01*
X149790064Y-112293003D01*
X149632808Y-112237194D01*
X149469057Y-112210874D01*
X149303333Y-112214630D01*
X149140162Y-112249050D01*
X148984065Y-112314723D01*
X148839567Y-112412235D01*
X148794869Y-112451813D01*
X148681112Y-112575703D01*
X148598218Y-112706124D01*
X148541356Y-112852315D01*
X148509687Y-112997088D01*
X148501869Y-113159860D01*
X148527938Y-113323440D01*
X148585245Y-113482298D01*
X148671144Y-113630906D01*
X148782986Y-113763735D01*
X148918123Y-113875256D01*
X148935883Y-113887011D01*
X148992150Y-113925508D01*
X149034923Y-113958863D01*
X149055372Y-113980160D01*
X149055669Y-113980833D01*
X149051279Y-114003871D01*
X149033876Y-114056157D01*
X149005268Y-114133390D01*
X148967265Y-114231268D01*
X148921674Y-114345491D01*
X148870303Y-114471758D01*
X148814962Y-114605767D01*
X148757458Y-114743218D01*
X148699601Y-114879808D01*
X148643198Y-115011237D01*
X148590058Y-115133205D01*
X148541990Y-115241409D01*
X148500801Y-115331549D01*
X148468301Y-115399323D01*
X148446297Y-115440430D01*
X148437436Y-115451226D01*
X148410360Y-115442819D01*
X148359697Y-115420272D01*
X148294183Y-115387613D01*
X148258159Y-115368520D01*
X148105168Y-115285800D01*
X147922912Y-115409075D01*
X147829875Y-115472228D01*
X147728015Y-115541727D01*
X147632562Y-115607165D01*
X147584750Y-115640117D01*
X147517505Y-115685273D01*
X147460564Y-115721057D01*
X147421354Y-115742938D01*
X147408619Y-115747563D01*
X147390083Y-115735085D01*
X147349059Y-115700252D01*
X147289525Y-115646678D01*
X147215458Y-115577983D01*
X147130835Y-115497781D01*
X147077315Y-115446286D01*
X146983681Y-115354286D01*
X146902759Y-115271999D01*
X146837823Y-115202945D01*
X146792142Y-115150644D01*
X146768989Y-115118616D01*
X146766768Y-115112116D01*
X146777076Y-115087394D01*
X146805561Y-115037405D01*
X146849063Y-114967212D01*
X146904423Y-114881875D01*
X146968480Y-114786456D01*
X146986697Y-114759854D01*
X147053073Y-114663167D01*
X147112622Y-114576117D01*
X147162016Y-114503595D01*
X147197925Y-114450493D01*
X147217019Y-114421703D01*
X147218864Y-114418726D01*
X147216105Y-114395782D01*
X147201462Y-114345336D01*
X147177487Y-114274041D01*
X147146734Y-114188547D01*
X147111756Y-114095507D01*
X147075107Y-114001574D01*
X147039339Y-113913399D01*
X147007006Y-113837634D01*
X146980662Y-113780931D01*
X146962858Y-113749943D01*
X146961593Y-113748457D01*
X146950706Y-113739601D01*
X146932318Y-113730843D01*
X146902394Y-113721277D01*
X146856897Y-113709996D01*
X146791791Y-113696093D01*
X146703039Y-113678663D01*
X146586607Y-113656798D01*
X146438458Y-113629591D01*
X146406382Y-113623741D01*
X146311314Y-113605374D01*
X146228435Y-113587405D01*
X146165070Y-113571569D01*
X146128542Y-113559600D01*
X146123644Y-113556810D01*
X146115573Y-113532072D01*
X146109013Y-113476790D01*
X146103967Y-113397389D01*
X146100441Y-113300296D01*
X146098439Y-113191938D01*
X146097964Y-113078740D01*
X146099023Y-112967128D01*
X146101618Y-112863529D01*
X146105754Y-112774368D01*
X146111437Y-112706072D01*
X146118669Y-112665066D01*
X146123029Y-112656674D01*
X146147302Y-112648208D01*
X146202574Y-112634435D01*
X146283338Y-112616550D01*
X146384088Y-112595748D01*
X146499317Y-112573223D01*
X146562098Y-112561418D01*
X146681213Y-112539151D01*
X146787435Y-112518979D01*
X146875573Y-112501915D01*
X146940434Y-112488969D01*
X146976826Y-112481155D01*
X146982816Y-112479422D01*
X146992939Y-112459890D01*
X147014338Y-112412843D01*
X147044161Y-112345003D01*
X147079555Y-112263091D01*
X147117668Y-112173828D01*
X147155647Y-112083935D01*
X147190640Y-112000135D01*
X147219794Y-111929147D01*
X147240257Y-111877694D01*
X147249177Y-111852497D01*
X147249343Y-111851396D01*
X147239231Y-111831519D01*
X147210883Y-111785777D01*
X147167277Y-111718717D01*
X147111394Y-111634884D01*
X147046213Y-111538826D01*
X147008321Y-111483650D01*
X146939275Y-111382481D01*
X146877950Y-111290630D01*
X146827337Y-111212744D01*
X146790429Y-111153469D01*
X146770218Y-111117451D01*
X146767299Y-111109377D01*
X146779847Y-111090584D01*
X146814537Y-111050457D01*
X146866937Y-110993493D01*
X146932616Y-110924185D01*
X147007144Y-110847031D01*
X147086087Y-110766525D01*
X147165017Y-110687163D01*
X147239500Y-110613440D01*
X147305106Y-110549852D01*
X147357404Y-110500894D01*
X147391961Y-110471061D01*
X147403522Y-110463942D01*
X147422346Y-110473953D01*
X147467369Y-110502078D01*
X147534213Y-110545454D01*
X147618501Y-110601218D01*
X147715856Y-110666506D01*
X147789293Y-110716246D01*
X148160333Y-110968551D01*
X148778905Y-110713555D01*
X148862725Y-110268931D01*
X148946546Y-109824307D01*
X149871994Y-109824307D01*
X149955814Y-110268931D01*
%TA.AperFunction,EtchedComponent*%
G36*
X149955814Y-110268931D02*
G01*
X150039635Y-110713555D01*
X150348920Y-110841053D01*
X150658206Y-110968551D01*
X151029246Y-110716246D01*
X151133157Y-110645996D01*
X151227087Y-110583272D01*
X151306652Y-110530938D01*
X151367470Y-110491857D01*
X151405157Y-110468893D01*
X151415421Y-110463942D01*
X151433910Y-110476676D01*
X151473420Y-110511882D01*
X151529522Y-110565062D01*
X151597787Y-110631718D01*
X151673786Y-110707354D01*
X151753092Y-110787472D01*
X151831275Y-110867574D01*
X151903907Y-110943164D01*
X151966559Y-111009745D01*
X152014803Y-111062818D01*
X152044210Y-111097887D01*
X152051241Y-111109623D01*
X152041123Y-111131260D01*
X152012759Y-111178662D01*
X151969129Y-111247193D01*
X151913218Y-111332215D01*
X151848006Y-111429093D01*
X151810219Y-111484350D01*
X151741343Y-111585248D01*
X151680140Y-111676299D01*
X151629578Y-111752970D01*
X151592628Y-111810728D01*
X151572258Y-111845043D01*
X151569197Y-111852254D01*
X151576136Y-111872748D01*
X151595051Y-111920513D01*
X151623087Y-111988832D01*
X151657391Y-112070989D01*
X151695109Y-112160270D01*
X151733387Y-112249958D01*
X151769370Y-112333338D01*
X151800206Y-112403694D01*
X151823039Y-112454310D01*
X151835017Y-112478471D01*
X151835724Y-112479422D01*
X151854531Y-112484036D01*
X151904618Y-112494328D01*
X151980793Y-112509287D01*
X152077865Y-112527901D01*
X152190643Y-112549159D01*
X152256442Y-112561418D01*
X152376950Y-112584362D01*
X152485797Y-112606195D01*
X152577476Y-112625722D01*
X152646481Y-112641748D01*
X152687304Y-112653079D01*
X152695511Y-112656674D01*
X152703548Y-112681006D01*
X152710033Y-112735959D01*
X152714970Y-112815108D01*
X152718364Y-112912026D01*
X152720218Y-113020287D01*
X152720538Y-113133465D01*
X152719327Y-113245135D01*
X152716590Y-113348868D01*
X152712331Y-113438241D01*
X152706555Y-113506826D01*
X152699267Y-113548197D01*
X152694895Y-113556810D01*
X152668764Y-113567133D01*
X152613393Y-113581892D01*
X152536107Y-113599352D01*
X152444230Y-113617780D01*
X152412158Y-113623741D01*
X152257524Y-113652066D01*
X152135375Y-113674876D01*
X152041673Y-113693080D01*
X151972384Y-113707583D01*
X151923471Y-113719292D01*
X151890897Y-113729115D01*
X151870628Y-113737956D01*
X151858626Y-113746724D01*
X151856947Y-113748457D01*
X151840184Y-113776371D01*
X151814614Y-113830695D01*
X151782788Y-113904777D01*
X151747260Y-113991965D01*
X151710583Y-114085608D01*
X151675311Y-114179052D01*
X151643996Y-114265647D01*
X151619193Y-114338740D01*
X151603454Y-114391678D01*
X151599332Y-114417811D01*
X151599676Y-114418726D01*
X151613641Y-114440086D01*
X151645322Y-114487084D01*
X151691391Y-114554827D01*
X151748518Y-114638423D01*
X151813373Y-114732982D01*
X151831843Y-114759854D01*
X151897699Y-114857275D01*
X151955650Y-114946163D01*
X152002538Y-115021412D01*
X152035207Y-115077920D01*
X152050500Y-115110581D01*
X152051241Y-115114593D01*
X152038392Y-115135684D01*
X152002888Y-115177464D01*
X151949293Y-115235445D01*
X151882171Y-115305135D01*
X151806087Y-115382045D01*
X151725604Y-115461683D01*
X151645287Y-115539561D01*
X151569699Y-115611186D01*
X151503405Y-115672070D01*
X151450969Y-115717721D01*
X151416955Y-115743650D01*
X151407545Y-115747883D01*
X151385643Y-115737912D01*
X151340800Y-115711020D01*
X151280321Y-115671736D01*
X151233789Y-115640117D01*
X151149475Y-115582098D01*
X151049626Y-115513784D01*
X150949473Y-115445579D01*
X150895627Y-115409075D01*
X150713371Y-115285800D01*
X150560381Y-115368520D01*
X150490682Y-115404759D01*
X150431414Y-115432926D01*
X150391311Y-115448991D01*
X150381103Y-115451226D01*
X150368829Y-115434722D01*
X150344613Y-115388082D01*
X150310263Y-115315609D01*
X150267588Y-115221606D01*
X150218394Y-115110374D01*
X150164490Y-114986215D01*
X150107684Y-114853432D01*
X150049782Y-114716327D01*
X149992593Y-114579202D01*
X149937924Y-114446358D01*
X149887584Y-114322098D01*
X149843380Y-114210725D01*
X149807119Y-114116539D01*
X149780609Y-114043844D01*
X149765658Y-113996941D01*
X149763254Y-113980833D01*
X149782311Y-113960286D01*
X149824036Y-113926933D01*
X149879706Y-113887702D01*
X149884378Y-113884599D01*
X150028264Y-113769423D01*
X150144283Y-113635053D01*
X150231430Y-113485784D01*
X150288699Y-113325913D01*
X150315086Y-113159737D01*
X150309585Y-112991552D01*
X150271190Y-112825655D01*
X150198895Y-112666342D01*
X150177626Y-112631487D01*
X150066996Y-112490737D01*
X149936302Y-112377714D01*
X149790064Y-112293003D01*
X149632808Y-112237194D01*
X149469057Y-112210874D01*
X149303333Y-112214630D01*
X149140162Y-112249050D01*
X148984065Y-112314723D01*
X148839567Y-112412235D01*
X148794869Y-112451813D01*
X148681112Y-112575703D01*
X148598218Y-112706124D01*
X148541356Y-112852315D01*
X148509687Y-112997088D01*
X148501869Y-113159860D01*
X148527938Y-113323440D01*
X148585245Y-113482298D01*
X148671144Y-113630906D01*
X148782986Y-113763735D01*
X148918123Y-113875256D01*
X148935883Y-113887011D01*
X148992150Y-113925508D01*
X149034923Y-113958863D01*
X149055372Y-113980160D01*
X149055669Y-113980833D01*
X149051279Y-114003871D01*
X149033876Y-114056157D01*
X149005268Y-114133390D01*
X148967265Y-114231268D01*
X148921674Y-114345491D01*
X148870303Y-114471758D01*
X148814962Y-114605767D01*
X148757458Y-114743218D01*
X148699601Y-114879808D01*
X148643198Y-115011237D01*
X148590058Y-115133205D01*
X148541990Y-115241409D01*
X148500801Y-115331549D01*
X148468301Y-115399323D01*
X148446297Y-115440430D01*
X148437436Y-115451226D01*
X148410360Y-115442819D01*
X148359697Y-115420272D01*
X148294183Y-115387613D01*
X148258159Y-115368520D01*
X148105168Y-115285800D01*
X147922912Y-115409075D01*
X147829875Y-115472228D01*
X147728015Y-115541727D01*
X147632562Y-115607165D01*
X147584750Y-115640117D01*
X147517505Y-115685273D01*
X147460564Y-115721057D01*
X147421354Y-115742938D01*
X147408619Y-115747563D01*
X147390083Y-115735085D01*
X147349059Y-115700252D01*
X147289525Y-115646678D01*
X147215458Y-115577983D01*
X147130835Y-115497781D01*
X147077315Y-115446286D01*
X146983681Y-115354286D01*
X146902759Y-115271999D01*
X146837823Y-115202945D01*
X146792142Y-115150644D01*
X146768989Y-115118616D01*
X146766768Y-115112116D01*
X146777076Y-115087394D01*
X146805561Y-115037405D01*
X146849063Y-114967212D01*
X146904423Y-114881875D01*
X146968480Y-114786456D01*
X146986697Y-114759854D01*
X147053073Y-114663167D01*
X147112622Y-114576117D01*
X147162016Y-114503595D01*
X147197925Y-114450493D01*
X147217019Y-114421703D01*
X147218864Y-114418726D01*
X147216105Y-114395782D01*
X147201462Y-114345336D01*
X147177487Y-114274041D01*
X147146734Y-114188547D01*
X147111756Y-114095507D01*
X147075107Y-114001574D01*
X147039339Y-113913399D01*
X147007006Y-113837634D01*
X146980662Y-113780931D01*
X146962858Y-113749943D01*
X146961593Y-113748457D01*
X146950706Y-113739601D01*
X146932318Y-113730843D01*
X146902394Y-113721277D01*
X146856897Y-113709996D01*
X146791791Y-113696093D01*
X146703039Y-113678663D01*
X146586607Y-113656798D01*
X146438458Y-113629591D01*
X146406382Y-113623741D01*
X146311314Y-113605374D01*
X146228435Y-113587405D01*
X146165070Y-113571569D01*
X146128542Y-113559600D01*
X146123644Y-113556810D01*
X146115573Y-113532072D01*
X146109013Y-113476790D01*
X146103967Y-113397389D01*
X146100441Y-113300296D01*
X146098439Y-113191938D01*
X146097964Y-113078740D01*
X146099023Y-112967128D01*
X146101618Y-112863529D01*
X146105754Y-112774368D01*
X146111437Y-112706072D01*
X146118669Y-112665066D01*
X146123029Y-112656674D01*
X146147302Y-112648208D01*
X146202574Y-112634435D01*
X146283338Y-112616550D01*
X146384088Y-112595748D01*
X146499317Y-112573223D01*
X146562098Y-112561418D01*
X146681213Y-112539151D01*
X146787435Y-112518979D01*
X146875573Y-112501915D01*
X146940434Y-112488969D01*
X146976826Y-112481155D01*
X146982816Y-112479422D01*
X146992939Y-112459890D01*
X147014338Y-112412843D01*
X147044161Y-112345003D01*
X147079555Y-112263091D01*
X147117668Y-112173828D01*
X147155647Y-112083935D01*
X147190640Y-112000135D01*
X147219794Y-111929147D01*
X147240257Y-111877694D01*
X147249177Y-111852497D01*
X147249343Y-111851396D01*
X147239231Y-111831519D01*
X147210883Y-111785777D01*
X147167277Y-111718717D01*
X147111394Y-111634884D01*
X147046213Y-111538826D01*
X147008321Y-111483650D01*
X146939275Y-111382481D01*
X146877950Y-111290630D01*
X146827337Y-111212744D01*
X146790429Y-111153469D01*
X146770218Y-111117451D01*
X146767299Y-111109377D01*
X146779847Y-111090584D01*
X146814537Y-111050457D01*
X146866937Y-110993493D01*
X146932616Y-110924185D01*
X147007144Y-110847031D01*
X147086087Y-110766525D01*
X147165017Y-110687163D01*
X147239500Y-110613440D01*
X147305106Y-110549852D01*
X147357404Y-110500894D01*
X147391961Y-110471061D01*
X147403522Y-110463942D01*
X147422346Y-110473953D01*
X147467369Y-110502078D01*
X147534213Y-110545454D01*
X147618501Y-110601218D01*
X147715856Y-110666506D01*
X147789293Y-110716246D01*
X148160333Y-110968551D01*
X148778905Y-110713555D01*
X148862725Y-110268931D01*
X148946546Y-109824307D01*
X149871994Y-109824307D01*
X149955814Y-110268931D01*
G37*
%TD.AperFunction*%
%TD*%
D13*
%TO.P,P1,1,1*%
%TO.N,RX+*%
X127000000Y-76835000D03*
%TO.P,P1,2,2*%
%TO.N,RX-*%
X129540000Y-78105000D03*
%TO.P,P1,3,3*%
%TO.N,Net-(C2-Pad2)*%
X127000000Y-79375000D03*
%TO.P,P1,4,4*%
X129540000Y-80645000D03*
%TO.P,P1,5,5*%
%TO.N,TX+*%
X127000000Y-81915000D03*
%TO.P,P1,6,6*%
%TO.N,TX-*%
X129540000Y-83185000D03*
%TO.P,P1,7,7*%
%TO.N,unconnected-(P1-Pad7)*%
X127000000Y-84455000D03*
%TO.P,P1,8,8*%
%TO.N,GND*%
X129540000Y-85725000D03*
D14*
%TO.P,P1,9,Shield*%
X123698000Y-73533000D03*
%TO.P,P1,10,Shield*%
X123698000Y-89027000D03*
D13*
%TO.P,P1,11,D1*%
%TO.N,Net-(P1-D1)*%
X118110000Y-74498200D03*
%TO.P,P1,12,D2*%
%TO.N,LED1*%
X116078000Y-74498200D03*
%TO.P,P1,13,D3*%
%TO.N,Net-(P1-D3)*%
X118110000Y-88061800D03*
%TO.P,P1,14,D4*%
%TO.N,LED2*%
X116078000Y-88061800D03*
%TD*%
D15*
%TO.P,P2,1,Pin_1*%
%TO.N,unconnected-(P2-Pin_1-Pad1)*%
X190754000Y-104750000D03*
%TO.P,P2,3,Pin_3*%
%TO.N,unconnected-(P2-Pin_3-Pad3)*%
X190754000Y-103950000D03*
%TO.P,P2,5,Pin_5*%
%TO.N,unconnected-(P2-Pin_5-Pad5)*%
X190754000Y-103150000D03*
%TO.P,P2,7,Pin_7*%
%TO.N,unconnected-(P2-Pin_7-Pad7)*%
X190754000Y-102350000D03*
%TO.P,P2,9,Pin_9*%
%TO.N,unconnected-(P2-Pin_9-Pad9)*%
X190754000Y-101550000D03*
%TO.P,P2,11,Pin_11*%
%TO.N,unconnected-(P2-Pin_11-Pad11)*%
X190754000Y-100750000D03*
%TO.P,P2,13,Pin_13*%
%TO.N,unconnected-(P2-Pin_13-Pad13)*%
X190754000Y-99950000D03*
%TO.P,P2,15,Pin_15*%
%TO.N,unconnected-(P2-Pin_15-Pad15)*%
X190754000Y-99150000D03*
%TO.P,P2,17,Pin_17*%
%TO.N,unconnected-(P2-Pin_17-Pad17)*%
X190754000Y-98350000D03*
%TO.P,P2,19,Pin_19*%
%TO.N,unconnected-(P2-Pin_19-Pad19)*%
X190754000Y-97550000D03*
%TO.P,P2,21,Pin_21*%
%TO.N,unconnected-(P2-Pin_21-Pad21)*%
X190754000Y-96750000D03*
%TO.P,P2,23,Pin_23*%
%TO.N,unconnected-(P2-Pin_23-Pad23)*%
X190754000Y-95950000D03*
%TO.P,P2,25,Pin_25*%
%TO.N,unconnected-(P2-Pin_25-Pad25)*%
X190754000Y-95150000D03*
%TO.P,P2,27,Pin_27*%
%TO.N,unconnected-(P2-Pin_27-Pad27)*%
X190754000Y-94350000D03*
%TO.P,P2,29,Pin_29*%
%TO.N,unconnected-(P2-Pin_29-Pad29)*%
X190754000Y-93550000D03*
%TO.P,P2,31,Pin_31*%
%TO.N,unconnected-(P2-Pin_31-Pad31)*%
X190754000Y-92750000D03*
%TO.P,P2,33,Pin_33*%
%TO.N,unconnected-(P2-Pin_33-Pad33)*%
X190754000Y-91950000D03*
%TO.P,P2,35,Pin_35*%
%TO.N,unconnected-(P2-Pin_35-Pad35)*%
X190754000Y-91150000D03*
%TO.P,P2,37,Pin_37*%
%TO.N,unconnected-(P2-Pin_37-Pad37)*%
X190754000Y-90350000D03*
%TO.P,P2,39,Pin_39*%
%TO.N,unconnected-(P2-Pin_39-Pad39)*%
X190754000Y-89550000D03*
%TO.P,P2,41,Pin_41*%
%TO.N,unconnected-(P2-Pin_41-Pad41)*%
X190754000Y-88750000D03*
%TO.P,P2,43,Pin_43*%
%TO.N,LED2*%
X190754000Y-87950000D03*
%TO.P,P2,45,Pin_45*%
%TO.N,unconnected-(P2-Pin_45-Pad45)*%
X190754000Y-83950000D03*
%TO.P,P2,47,Pin_47*%
%TO.N,TX+*%
X190754000Y-83150000D03*
%TO.P,P2,49,Pin_49*%
%TO.N,TX-*%
X190754000Y-82350000D03*
%TO.P,P2,51,Pin_51*%
%TO.N,GND*%
X190754000Y-81550000D03*
%TO.P,P2,53,Pin_53*%
X190754000Y-80750000D03*
%TO.P,P2,55,Pin_55*%
%TO.N,RX+*%
X190754000Y-79950000D03*
%TO.P,P2,57,Pin_57*%
%TO.N,RX-*%
X190754000Y-79150000D03*
%TO.P,P2,59,Pin_59*%
%TO.N,unconnected-(P2-Pin_59-Pad59)*%
X190754000Y-78350000D03*
%TO.P,P2,61,Pin_61*%
%TO.N,unconnected-(P2-Pin_61-Pad61)*%
X190754000Y-77550000D03*
%TO.P,P2,63,Pin_63*%
%TO.N,LED1*%
X190754000Y-76750000D03*
%TO.P,P2,65,Pin_65*%
%TO.N,unconnected-(P2-Pin_65-Pad65)*%
X190754000Y-75950000D03*
%TO.P,P2,67,Pin_67*%
%TO.N,unconnected-(P2-Pin_67-Pad67)*%
X190754000Y-75150000D03*
%TO.P,P2,69,Pin_69*%
%TO.N,unconnected-(P2-Pin_69-Pad69)*%
X190754000Y-74350000D03*
%TO.P,P2,71,Pin_71*%
%TO.N,unconnected-(P2-Pin_71-Pad71)*%
X190754000Y-73550000D03*
%TO.P,P2,73,Pin_73*%
%TO.N,unconnected-(P2-Pin_73-Pad73)*%
X190754000Y-72750000D03*
%TO.P,P2,75,Pin_75*%
%TO.N,unconnected-(P2-Pin_75-Pad75)*%
X190754000Y-71950000D03*
%TO.P,P2,77,Pin_77*%
%TO.N,unconnected-(P2-Pin_77-Pad77)*%
X190754000Y-71150000D03*
%TO.P,P2,79,Pin_79*%
%TO.N,unconnected-(P2-Pin_79-Pad79)*%
X190754000Y-70350000D03*
%TD*%
D16*
%TO.P,C2,1*%
%TO.N,GND*%
X143912500Y-80010000D03*
%TO.P,C2,2*%
%TO.N,Net-(C2-Pad2)*%
X141837500Y-80010000D03*
%TD*%
D17*
%TO.P,R1,1*%
%TO.N,+3.3V*%
X130540000Y-69215000D03*
%TO.P,R1,2*%
%TO.N,Net-(P1-D1)*%
X128540000Y-69215000D03*
%TD*%
%TO.P,R2,1*%
%TO.N,+3.3V*%
X130540000Y-93345000D03*
%TO.P,R2,2*%
%TO.N,Net-(P1-D3)*%
X128540000Y-93345000D03*
%TD*%
%TO.P,R3,1*%
%TO.N,+3.3V*%
X143875000Y-82200000D03*
%TO.P,R3,2*%
%TO.N,Net-(C2-Pad2)*%
X141875000Y-82200000D03*
%TD*%
D18*
%TO.N,GND*%
X138430000Y-85725000D03*
X177165000Y-80010000D03*
%TO.N,Net-(C2-Pad2)*%
X138430000Y-80645000D03*
%TO.N,LED2*%
X183515000Y-86995000D03*
%TO.N,TX+*%
X183515000Y-84455000D03*
%TO.N,TX-*%
X181610000Y-84455000D03*
%TO.N,RX+*%
X181610000Y-80010000D03*
%TO.N,RX-*%
X181610000Y-78105000D03*
%TO.N,LED1*%
X184150000Y-76200000D03*
%TO.N,Net-(P1-D1)*%
X118110000Y-70485000D03*
%TO.N,Net-(P1-D3)*%
X118110000Y-91440000D03*
%TO.N,+3.3V*%
X177165000Y-81915000D03*
%TD*%
D19*
%TO.N,GND*%
X138430000Y-85725000D02*
X136525000Y-83820000D01*
X136525000Y-83820000D02*
X136525000Y-80010000D01*
X136525000Y-80010000D02*
X138430000Y-78105000D01*
X138430000Y-78105000D02*
X144145000Y-78105000D01*
X144145000Y-78105000D02*
X144125000Y-78125000D01*
X144125000Y-78125000D02*
X144125000Y-80010000D01*
X183404000Y-81550000D02*
X183388000Y-81534000D01*
X183388000Y-81534000D02*
X183388000Y-81212002D01*
X183388000Y-81212002D02*
X183850002Y-80750000D01*
X183850002Y-80750000D02*
X190754000Y-80750000D01*
X190754000Y-81550000D02*
X183404000Y-81550000D01*
X144125000Y-80010000D02*
X177165000Y-80010000D01*
%TO.N,Net-(C2-Pad2)*%
X141875000Y-80047500D02*
X141837500Y-80010000D01*
X141875000Y-82200000D02*
X141875000Y-80047500D01*
X139065000Y-80010000D02*
X138430000Y-80645000D01*
X141837500Y-80010000D02*
X139065000Y-80010000D01*
%TO.N,LED2*%
X183515000Y-86995000D02*
X184470000Y-87950000D01*
X184470000Y-87950000D02*
X190754000Y-87950000D01*
%TO.N,TX+*%
X183515000Y-84455000D02*
X184820000Y-83150000D01*
X184820000Y-83150000D02*
X190754000Y-83150000D01*
%TO.N,TX-*%
X183715000Y-82350000D02*
X181610000Y-84455000D01*
X190754000Y-82350000D02*
X183715000Y-82350000D01*
%TO.N,RX+*%
X181610000Y-80010000D02*
X181670000Y-79950000D01*
X181670000Y-79950000D02*
X190754000Y-79950000D01*
%TO.N,RX-*%
X183290000Y-79150000D02*
X181610000Y-78105000D01*
X190754000Y-79150000D02*
X183290000Y-79150000D01*
%TO.N,LED1*%
X184150000Y-76200000D02*
X184700000Y-76750000D01*
X184700000Y-76750000D02*
X190754000Y-76750000D01*
%TO.N,Net-(P1-D1)*%
X119380000Y-69215000D02*
X118110000Y-70485000D01*
X128190000Y-69215000D02*
X119380000Y-69215000D01*
%TO.N,Net-(P1-D3)*%
X120015000Y-93345000D02*
X118110000Y-91440000D01*
X128190000Y-93345000D02*
X120015000Y-93345000D01*
%TO.N,+3.3V*%
X177800000Y-81915000D02*
X179070000Y-80645000D01*
X179070000Y-80645000D02*
X179070000Y-80518000D01*
X140970000Y-76200000D02*
X133985000Y-69215000D01*
X133985000Y-69215000D02*
X130890000Y-69215000D01*
X179070000Y-80010000D02*
X177800000Y-78740000D01*
X177800000Y-78740000D02*
X146812000Y-78740000D01*
X146812000Y-78740000D02*
X144272000Y-76200000D01*
X144272000Y-76200000D02*
X140970000Y-76200000D01*
X143875000Y-82200000D02*
X144225000Y-82550000D01*
X144160000Y-81915000D02*
X143875000Y-82200000D01*
X177165000Y-81915000D02*
X144160000Y-81915000D01*
X177165000Y-81915000D02*
X177800000Y-81915000D01*
X144225000Y-82550000D02*
X144225000Y-89455000D01*
X179070000Y-80518000D02*
X179070000Y-80010000D01*
X140335000Y-93345000D02*
X130890000Y-93345000D01*
X144225000Y-89455000D02*
X140335000Y-93345000D01*
%TD*%
%TA.AperFunction,Conductor*%
%TO.N,GND*%
G36*
X128420546Y-83895266D02*
G01*
X128468704Y-83936331D01*
X128533804Y-84029303D01*
X128695696Y-84191195D01*
X128695699Y-84191197D01*
X128695700Y-84191198D01*
X128883251Y-84322523D01*
X128922318Y-84340740D01*
X128923049Y-84341081D01*
X128976334Y-84387998D01*
X128995795Y-84456276D01*
X128975253Y-84524236D01*
X128923050Y-84569470D01*
X128883502Y-84587911D01*
X128812109Y-84637900D01*
X129456683Y-85282474D01*
X129405862Y-85290135D01*
X129283643Y-85348993D01*
X129184202Y-85441260D01*
X129116375Y-85558740D01*
X129097449Y-85641659D01*
X128452900Y-84997109D01*
X128439271Y-84998302D01*
X128412870Y-85019405D01*
X128342250Y-85026714D01*
X128278890Y-84994683D01*
X128242905Y-84933482D01*
X128243407Y-84870195D01*
X128249507Y-84847429D01*
X128293543Y-84683087D01*
X128313498Y-84455000D01*
X128293543Y-84226913D01*
X128243784Y-84041211D01*
X128245474Y-83970237D01*
X128285268Y-83911441D01*
X128350532Y-83883493D01*
X128420546Y-83895266D01*
G37*
%TD.AperFunction*%
%TA.AperFunction,Conductor*%
G36*
X187020621Y-59702502D02*
G01*
X187067114Y-59756158D01*
X187078500Y-59808499D01*
X187078500Y-69397038D01*
X187078500Y-69397039D01*
X187078500Y-69540961D01*
X187086149Y-69567012D01*
X187089969Y-69584574D01*
X187093834Y-69611454D01*
X187105115Y-69636156D01*
X187111397Y-69652999D01*
X187119047Y-69679053D01*
X187133727Y-69701896D01*
X187142340Y-69717669D01*
X187153622Y-69742372D01*
X187171403Y-69762892D01*
X187182176Y-69777283D01*
X187196857Y-69800128D01*
X187217378Y-69817910D01*
X187230088Y-69830620D01*
X187247871Y-69851143D01*
X187270715Y-69865823D01*
X187285108Y-69876597D01*
X187305627Y-69894377D01*
X187330333Y-69905660D01*
X187346091Y-69914264D01*
X187368947Y-69928953D01*
X187395005Y-69936604D01*
X187411842Y-69942884D01*
X187436543Y-69954165D01*
X187463435Y-69958031D01*
X187480969Y-69961845D01*
X187488495Y-69964055D01*
X187548220Y-70002434D01*
X187577717Y-70067013D01*
X187579000Y-70084951D01*
X187579000Y-75865500D01*
X187558998Y-75933621D01*
X187505342Y-75980114D01*
X187453000Y-75991500D01*
X185338324Y-75991500D01*
X185270203Y-75971498D01*
X185223710Y-75917842D01*
X185217134Y-75899982D01*
X185196881Y-75828802D01*
X185188074Y-75797848D01*
X185096503Y-75613950D01*
X184972701Y-75450009D01*
X184820882Y-75311608D01*
X184772332Y-75281547D01*
X184646219Y-75203460D01*
X184454655Y-75129249D01*
X184437879Y-75126113D01*
X184252718Y-75091500D01*
X184047282Y-75091500D01*
X183912657Y-75116666D01*
X183845344Y-75129249D01*
X183653780Y-75203460D01*
X183479119Y-75311607D01*
X183327298Y-75450010D01*
X183203497Y-75613949D01*
X183111925Y-75797848D01*
X183055705Y-75995442D01*
X183036750Y-76199999D01*
X183055705Y-76404557D01*
X183111925Y-76602151D01*
X183193006Y-76764982D01*
X183203497Y-76786050D01*
X183327299Y-76949991D01*
X183479118Y-77088392D01*
X183653782Y-77196540D01*
X183845345Y-77270751D01*
X184047282Y-77308500D01*
X184139620Y-77308500D01*
X184207741Y-77328502D01*
X184217800Y-77335688D01*
X184219481Y-77337018D01*
X184222292Y-77339308D01*
X184281378Y-77388886D01*
X184297887Y-77399403D01*
X184299090Y-77399964D01*
X184299094Y-77399967D01*
X184367867Y-77432035D01*
X184371036Y-77433570D01*
X184438812Y-77467609D01*
X184440001Y-77468206D01*
X184458493Y-77474633D01*
X184459790Y-77474900D01*
X184459793Y-77474902D01*
X184534066Y-77490237D01*
X184537530Y-77491004D01*
X184611344Y-77508500D01*
X184611347Y-77508500D01*
X184612642Y-77508807D01*
X184632111Y-77510796D01*
X184633438Y-77510757D01*
X184633442Y-77510758D01*
X184707697Y-77508597D01*
X184709224Y-77508553D01*
X184712888Y-77508500D01*
X187453000Y-77508500D01*
X187521121Y-77528502D01*
X187567614Y-77582158D01*
X187579000Y-77634500D01*
X187579000Y-78265500D01*
X187558998Y-78333621D01*
X187505342Y-78380114D01*
X187453000Y-78391500D01*
X183542647Y-78391500D01*
X183476096Y-78372491D01*
X182742839Y-77916387D01*
X182695560Y-77863422D01*
X182688200Y-77843877D01*
X182648074Y-77702847D01*
X182567982Y-77542003D01*
X182556503Y-77518950D01*
X182432701Y-77355009D01*
X182280882Y-77216608D01*
X182226675Y-77183044D01*
X182106219Y-77108460D01*
X181914655Y-77034249D01*
X181911087Y-77033582D01*
X181712718Y-76996500D01*
X181507282Y-76996500D01*
X181372657Y-77021666D01*
X181305344Y-77034249D01*
X181113780Y-77108460D01*
X180939119Y-77216607D01*
X180787298Y-77355010D01*
X180663497Y-77518949D01*
X180571925Y-77702848D01*
X180515705Y-77900442D01*
X180496750Y-78105000D01*
X180515705Y-78309557D01*
X180571925Y-78507151D01*
X180631077Y-78625942D01*
X180663497Y-78691050D01*
X180787299Y-78854991D01*
X180907299Y-78964385D01*
X180944165Y-79025059D01*
X180942376Y-79096033D01*
X180907299Y-79150614D01*
X180787299Y-79260009D01*
X180787298Y-79260010D01*
X180663497Y-79423949D01*
X180571925Y-79607848D01*
X180515705Y-79805442D01*
X180496750Y-80010000D01*
X180515705Y-80214557D01*
X180571925Y-80412151D01*
X180631754Y-80532302D01*
X180663497Y-80596050D01*
X180787299Y-80759991D01*
X180939118Y-80898392D01*
X181113782Y-81006540D01*
X181305345Y-81080751D01*
X181507282Y-81118500D01*
X181507284Y-81118500D01*
X181712716Y-81118500D01*
X181712718Y-81118500D01*
X181914655Y-81080751D01*
X182106218Y-81006540D01*
X182280882Y-80898392D01*
X182432701Y-80759991D01*
X182433773Y-80758570D01*
X182436381Y-80756635D01*
X182441329Y-80752125D01*
X182441785Y-80752625D01*
X182490785Y-80716262D01*
X182534325Y-80708500D01*
X187453000Y-80708500D01*
X187521121Y-80728502D01*
X187567614Y-80782158D01*
X187579000Y-80834500D01*
X187579000Y-81465500D01*
X187558998Y-81533621D01*
X187505342Y-81580114D01*
X187453000Y-81591500D01*
X183779442Y-81591500D01*
X183761182Y-81590170D01*
X183737212Y-81586659D01*
X183737211Y-81586659D01*
X183711075Y-81588945D01*
X183687353Y-81591021D01*
X183676372Y-81591500D01*
X183670820Y-81591500D01*
X183667182Y-81591925D01*
X183667167Y-81591926D01*
X183639711Y-81595135D01*
X183636070Y-81595507D01*
X183559260Y-81602227D01*
X183540123Y-81606470D01*
X183467634Y-81632853D01*
X183464176Y-81634055D01*
X183391000Y-81658303D01*
X183373372Y-81666838D01*
X183308918Y-81709229D01*
X183305831Y-81711196D01*
X183240218Y-81751667D01*
X183225032Y-81764038D01*
X183172087Y-81820156D01*
X183169534Y-81822783D01*
X181682722Y-83309596D01*
X181620412Y-83343620D01*
X181593629Y-83346500D01*
X181507282Y-83346500D01*
X181372657Y-83371666D01*
X181305344Y-83384249D01*
X181113780Y-83458460D01*
X180939119Y-83566607D01*
X180787298Y-83705010D01*
X180663497Y-83868949D01*
X180571925Y-84052848D01*
X180515705Y-84250442D01*
X180496750Y-84455000D01*
X180515705Y-84659557D01*
X180571925Y-84857151D01*
X180609934Y-84933482D01*
X180663497Y-85041050D01*
X180787299Y-85204991D01*
X180939118Y-85343392D01*
X181011771Y-85388377D01*
X181107352Y-85447559D01*
X181113782Y-85451540D01*
X181305345Y-85525751D01*
X181507282Y-85563500D01*
X181507284Y-85563500D01*
X181712716Y-85563500D01*
X181712718Y-85563500D01*
X181914655Y-85525751D01*
X182106218Y-85451540D01*
X182280882Y-85343392D01*
X182432701Y-85204991D01*
X182461951Y-85166257D01*
X182518963Y-85123951D01*
X182589799Y-85119183D01*
X182651968Y-85153469D01*
X182663043Y-85166250D01*
X182692299Y-85204991D01*
X182844118Y-85343392D01*
X182916771Y-85388377D01*
X183012352Y-85447559D01*
X183018782Y-85451540D01*
X183210345Y-85525751D01*
X183412282Y-85563500D01*
X183412284Y-85563500D01*
X183617716Y-85563500D01*
X183617718Y-85563500D01*
X183819655Y-85525751D01*
X184011218Y-85451540D01*
X184185882Y-85343392D01*
X184337701Y-85204991D01*
X184461503Y-85041050D01*
X184553074Y-84857152D01*
X184609294Y-84659559D01*
X184628194Y-84455585D01*
X184654397Y-84389603D01*
X184664553Y-84378126D01*
X185097276Y-83945404D01*
X185159589Y-83911379D01*
X185186372Y-83908500D01*
X187453000Y-83908500D01*
X187521121Y-83928502D01*
X187567614Y-83982158D01*
X187579000Y-84034500D01*
X187579000Y-84347047D01*
X187558998Y-84415168D01*
X187505342Y-84461661D01*
X187488490Y-84467945D01*
X187480982Y-84470149D01*
X187463429Y-84473968D01*
X187436541Y-84477834D01*
X187411842Y-84489114D01*
X187395007Y-84495393D01*
X187368947Y-84503046D01*
X187346093Y-84517732D01*
X187330327Y-84526341D01*
X187305625Y-84537623D01*
X187285103Y-84555405D01*
X187270717Y-84566174D01*
X187247871Y-84580856D01*
X187230083Y-84601383D01*
X187217383Y-84614083D01*
X187196856Y-84631871D01*
X187182174Y-84654717D01*
X187171405Y-84669103D01*
X187153623Y-84689625D01*
X187142341Y-84714327D01*
X187133732Y-84730093D01*
X187119046Y-84752947D01*
X187111393Y-84779007D01*
X187105114Y-84795842D01*
X187093834Y-84820541D01*
X187089968Y-84847429D01*
X187086149Y-84864985D01*
X187078500Y-84891039D01*
X187078500Y-87065500D01*
X187058498Y-87133621D01*
X187004842Y-87180114D01*
X186952500Y-87191500D01*
X184836371Y-87191500D01*
X184768250Y-87171498D01*
X184747276Y-87154595D01*
X184664562Y-87071881D01*
X184630536Y-87009569D01*
X184628195Y-86994420D01*
X184609294Y-86790441D01*
X184553074Y-86592848D01*
X184461503Y-86408950D01*
X184337701Y-86245009D01*
X184185882Y-86106608D01*
X184108345Y-86058599D01*
X184011219Y-85998460D01*
X183819655Y-85924249D01*
X183772264Y-85915390D01*
X183617718Y-85886500D01*
X183412282Y-85886500D01*
X183277657Y-85911666D01*
X183210344Y-85924249D01*
X183018780Y-85998460D01*
X182844119Y-86106607D01*
X182692298Y-86245010D01*
X182568497Y-86408949D01*
X182476925Y-86592848D01*
X182420705Y-86790442D01*
X182401750Y-86994999D01*
X182420705Y-87199557D01*
X182476925Y-87397151D01*
X182480858Y-87405049D01*
X182568497Y-87581050D01*
X182692299Y-87744991D01*
X182844118Y-87883392D01*
X183018782Y-87991540D01*
X183210345Y-88065751D01*
X183412282Y-88103500D01*
X183498629Y-88103500D01*
X183566750Y-88123502D01*
X183587724Y-88140405D01*
X183888092Y-88440773D01*
X183900060Y-88454620D01*
X183906732Y-88463582D01*
X183914531Y-88474058D01*
X183952870Y-88506228D01*
X183960974Y-88513655D01*
X183964900Y-88517581D01*
X183967780Y-88519858D01*
X183989455Y-88536997D01*
X183992296Y-88539311D01*
X184051377Y-88588885D01*
X184067890Y-88599405D01*
X184137786Y-88631998D01*
X184141078Y-88633591D01*
X184208812Y-88667609D01*
X184208814Y-88667609D01*
X184210008Y-88668209D01*
X184228490Y-88674633D01*
X184229791Y-88674901D01*
X184229794Y-88674903D01*
X184304078Y-88690241D01*
X184307630Y-88691029D01*
X184381344Y-88708500D01*
X184381346Y-88708500D01*
X184382641Y-88708807D01*
X184402114Y-88710797D01*
X184403439Y-88710758D01*
X184403442Y-88710759D01*
X184477477Y-88708604D01*
X184479259Y-88708553D01*
X184482923Y-88708500D01*
X187453000Y-88708500D01*
X187521121Y-88728502D01*
X187567614Y-88782158D01*
X187579000Y-88834500D01*
X187579000Y-105175047D01*
X187558998Y-105243168D01*
X187505342Y-105289661D01*
X187488490Y-105295945D01*
X187480982Y-105298149D01*
X187463429Y-105301968D01*
X187436541Y-105305834D01*
X187411842Y-105317114D01*
X187395007Y-105323393D01*
X187368947Y-105331046D01*
X187346093Y-105345732D01*
X187330327Y-105354341D01*
X187305625Y-105365623D01*
X187285103Y-105383405D01*
X187270717Y-105394174D01*
X187247871Y-105408856D01*
X187230083Y-105429383D01*
X187217383Y-105442083D01*
X187196856Y-105459871D01*
X187182174Y-105482717D01*
X187171405Y-105497103D01*
X187153623Y-105517625D01*
X187142341Y-105542327D01*
X187133732Y-105558093D01*
X187119046Y-105580947D01*
X187111393Y-105607007D01*
X187105114Y-105623842D01*
X187093834Y-105648541D01*
X187089968Y-105675429D01*
X187086149Y-105692985D01*
X187078500Y-105719039D01*
X187078500Y-116975500D01*
X187058498Y-117043621D01*
X187004842Y-117090114D01*
X186952500Y-117101500D01*
X180316642Y-117101500D01*
X180248521Y-117081498D01*
X180202028Y-117027842D01*
X180190642Y-116975500D01*
X180190642Y-114367766D01*
X182295787Y-114367766D01*
X182325413Y-114637015D01*
X182325414Y-114637018D01*
X182393928Y-114899088D01*
X182499870Y-115148390D01*
X182640982Y-115379610D01*
X182814255Y-115587820D01*
X182814256Y-115587821D01*
X182814258Y-115587823D01*
X183015993Y-115768578D01*
X183015995Y-115768579D01*
X183015998Y-115768582D01*
X183241910Y-115918044D01*
X183374104Y-115980014D01*
X183487171Y-116033018D01*
X183487173Y-116033018D01*
X183487176Y-116033020D01*
X183746569Y-116111060D01*
X183746572Y-116111060D01*
X183746574Y-116111061D01*
X184014558Y-116150500D01*
X184014561Y-116150500D01*
X184215330Y-116150500D01*
X184217631Y-116150500D01*
X184420156Y-116135677D01*
X184684553Y-116076780D01*
X184937558Y-115980014D01*
X185173777Y-115847441D01*
X185388177Y-115681888D01*
X185576186Y-115486881D01*
X185733799Y-115266579D01*
X185857656Y-115025675D01*
X185945118Y-114769305D01*
X185994319Y-114502933D01*
X186004212Y-114232235D01*
X185974586Y-113962982D01*
X185906072Y-113700912D01*
X185800130Y-113451610D01*
X185659018Y-113220390D01*
X185485745Y-113012180D01*
X185466540Y-112994972D01*
X185284006Y-112831421D01*
X185284003Y-112831419D01*
X185284002Y-112831418D01*
X185058090Y-112681956D01*
X185039781Y-112673373D01*
X184812828Y-112566981D01*
X184553425Y-112488938D01*
X184285442Y-112449500D01*
X184285439Y-112449500D01*
X184082369Y-112449500D01*
X184080099Y-112449666D01*
X184080075Y-112449667D01*
X183879839Y-112464323D01*
X183615449Y-112523219D01*
X183362441Y-112619985D01*
X183126225Y-112752557D01*
X182911820Y-112918114D01*
X182723815Y-113113117D01*
X182566200Y-113333422D01*
X182442342Y-113574328D01*
X182354882Y-113830693D01*
X182305681Y-114097065D01*
X182295787Y-114367766D01*
X180190642Y-114367766D01*
X180190642Y-108722214D01*
X154009359Y-108722214D01*
X154009359Y-116975500D01*
X153989357Y-117043621D01*
X153935701Y-117090114D01*
X153883359Y-117101500D01*
X112894500Y-117101500D01*
X112826379Y-117081498D01*
X112779886Y-117027842D01*
X112768500Y-116975500D01*
X112768500Y-114367766D01*
X113715787Y-114367766D01*
X113745413Y-114637015D01*
X113745414Y-114637018D01*
X113813928Y-114899088D01*
X113919870Y-115148390D01*
X114060982Y-115379610D01*
X114234255Y-115587820D01*
X114234256Y-115587821D01*
X114234258Y-115587823D01*
X114435993Y-115768578D01*
X114435995Y-115768579D01*
X114435998Y-115768582D01*
X114661910Y-115918044D01*
X114794104Y-115980014D01*
X114907171Y-116033018D01*
X114907173Y-116033018D01*
X114907176Y-116033020D01*
X115166569Y-116111060D01*
X115166572Y-116111060D01*
X115166574Y-116111061D01*
X115434558Y-116150500D01*
X115434561Y-116150500D01*
X115635330Y-116150500D01*
X115637631Y-116150500D01*
X115840156Y-116135677D01*
X116104553Y-116076780D01*
X116357558Y-115980014D01*
X116593777Y-115847441D01*
X116808177Y-115681888D01*
X116996186Y-115486881D01*
X117153799Y-115266579D01*
X117277656Y-115025675D01*
X117365118Y-114769305D01*
X117414319Y-114502933D01*
X117424212Y-114232235D01*
X117394586Y-113962982D01*
X117326072Y-113700912D01*
X117220130Y-113451610D01*
X117079018Y-113220390D01*
X116990807Y-113114393D01*
X145584102Y-113114393D01*
X145584641Y-113122221D01*
X145584770Y-113152955D01*
X145584281Y-113161098D01*
X145584959Y-113197789D01*
X145585113Y-113234433D01*
X145585785Y-113242547D01*
X145586289Y-113269768D01*
X145585853Y-113279673D01*
X145587113Y-113314377D01*
X145587754Y-113349054D01*
X145588729Y-113358900D01*
X145589461Y-113379044D01*
X145589159Y-113393113D01*
X145590949Y-113421290D01*
X145591119Y-113424697D01*
X145592144Y-113452923D01*
X145593848Y-113466899D01*
X145594757Y-113481201D01*
X145594973Y-113492296D01*
X145594762Y-113500834D01*
X145596902Y-113518864D01*
X145596975Y-113547241D01*
X145598128Y-113553854D01*
X145600000Y-113575491D01*
X145600000Y-116300000D01*
X153300000Y-116300000D01*
X153300000Y-109200000D01*
X145600000Y-109200000D01*
X145600000Y-112638413D01*
X145599507Y-112644043D01*
X145599649Y-112644048D01*
X145598716Y-112673373D01*
X145598346Y-112679813D01*
X145596838Y-112697938D01*
X145595026Y-112711173D01*
X145594506Y-112713888D01*
X145593346Y-112738884D01*
X145593048Y-112743488D01*
X145590976Y-112768386D01*
X145591141Y-112771137D01*
X145591231Y-112784496D01*
X145590470Y-112800898D01*
X145589238Y-112812359D01*
X145588450Y-112843820D01*
X145588355Y-112846497D01*
X145586893Y-112878028D01*
X145587304Y-112889554D01*
X145586702Y-112913561D01*
X145585925Y-112922323D01*
X145585584Y-112958214D01*
X145584683Y-112994201D01*
X145585159Y-113003001D01*
X145584879Y-113032527D01*
X145584297Y-113040375D01*
X145584453Y-113077425D01*
X145584102Y-113114393D01*
X116990807Y-113114393D01*
X116905745Y-113012180D01*
X116886540Y-112994972D01*
X116704006Y-112831421D01*
X116704003Y-112831419D01*
X116704002Y-112831418D01*
X116478090Y-112681956D01*
X116459781Y-112673373D01*
X116232828Y-112566981D01*
X115973425Y-112488938D01*
X115705442Y-112449500D01*
X115705439Y-112449500D01*
X115502369Y-112449500D01*
X115500099Y-112449666D01*
X115500075Y-112449667D01*
X115299839Y-112464323D01*
X115035449Y-112523219D01*
X114782441Y-112619985D01*
X114546225Y-112752557D01*
X114331820Y-112918114D01*
X114143815Y-113113117D01*
X113986200Y-113333422D01*
X113862342Y-113574328D01*
X113774882Y-113830693D01*
X113725681Y-114097065D01*
X113715787Y-114367766D01*
X112768500Y-114367766D01*
X112768500Y-91440000D01*
X116996750Y-91440000D01*
X117015705Y-91644557D01*
X117071925Y-91842151D01*
X117163497Y-92026049D01*
X117163497Y-92026050D01*
X117287299Y-92189991D01*
X117439118Y-92328392D01*
X117527671Y-92383222D01*
X117582624Y-92417248D01*
X117613782Y-92436540D01*
X117805345Y-92510751D01*
X118007282Y-92548500D01*
X118093629Y-92548500D01*
X118161750Y-92568502D01*
X118182724Y-92585405D01*
X119433092Y-93835773D01*
X119445060Y-93849620D01*
X119459531Y-93869058D01*
X119497870Y-93901228D01*
X119505974Y-93908655D01*
X119509900Y-93912581D01*
X119512780Y-93914858D01*
X119534455Y-93931997D01*
X119537296Y-93934311D01*
X119596377Y-93983885D01*
X119612890Y-93994405D01*
X119682786Y-94026998D01*
X119686078Y-94028591D01*
X119753812Y-94062609D01*
X119753814Y-94062609D01*
X119755008Y-94063209D01*
X119773490Y-94069633D01*
X119774791Y-94069901D01*
X119774794Y-94069903D01*
X119849078Y-94085241D01*
X119852630Y-94086029D01*
X119926344Y-94103500D01*
X119926346Y-94103500D01*
X119927641Y-94103807D01*
X119947114Y-94105797D01*
X119948439Y-94105758D01*
X119948442Y-94105759D01*
X120022477Y-94103604D01*
X120024259Y-94103553D01*
X120027923Y-94103500D01*
X127418780Y-94103500D01*
X127486901Y-94123502D01*
X127526020Y-94163352D01*
X127590970Y-94268652D01*
X127590972Y-94268655D01*
X127716344Y-94394027D01*
X127716346Y-94394028D01*
X127716348Y-94394030D01*
X127867262Y-94487115D01*
X128035574Y-94542887D01*
X128111637Y-94550658D01*
X128136253Y-94553173D01*
X128136255Y-94553173D01*
X128139455Y-94553500D01*
X128940544Y-94553499D01*
X129044426Y-94542887D01*
X129212738Y-94487115D01*
X129363652Y-94394030D01*
X129450906Y-94306775D01*
X129513216Y-94272752D01*
X129584032Y-94277816D01*
X129629093Y-94306775D01*
X129716348Y-94394030D01*
X129867262Y-94487115D01*
X130035574Y-94542887D01*
X130111637Y-94550658D01*
X130136253Y-94553173D01*
X130136255Y-94553173D01*
X130139455Y-94553500D01*
X130940544Y-94553499D01*
X131044426Y-94542887D01*
X131212738Y-94487115D01*
X131363652Y-94394030D01*
X131489030Y-94268652D01*
X131553979Y-94163352D01*
X131606765Y-94115875D01*
X131661220Y-94103500D01*
X140270559Y-94103500D01*
X140288820Y-94104830D01*
X140312789Y-94108341D01*
X140359253Y-94104275D01*
X140362647Y-94103979D01*
X140373628Y-94103500D01*
X140375513Y-94103500D01*
X140379180Y-94103500D01*
X140410301Y-94099861D01*
X140413896Y-94099494D01*
X140489426Y-94092887D01*
X140489430Y-94092885D01*
X140490751Y-94092770D01*
X140509856Y-94088535D01*
X140511106Y-94088079D01*
X140511113Y-94088079D01*
X140582400Y-94062132D01*
X140585769Y-94060961D01*
X140657738Y-94037114D01*
X140657739Y-94037112D01*
X140659007Y-94036693D01*
X140676613Y-94028169D01*
X140677725Y-94027437D01*
X140677732Y-94027435D01*
X140741138Y-93985730D01*
X140744161Y-93983806D01*
X140745416Y-93983032D01*
X140808651Y-93944030D01*
X140808652Y-93944028D01*
X140809788Y-93943328D01*
X140824959Y-93930970D01*
X140825871Y-93930002D01*
X140825874Y-93930001D01*
X140877929Y-93874824D01*
X140880448Y-93872231D01*
X144715777Y-90036902D01*
X144729624Y-90024936D01*
X144749058Y-90010469D01*
X144781221Y-89972138D01*
X144788660Y-89964020D01*
X144792581Y-89960100D01*
X144812012Y-89935523D01*
X144814286Y-89932731D01*
X144863032Y-89874640D01*
X144863033Y-89874636D01*
X144863890Y-89873616D01*
X144874402Y-89857117D01*
X144895497Y-89811877D01*
X144907036Y-89787131D01*
X144908544Y-89784015D01*
X144942609Y-89716188D01*
X144942610Y-89716179D01*
X144943212Y-89714983D01*
X144949634Y-89696509D01*
X144965238Y-89620935D01*
X144966022Y-89617397D01*
X144983500Y-89543656D01*
X144983500Y-89543651D01*
X144983807Y-89542356D01*
X144985797Y-89522883D01*
X144985758Y-89521560D01*
X144985759Y-89521558D01*
X144983553Y-89445740D01*
X144983500Y-89442076D01*
X144983500Y-82799500D01*
X145003502Y-82731379D01*
X145057158Y-82684886D01*
X145109500Y-82673500D01*
X176302820Y-82673500D01*
X176370941Y-82693502D01*
X176387705Y-82706385D01*
X176494115Y-82803390D01*
X176494117Y-82803391D01*
X176494118Y-82803392D01*
X176668782Y-82911540D01*
X176860345Y-82985751D01*
X177062282Y-83023500D01*
X177062284Y-83023500D01*
X177267716Y-83023500D01*
X177267718Y-83023500D01*
X177469655Y-82985751D01*
X177661218Y-82911540D01*
X177835882Y-82803392D01*
X177987701Y-82664991D01*
X177987704Y-82664986D01*
X177989628Y-82663233D01*
X178031418Y-82637948D01*
X178047364Y-82632144D01*
X178050759Y-82630964D01*
X178122738Y-82607114D01*
X178122739Y-82607112D01*
X178124007Y-82606693D01*
X178141613Y-82598169D01*
X178142725Y-82597437D01*
X178142732Y-82597435D01*
X178206138Y-82555730D01*
X178209161Y-82553806D01*
X178273651Y-82514030D01*
X178273652Y-82514028D01*
X178274788Y-82513328D01*
X178289959Y-82500970D01*
X178290871Y-82500002D01*
X178290874Y-82500001D01*
X178342929Y-82444824D01*
X178345448Y-82442231D01*
X179560777Y-81226902D01*
X179574624Y-81214936D01*
X179594058Y-81200469D01*
X179626221Y-81162138D01*
X179633660Y-81154020D01*
X179637580Y-81150101D01*
X179657070Y-81125450D01*
X179659234Y-81122794D01*
X179708032Y-81064640D01*
X179708035Y-81064632D01*
X179708892Y-81063612D01*
X179719402Y-81047117D01*
X179728966Y-81026608D01*
X179751992Y-80977226D01*
X179753587Y-80973932D01*
X179766888Y-80947446D01*
X179787609Y-80906188D01*
X179787609Y-80906185D01*
X179788207Y-80904996D01*
X179794632Y-80886513D01*
X179802262Y-80849559D01*
X179810232Y-80810957D01*
X179811021Y-80807399D01*
X179811234Y-80806500D01*
X179828500Y-80733656D01*
X179828500Y-80733654D01*
X179828807Y-80732359D01*
X179830796Y-80712888D01*
X179830757Y-80711560D01*
X179830758Y-80711558D01*
X179828553Y-80635774D01*
X179828500Y-80632110D01*
X179828500Y-80074435D01*
X179829831Y-80056172D01*
X179829859Y-80055977D01*
X179833341Y-80032211D01*
X179828979Y-79982351D01*
X179828500Y-79971371D01*
X179828500Y-79969487D01*
X179828500Y-79965820D01*
X179824862Y-79934705D01*
X179824492Y-79931078D01*
X179817887Y-79855573D01*
X179817886Y-79855570D01*
X179817770Y-79854242D01*
X179813537Y-79835147D01*
X179813079Y-79833889D01*
X179813079Y-79833887D01*
X179787137Y-79762611D01*
X179785977Y-79759277D01*
X179762114Y-79687261D01*
X179762111Y-79687256D01*
X179761691Y-79685988D01*
X179753167Y-79668380D01*
X179710775Y-79603925D01*
X179708807Y-79600836D01*
X179668328Y-79535211D01*
X179655964Y-79520034D01*
X179599825Y-79467069D01*
X179597197Y-79464516D01*
X178381909Y-78249228D01*
X178369937Y-78235375D01*
X178355470Y-78215943D01*
X178317127Y-78183769D01*
X178309024Y-78176343D01*
X178307694Y-78175013D01*
X178305101Y-78172420D01*
X178302235Y-78170153D01*
X178302224Y-78170144D01*
X178280530Y-78152991D01*
X178277708Y-78150692D01*
X178219640Y-78101968D01*
X178219639Y-78101967D01*
X178218621Y-78101113D01*
X178202110Y-78090594D01*
X178132205Y-78057996D01*
X178128909Y-78056401D01*
X178059996Y-78021792D01*
X178041504Y-78015365D01*
X177965942Y-77999762D01*
X177962367Y-77998969D01*
X177887356Y-77981191D01*
X177867885Y-77979202D01*
X177790741Y-77981447D01*
X177787077Y-77981500D01*
X147178371Y-77981500D01*
X147110250Y-77961498D01*
X147089276Y-77944595D01*
X144853909Y-75709228D01*
X144841937Y-75695375D01*
X144827470Y-75675943D01*
X144789127Y-75643769D01*
X144781024Y-75636343D01*
X144779694Y-75635013D01*
X144777101Y-75632420D01*
X144774235Y-75630153D01*
X144774224Y-75630144D01*
X144752530Y-75612991D01*
X144749708Y-75610692D01*
X144691640Y-75561968D01*
X144691639Y-75561967D01*
X144690621Y-75561113D01*
X144674110Y-75550594D01*
X144604205Y-75517996D01*
X144600909Y-75516401D01*
X144531996Y-75481792D01*
X144513504Y-75475365D01*
X144437942Y-75459762D01*
X144434367Y-75458969D01*
X144359356Y-75441191D01*
X144339885Y-75439202D01*
X144262741Y-75441447D01*
X144259077Y-75441500D01*
X141336371Y-75441500D01*
X141268250Y-75421498D01*
X141247276Y-75404595D01*
X134566909Y-68724228D01*
X134554937Y-68710375D01*
X134540470Y-68690943D01*
X134502127Y-68658769D01*
X134494024Y-68651343D01*
X134492694Y-68650013D01*
X134490101Y-68647420D01*
X134487235Y-68645153D01*
X134487224Y-68645144D01*
X134465530Y-68627991D01*
X134462708Y-68625692D01*
X134404640Y-68576968D01*
X134404639Y-68576967D01*
X134403621Y-68576113D01*
X134387110Y-68565594D01*
X134317205Y-68532996D01*
X134313909Y-68531401D01*
X134308622Y-68528746D01*
X134296954Y-68522886D01*
X134244996Y-68496792D01*
X134226504Y-68490365D01*
X134150942Y-68474762D01*
X134147367Y-68473969D01*
X134072356Y-68456191D01*
X134052885Y-68454202D01*
X133975741Y-68456447D01*
X133972077Y-68456500D01*
X131661220Y-68456500D01*
X131593099Y-68436498D01*
X131553979Y-68396647D01*
X131540000Y-68373983D01*
X131489030Y-68291348D01*
X131489028Y-68291346D01*
X131489027Y-68291344D01*
X131363655Y-68165972D01*
X131363652Y-68165970D01*
X131212738Y-68072885D01*
X131044426Y-68017113D01*
X131044423Y-68017112D01*
X131044421Y-68017112D01*
X130943746Y-68006826D01*
X130943725Y-68006824D01*
X130940545Y-68006500D01*
X130937339Y-68006500D01*
X130142661Y-68006500D01*
X130142641Y-68006500D01*
X130139456Y-68006501D01*
X130136279Y-68006825D01*
X130136270Y-68006826D01*
X130035573Y-68017113D01*
X129867262Y-68072885D01*
X129716346Y-68165971D01*
X129629094Y-68253223D01*
X129566782Y-68287248D01*
X129495966Y-68282182D01*
X129450905Y-68253223D01*
X129363652Y-68165970D01*
X129212738Y-68072885D01*
X129044426Y-68017113D01*
X129044423Y-68017112D01*
X129044421Y-68017112D01*
X128943746Y-68006826D01*
X128943725Y-68006824D01*
X128940545Y-68006500D01*
X128937339Y-68006500D01*
X128142661Y-68006500D01*
X128142641Y-68006500D01*
X128139456Y-68006501D01*
X128136279Y-68006825D01*
X128136270Y-68006826D01*
X128035573Y-68017113D01*
X127867262Y-68072885D01*
X127716344Y-68165972D01*
X127590972Y-68291344D01*
X127526021Y-68396647D01*
X127473235Y-68444125D01*
X127418780Y-68456500D01*
X119444441Y-68456500D01*
X119426180Y-68455170D01*
X119402211Y-68451659D01*
X119352353Y-68456021D01*
X119341372Y-68456500D01*
X119335820Y-68456500D01*
X119332185Y-68456924D01*
X119332165Y-68456926D01*
X119304709Y-68460135D01*
X119301068Y-68460507D01*
X119224251Y-68467228D01*
X119205139Y-68471465D01*
X119132653Y-68497846D01*
X119129198Y-68499047D01*
X119055995Y-68523305D01*
X119038372Y-68531837D01*
X118973932Y-68574220D01*
X118970843Y-68576188D01*
X118905221Y-68616665D01*
X118890036Y-68629034D01*
X118837104Y-68685138D01*
X118834552Y-68687765D01*
X118182724Y-69339595D01*
X118120411Y-69373620D01*
X118093628Y-69376500D01*
X118007282Y-69376500D01*
X117872657Y-69401666D01*
X117805344Y-69414249D01*
X117613780Y-69488460D01*
X117439119Y-69596607D01*
X117287298Y-69735010D01*
X117163497Y-69898949D01*
X117071925Y-70082848D01*
X117015705Y-70280442D01*
X116996750Y-70484999D01*
X117015705Y-70689557D01*
X117071925Y-70887151D01*
X117163497Y-71071049D01*
X117163497Y-71071050D01*
X117287299Y-71234991D01*
X117439118Y-71373392D01*
X117613782Y-71481540D01*
X117805345Y-71555751D01*
X118007282Y-71593500D01*
X118007284Y-71593500D01*
X118212716Y-71593500D01*
X118212718Y-71593500D01*
X118414655Y-71555751D01*
X118606218Y-71481540D01*
X118780882Y-71373392D01*
X118932701Y-71234991D01*
X119056503Y-71071050D01*
X119148074Y-70887152D01*
X119204294Y-70689559D01*
X119223194Y-70485585D01*
X119249397Y-70419603D01*
X119259553Y-70408126D01*
X119657276Y-70010404D01*
X119719589Y-69976379D01*
X119746372Y-69973500D01*
X127418780Y-69973500D01*
X127486901Y-69993502D01*
X127526020Y-70033352D01*
X127556550Y-70082848D01*
X127590972Y-70138655D01*
X127716344Y-70264027D01*
X127716346Y-70264028D01*
X127716348Y-70264030D01*
X127867262Y-70357115D01*
X128035574Y-70412887D01*
X128101311Y-70419603D01*
X128136253Y-70423173D01*
X128136255Y-70423173D01*
X128139455Y-70423500D01*
X128940544Y-70423499D01*
X129044426Y-70412887D01*
X129212738Y-70357115D01*
X129363652Y-70264030D01*
X129450906Y-70176775D01*
X129513216Y-70142752D01*
X129584032Y-70147816D01*
X129629093Y-70176775D01*
X129716348Y-70264030D01*
X129867262Y-70357115D01*
X130035574Y-70412887D01*
X130101311Y-70419603D01*
X130136253Y-70423173D01*
X130136255Y-70423173D01*
X130139455Y-70423500D01*
X130940544Y-70423499D01*
X131044426Y-70412887D01*
X131212738Y-70357115D01*
X131363652Y-70264030D01*
X131489030Y-70138652D01*
X131553979Y-70033352D01*
X131606765Y-69985875D01*
X131661220Y-69973500D01*
X133618629Y-69973500D01*
X133686750Y-69993502D01*
X133707724Y-70010405D01*
X140388092Y-76690773D01*
X140400060Y-76704620D01*
X140414531Y-76724058D01*
X140452870Y-76756228D01*
X140460974Y-76763655D01*
X140464900Y-76767581D01*
X140467780Y-76769858D01*
X140489455Y-76786997D01*
X140492296Y-76789311D01*
X140518689Y-76811457D01*
X140546745Y-76834999D01*
X140551377Y-76838885D01*
X140567890Y-76849405D01*
X140569094Y-76849966D01*
X140569095Y-76849967D01*
X140613591Y-76870716D01*
X140637786Y-76881998D01*
X140641078Y-76883591D01*
X140708812Y-76917609D01*
X140708814Y-76917609D01*
X140710008Y-76918209D01*
X140728490Y-76924633D01*
X140729791Y-76924901D01*
X140729794Y-76924903D01*
X140804078Y-76940241D01*
X140807630Y-76941029D01*
X140881344Y-76958500D01*
X140881346Y-76958500D01*
X140882641Y-76958807D01*
X140902114Y-76960797D01*
X140903439Y-76960758D01*
X140903442Y-76960759D01*
X140977477Y-76958604D01*
X140979259Y-76958553D01*
X140982923Y-76958500D01*
X143905629Y-76958500D01*
X143973750Y-76978502D01*
X143994724Y-76995405D01*
X146230092Y-79230773D01*
X146242060Y-79244620D01*
X146247182Y-79251500D01*
X146256531Y-79264058D01*
X146294870Y-79296228D01*
X146302974Y-79303655D01*
X146306899Y-79307580D01*
X146327343Y-79323745D01*
X146331453Y-79326995D01*
X146334292Y-79329308D01*
X146379022Y-79366840D01*
X146389938Y-79376000D01*
X146393378Y-79378886D01*
X146409887Y-79389403D01*
X146411090Y-79389964D01*
X146411094Y-79389967D01*
X146479867Y-79422035D01*
X146483036Y-79423570D01*
X146540584Y-79452472D01*
X146552001Y-79458206D01*
X146570493Y-79464633D01*
X146571790Y-79464900D01*
X146571793Y-79464902D01*
X146646066Y-79480237D01*
X146649530Y-79481004D01*
X146723344Y-79498500D01*
X146723347Y-79498500D01*
X146724642Y-79498807D01*
X146744111Y-79500796D01*
X146745438Y-79500757D01*
X146745442Y-79500758D01*
X146819697Y-79498597D01*
X146821224Y-79498553D01*
X146824888Y-79498500D01*
X177433629Y-79498500D01*
X177501750Y-79518502D01*
X177522724Y-79535405D01*
X178225723Y-80238404D01*
X178259749Y-80300716D01*
X178254684Y-80371531D01*
X178225723Y-80416594D01*
X177764421Y-80877896D01*
X177702109Y-80911922D01*
X177631294Y-80906857D01*
X177629861Y-80906312D01*
X177469655Y-80844249D01*
X177267718Y-80806500D01*
X177062282Y-80806500D01*
X176945380Y-80828353D01*
X176860344Y-80844249D01*
X176668780Y-80918460D01*
X176494115Y-81026609D01*
X176387705Y-81123615D01*
X176323888Y-81154726D01*
X176302820Y-81156500D01*
X144952166Y-81156500D01*
X144884045Y-81136498D01*
X144837552Y-81082842D01*
X144827448Y-81012568D01*
X144844925Y-80964353D01*
X144941659Y-80807522D01*
X144997393Y-80639327D01*
X145007674Y-80538692D01*
X145008000Y-80532302D01*
X145008000Y-80264000D01*
X143784500Y-80264000D01*
X143716379Y-80243998D01*
X143669886Y-80190342D01*
X143658500Y-80138000D01*
X143658500Y-78777000D01*
X144166500Y-78777000D01*
X144166500Y-79756000D01*
X145008000Y-79756000D01*
X145008000Y-79487697D01*
X145007674Y-79481307D01*
X144997393Y-79380672D01*
X144941659Y-79212477D01*
X144848632Y-79061657D01*
X144723342Y-78936367D01*
X144572522Y-78843340D01*
X144404327Y-78787606D01*
X144303692Y-78777325D01*
X144297303Y-78777000D01*
X144166500Y-78777000D01*
X143658500Y-78777000D01*
X143527697Y-78777000D01*
X143521307Y-78777325D01*
X143420672Y-78787606D01*
X143252477Y-78843340D01*
X143101657Y-78936367D01*
X142965951Y-79072074D01*
X142963055Y-79069178D01*
X142929741Y-79099140D01*
X142859665Y-79110538D01*
X142794552Y-79082241D01*
X142784994Y-79071210D01*
X142784444Y-79071761D01*
X142648655Y-78935972D01*
X142632094Y-78925757D01*
X142497738Y-78842885D01*
X142329426Y-78787113D01*
X142329423Y-78787112D01*
X142329421Y-78787112D01*
X142228746Y-78776826D01*
X142228725Y-78776824D01*
X142225545Y-78776500D01*
X142222339Y-78776500D01*
X141452661Y-78776500D01*
X141452641Y-78776500D01*
X141449456Y-78776501D01*
X141446279Y-78776825D01*
X141446270Y-78776826D01*
X141345573Y-78787113D01*
X141177262Y-78842885D01*
X141026344Y-78935972D01*
X140900972Y-79061344D01*
X140873677Y-79105597D01*
X140845910Y-79150615D01*
X140820601Y-79191647D01*
X140767815Y-79239125D01*
X140713360Y-79251500D01*
X139129442Y-79251500D01*
X139111182Y-79250170D01*
X139087212Y-79246659D01*
X139087211Y-79246659D01*
X139061075Y-79248945D01*
X139037353Y-79251021D01*
X139026372Y-79251500D01*
X139020820Y-79251500D01*
X139017182Y-79251925D01*
X139017167Y-79251926D01*
X138989711Y-79255135D01*
X138986070Y-79255507D01*
X138909260Y-79262227D01*
X138890123Y-79266470D01*
X138817634Y-79292853D01*
X138814176Y-79294055D01*
X138741000Y-79318303D01*
X138723372Y-79326838D01*
X138658918Y-79369229D01*
X138655831Y-79371196D01*
X138590218Y-79411667D01*
X138575032Y-79424038D01*
X138522103Y-79480139D01*
X138519553Y-79482764D01*
X138502725Y-79499593D01*
X138440414Y-79533620D01*
X138413627Y-79536500D01*
X138327282Y-79536500D01*
X138192657Y-79561666D01*
X138125344Y-79574249D01*
X137933780Y-79648460D01*
X137759119Y-79756607D01*
X137607298Y-79895010D01*
X137483497Y-80058949D01*
X137391925Y-80242848D01*
X137335705Y-80440442D01*
X137316750Y-80645000D01*
X137335705Y-80849557D01*
X137391925Y-81047151D01*
X137455105Y-81174032D01*
X137483497Y-81231050D01*
X137607299Y-81394991D01*
X137759118Y-81533392D01*
X137933782Y-81641540D01*
X138125345Y-81715751D01*
X138327282Y-81753500D01*
X138327284Y-81753500D01*
X138532716Y-81753500D01*
X138532718Y-81753500D01*
X138734655Y-81715751D01*
X138926218Y-81641540D01*
X139100882Y-81533392D01*
X139252701Y-81394991D01*
X139376503Y-81231050D01*
X139468074Y-81047152D01*
X139514152Y-80885206D01*
X139521318Y-80860019D01*
X139559198Y-80799972D01*
X139623529Y-80769938D01*
X139642508Y-80768500D01*
X140713360Y-80768500D01*
X140781481Y-80788502D01*
X140820599Y-80828351D01*
X140872147Y-80911922D01*
X140900972Y-80958655D01*
X140983222Y-81040905D01*
X141017248Y-81103217D01*
X141012183Y-81174032D01*
X140983222Y-81219095D01*
X140925972Y-81276344D01*
X140925970Y-81276348D01*
X140832885Y-81427262D01*
X140777113Y-81595574D01*
X140777112Y-81595578D01*
X140766826Y-81696253D01*
X140766824Y-81696275D01*
X140766500Y-81699455D01*
X140766500Y-81702659D01*
X140766500Y-81702660D01*
X140766500Y-82697338D01*
X140766500Y-82697357D01*
X140766501Y-82700544D01*
X140766825Y-82703721D01*
X140766826Y-82703729D01*
X140767255Y-82707926D01*
X140777113Y-82804426D01*
X140832885Y-82972738D01*
X140922312Y-83117722D01*
X140925972Y-83123655D01*
X141051344Y-83249027D01*
X141051346Y-83249028D01*
X141051348Y-83249030D01*
X141202262Y-83342115D01*
X141370574Y-83397887D01*
X141446637Y-83405658D01*
X141471253Y-83408173D01*
X141471255Y-83408173D01*
X141474455Y-83408500D01*
X142275544Y-83408499D01*
X142379426Y-83397887D01*
X142547738Y-83342115D01*
X142698652Y-83249030D01*
X142785906Y-83161775D01*
X142848216Y-83127752D01*
X142919032Y-83132816D01*
X142964093Y-83161775D01*
X143051348Y-83249030D01*
X143202262Y-83342115D01*
X143370574Y-83397887D01*
X143370578Y-83397887D01*
X143380132Y-83401053D01*
X143438504Y-83441467D01*
X143465760Y-83507023D01*
X143466500Y-83520658D01*
X143466500Y-89088629D01*
X143446498Y-89156750D01*
X143429595Y-89177724D01*
X140057724Y-92549595D01*
X139995412Y-92583621D01*
X139968629Y-92586500D01*
X131661220Y-92586500D01*
X131593099Y-92566498D01*
X131553979Y-92526647D01*
X131489030Y-92421348D01*
X131489028Y-92421346D01*
X131489027Y-92421344D01*
X131363655Y-92295972D01*
X131363652Y-92295970D01*
X131212738Y-92202885D01*
X131044426Y-92147113D01*
X131044423Y-92147112D01*
X131044421Y-92147112D01*
X130943746Y-92136826D01*
X130943725Y-92136824D01*
X130940545Y-92136500D01*
X130937339Y-92136500D01*
X130142661Y-92136500D01*
X130142641Y-92136500D01*
X130139456Y-92136501D01*
X130136279Y-92136825D01*
X130136270Y-92136826D01*
X130035573Y-92147113D01*
X129867262Y-92202885D01*
X129716344Y-92295972D01*
X129629095Y-92383222D01*
X129566783Y-92417248D01*
X129495968Y-92412183D01*
X129450905Y-92383222D01*
X129363655Y-92295972D01*
X129363652Y-92295970D01*
X129212738Y-92202885D01*
X129044426Y-92147113D01*
X129044423Y-92147112D01*
X129044421Y-92147112D01*
X128943746Y-92136826D01*
X128943725Y-92136824D01*
X128940545Y-92136500D01*
X128937339Y-92136500D01*
X128142661Y-92136500D01*
X128142641Y-92136500D01*
X128139456Y-92136501D01*
X128136279Y-92136825D01*
X128136270Y-92136826D01*
X128035573Y-92147113D01*
X127867262Y-92202885D01*
X127716344Y-92295972D01*
X127590972Y-92421344D01*
X127590970Y-92421348D01*
X127535826Y-92510751D01*
X127526021Y-92526647D01*
X127473235Y-92574125D01*
X127418780Y-92586500D01*
X120381371Y-92586500D01*
X120313250Y-92566498D01*
X120292276Y-92549595D01*
X119259562Y-91516881D01*
X119225536Y-91454569D01*
X119223195Y-91439420D01*
X119204294Y-91235441D01*
X119148074Y-91037848D01*
X119056503Y-90853950D01*
X118932701Y-90690009D01*
X118780882Y-90551608D01*
X118732332Y-90521547D01*
X118606219Y-90443460D01*
X118414655Y-90369249D01*
X118212718Y-90331500D01*
X118007282Y-90331500D01*
X117872657Y-90356665D01*
X117805344Y-90369249D01*
X117613780Y-90443460D01*
X117439119Y-90551607D01*
X117287298Y-90690010D01*
X117163497Y-90853949D01*
X117071925Y-91037848D01*
X117015705Y-91235442D01*
X116996750Y-91440000D01*
X112768500Y-91440000D01*
X112768500Y-88061799D01*
X114764502Y-88061799D01*
X114784457Y-88289887D01*
X114843715Y-88511043D01*
X114940477Y-88718550D01*
X115071804Y-88906103D01*
X115233696Y-89067995D01*
X115421249Y-89199322D01*
X115628756Y-89296084D01*
X115688015Y-89311962D01*
X115849913Y-89355343D01*
X116078000Y-89375298D01*
X116306087Y-89355343D01*
X116527243Y-89296084D01*
X116734749Y-89199323D01*
X116922300Y-89067998D01*
X116963300Y-89026998D01*
X117004905Y-88985394D01*
X117067217Y-88951368D01*
X117138032Y-88956433D01*
X117183095Y-88985394D01*
X117265696Y-89067995D01*
X117453249Y-89199322D01*
X117660756Y-89296084D01*
X117720015Y-89311962D01*
X117881913Y-89355343D01*
X118110000Y-89375298D01*
X118338087Y-89355343D01*
X118559243Y-89296084D01*
X118766749Y-89199323D01*
X118954300Y-89067998D01*
X119116198Y-88906100D01*
X119247523Y-88718549D01*
X119339896Y-88520452D01*
X119386812Y-88467168D01*
X119455089Y-88447707D01*
X119523049Y-88468248D01*
X119523339Y-88468439D01*
X119741910Y-88613044D01*
X119858308Y-88667609D01*
X119987171Y-88728018D01*
X119987173Y-88728018D01*
X119987176Y-88728020D01*
X120246569Y-88806060D01*
X120246572Y-88806060D01*
X120246574Y-88806061D01*
X120514558Y-88845500D01*
X120514561Y-88845500D01*
X120715330Y-88845500D01*
X120717631Y-88845500D01*
X120920156Y-88830677D01*
X121184553Y-88771780D01*
X121437558Y-88675014D01*
X121673777Y-88542441D01*
X121888177Y-88376888D01*
X122020211Y-88239939D01*
X122081890Y-88204782D01*
X122152786Y-88208553D01*
X122210390Y-88250054D01*
X122236412Y-88316110D01*
X122227327Y-88375611D01*
X122163972Y-88528562D01*
X122104886Y-88774675D01*
X122085028Y-89026999D01*
X122104886Y-89279324D01*
X122163972Y-89525437D01*
X122260830Y-89759272D01*
X122392176Y-89973611D01*
X122392178Y-89973611D01*
X122979155Y-89386634D01*
X123068577Y-89528948D01*
X123196052Y-89656423D01*
X123338364Y-89745843D01*
X122751387Y-90332820D01*
X122751387Y-90332822D01*
X122965727Y-90464169D01*
X123199562Y-90561027D01*
X123445675Y-90620113D01*
X123698000Y-90639971D01*
X123950324Y-90620113D01*
X124196437Y-90561027D01*
X124430277Y-90464167D01*
X124644611Y-90332822D01*
X124644611Y-90332820D01*
X124057634Y-89745843D01*
X124199948Y-89656423D01*
X124327423Y-89528948D01*
X124416843Y-89386634D01*
X125003820Y-89973611D01*
X125003822Y-89973611D01*
X125135167Y-89759277D01*
X125232027Y-89525437D01*
X125291113Y-89279324D01*
X125310971Y-89027000D01*
X125291113Y-88774675D01*
X125232027Y-88528562D01*
X125135169Y-88294727D01*
X125003822Y-88080387D01*
X125003820Y-88080387D01*
X124416843Y-88667364D01*
X124327423Y-88525052D01*
X124199948Y-88397577D01*
X124057634Y-88308155D01*
X124644611Y-87721178D01*
X124644611Y-87721176D01*
X124430272Y-87589830D01*
X124196437Y-87492972D01*
X123950324Y-87433886D01*
X123698000Y-87414028D01*
X123445675Y-87433886D01*
X123199562Y-87492972D01*
X122965725Y-87589831D01*
X122751387Y-87721176D01*
X122751387Y-87721178D01*
X123338365Y-88308156D01*
X123196052Y-88397577D01*
X123068577Y-88525052D01*
X122979156Y-88667365D01*
X122391677Y-88079886D01*
X122323622Y-88068359D01*
X122271145Y-88020539D01*
X122252851Y-87951940D01*
X122266753Y-87897481D01*
X122357656Y-87720675D01*
X122445118Y-87464305D01*
X122494319Y-87197933D01*
X122504212Y-86927235D01*
X122474586Y-86657982D01*
X122406072Y-86395912D01*
X122300130Y-86146610D01*
X122159018Y-85915390D01*
X121985745Y-85707180D01*
X121985741Y-85707176D01*
X121784006Y-85526421D01*
X121784003Y-85526419D01*
X121784002Y-85526418D01*
X121558090Y-85376956D01*
X121486492Y-85343392D01*
X121312828Y-85261981D01*
X121053425Y-85183938D01*
X120785442Y-85144500D01*
X120785439Y-85144500D01*
X120582369Y-85144500D01*
X120580099Y-85144666D01*
X120580075Y-85144667D01*
X120379839Y-85159323D01*
X120115449Y-85218219D01*
X119862441Y-85314985D01*
X119626225Y-85447557D01*
X119411820Y-85613114D01*
X119223815Y-85808117D01*
X119066200Y-86028422D01*
X118942342Y-86269328D01*
X118854882Y-86525693D01*
X118809686Y-86770382D01*
X118777644Y-86833737D01*
X118716436Y-86869710D01*
X118645495Y-86866882D01*
X118632532Y-86861691D01*
X118559243Y-86827515D01*
X118338087Y-86768257D01*
X118338086Y-86768257D01*
X118110000Y-86748302D01*
X118109999Y-86748302D01*
X117881912Y-86768257D01*
X117660756Y-86827515D01*
X117453249Y-86924277D01*
X117265696Y-87055604D01*
X117183095Y-87138206D01*
X117120783Y-87172232D01*
X117049968Y-87167167D01*
X117004905Y-87138206D01*
X116922303Y-87055604D01*
X116734750Y-86924277D01*
X116527243Y-86827515D01*
X116306087Y-86768257D01*
X116078000Y-86748302D01*
X116077999Y-86748302D01*
X115849912Y-86768257D01*
X115628756Y-86827515D01*
X115421249Y-86924277D01*
X115233696Y-87055604D01*
X115071804Y-87217496D01*
X114940477Y-87405049D01*
X114843715Y-87612556D01*
X114784457Y-87833712D01*
X114764502Y-88061799D01*
X112768500Y-88061799D01*
X112768500Y-84455000D01*
X125686502Y-84455000D01*
X125706457Y-84683087D01*
X125765715Y-84904243D01*
X125862477Y-85111750D01*
X125993804Y-85299303D01*
X126155696Y-85461195D01*
X126343249Y-85592522D01*
X126550756Y-85689284D01*
X126610014Y-85705162D01*
X126771913Y-85748543D01*
X127000000Y-85768498D01*
X127228087Y-85748543D01*
X127449243Y-85689284D01*
X127656749Y-85592523D01*
X127844300Y-85461198D01*
X128006198Y-85299300D01*
X128072134Y-85205133D01*
X128127588Y-85160807D01*
X128198208Y-85153498D01*
X128261568Y-85185528D01*
X128297554Y-85246729D01*
X128297052Y-85310016D01*
X128246951Y-85496998D01*
X128227004Y-85725000D01*
X128246951Y-85952999D01*
X128306186Y-86174070D01*
X128402912Y-86381497D01*
X128452899Y-86452887D01*
X129095155Y-85810632D01*
X129096327Y-85826265D01*
X129145887Y-85952541D01*
X129230465Y-86058599D01*
X129342547Y-86135016D01*
X129454623Y-86169586D01*
X128812110Y-86812098D01*
X128812110Y-86812100D01*
X128883497Y-86862085D01*
X129090929Y-86958813D01*
X129312000Y-87018048D01*
X129540000Y-87037995D01*
X129767999Y-87018048D01*
X129989070Y-86958813D01*
X130196498Y-86862087D01*
X130267888Y-86812099D01*
X130267888Y-86812097D01*
X129623316Y-86167525D01*
X129674138Y-86159865D01*
X129796357Y-86101007D01*
X129895798Y-86008740D01*
X129963625Y-85891260D01*
X129982550Y-85808341D01*
X130627097Y-86452888D01*
X130627099Y-86452888D01*
X130677087Y-86381498D01*
X130773813Y-86174070D01*
X130833048Y-85952999D01*
X130852995Y-85724999D01*
X130833048Y-85497000D01*
X130773813Y-85275929D01*
X130677085Y-85068497D01*
X130627100Y-84997110D01*
X130627098Y-84997110D01*
X129984844Y-85639364D01*
X129983673Y-85623735D01*
X129934113Y-85497459D01*
X129849535Y-85391401D01*
X129737453Y-85314984D01*
X129625376Y-85280413D01*
X130267888Y-84637899D01*
X130196497Y-84587912D01*
X130156950Y-84569471D01*
X130103665Y-84522554D01*
X130084204Y-84454276D01*
X130104746Y-84386316D01*
X130156951Y-84341081D01*
X130157784Y-84340692D01*
X130196749Y-84322523D01*
X130384300Y-84191198D01*
X130546198Y-84029300D01*
X130677523Y-83841749D01*
X130774284Y-83634243D01*
X130833543Y-83413087D01*
X130853498Y-83185000D01*
X130833543Y-82956913D01*
X130790162Y-82795015D01*
X130774284Y-82735756D01*
X130677522Y-82528249D01*
X130546195Y-82340696D01*
X130384303Y-82178804D01*
X130196748Y-82047476D01*
X130157543Y-82029195D01*
X130104257Y-81982278D01*
X130084796Y-81914001D01*
X130105337Y-81846041D01*
X130157543Y-81800805D01*
X130162163Y-81798650D01*
X130196749Y-81782523D01*
X130384300Y-81651198D01*
X130546198Y-81489300D01*
X130677523Y-81301749D01*
X130774284Y-81094243D01*
X130833543Y-80873087D01*
X130853498Y-80645000D01*
X130833543Y-80416913D01*
X130785711Y-80238404D01*
X130774284Y-80195756D01*
X130677522Y-79988249D01*
X130546195Y-79800696D01*
X130384303Y-79638804D01*
X130196748Y-79507476D01*
X130157543Y-79489195D01*
X130104257Y-79442278D01*
X130084796Y-79374001D01*
X130105337Y-79306041D01*
X130157543Y-79260805D01*
X130162163Y-79258650D01*
X130196749Y-79242523D01*
X130384300Y-79111198D01*
X130546198Y-78949300D01*
X130677523Y-78761749D01*
X130774284Y-78554243D01*
X130833543Y-78333087D01*
X130853498Y-78105000D01*
X130833543Y-77876913D01*
X130786902Y-77702847D01*
X130774284Y-77655756D01*
X130677522Y-77448249D01*
X130546195Y-77260696D01*
X130384303Y-77098804D01*
X130196750Y-76967477D01*
X129989243Y-76870715D01*
X129768087Y-76811457D01*
X129540000Y-76791502D01*
X129311912Y-76811457D01*
X129090756Y-76870715D01*
X128883249Y-76967477D01*
X128695696Y-77098804D01*
X128533804Y-77260696D01*
X128468704Y-77353668D01*
X128413246Y-77397997D01*
X128342627Y-77405305D01*
X128279266Y-77373274D01*
X128243282Y-77312072D01*
X128243783Y-77248788D01*
X128293543Y-77063087D01*
X128313498Y-76835000D01*
X128293543Y-76606913D01*
X128239322Y-76404559D01*
X128234284Y-76385756D01*
X128137522Y-76178249D01*
X128006195Y-75990696D01*
X127844303Y-75828804D01*
X127656750Y-75697477D01*
X127449243Y-75600715D01*
X127228087Y-75541457D01*
X127000000Y-75521502D01*
X126771912Y-75541457D01*
X126550756Y-75600715D01*
X126343249Y-75697477D01*
X126155696Y-75828804D01*
X125993804Y-75990696D01*
X125862477Y-76178249D01*
X125765715Y-76385756D01*
X125706457Y-76606912D01*
X125690308Y-76791502D01*
X125686502Y-76835000D01*
X125697508Y-76960797D01*
X125706457Y-77063087D01*
X125765715Y-77284243D01*
X125862477Y-77491750D01*
X125993804Y-77679303D01*
X126155696Y-77841195D01*
X126155699Y-77841197D01*
X126155700Y-77841198D01*
X126343251Y-77972523D01*
X126378359Y-77988894D01*
X126382457Y-77990805D01*
X126435742Y-78037722D01*
X126455203Y-78106000D01*
X126434661Y-78173960D01*
X126382457Y-78219195D01*
X126343250Y-78237477D01*
X126155696Y-78368804D01*
X125993804Y-78530696D01*
X125862477Y-78718249D01*
X125765715Y-78925756D01*
X125706457Y-79146912D01*
X125686502Y-79375000D01*
X125706457Y-79603087D01*
X125765715Y-79824243D01*
X125862477Y-80031750D01*
X125993804Y-80219303D01*
X126155696Y-80381195D01*
X126155699Y-80381197D01*
X126155700Y-80381198D01*
X126343251Y-80512523D01*
X126378359Y-80528894D01*
X126382457Y-80530805D01*
X126435742Y-80577722D01*
X126455203Y-80646000D01*
X126434661Y-80713960D01*
X126382457Y-80759195D01*
X126343250Y-80777477D01*
X126155696Y-80908804D01*
X125993804Y-81070696D01*
X125862477Y-81258249D01*
X125765715Y-81465756D01*
X125706457Y-81686912D01*
X125694294Y-81825942D01*
X125686502Y-81915000D01*
X125689627Y-81950716D01*
X125706457Y-82143087D01*
X125765715Y-82364243D01*
X125862477Y-82571750D01*
X125993804Y-82759303D01*
X126155696Y-82921195D01*
X126155699Y-82921197D01*
X126155700Y-82921198D01*
X126343251Y-83052523D01*
X126378359Y-83068894D01*
X126382457Y-83070805D01*
X126435742Y-83117722D01*
X126455203Y-83186000D01*
X126434661Y-83253960D01*
X126382457Y-83299195D01*
X126343250Y-83317477D01*
X126155696Y-83448804D01*
X125993804Y-83610696D01*
X125862477Y-83798249D01*
X125765715Y-84005756D01*
X125706457Y-84226912D01*
X125686502Y-84455000D01*
X112768500Y-84455000D01*
X112768500Y-74498200D01*
X114764502Y-74498200D01*
X114784457Y-74726287D01*
X114843715Y-74947443D01*
X114940477Y-75154950D01*
X115071804Y-75342503D01*
X115233696Y-75504395D01*
X115421249Y-75635722D01*
X115628756Y-75732484D01*
X115688014Y-75748362D01*
X115849913Y-75791743D01*
X116078000Y-75811698D01*
X116306087Y-75791743D01*
X116527243Y-75732484D01*
X116734749Y-75635723D01*
X116922300Y-75504398D01*
X117004906Y-75421791D01*
X117067216Y-75387768D01*
X117138032Y-75392832D01*
X117183093Y-75421791D01*
X117236399Y-75475097D01*
X117265699Y-75504397D01*
X117453249Y-75635722D01*
X117660756Y-75732484D01*
X117720014Y-75748362D01*
X117881913Y-75791743D01*
X118110000Y-75811698D01*
X118338087Y-75791743D01*
X118559243Y-75732484D01*
X118635405Y-75696968D01*
X118705597Y-75686307D01*
X118770410Y-75715286D01*
X118809266Y-75774706D01*
X118813900Y-75797382D01*
X118825413Y-75902015D01*
X118825414Y-75902018D01*
X118893928Y-76164088D01*
X118999870Y-76413390D01*
X119140982Y-76644610D01*
X119314255Y-76852820D01*
X119314256Y-76852821D01*
X119314258Y-76852823D01*
X119515993Y-77033578D01*
X119515995Y-77033579D01*
X119515998Y-77033582D01*
X119741910Y-77183044D01*
X119874104Y-77245014D01*
X119987171Y-77298018D01*
X119987173Y-77298018D01*
X119987176Y-77298020D01*
X120246569Y-77376060D01*
X120246572Y-77376060D01*
X120246574Y-77376061D01*
X120514558Y-77415500D01*
X120514561Y-77415500D01*
X120715330Y-77415500D01*
X120717631Y-77415500D01*
X120920156Y-77400677D01*
X121184553Y-77341780D01*
X121437558Y-77245014D01*
X121673777Y-77112441D01*
X121888177Y-76946888D01*
X122076186Y-76751881D01*
X122233799Y-76531579D01*
X122357656Y-76290675D01*
X122445118Y-76034305D01*
X122494319Y-75767933D01*
X122504212Y-75497235D01*
X122502295Y-75479817D01*
X122474586Y-75227984D01*
X122474586Y-75227982D01*
X122406072Y-74965912D01*
X122300130Y-74716610D01*
X122272077Y-74670644D01*
X122253664Y-74602078D01*
X122275243Y-74534441D01*
X122329965Y-74489207D01*
X122391481Y-74480308D01*
X122979155Y-73892634D01*
X123068577Y-74034948D01*
X123196052Y-74162423D01*
X123338364Y-74251843D01*
X122751387Y-74838820D01*
X122751387Y-74838822D01*
X122965727Y-74970169D01*
X123199562Y-75067027D01*
X123445675Y-75126113D01*
X123698000Y-75145971D01*
X123950324Y-75126113D01*
X124196437Y-75067027D01*
X124430277Y-74970167D01*
X124644611Y-74838822D01*
X124644611Y-74838820D01*
X124057634Y-74251843D01*
X124199948Y-74162423D01*
X124327423Y-74034948D01*
X124416843Y-73892634D01*
X125003820Y-74479611D01*
X125003822Y-74479611D01*
X125135167Y-74265277D01*
X125232027Y-74031437D01*
X125291113Y-73785324D01*
X125310971Y-73533000D01*
X125291113Y-73280675D01*
X125232027Y-73034562D01*
X125135169Y-72800727D01*
X125003822Y-72586387D01*
X125003820Y-72586387D01*
X124416843Y-73173364D01*
X124327423Y-73031052D01*
X124199948Y-72903577D01*
X124057634Y-72814155D01*
X124644611Y-72227178D01*
X124644611Y-72227176D01*
X124430272Y-72095830D01*
X124196437Y-71998972D01*
X123950324Y-71939886D01*
X123697999Y-71920028D01*
X123445675Y-71939886D01*
X123199562Y-71998972D01*
X122965725Y-72095831D01*
X122751387Y-72227176D01*
X122751387Y-72227178D01*
X123338365Y-72814156D01*
X123196052Y-72903577D01*
X123068577Y-73031052D01*
X122979156Y-73173364D01*
X122392178Y-72586387D01*
X122392176Y-72586387D01*
X122260831Y-72800725D01*
X122163972Y-73034562D01*
X122104886Y-73280675D01*
X122085028Y-73533000D01*
X122104886Y-73785324D01*
X122163972Y-74031437D01*
X122225684Y-74180423D01*
X122233273Y-74251013D01*
X122201494Y-74314500D01*
X122140436Y-74350727D01*
X122069484Y-74348193D01*
X122012425Y-74309239D01*
X121985744Y-74277179D01*
X121784006Y-74096421D01*
X121784003Y-74096419D01*
X121784002Y-74096418D01*
X121558090Y-73946956D01*
X121558086Y-73946954D01*
X121312828Y-73831981D01*
X121053425Y-73753938D01*
X120785442Y-73714500D01*
X120785439Y-73714500D01*
X120582369Y-73714500D01*
X120580099Y-73714666D01*
X120580075Y-73714667D01*
X120379839Y-73729323D01*
X120115449Y-73788219D01*
X119862441Y-73884985D01*
X119626221Y-74017559D01*
X119532807Y-74089691D01*
X119466665Y-74115493D01*
X119397073Y-74101439D01*
X119346127Y-74051993D01*
X119341605Y-74043212D01*
X119337751Y-74034948D01*
X119247523Y-73841451D01*
X119240891Y-73831980D01*
X119156980Y-73712143D01*
X119116198Y-73653900D01*
X119116197Y-73653899D01*
X119116195Y-73653896D01*
X118954303Y-73492004D01*
X118766750Y-73360677D01*
X118559243Y-73263915D01*
X118338087Y-73204657D01*
X118338086Y-73204656D01*
X118110000Y-73184702D01*
X118109999Y-73184702D01*
X117881912Y-73204657D01*
X117660756Y-73263915D01*
X117453249Y-73360677D01*
X117265696Y-73492004D01*
X117183095Y-73574606D01*
X117120783Y-73608632D01*
X117049968Y-73603567D01*
X117004905Y-73574606D01*
X116922303Y-73492004D01*
X116734750Y-73360677D01*
X116527243Y-73263915D01*
X116306087Y-73204657D01*
X116078000Y-73184702D01*
X115849912Y-73204657D01*
X115628756Y-73263915D01*
X115421249Y-73360677D01*
X115233696Y-73492004D01*
X115071804Y-73653896D01*
X114940477Y-73841449D01*
X114843715Y-74048956D01*
X114784457Y-74270112D01*
X114764502Y-74498200D01*
X112768500Y-74498200D01*
X112768500Y-62551766D01*
X113715787Y-62551766D01*
X113745413Y-62821015D01*
X113745414Y-62821018D01*
X113813928Y-63083088D01*
X113919870Y-63332390D01*
X114060982Y-63563610D01*
X114234255Y-63771820D01*
X114234256Y-63771821D01*
X114234258Y-63771823D01*
X114435993Y-63952578D01*
X114435995Y-63952579D01*
X114435998Y-63952582D01*
X114661910Y-64102044D01*
X114794104Y-64164014D01*
X114907171Y-64217018D01*
X114907173Y-64217018D01*
X114907176Y-64217020D01*
X115166569Y-64295060D01*
X115166572Y-64295060D01*
X115166574Y-64295061D01*
X115434558Y-64334500D01*
X115434561Y-64334500D01*
X115635330Y-64334500D01*
X115637631Y-64334500D01*
X115840156Y-64319677D01*
X116104553Y-64260780D01*
X116357558Y-64164014D01*
X116593777Y-64031441D01*
X116808177Y-63865888D01*
X116996186Y-63670881D01*
X117153799Y-63450579D01*
X117277656Y-63209675D01*
X117365118Y-62953305D01*
X117414319Y-62686933D01*
X117419259Y-62551766D01*
X182295787Y-62551766D01*
X182325413Y-62821015D01*
X182325414Y-62821018D01*
X182393928Y-63083088D01*
X182499870Y-63332390D01*
X182640982Y-63563610D01*
X182814255Y-63771820D01*
X182814256Y-63771821D01*
X182814258Y-63771823D01*
X183015993Y-63952578D01*
X183015995Y-63952579D01*
X183015998Y-63952582D01*
X183241910Y-64102044D01*
X183374104Y-64164014D01*
X183487171Y-64217018D01*
X183487173Y-64217018D01*
X183487176Y-64217020D01*
X183746569Y-64295060D01*
X183746572Y-64295060D01*
X183746574Y-64295061D01*
X184014558Y-64334500D01*
X184014561Y-64334500D01*
X184215330Y-64334500D01*
X184217631Y-64334500D01*
X184420156Y-64319677D01*
X184684553Y-64260780D01*
X184937558Y-64164014D01*
X185173777Y-64031441D01*
X185388177Y-63865888D01*
X185576186Y-63670881D01*
X185733799Y-63450579D01*
X185857656Y-63209675D01*
X185945118Y-62953305D01*
X185994319Y-62686933D01*
X186004212Y-62416235D01*
X185974586Y-62146982D01*
X185906072Y-61884912D01*
X185800130Y-61635610D01*
X185659018Y-61404390D01*
X185485745Y-61196180D01*
X185380759Y-61102112D01*
X185284006Y-61015421D01*
X185284003Y-61015419D01*
X185284002Y-61015418D01*
X185058090Y-60865956D01*
X185058086Y-60865954D01*
X184812828Y-60750981D01*
X184553425Y-60672938D01*
X184285442Y-60633500D01*
X184285439Y-60633500D01*
X184082369Y-60633500D01*
X184080099Y-60633666D01*
X184080075Y-60633667D01*
X183879839Y-60648323D01*
X183615449Y-60707219D01*
X183362441Y-60803985D01*
X183126225Y-60936557D01*
X182911820Y-61102114D01*
X182723815Y-61297117D01*
X182566200Y-61517422D01*
X182442342Y-61758328D01*
X182354882Y-62014693D01*
X182305681Y-62281065D01*
X182295787Y-62551766D01*
X117419259Y-62551766D01*
X117424212Y-62416235D01*
X117394586Y-62146982D01*
X117326072Y-61884912D01*
X117220130Y-61635610D01*
X117079018Y-61404390D01*
X116905745Y-61196180D01*
X116800759Y-61102112D01*
X116704006Y-61015421D01*
X116704003Y-61015419D01*
X116704002Y-61015418D01*
X116478090Y-60865956D01*
X116478086Y-60865954D01*
X116232828Y-60750981D01*
X115973425Y-60672938D01*
X115705442Y-60633500D01*
X115705439Y-60633500D01*
X115502369Y-60633500D01*
X115500099Y-60633666D01*
X115500075Y-60633667D01*
X115299839Y-60648323D01*
X115035449Y-60707219D01*
X114782441Y-60803985D01*
X114546225Y-60936557D01*
X114331820Y-61102114D01*
X114143815Y-61297117D01*
X113986200Y-61517422D01*
X113862342Y-61758328D01*
X113774882Y-62014693D01*
X113725681Y-62281065D01*
X113715787Y-62551766D01*
X112768500Y-62551766D01*
X112768500Y-59808500D01*
X112788502Y-59740379D01*
X112842158Y-59693886D01*
X112894500Y-59682500D01*
X186952500Y-59682500D01*
X187020621Y-59702502D01*
G37*
%TD.AperFunction*%
%TD*%
M02*
