%TF.GenerationSoftware,KiCad,Pcbnew,7.0.2*%
%TF.CreationDate,2024-05-20T10:49:14+02:00*%
%TF.ProjectId,dsoxlan,64736f78-6c61-46e2-9e6b-696361645f70,rev?*%
%TF.SameCoordinates,Original*%
%TF.FileFunction,Copper,L1,Top*%
%TF.FilePolarity,Positive*%
%FSLAX46Y46*%
G04 Gerber Fmt 4.6, Leading zero omitted, Abs format (unit mm)*
G04 Created by KiCad (PCBNEW 7.0.2) date 2024-05-20 10:49:14*
%MOMM*%
%LPD*%
G01*
G04 APERTURE LIST*
G04 Aperture macros list*
%AMRoundRect*
0 Rectangle with rounded corners*
0 $1 Rounding radius*
0 $2 $3 $4 $5 $6 $7 $8 $9 X,Y pos of 4 corners*
0 Add a 4 corners polygon primitive as box body*
4,1,4,$2,$3,$4,$5,$6,$7,$8,$9,$2,$3,0*
0 Add four circle primitives for the rounded corners*
1,1,$1+$1,$2,$3*
1,1,$1+$1,$4,$5*
1,1,$1+$1,$6,$7*
1,1,$1+$1,$8,$9*
0 Add four rect primitives between the rounded corners*
20,1,$1+$1,$2,$3,$4,$5,0*
20,1,$1+$1,$4,$5,$6,$7,0*
20,1,$1+$1,$6,$7,$8,$9,0*
20,1,$1+$1,$8,$9,$2,$3,0*%
G04 Aperture macros list end*
%ADD10C,0.300000*%
%TA.AperFunction,NonConductor*%
%ADD11C,0.300000*%
%TD*%
%TA.AperFunction,EtchedComponent*%
%ADD12C,0.010000*%
%TD*%
%TA.AperFunction,SMDPad,CuDef*%
%ADD13RoundRect,0.250000X0.337500X0.475000X-0.337500X0.475000X-0.337500X-0.475000X0.337500X-0.475000X0*%
%TD*%
%TA.AperFunction,ConnectorPad*%
%ADD14R,3.600000X0.550000*%
%TD*%
%TA.AperFunction,SMDPad,CuDef*%
%ADD15RoundRect,0.250000X0.350000X0.450000X-0.350000X0.450000X-0.350000X-0.450000X0.350000X-0.450000X0*%
%TD*%
%TA.AperFunction,ComponentPad*%
%ADD16C,1.524000*%
%TD*%
%TA.AperFunction,ComponentPad*%
%ADD17C,1.625600*%
%TD*%
%TA.AperFunction,ComponentPad*%
%ADD18C,2.540000*%
%TD*%
%TA.AperFunction,ViaPad*%
%ADD19C,0.800000*%
%TD*%
%TA.AperFunction,Conductor*%
%ADD20C,0.500000*%
%TD*%
%TA.AperFunction,Conductor*%
%ADD21C,0.400000*%
%TD*%
%TA.AperFunction,Conductor*%
%ADD22C,1.000000*%
%TD*%
G04 APERTURE END LIST*
D10*
D11*
X144145844Y-111180830D02*
X144145844Y-109680830D01*
X144145844Y-109680830D02*
X144502987Y-109680830D01*
X144502987Y-109680830D02*
X144717273Y-109752259D01*
X144717273Y-109752259D02*
X144860130Y-109895116D01*
X144860130Y-109895116D02*
X144931559Y-110037973D01*
X144931559Y-110037973D02*
X145002987Y-110323687D01*
X145002987Y-110323687D02*
X145002987Y-110537973D01*
X145002987Y-110537973D02*
X144931559Y-110823687D01*
X144931559Y-110823687D02*
X144860130Y-110966544D01*
X144860130Y-110966544D02*
X144717273Y-111109402D01*
X144717273Y-111109402D02*
X144502987Y-111180830D01*
X144502987Y-111180830D02*
X144145844Y-111180830D01*
X145645844Y-111180830D02*
X145645844Y-109680830D01*
X146645845Y-110466544D02*
X146645845Y-111180830D01*
X146145845Y-109680830D02*
X146645845Y-110466544D01*
X146645845Y-110466544D02*
X147145845Y-109680830D01*
X148788701Y-111180830D02*
X148788701Y-109680830D01*
X148788701Y-109680830D02*
X149145844Y-109680830D01*
X149145844Y-109680830D02*
X149360130Y-109752259D01*
X149360130Y-109752259D02*
X149502987Y-109895116D01*
X149502987Y-109895116D02*
X149574416Y-110037973D01*
X149574416Y-110037973D02*
X149645844Y-110323687D01*
X149645844Y-110323687D02*
X149645844Y-110537973D01*
X149645844Y-110537973D02*
X149574416Y-110823687D01*
X149574416Y-110823687D02*
X149502987Y-110966544D01*
X149502987Y-110966544D02*
X149360130Y-111109402D01*
X149360130Y-111109402D02*
X149145844Y-111180830D01*
X149145844Y-111180830D02*
X148788701Y-111180830D01*
X150217273Y-111109402D02*
X150431559Y-111180830D01*
X150431559Y-111180830D02*
X150788701Y-111180830D01*
X150788701Y-111180830D02*
X150931559Y-111109402D01*
X150931559Y-111109402D02*
X151002987Y-111037973D01*
X151002987Y-111037973D02*
X151074416Y-110895116D01*
X151074416Y-110895116D02*
X151074416Y-110752259D01*
X151074416Y-110752259D02*
X151002987Y-110609402D01*
X151002987Y-110609402D02*
X150931559Y-110537973D01*
X150931559Y-110537973D02*
X150788701Y-110466544D01*
X150788701Y-110466544D02*
X150502987Y-110395116D01*
X150502987Y-110395116D02*
X150360130Y-110323687D01*
X150360130Y-110323687D02*
X150288701Y-110252259D01*
X150288701Y-110252259D02*
X150217273Y-110109402D01*
X150217273Y-110109402D02*
X150217273Y-109966544D01*
X150217273Y-109966544D02*
X150288701Y-109823687D01*
X150288701Y-109823687D02*
X150360130Y-109752259D01*
X150360130Y-109752259D02*
X150502987Y-109680830D01*
X150502987Y-109680830D02*
X150860130Y-109680830D01*
X150860130Y-109680830D02*
X151074416Y-109752259D01*
X152002987Y-109680830D02*
X152288701Y-109680830D01*
X152288701Y-109680830D02*
X152431558Y-109752259D01*
X152431558Y-109752259D02*
X152574415Y-109895116D01*
X152574415Y-109895116D02*
X152645844Y-110180830D01*
X152645844Y-110180830D02*
X152645844Y-110680830D01*
X152645844Y-110680830D02*
X152574415Y-110966544D01*
X152574415Y-110966544D02*
X152431558Y-111109402D01*
X152431558Y-111109402D02*
X152288701Y-111180830D01*
X152288701Y-111180830D02*
X152002987Y-111180830D01*
X152002987Y-111180830D02*
X151860130Y-111109402D01*
X151860130Y-111109402D02*
X151717272Y-110966544D01*
X151717272Y-110966544D02*
X151645844Y-110680830D01*
X151645844Y-110680830D02*
X151645844Y-110180830D01*
X151645844Y-110180830D02*
X151717272Y-109895116D01*
X151717272Y-109895116D02*
X151860130Y-109752259D01*
X151860130Y-109752259D02*
X152002987Y-109680830D01*
X153145844Y-109680830D02*
X154145844Y-111180830D01*
X154145844Y-109680830D02*
X153145844Y-111180830D01*
X155431558Y-111180830D02*
X154717272Y-111180830D01*
X154717272Y-111180830D02*
X154717272Y-109680830D01*
X155860130Y-110752259D02*
X156574416Y-110752259D01*
X155717273Y-111180830D02*
X156217273Y-109680830D01*
X156217273Y-109680830D02*
X156717273Y-111180830D01*
X157217272Y-111180830D02*
X157217272Y-109680830D01*
X157217272Y-109680830D02*
X158074415Y-111180830D01*
X158074415Y-111180830D02*
X158074415Y-109680830D01*
X141752989Y-113182259D02*
X142467275Y-113182259D01*
X141610132Y-113610830D02*
X142110132Y-112110830D01*
X142110132Y-112110830D02*
X142610132Y-113610830D01*
X142967274Y-112110830D02*
X143324417Y-113610830D01*
X143324417Y-113610830D02*
X143610131Y-112539402D01*
X143610131Y-112539402D02*
X143895846Y-113610830D01*
X143895846Y-113610830D02*
X144252989Y-112110830D01*
X145895846Y-112253687D02*
X145967274Y-112182259D01*
X145967274Y-112182259D02*
X146110132Y-112110830D01*
X146110132Y-112110830D02*
X146467274Y-112110830D01*
X146467274Y-112110830D02*
X146610132Y-112182259D01*
X146610132Y-112182259D02*
X146681560Y-112253687D01*
X146681560Y-112253687D02*
X146752989Y-112396544D01*
X146752989Y-112396544D02*
X146752989Y-112539402D01*
X146752989Y-112539402D02*
X146681560Y-112753687D01*
X146681560Y-112753687D02*
X145824417Y-113610830D01*
X145824417Y-113610830D02*
X146752989Y-113610830D01*
X147681560Y-112110830D02*
X147824417Y-112110830D01*
X147824417Y-112110830D02*
X147967274Y-112182259D01*
X147967274Y-112182259D02*
X148038703Y-112253687D01*
X148038703Y-112253687D02*
X148110131Y-112396544D01*
X148110131Y-112396544D02*
X148181560Y-112682259D01*
X148181560Y-112682259D02*
X148181560Y-113039402D01*
X148181560Y-113039402D02*
X148110131Y-113325116D01*
X148110131Y-113325116D02*
X148038703Y-113467973D01*
X148038703Y-113467973D02*
X147967274Y-113539402D01*
X147967274Y-113539402D02*
X147824417Y-113610830D01*
X147824417Y-113610830D02*
X147681560Y-113610830D01*
X147681560Y-113610830D02*
X147538703Y-113539402D01*
X147538703Y-113539402D02*
X147467274Y-113467973D01*
X147467274Y-113467973D02*
X147395845Y-113325116D01*
X147395845Y-113325116D02*
X147324417Y-113039402D01*
X147324417Y-113039402D02*
X147324417Y-112682259D01*
X147324417Y-112682259D02*
X147395845Y-112396544D01*
X147395845Y-112396544D02*
X147467274Y-112253687D01*
X147467274Y-112253687D02*
X147538703Y-112182259D01*
X147538703Y-112182259D02*
X147681560Y-112110830D01*
X149610131Y-113610830D02*
X148752988Y-113610830D01*
X149181559Y-113610830D02*
X149181559Y-112110830D01*
X149181559Y-112110830D02*
X149038702Y-112325116D01*
X149038702Y-112325116D02*
X148895845Y-112467973D01*
X148895845Y-112467973D02*
X148752988Y-112539402D01*
X150895845Y-112610830D02*
X150895845Y-113610830D01*
X150538702Y-112039402D02*
X150181559Y-113110830D01*
X150181559Y-113110830D02*
X151110130Y-113110830D01*
X151681558Y-113039402D02*
X152824416Y-113039402D01*
X154324416Y-113610830D02*
X153467273Y-113610830D01*
X153895844Y-113610830D02*
X153895844Y-112110830D01*
X153895844Y-112110830D02*
X153752987Y-112325116D01*
X153752987Y-112325116D02*
X153610130Y-112467973D01*
X153610130Y-112467973D02*
X153467273Y-112539402D01*
X154895844Y-112253687D02*
X154967272Y-112182259D01*
X154967272Y-112182259D02*
X155110130Y-112110830D01*
X155110130Y-112110830D02*
X155467272Y-112110830D01*
X155467272Y-112110830D02*
X155610130Y-112182259D01*
X155610130Y-112182259D02*
X155681558Y-112253687D01*
X155681558Y-112253687D02*
X155752987Y-112396544D01*
X155752987Y-112396544D02*
X155752987Y-112539402D01*
X155752987Y-112539402D02*
X155681558Y-112753687D01*
X155681558Y-112753687D02*
X154824415Y-113610830D01*
X154824415Y-113610830D02*
X155752987Y-113610830D01*
X156395843Y-113039402D02*
X157538701Y-113039402D01*
X159038701Y-113610830D02*
X158181558Y-113610830D01*
X158610129Y-113610830D02*
X158610129Y-112110830D01*
X158610129Y-112110830D02*
X158467272Y-112325116D01*
X158467272Y-112325116D02*
X158324415Y-112467973D01*
X158324415Y-112467973D02*
X158181558Y-112539402D01*
X159538700Y-112110830D02*
X160467272Y-112110830D01*
X160467272Y-112110830D02*
X159967272Y-112682259D01*
X159967272Y-112682259D02*
X160181557Y-112682259D01*
X160181557Y-112682259D02*
X160324415Y-112753687D01*
X160324415Y-112753687D02*
X160395843Y-112825116D01*
X160395843Y-112825116D02*
X160467272Y-112967973D01*
X160467272Y-112967973D02*
X160467272Y-113325116D01*
X160467272Y-113325116D02*
X160395843Y-113467973D01*
X160395843Y-113467973D02*
X160324415Y-113539402D01*
X160324415Y-113539402D02*
X160181557Y-113610830D01*
X160181557Y-113610830D02*
X159752986Y-113610830D01*
X159752986Y-113610830D02*
X159610129Y-113539402D01*
X159610129Y-113539402D02*
X159538700Y-113467973D01*
X139324417Y-116040830D02*
X139324417Y-114540830D01*
X139324417Y-114540830D02*
X139681560Y-114540830D01*
X139681560Y-114540830D02*
X139895846Y-114612259D01*
X139895846Y-114612259D02*
X140038703Y-114755116D01*
X140038703Y-114755116D02*
X140110132Y-114897973D01*
X140110132Y-114897973D02*
X140181560Y-115183687D01*
X140181560Y-115183687D02*
X140181560Y-115397973D01*
X140181560Y-115397973D02*
X140110132Y-115683687D01*
X140110132Y-115683687D02*
X140038703Y-115826544D01*
X140038703Y-115826544D02*
X139895846Y-115969402D01*
X139895846Y-115969402D02*
X139681560Y-116040830D01*
X139681560Y-116040830D02*
X139324417Y-116040830D01*
X141538703Y-116040830D02*
X140824417Y-116040830D01*
X140824417Y-116040830D02*
X140824417Y-114540830D01*
X142252989Y-115183687D02*
X142110132Y-115112259D01*
X142110132Y-115112259D02*
X142038703Y-115040830D01*
X142038703Y-115040830D02*
X141967275Y-114897973D01*
X141967275Y-114897973D02*
X141967275Y-114826544D01*
X141967275Y-114826544D02*
X142038703Y-114683687D01*
X142038703Y-114683687D02*
X142110132Y-114612259D01*
X142110132Y-114612259D02*
X142252989Y-114540830D01*
X142252989Y-114540830D02*
X142538703Y-114540830D01*
X142538703Y-114540830D02*
X142681561Y-114612259D01*
X142681561Y-114612259D02*
X142752989Y-114683687D01*
X142752989Y-114683687D02*
X142824418Y-114826544D01*
X142824418Y-114826544D02*
X142824418Y-114897973D01*
X142824418Y-114897973D02*
X142752989Y-115040830D01*
X142752989Y-115040830D02*
X142681561Y-115112259D01*
X142681561Y-115112259D02*
X142538703Y-115183687D01*
X142538703Y-115183687D02*
X142252989Y-115183687D01*
X142252989Y-115183687D02*
X142110132Y-115255116D01*
X142110132Y-115255116D02*
X142038703Y-115326544D01*
X142038703Y-115326544D02*
X141967275Y-115469402D01*
X141967275Y-115469402D02*
X141967275Y-115755116D01*
X141967275Y-115755116D02*
X142038703Y-115897973D01*
X142038703Y-115897973D02*
X142110132Y-115969402D01*
X142110132Y-115969402D02*
X142252989Y-116040830D01*
X142252989Y-116040830D02*
X142538703Y-116040830D01*
X142538703Y-116040830D02*
X142681561Y-115969402D01*
X142681561Y-115969402D02*
X142752989Y-115897973D01*
X142752989Y-115897973D02*
X142824418Y-115755116D01*
X142824418Y-115755116D02*
X142824418Y-115469402D01*
X142824418Y-115469402D02*
X142752989Y-115326544D01*
X142752989Y-115326544D02*
X142681561Y-115255116D01*
X142681561Y-115255116D02*
X142538703Y-115183687D01*
X143467274Y-116040830D02*
X143467274Y-114540830D01*
X143467274Y-114540830D02*
X143824417Y-114540830D01*
X143824417Y-114540830D02*
X144038703Y-114612259D01*
X144038703Y-114612259D02*
X144181560Y-114755116D01*
X144181560Y-114755116D02*
X144252989Y-114897973D01*
X144252989Y-114897973D02*
X144324417Y-115183687D01*
X144324417Y-115183687D02*
X144324417Y-115397973D01*
X144324417Y-115397973D02*
X144252989Y-115683687D01*
X144252989Y-115683687D02*
X144181560Y-115826544D01*
X144181560Y-115826544D02*
X144038703Y-115969402D01*
X144038703Y-115969402D02*
X143824417Y-116040830D01*
X143824417Y-116040830D02*
X143467274Y-116040830D01*
X144752989Y-114540830D02*
X145610132Y-114540830D01*
X145181560Y-116040830D02*
X145181560Y-114540830D01*
X146824417Y-116040830D02*
X146110131Y-116040830D01*
X146110131Y-116040830D02*
X146110131Y-114540830D01*
X148395846Y-114683687D02*
X148467274Y-114612259D01*
X148467274Y-114612259D02*
X148610132Y-114540830D01*
X148610132Y-114540830D02*
X148967274Y-114540830D01*
X148967274Y-114540830D02*
X149110132Y-114612259D01*
X149110132Y-114612259D02*
X149181560Y-114683687D01*
X149181560Y-114683687D02*
X149252989Y-114826544D01*
X149252989Y-114826544D02*
X149252989Y-114969402D01*
X149252989Y-114969402D02*
X149181560Y-115183687D01*
X149181560Y-115183687D02*
X148324417Y-116040830D01*
X148324417Y-116040830D02*
X149252989Y-116040830D01*
X150181560Y-114540830D02*
X150324417Y-114540830D01*
X150324417Y-114540830D02*
X150467274Y-114612259D01*
X150467274Y-114612259D02*
X150538703Y-114683687D01*
X150538703Y-114683687D02*
X150610131Y-114826544D01*
X150610131Y-114826544D02*
X150681560Y-115112259D01*
X150681560Y-115112259D02*
X150681560Y-115469402D01*
X150681560Y-115469402D02*
X150610131Y-115755116D01*
X150610131Y-115755116D02*
X150538703Y-115897973D01*
X150538703Y-115897973D02*
X150467274Y-115969402D01*
X150467274Y-115969402D02*
X150324417Y-116040830D01*
X150324417Y-116040830D02*
X150181560Y-116040830D01*
X150181560Y-116040830D02*
X150038703Y-115969402D01*
X150038703Y-115969402D02*
X149967274Y-115897973D01*
X149967274Y-115897973D02*
X149895845Y-115755116D01*
X149895845Y-115755116D02*
X149824417Y-115469402D01*
X149824417Y-115469402D02*
X149824417Y-115112259D01*
X149824417Y-115112259D02*
X149895845Y-114826544D01*
X149895845Y-114826544D02*
X149967274Y-114683687D01*
X149967274Y-114683687D02*
X150038703Y-114612259D01*
X150038703Y-114612259D02*
X150181560Y-114540830D01*
X151252988Y-114683687D02*
X151324416Y-114612259D01*
X151324416Y-114612259D02*
X151467274Y-114540830D01*
X151467274Y-114540830D02*
X151824416Y-114540830D01*
X151824416Y-114540830D02*
X151967274Y-114612259D01*
X151967274Y-114612259D02*
X152038702Y-114683687D01*
X152038702Y-114683687D02*
X152110131Y-114826544D01*
X152110131Y-114826544D02*
X152110131Y-114969402D01*
X152110131Y-114969402D02*
X152038702Y-115183687D01*
X152038702Y-115183687D02*
X151181559Y-116040830D01*
X151181559Y-116040830D02*
X152110131Y-116040830D01*
X153395845Y-115040830D02*
X153395845Y-116040830D01*
X153038702Y-114469402D02*
X152681559Y-115540830D01*
X152681559Y-115540830D02*
X153610130Y-115540830D01*
X154181558Y-115469402D02*
X155324416Y-115469402D01*
X156324416Y-114540830D02*
X156467273Y-114540830D01*
X156467273Y-114540830D02*
X156610130Y-114612259D01*
X156610130Y-114612259D02*
X156681559Y-114683687D01*
X156681559Y-114683687D02*
X156752987Y-114826544D01*
X156752987Y-114826544D02*
X156824416Y-115112259D01*
X156824416Y-115112259D02*
X156824416Y-115469402D01*
X156824416Y-115469402D02*
X156752987Y-115755116D01*
X156752987Y-115755116D02*
X156681559Y-115897973D01*
X156681559Y-115897973D02*
X156610130Y-115969402D01*
X156610130Y-115969402D02*
X156467273Y-116040830D01*
X156467273Y-116040830D02*
X156324416Y-116040830D01*
X156324416Y-116040830D02*
X156181559Y-115969402D01*
X156181559Y-115969402D02*
X156110130Y-115897973D01*
X156110130Y-115897973D02*
X156038701Y-115755116D01*
X156038701Y-115755116D02*
X155967273Y-115469402D01*
X155967273Y-115469402D02*
X155967273Y-115112259D01*
X155967273Y-115112259D02*
X156038701Y-114826544D01*
X156038701Y-114826544D02*
X156110130Y-114683687D01*
X156110130Y-114683687D02*
X156181559Y-114612259D01*
X156181559Y-114612259D02*
X156324416Y-114540830D01*
X158181558Y-114540830D02*
X157467272Y-114540830D01*
X157467272Y-114540830D02*
X157395844Y-115255116D01*
X157395844Y-115255116D02*
X157467272Y-115183687D01*
X157467272Y-115183687D02*
X157610130Y-115112259D01*
X157610130Y-115112259D02*
X157967272Y-115112259D01*
X157967272Y-115112259D02*
X158110130Y-115183687D01*
X158110130Y-115183687D02*
X158181558Y-115255116D01*
X158181558Y-115255116D02*
X158252987Y-115397973D01*
X158252987Y-115397973D02*
X158252987Y-115755116D01*
X158252987Y-115755116D02*
X158181558Y-115897973D01*
X158181558Y-115897973D02*
X158110130Y-115969402D01*
X158110130Y-115969402D02*
X157967272Y-116040830D01*
X157967272Y-116040830D02*
X157610130Y-116040830D01*
X157610130Y-116040830D02*
X157467272Y-115969402D01*
X157467272Y-115969402D02*
X157395844Y-115897973D01*
X158895843Y-115469402D02*
X160038701Y-115469402D01*
X161538701Y-116040830D02*
X160681558Y-116040830D01*
X161110129Y-116040830D02*
X161110129Y-114540830D01*
X161110129Y-114540830D02*
X160967272Y-114755116D01*
X160967272Y-114755116D02*
X160824415Y-114897973D01*
X160824415Y-114897973D02*
X160681558Y-114969402D01*
X162395843Y-115183687D02*
X162252986Y-115112259D01*
X162252986Y-115112259D02*
X162181557Y-115040830D01*
X162181557Y-115040830D02*
X162110129Y-114897973D01*
X162110129Y-114897973D02*
X162110129Y-114826544D01*
X162110129Y-114826544D02*
X162181557Y-114683687D01*
X162181557Y-114683687D02*
X162252986Y-114612259D01*
X162252986Y-114612259D02*
X162395843Y-114540830D01*
X162395843Y-114540830D02*
X162681557Y-114540830D01*
X162681557Y-114540830D02*
X162824415Y-114612259D01*
X162824415Y-114612259D02*
X162895843Y-114683687D01*
X162895843Y-114683687D02*
X162967272Y-114826544D01*
X162967272Y-114826544D02*
X162967272Y-114897973D01*
X162967272Y-114897973D02*
X162895843Y-115040830D01*
X162895843Y-115040830D02*
X162824415Y-115112259D01*
X162824415Y-115112259D02*
X162681557Y-115183687D01*
X162681557Y-115183687D02*
X162395843Y-115183687D01*
X162395843Y-115183687D02*
X162252986Y-115255116D01*
X162252986Y-115255116D02*
X162181557Y-115326544D01*
X162181557Y-115326544D02*
X162110129Y-115469402D01*
X162110129Y-115469402D02*
X162110129Y-115755116D01*
X162110129Y-115755116D02*
X162181557Y-115897973D01*
X162181557Y-115897973D02*
X162252986Y-115969402D01*
X162252986Y-115969402D02*
X162395843Y-116040830D01*
X162395843Y-116040830D02*
X162681557Y-116040830D01*
X162681557Y-116040830D02*
X162824415Y-115969402D01*
X162824415Y-115969402D02*
X162895843Y-115897973D01*
X162895843Y-115897973D02*
X162967272Y-115755116D01*
X162967272Y-115755116D02*
X162967272Y-115469402D01*
X162967272Y-115469402D02*
X162895843Y-115326544D01*
X162895843Y-115326544D02*
X162824415Y-115255116D01*
X162824415Y-115255116D02*
X162681557Y-115183687D01*
%TO.C,SYM101*%
D12*
X149555814Y-61968931D02*
X149639635Y-62413555D01*
X149948920Y-62541053D01*
X150258206Y-62668551D01*
X150629246Y-62416246D01*
X150733157Y-62345996D01*
X150827087Y-62283272D01*
X150906652Y-62230938D01*
X150967470Y-62191857D01*
X151005157Y-62168893D01*
X151015421Y-62163942D01*
X151033910Y-62176676D01*
X151073420Y-62211882D01*
X151129522Y-62265062D01*
X151197787Y-62331718D01*
X151273786Y-62407354D01*
X151353092Y-62487472D01*
X151431275Y-62567574D01*
X151503907Y-62643164D01*
X151566559Y-62709745D01*
X151614803Y-62762818D01*
X151644210Y-62797887D01*
X151651241Y-62809623D01*
X151641123Y-62831260D01*
X151612759Y-62878662D01*
X151569129Y-62947193D01*
X151513218Y-63032215D01*
X151448006Y-63129093D01*
X151410219Y-63184350D01*
X151341343Y-63285248D01*
X151280140Y-63376299D01*
X151229578Y-63452970D01*
X151192628Y-63510728D01*
X151172258Y-63545043D01*
X151169197Y-63552254D01*
X151176136Y-63572748D01*
X151195051Y-63620513D01*
X151223087Y-63688832D01*
X151257391Y-63770989D01*
X151295109Y-63860270D01*
X151333387Y-63949958D01*
X151369370Y-64033338D01*
X151400206Y-64103694D01*
X151423039Y-64154310D01*
X151435017Y-64178471D01*
X151435724Y-64179422D01*
X151454531Y-64184036D01*
X151504618Y-64194328D01*
X151580793Y-64209287D01*
X151677865Y-64227901D01*
X151790643Y-64249159D01*
X151856442Y-64261418D01*
X151976950Y-64284362D01*
X152085797Y-64306195D01*
X152177476Y-64325722D01*
X152246481Y-64341748D01*
X152287304Y-64353079D01*
X152295511Y-64356674D01*
X152303548Y-64381006D01*
X152310033Y-64435959D01*
X152314970Y-64515108D01*
X152318364Y-64612026D01*
X152320218Y-64720287D01*
X152320538Y-64833465D01*
X152319327Y-64945135D01*
X152316590Y-65048868D01*
X152312331Y-65138241D01*
X152306555Y-65206826D01*
X152299267Y-65248197D01*
X152294895Y-65256810D01*
X152268764Y-65267133D01*
X152213393Y-65281892D01*
X152136107Y-65299352D01*
X152044230Y-65317780D01*
X152012158Y-65323741D01*
X151857524Y-65352066D01*
X151735375Y-65374876D01*
X151641673Y-65393080D01*
X151572384Y-65407583D01*
X151523471Y-65419292D01*
X151490897Y-65429115D01*
X151470628Y-65437956D01*
X151458626Y-65446724D01*
X151456947Y-65448457D01*
X151440184Y-65476371D01*
X151414614Y-65530695D01*
X151382788Y-65604777D01*
X151347260Y-65691965D01*
X151310583Y-65785608D01*
X151275311Y-65879052D01*
X151243996Y-65965647D01*
X151219193Y-66038740D01*
X151203454Y-66091678D01*
X151199332Y-66117811D01*
X151199676Y-66118726D01*
X151213641Y-66140086D01*
X151245322Y-66187084D01*
X151291391Y-66254827D01*
X151348518Y-66338423D01*
X151413373Y-66432982D01*
X151431843Y-66459854D01*
X151497699Y-66557275D01*
X151555650Y-66646163D01*
X151602538Y-66721412D01*
X151635207Y-66777920D01*
X151650500Y-66810581D01*
X151651241Y-66814593D01*
X151638392Y-66835684D01*
X151602888Y-66877464D01*
X151549293Y-66935445D01*
X151482171Y-67005135D01*
X151406087Y-67082045D01*
X151325604Y-67161683D01*
X151245287Y-67239561D01*
X151169699Y-67311186D01*
X151103405Y-67372070D01*
X151050969Y-67417721D01*
X151016955Y-67443650D01*
X151007545Y-67447883D01*
X150985643Y-67437912D01*
X150940800Y-67411020D01*
X150880321Y-67371736D01*
X150833789Y-67340117D01*
X150749475Y-67282098D01*
X150649626Y-67213784D01*
X150549473Y-67145579D01*
X150495627Y-67109075D01*
X150313371Y-66985800D01*
X150160381Y-67068520D01*
X150090682Y-67104759D01*
X150031414Y-67132926D01*
X149991311Y-67148991D01*
X149981103Y-67151226D01*
X149968829Y-67134722D01*
X149944613Y-67088082D01*
X149910263Y-67015609D01*
X149867588Y-66921606D01*
X149818394Y-66810374D01*
X149764490Y-66686215D01*
X149707684Y-66553432D01*
X149649782Y-66416327D01*
X149592593Y-66279202D01*
X149537924Y-66146358D01*
X149487584Y-66022098D01*
X149443380Y-65910725D01*
X149407119Y-65816539D01*
X149380609Y-65743844D01*
X149365658Y-65696941D01*
X149363254Y-65680833D01*
X149382311Y-65660286D01*
X149424036Y-65626933D01*
X149479706Y-65587702D01*
X149484378Y-65584599D01*
X149628264Y-65469423D01*
X149744283Y-65335053D01*
X149831430Y-65185784D01*
X149888699Y-65025913D01*
X149915086Y-64859737D01*
X149909585Y-64691552D01*
X149871190Y-64525655D01*
X149798895Y-64366342D01*
X149777626Y-64331487D01*
X149666996Y-64190737D01*
X149536302Y-64077714D01*
X149390064Y-63993003D01*
X149232808Y-63937194D01*
X149069057Y-63910874D01*
X148903333Y-63914630D01*
X148740162Y-63949050D01*
X148584065Y-64014723D01*
X148439567Y-64112235D01*
X148394869Y-64151813D01*
X148281112Y-64275703D01*
X148198218Y-64406124D01*
X148141356Y-64552315D01*
X148109687Y-64697088D01*
X148101869Y-64859860D01*
X148127938Y-65023440D01*
X148185245Y-65182298D01*
X148271144Y-65330906D01*
X148382986Y-65463735D01*
X148518123Y-65575256D01*
X148535883Y-65587011D01*
X148592150Y-65625508D01*
X148634923Y-65658863D01*
X148655372Y-65680160D01*
X148655669Y-65680833D01*
X148651279Y-65703871D01*
X148633876Y-65756157D01*
X148605268Y-65833390D01*
X148567265Y-65931268D01*
X148521674Y-66045491D01*
X148470303Y-66171758D01*
X148414962Y-66305767D01*
X148357458Y-66443218D01*
X148299601Y-66579808D01*
X148243198Y-66711237D01*
X148190058Y-66833205D01*
X148141990Y-66941409D01*
X148100801Y-67031549D01*
X148068301Y-67099323D01*
X148046297Y-67140430D01*
X148037436Y-67151226D01*
X148010360Y-67142819D01*
X147959697Y-67120272D01*
X147894183Y-67087613D01*
X147858159Y-67068520D01*
X147705168Y-66985800D01*
X147522912Y-67109075D01*
X147429875Y-67172228D01*
X147328015Y-67241727D01*
X147232562Y-67307165D01*
X147184750Y-67340117D01*
X147117505Y-67385273D01*
X147060564Y-67421057D01*
X147021354Y-67442938D01*
X147008619Y-67447563D01*
X146990083Y-67435085D01*
X146949059Y-67400252D01*
X146889525Y-67346678D01*
X146815458Y-67277983D01*
X146730835Y-67197781D01*
X146677315Y-67146286D01*
X146583681Y-67054286D01*
X146502759Y-66971999D01*
X146437823Y-66902945D01*
X146392142Y-66850644D01*
X146368989Y-66818616D01*
X146366768Y-66812116D01*
X146377076Y-66787394D01*
X146405561Y-66737405D01*
X146449063Y-66667212D01*
X146504423Y-66581875D01*
X146568480Y-66486456D01*
X146586697Y-66459854D01*
X146653073Y-66363167D01*
X146712622Y-66276117D01*
X146762016Y-66203595D01*
X146797925Y-66150493D01*
X146817019Y-66121703D01*
X146818864Y-66118726D01*
X146816105Y-66095782D01*
X146801462Y-66045336D01*
X146777487Y-65974041D01*
X146746734Y-65888547D01*
X146711756Y-65795507D01*
X146675107Y-65701574D01*
X146639339Y-65613399D01*
X146607006Y-65537634D01*
X146580662Y-65480931D01*
X146562858Y-65449943D01*
X146561593Y-65448457D01*
X146550706Y-65439601D01*
X146532318Y-65430843D01*
X146502394Y-65421277D01*
X146456897Y-65409996D01*
X146391791Y-65396093D01*
X146303039Y-65378663D01*
X146186607Y-65356798D01*
X146038458Y-65329591D01*
X146006382Y-65323741D01*
X145911314Y-65305374D01*
X145828435Y-65287405D01*
X145765070Y-65271569D01*
X145728542Y-65259600D01*
X145723644Y-65256810D01*
X145715573Y-65232072D01*
X145709013Y-65176790D01*
X145703967Y-65097389D01*
X145700441Y-65000296D01*
X145698439Y-64891938D01*
X145697964Y-64778740D01*
X145699023Y-64667128D01*
X145701618Y-64563529D01*
X145705754Y-64474368D01*
X145711437Y-64406072D01*
X145718669Y-64365066D01*
X145723029Y-64356674D01*
X145747302Y-64348208D01*
X145802574Y-64334435D01*
X145883338Y-64316550D01*
X145984088Y-64295748D01*
X146099317Y-64273223D01*
X146162098Y-64261418D01*
X146281213Y-64239151D01*
X146387435Y-64218979D01*
X146475573Y-64201915D01*
X146540434Y-64188969D01*
X146576826Y-64181155D01*
X146582816Y-64179422D01*
X146592939Y-64159890D01*
X146614338Y-64112843D01*
X146644161Y-64045003D01*
X146679555Y-63963091D01*
X146717668Y-63873828D01*
X146755647Y-63783935D01*
X146790640Y-63700135D01*
X146819794Y-63629147D01*
X146840257Y-63577694D01*
X146849177Y-63552497D01*
X146849343Y-63551396D01*
X146839231Y-63531519D01*
X146810883Y-63485777D01*
X146767277Y-63418717D01*
X146711394Y-63334884D01*
X146646213Y-63238826D01*
X146608321Y-63183650D01*
X146539275Y-63082481D01*
X146477950Y-62990630D01*
X146427337Y-62912744D01*
X146390429Y-62853469D01*
X146370218Y-62817451D01*
X146367299Y-62809377D01*
X146379847Y-62790584D01*
X146414537Y-62750457D01*
X146466937Y-62693493D01*
X146532616Y-62624185D01*
X146607144Y-62547031D01*
X146686087Y-62466525D01*
X146765017Y-62387163D01*
X146839500Y-62313440D01*
X146905106Y-62249852D01*
X146957404Y-62200894D01*
X146991961Y-62171061D01*
X147003522Y-62163942D01*
X147022346Y-62173953D01*
X147067369Y-62202078D01*
X147134213Y-62245454D01*
X147218501Y-62301218D01*
X147315856Y-62366506D01*
X147389293Y-62416246D01*
X147760333Y-62668551D01*
X148378905Y-62413555D01*
X148462725Y-61968931D01*
X148546546Y-61524307D01*
X149471994Y-61524307D01*
X149555814Y-61968931D01*
%TA.AperFunction,EtchedComponent*%
G36*
X149555814Y-61968931D02*
G01*
X149639635Y-62413555D01*
X149948920Y-62541053D01*
X150258206Y-62668551D01*
X150629246Y-62416246D01*
X150733157Y-62345996D01*
X150827087Y-62283272D01*
X150906652Y-62230938D01*
X150967470Y-62191857D01*
X151005157Y-62168893D01*
X151015421Y-62163942D01*
X151033910Y-62176676D01*
X151073420Y-62211882D01*
X151129522Y-62265062D01*
X151197787Y-62331718D01*
X151273786Y-62407354D01*
X151353092Y-62487472D01*
X151431275Y-62567574D01*
X151503907Y-62643164D01*
X151566559Y-62709745D01*
X151614803Y-62762818D01*
X151644210Y-62797887D01*
X151651241Y-62809623D01*
X151641123Y-62831260D01*
X151612759Y-62878662D01*
X151569129Y-62947193D01*
X151513218Y-63032215D01*
X151448006Y-63129093D01*
X151410219Y-63184350D01*
X151341343Y-63285248D01*
X151280140Y-63376299D01*
X151229578Y-63452970D01*
X151192628Y-63510728D01*
X151172258Y-63545043D01*
X151169197Y-63552254D01*
X151176136Y-63572748D01*
X151195051Y-63620513D01*
X151223087Y-63688832D01*
X151257391Y-63770989D01*
X151295109Y-63860270D01*
X151333387Y-63949958D01*
X151369370Y-64033338D01*
X151400206Y-64103694D01*
X151423039Y-64154310D01*
X151435017Y-64178471D01*
X151435724Y-64179422D01*
X151454531Y-64184036D01*
X151504618Y-64194328D01*
X151580793Y-64209287D01*
X151677865Y-64227901D01*
X151790643Y-64249159D01*
X151856442Y-64261418D01*
X151976950Y-64284362D01*
X152085797Y-64306195D01*
X152177476Y-64325722D01*
X152246481Y-64341748D01*
X152287304Y-64353079D01*
X152295511Y-64356674D01*
X152303548Y-64381006D01*
X152310033Y-64435959D01*
X152314970Y-64515108D01*
X152318364Y-64612026D01*
X152320218Y-64720287D01*
X152320538Y-64833465D01*
X152319327Y-64945135D01*
X152316590Y-65048868D01*
X152312331Y-65138241D01*
X152306555Y-65206826D01*
X152299267Y-65248197D01*
X152294895Y-65256810D01*
X152268764Y-65267133D01*
X152213393Y-65281892D01*
X152136107Y-65299352D01*
X152044230Y-65317780D01*
X152012158Y-65323741D01*
X151857524Y-65352066D01*
X151735375Y-65374876D01*
X151641673Y-65393080D01*
X151572384Y-65407583D01*
X151523471Y-65419292D01*
X151490897Y-65429115D01*
X151470628Y-65437956D01*
X151458626Y-65446724D01*
X151456947Y-65448457D01*
X151440184Y-65476371D01*
X151414614Y-65530695D01*
X151382788Y-65604777D01*
X151347260Y-65691965D01*
X151310583Y-65785608D01*
X151275311Y-65879052D01*
X151243996Y-65965647D01*
X151219193Y-66038740D01*
X151203454Y-66091678D01*
X151199332Y-66117811D01*
X151199676Y-66118726D01*
X151213641Y-66140086D01*
X151245322Y-66187084D01*
X151291391Y-66254827D01*
X151348518Y-66338423D01*
X151413373Y-66432982D01*
X151431843Y-66459854D01*
X151497699Y-66557275D01*
X151555650Y-66646163D01*
X151602538Y-66721412D01*
X151635207Y-66777920D01*
X151650500Y-66810581D01*
X151651241Y-66814593D01*
X151638392Y-66835684D01*
X151602888Y-66877464D01*
X151549293Y-66935445D01*
X151482171Y-67005135D01*
X151406087Y-67082045D01*
X151325604Y-67161683D01*
X151245287Y-67239561D01*
X151169699Y-67311186D01*
X151103405Y-67372070D01*
X151050969Y-67417721D01*
X151016955Y-67443650D01*
X151007545Y-67447883D01*
X150985643Y-67437912D01*
X150940800Y-67411020D01*
X150880321Y-67371736D01*
X150833789Y-67340117D01*
X150749475Y-67282098D01*
X150649626Y-67213784D01*
X150549473Y-67145579D01*
X150495627Y-67109075D01*
X150313371Y-66985800D01*
X150160381Y-67068520D01*
X150090682Y-67104759D01*
X150031414Y-67132926D01*
X149991311Y-67148991D01*
X149981103Y-67151226D01*
X149968829Y-67134722D01*
X149944613Y-67088082D01*
X149910263Y-67015609D01*
X149867588Y-66921606D01*
X149818394Y-66810374D01*
X149764490Y-66686215D01*
X149707684Y-66553432D01*
X149649782Y-66416327D01*
X149592593Y-66279202D01*
X149537924Y-66146358D01*
X149487584Y-66022098D01*
X149443380Y-65910725D01*
X149407119Y-65816539D01*
X149380609Y-65743844D01*
X149365658Y-65696941D01*
X149363254Y-65680833D01*
X149382311Y-65660286D01*
X149424036Y-65626933D01*
X149479706Y-65587702D01*
X149484378Y-65584599D01*
X149628264Y-65469423D01*
X149744283Y-65335053D01*
X149831430Y-65185784D01*
X149888699Y-65025913D01*
X149915086Y-64859737D01*
X149909585Y-64691552D01*
X149871190Y-64525655D01*
X149798895Y-64366342D01*
X149777626Y-64331487D01*
X149666996Y-64190737D01*
X149536302Y-64077714D01*
X149390064Y-63993003D01*
X149232808Y-63937194D01*
X149069057Y-63910874D01*
X148903333Y-63914630D01*
X148740162Y-63949050D01*
X148584065Y-64014723D01*
X148439567Y-64112235D01*
X148394869Y-64151813D01*
X148281112Y-64275703D01*
X148198218Y-64406124D01*
X148141356Y-64552315D01*
X148109687Y-64697088D01*
X148101869Y-64859860D01*
X148127938Y-65023440D01*
X148185245Y-65182298D01*
X148271144Y-65330906D01*
X148382986Y-65463735D01*
X148518123Y-65575256D01*
X148535883Y-65587011D01*
X148592150Y-65625508D01*
X148634923Y-65658863D01*
X148655372Y-65680160D01*
X148655669Y-65680833D01*
X148651279Y-65703871D01*
X148633876Y-65756157D01*
X148605268Y-65833390D01*
X148567265Y-65931268D01*
X148521674Y-66045491D01*
X148470303Y-66171758D01*
X148414962Y-66305767D01*
X148357458Y-66443218D01*
X148299601Y-66579808D01*
X148243198Y-66711237D01*
X148190058Y-66833205D01*
X148141990Y-66941409D01*
X148100801Y-67031549D01*
X148068301Y-67099323D01*
X148046297Y-67140430D01*
X148037436Y-67151226D01*
X148010360Y-67142819D01*
X147959697Y-67120272D01*
X147894183Y-67087613D01*
X147858159Y-67068520D01*
X147705168Y-66985800D01*
X147522912Y-67109075D01*
X147429875Y-67172228D01*
X147328015Y-67241727D01*
X147232562Y-67307165D01*
X147184750Y-67340117D01*
X147117505Y-67385273D01*
X147060564Y-67421057D01*
X147021354Y-67442938D01*
X147008619Y-67447563D01*
X146990083Y-67435085D01*
X146949059Y-67400252D01*
X146889525Y-67346678D01*
X146815458Y-67277983D01*
X146730835Y-67197781D01*
X146677315Y-67146286D01*
X146583681Y-67054286D01*
X146502759Y-66971999D01*
X146437823Y-66902945D01*
X146392142Y-66850644D01*
X146368989Y-66818616D01*
X146366768Y-66812116D01*
X146377076Y-66787394D01*
X146405561Y-66737405D01*
X146449063Y-66667212D01*
X146504423Y-66581875D01*
X146568480Y-66486456D01*
X146586697Y-66459854D01*
X146653073Y-66363167D01*
X146712622Y-66276117D01*
X146762016Y-66203595D01*
X146797925Y-66150493D01*
X146817019Y-66121703D01*
X146818864Y-66118726D01*
X146816105Y-66095782D01*
X146801462Y-66045336D01*
X146777487Y-65974041D01*
X146746734Y-65888547D01*
X146711756Y-65795507D01*
X146675107Y-65701574D01*
X146639339Y-65613399D01*
X146607006Y-65537634D01*
X146580662Y-65480931D01*
X146562858Y-65449943D01*
X146561593Y-65448457D01*
X146550706Y-65439601D01*
X146532318Y-65430843D01*
X146502394Y-65421277D01*
X146456897Y-65409996D01*
X146391791Y-65396093D01*
X146303039Y-65378663D01*
X146186607Y-65356798D01*
X146038458Y-65329591D01*
X146006382Y-65323741D01*
X145911314Y-65305374D01*
X145828435Y-65287405D01*
X145765070Y-65271569D01*
X145728542Y-65259600D01*
X145723644Y-65256810D01*
X145715573Y-65232072D01*
X145709013Y-65176790D01*
X145703967Y-65097389D01*
X145700441Y-65000296D01*
X145698439Y-64891938D01*
X145697964Y-64778740D01*
X145699023Y-64667128D01*
X145701618Y-64563529D01*
X145705754Y-64474368D01*
X145711437Y-64406072D01*
X145718669Y-64365066D01*
X145723029Y-64356674D01*
X145747302Y-64348208D01*
X145802574Y-64334435D01*
X145883338Y-64316550D01*
X145984088Y-64295748D01*
X146099317Y-64273223D01*
X146162098Y-64261418D01*
X146281213Y-64239151D01*
X146387435Y-64218979D01*
X146475573Y-64201915D01*
X146540434Y-64188969D01*
X146576826Y-64181155D01*
X146582816Y-64179422D01*
X146592939Y-64159890D01*
X146614338Y-64112843D01*
X146644161Y-64045003D01*
X146679555Y-63963091D01*
X146717668Y-63873828D01*
X146755647Y-63783935D01*
X146790640Y-63700135D01*
X146819794Y-63629147D01*
X146840257Y-63577694D01*
X146849177Y-63552497D01*
X146849343Y-63551396D01*
X146839231Y-63531519D01*
X146810883Y-63485777D01*
X146767277Y-63418717D01*
X146711394Y-63334884D01*
X146646213Y-63238826D01*
X146608321Y-63183650D01*
X146539275Y-63082481D01*
X146477950Y-62990630D01*
X146427337Y-62912744D01*
X146390429Y-62853469D01*
X146370218Y-62817451D01*
X146367299Y-62809377D01*
X146379847Y-62790584D01*
X146414537Y-62750457D01*
X146466937Y-62693493D01*
X146532616Y-62624185D01*
X146607144Y-62547031D01*
X146686087Y-62466525D01*
X146765017Y-62387163D01*
X146839500Y-62313440D01*
X146905106Y-62249852D01*
X146957404Y-62200894D01*
X146991961Y-62171061D01*
X147003522Y-62163942D01*
X147022346Y-62173953D01*
X147067369Y-62202078D01*
X147134213Y-62245454D01*
X147218501Y-62301218D01*
X147315856Y-62366506D01*
X147389293Y-62416246D01*
X147760333Y-62668551D01*
X148378905Y-62413555D01*
X148462725Y-61968931D01*
X148546546Y-61524307D01*
X149471994Y-61524307D01*
X149555814Y-61968931D01*
G37*
%TD.AperFunction*%
%TD*%
D13*
%TO.P,C2,1*%
%TO.N,GND*%
X140775000Y-86400000D03*
%TO.P,C2,2*%
%TO.N,Net-(P1-CRD)*%
X138700000Y-86400000D03*
%TD*%
D14*
%TO.P,P2,1,Pin_1*%
%TO.N,unconnected-(P2-Pin_1-Pad1)*%
X190754000Y-104750000D03*
%TO.P,P2,3,Pin_3*%
%TO.N,unconnected-(P2-Pin_3-Pad3)*%
X190754000Y-103950000D03*
%TO.P,P2,5,Pin_5*%
%TO.N,unconnected-(P2-Pin_5-Pad5)*%
X190754000Y-103150000D03*
%TO.P,P2,7,Pin_7*%
%TO.N,unconnected-(P2-Pin_7-Pad7)*%
X190754000Y-102350000D03*
%TO.P,P2,9,Pin_9*%
%TO.N,unconnected-(P2-Pin_9-Pad9)*%
X190754000Y-101550000D03*
%TO.P,P2,11,Pin_11*%
%TO.N,unconnected-(P2-Pin_11-Pad11)*%
X190754000Y-100750000D03*
%TO.P,P2,13,Pin_13*%
%TO.N,unconnected-(P2-Pin_13-Pad13)*%
X190754000Y-99950000D03*
%TO.P,P2,15,Pin_15*%
%TO.N,unconnected-(P2-Pin_15-Pad15)*%
X190754000Y-99150000D03*
%TO.P,P2,17,Pin_17*%
%TO.N,unconnected-(P2-Pin_17-Pad17)*%
X190754000Y-98350000D03*
%TO.P,P2,19,Pin_19*%
%TO.N,unconnected-(P2-Pin_19-Pad19)*%
X190754000Y-97550000D03*
%TO.P,P2,21,Pin_21*%
%TO.N,unconnected-(P2-Pin_21-Pad21)*%
X190754000Y-96750000D03*
%TO.P,P2,23,Pin_23*%
%TO.N,unconnected-(P2-Pin_23-Pad23)*%
X190754000Y-95950000D03*
%TO.P,P2,25,Pin_25*%
%TO.N,unconnected-(P2-Pin_25-Pad25)*%
X190754000Y-95150000D03*
%TO.P,P2,27,Pin_27*%
%TO.N,unconnected-(P2-Pin_27-Pad27)*%
X190754000Y-94350000D03*
%TO.P,P2,29,Pin_29*%
%TO.N,unconnected-(P2-Pin_29-Pad29)*%
X190754000Y-93550000D03*
%TO.P,P2,31,Pin_31*%
%TO.N,unconnected-(P2-Pin_31-Pad31)*%
X190754000Y-92750000D03*
%TO.P,P2,33,Pin_33*%
%TO.N,unconnected-(P2-Pin_33-Pad33)*%
X190754000Y-91950000D03*
%TO.P,P2,35,Pin_35*%
%TO.N,unconnected-(P2-Pin_35-Pad35)*%
X190754000Y-91150000D03*
%TO.P,P2,37,Pin_37*%
%TO.N,unconnected-(P2-Pin_37-Pad37)*%
X190754000Y-90350000D03*
%TO.P,P2,39,Pin_39*%
%TO.N,unconnected-(P2-Pin_39-Pad39)*%
X190754000Y-89550000D03*
%TO.P,P2,41,Pin_41*%
%TO.N,unconnected-(P2-Pin_41-Pad41)*%
X190754000Y-88750000D03*
%TO.P,P2,43,Pin_43*%
%TO.N,LED2*%
X190754000Y-87950000D03*
%TO.P,P2,45,Pin_45*%
%TO.N,unconnected-(P2-Pin_45-Pad45)*%
X190754000Y-83950000D03*
%TO.P,P2,47,Pin_47*%
%TO.N,TX+*%
X190754000Y-83150000D03*
%TO.P,P2,49,Pin_49*%
%TO.N,TX-*%
X190754000Y-82350000D03*
%TO.P,P2,51,Pin_51*%
%TO.N,GND*%
X190754000Y-81550000D03*
%TO.P,P2,53,Pin_53*%
X190754000Y-80750000D03*
%TO.P,P2,55,Pin_55*%
%TO.N,RX+*%
X190754000Y-79950000D03*
%TO.P,P2,57,Pin_57*%
%TO.N,RX-*%
X190754000Y-79150000D03*
%TO.P,P2,59,Pin_59*%
%TO.N,unconnected-(P2-Pin_59-Pad59)*%
X190754000Y-78350000D03*
%TO.P,P2,61,Pin_61*%
%TO.N,unconnected-(P2-Pin_61-Pad61)*%
X190754000Y-77550000D03*
%TO.P,P2,63,Pin_63*%
%TO.N,LED1*%
X190754000Y-76750000D03*
%TO.P,P2,65,Pin_65*%
%TO.N,unconnected-(P2-Pin_65-Pad65)*%
X190754000Y-75950000D03*
%TO.P,P2,67,Pin_67*%
%TO.N,unconnected-(P2-Pin_67-Pad67)*%
X190754000Y-75150000D03*
%TO.P,P2,69,Pin_69*%
%TO.N,unconnected-(P2-Pin_69-Pad69)*%
X190754000Y-74350000D03*
%TO.P,P2,71,Pin_71*%
%TO.N,unconnected-(P2-Pin_71-Pad71)*%
X190754000Y-73550000D03*
%TO.P,P2,73,Pin_73*%
%TO.N,unconnected-(P2-Pin_73-Pad73)*%
X190754000Y-72750000D03*
%TO.P,P2,75,Pin_75*%
%TO.N,unconnected-(P2-Pin_75-Pad75)*%
X190754000Y-71950000D03*
%TO.P,P2,77,Pin_77*%
%TO.N,unconnected-(P2-Pin_77-Pad77)*%
X190754000Y-71150000D03*
%TO.P,P2,79,Pin_79*%
%TO.N,unconnected-(P2-Pin_79-Pad79)*%
X190754000Y-70350000D03*
%TD*%
D15*
%TO.P,R1,1*%
%TO.N,+3.3V*%
X140700000Y-91200000D03*
%TO.P,R1,2*%
%TO.N,Net-(P1-AG)*%
X138700000Y-91200000D03*
%TD*%
%TO.P,R2,1*%
%TO.N,+3.3V*%
X140600000Y-82800000D03*
%TO.P,R2,2*%
%TO.N,Net-(P1-AY)*%
X138600000Y-82800000D03*
%TD*%
%TO.P,R3,1*%
%TO.N,+3.3V*%
X140737500Y-88590000D03*
%TO.P,R3,2*%
%TO.N,Net-(P1-CRD)*%
X138737500Y-88590000D03*
%TD*%
D16*
%TO.P,P1,1,TD+*%
%TO.N,TX+*%
X129900000Y-92830000D03*
%TO.P,P1,2,CTD*%
%TO.N,Net-(P1-CRD)*%
X127360000Y-91560000D03*
%TO.P,P1,3,TD-*%
%TO.N,TX-*%
X129900000Y-90290000D03*
%TO.P,P1,4,RD+*%
%TO.N,RX+*%
X127360000Y-89020000D03*
%TO.P,P1,5,CRD*%
%TO.N,Net-(P1-CRD)*%
X129900000Y-87750000D03*
%TO.P,P1,6,RD-*%
%TO.N,RX-*%
X127360000Y-86480000D03*
%TO.P,P1,7,NC*%
%TO.N,unconnected-(P1-NC-Pad7)*%
X129900000Y-85210000D03*
%TO.P,P1,8,GND*%
%TO.N,GND*%
X127360000Y-83940000D03*
D17*
%TO.P,P1,9,KG*%
%TO.N,LED1*%
X134730000Y-93850000D03*
%TO.P,P1,10,AG*%
%TO.N,Net-(P1-AG)*%
X134730000Y-91310000D03*
%TO.P,P1,11,KY*%
%TO.N,LED2*%
X134730000Y-85460000D03*
%TO.P,P1,12,AY*%
%TO.N,Net-(P1-AY)*%
X134730000Y-82920000D03*
D18*
%TO.P,P1,13,Shield*%
%TO.N,GND*%
X124060000Y-80485000D03*
%TO.P,P1,14,Shield*%
X124060000Y-96285000D03*
%TD*%
D19*
%TO.N,GND*%
X132500000Y-94500000D03*
X163500000Y-85500000D03*
X183680000Y-81280000D03*
X142500000Y-85680500D03*
X146500000Y-96000000D03*
X178000000Y-89500000D03*
X186000000Y-85000000D03*
X159500000Y-85500000D03*
X145500000Y-89000000D03*
X132500000Y-82500000D03*
X142500000Y-92500000D03*
X145500000Y-85500000D03*
X136800000Y-85700000D03*
X186000000Y-89500000D03*
X161500000Y-82500000D03*
X170500000Y-89000000D03*
X186000000Y-75000000D03*
X132400000Y-89300000D03*
X167199272Y-81245799D03*
X164000000Y-92500000D03*
X181000000Y-86500000D03*
X143000000Y-82500000D03*
X176000000Y-84500000D03*
X177500000Y-81400500D03*
X132000000Y-84500000D03*
X137000000Y-96000000D03*
X162000000Y-96000000D03*
X142000000Y-96000000D03*
X159500000Y-89000000D03*
X167500000Y-92500000D03*
X158500000Y-92500000D03*
%TO.N,LED2*%
X169000000Y-85000000D03*
%TO.N,TX+*%
X181100000Y-83900000D03*
%TO.N,TX-*%
X179500000Y-84000000D03*
%TO.N,RX+*%
X180300000Y-80300000D03*
%TO.N,RX-*%
X181400000Y-79100000D03*
%TO.N,LED1*%
X161600000Y-93000000D03*
%TO.N,+3.3V*%
X176500000Y-82500000D03*
%TD*%
D20*
%TO.N,GND*%
X183950000Y-81550000D02*
X183680000Y-81280000D01*
X183680000Y-81280000D02*
X184210000Y-80750000D01*
X190754000Y-81550000D02*
X183950000Y-81550000D01*
X184210000Y-80750000D02*
X190754000Y-80750000D01*
%TO.N,LED2*%
X190754000Y-87950000D02*
X171950000Y-87950000D01*
X171950000Y-87950000D02*
X169000000Y-85000000D01*
%TO.N,TX+*%
X181850000Y-83150000D02*
X181100000Y-83900000D01*
X190754000Y-83150000D02*
X181850000Y-83150000D01*
%TO.N,TX-*%
X181150000Y-82350000D02*
X179500000Y-84000000D01*
X190754000Y-82350000D02*
X181150000Y-82350000D01*
D21*
%TO.N,RX+*%
X182150000Y-79950000D02*
X181800000Y-80300000D01*
X181800000Y-80300000D02*
X180300000Y-80300000D01*
X190754000Y-79950000D02*
X182150000Y-79950000D01*
%TO.N,RX-*%
X181400000Y-79100000D02*
X181450000Y-79150000D01*
X181450000Y-79150000D02*
X190754000Y-79150000D01*
D20*
%TO.N,LED1*%
X170050000Y-76750000D02*
X161600000Y-85200000D01*
X190754000Y-76750000D02*
X170050000Y-76750000D01*
X161600000Y-85200000D02*
X161600000Y-93000000D01*
D21*
%TO.N,+3.3V*%
X140700000Y-91200000D02*
X140700000Y-88627500D01*
D22*
X164500000Y-98500000D02*
X165500000Y-97500000D01*
D21*
X140737500Y-88590000D02*
X141810000Y-88590000D01*
D22*
X144000000Y-96500000D02*
X146000000Y-98500000D01*
X165500000Y-97500000D02*
X165500000Y-85000000D01*
X142120000Y-88900000D02*
X144000000Y-90780000D01*
X165500000Y-85000000D02*
X168000000Y-82500000D01*
D21*
X140700000Y-88627500D02*
X140737500Y-88590000D01*
D22*
X146000000Y-98500000D02*
X164500000Y-98500000D01*
X168000000Y-82500000D02*
X176500000Y-82500000D01*
D21*
X143299500Y-87100500D02*
X143299500Y-85349336D01*
D22*
X144000000Y-90780000D02*
X144000000Y-96500000D01*
D21*
X142120000Y-88900000D02*
X141810000Y-88590000D01*
X141810000Y-88590000D02*
X143299500Y-87100500D01*
X143299500Y-85349336D02*
X140750164Y-82800000D01*
X140750164Y-82800000D02*
X140600000Y-82800000D01*
D20*
%TO.N,Net-(P1-CRD)*%
X138737500Y-86437500D02*
X138700000Y-86400000D01*
X138737500Y-88590000D02*
X138737500Y-86437500D01*
X133650000Y-87750000D02*
X129900000Y-87750000D01*
X128572000Y-90348000D02*
X127360000Y-91560000D01*
X129900000Y-87750000D02*
X128572000Y-89078000D01*
X138737500Y-88590000D02*
X134490000Y-88590000D01*
X128572000Y-89078000D02*
X128572000Y-90348000D01*
X134490000Y-88590000D02*
X133650000Y-87750000D01*
D21*
%TO.N,Net-(P1-AG)*%
X134730000Y-91310000D02*
X138590000Y-91310000D01*
X138590000Y-91310000D02*
X138700000Y-91200000D01*
%TO.N,Net-(P1-AY)*%
X134730000Y-82920000D02*
X138480000Y-82920000D01*
X138480000Y-82920000D02*
X138600000Y-82800000D01*
%TD*%
%TA.AperFunction,Conductor*%
%TO.N,GND*%
G36*
X187020621Y-59702502D02*
G01*
X187067114Y-59756158D01*
X187078500Y-59808499D01*
X187078500Y-69397038D01*
X187078500Y-69397039D01*
X187078500Y-69540961D01*
X187086149Y-69567012D01*
X187089969Y-69584574D01*
X187093834Y-69611454D01*
X187105115Y-69636156D01*
X187111397Y-69652999D01*
X187119047Y-69679053D01*
X187133727Y-69701896D01*
X187142340Y-69717669D01*
X187153622Y-69742372D01*
X187171403Y-69762892D01*
X187182176Y-69777283D01*
X187196857Y-69800128D01*
X187217378Y-69817910D01*
X187230088Y-69830620D01*
X187247871Y-69851143D01*
X187270715Y-69865823D01*
X187285108Y-69876597D01*
X187305627Y-69894377D01*
X187330333Y-69905660D01*
X187346091Y-69914264D01*
X187368947Y-69928953D01*
X187395005Y-69936604D01*
X187411842Y-69942884D01*
X187436543Y-69954165D01*
X187463435Y-69958031D01*
X187480969Y-69961845D01*
X187488495Y-69964055D01*
X187548220Y-70002434D01*
X187577717Y-70067013D01*
X187579000Y-70084951D01*
X187579000Y-75865500D01*
X187558998Y-75933621D01*
X187505342Y-75980114D01*
X187453000Y-75991500D01*
X170114442Y-75991500D01*
X170096182Y-75990170D01*
X170072212Y-75986659D01*
X170072211Y-75986659D01*
X170046075Y-75988945D01*
X170022353Y-75991021D01*
X170011372Y-75991500D01*
X170005820Y-75991500D01*
X170002182Y-75991925D01*
X170002167Y-75991926D01*
X169974711Y-75995135D01*
X169971070Y-75995507D01*
X169894260Y-76002227D01*
X169875123Y-76006470D01*
X169802634Y-76032853D01*
X169799176Y-76034055D01*
X169726000Y-76058303D01*
X169708372Y-76066838D01*
X169643918Y-76109229D01*
X169640831Y-76111196D01*
X169575218Y-76151667D01*
X169560032Y-76164038D01*
X169507087Y-76220156D01*
X169504534Y-76222783D01*
X161109225Y-84618092D01*
X161095377Y-84630061D01*
X161075944Y-84644529D01*
X161075942Y-84644530D01*
X161075942Y-84644531D01*
X161055323Y-84669103D01*
X161043773Y-84682868D01*
X161036360Y-84690958D01*
X161035017Y-84692301D01*
X161035011Y-84692307D01*
X161032420Y-84694899D01*
X161030149Y-84697770D01*
X161030140Y-84697781D01*
X161012997Y-84719460D01*
X161010688Y-84722294D01*
X160961119Y-84781369D01*
X160950589Y-84797899D01*
X160917995Y-84867794D01*
X160916401Y-84871087D01*
X160881795Y-84939997D01*
X160875363Y-84958500D01*
X160859759Y-85034064D01*
X160858967Y-85037637D01*
X160841192Y-85112640D01*
X160839202Y-85132115D01*
X160841447Y-85209258D01*
X160841500Y-85212922D01*
X160841500Y-92462999D01*
X160824619Y-92525999D01*
X160765472Y-92628443D01*
X160706458Y-92810070D01*
X160686496Y-93000000D01*
X160706458Y-93189929D01*
X160765472Y-93371556D01*
X160860958Y-93536942D01*
X160939662Y-93624352D01*
X160988747Y-93678866D01*
X161143248Y-93791118D01*
X161317712Y-93868794D01*
X161504513Y-93908500D01*
X161504515Y-93908500D01*
X161695485Y-93908500D01*
X161695487Y-93908500D01*
X161882288Y-93868794D01*
X162056752Y-93791118D01*
X162211253Y-93678866D01*
X162339040Y-93536944D01*
X162434527Y-93371556D01*
X162493542Y-93189928D01*
X162513504Y-93000000D01*
X162493542Y-92810072D01*
X162458216Y-92701350D01*
X162434527Y-92628443D01*
X162375381Y-92525999D01*
X162358500Y-92462999D01*
X162358500Y-85566371D01*
X162378502Y-85498250D01*
X162395405Y-85477276D01*
X170327276Y-77545405D01*
X170389588Y-77511379D01*
X170416371Y-77508500D01*
X187453000Y-77508500D01*
X187521121Y-77528502D01*
X187567614Y-77582158D01*
X187579000Y-77634500D01*
X187579000Y-78315500D01*
X187558998Y-78383621D01*
X187505342Y-78430114D01*
X187453000Y-78441500D01*
X182080223Y-78441500D01*
X182012102Y-78421498D01*
X182006181Y-78417449D01*
X181856752Y-78308882D01*
X181682288Y-78231206D01*
X181495487Y-78191500D01*
X181304513Y-78191500D01*
X181179979Y-78217970D01*
X181117711Y-78231206D01*
X180943246Y-78308883D01*
X180788747Y-78421133D01*
X180660958Y-78563057D01*
X180565472Y-78728443D01*
X180506458Y-78910070D01*
X180490717Y-79059835D01*
X180486496Y-79100000D01*
X180502506Y-79252331D01*
X180489735Y-79322168D01*
X180441233Y-79374014D01*
X180377197Y-79391500D01*
X180204513Y-79391500D01*
X180079978Y-79417970D01*
X180017711Y-79431206D01*
X179843246Y-79508883D01*
X179688747Y-79621133D01*
X179560958Y-79763057D01*
X179465472Y-79928443D01*
X179406458Y-80110070D01*
X179386496Y-80300000D01*
X179406458Y-80489929D01*
X179465472Y-80671556D01*
X179560958Y-80836942D01*
X179631202Y-80914956D01*
X179688747Y-80978866D01*
X179843248Y-81091118D01*
X180017712Y-81168794D01*
X180204513Y-81208500D01*
X180204515Y-81208500D01*
X180395485Y-81208500D01*
X180395487Y-81208500D01*
X180582288Y-81168794D01*
X180756752Y-81091118D01*
X180837344Y-81032563D01*
X180904212Y-81008706D01*
X180911405Y-81008500D01*
X181774782Y-81008500D01*
X181782390Y-81008730D01*
X181843091Y-81012402D01*
X181843091Y-81012401D01*
X181843093Y-81012402D01*
X181902941Y-81001434D01*
X181910398Y-81000299D01*
X181970801Y-80992965D01*
X181980328Y-80989351D01*
X182002294Y-80983227D01*
X182012329Y-80981389D01*
X182067797Y-80956423D01*
X182074802Y-80953522D01*
X182131675Y-80931954D01*
X182140069Y-80926159D01*
X182159926Y-80914960D01*
X182169226Y-80910775D01*
X182217140Y-80873235D01*
X182223179Y-80868791D01*
X182273273Y-80834215D01*
X182313603Y-80788690D01*
X182318822Y-80783147D01*
X182406567Y-80695404D01*
X182468879Y-80661379D01*
X182495661Y-80658500D01*
X187453000Y-80658500D01*
X187521121Y-80678502D01*
X187567614Y-80732158D01*
X187579000Y-80784500D01*
X187579000Y-81465500D01*
X187558998Y-81533621D01*
X187505342Y-81580114D01*
X187453000Y-81591500D01*
X181214441Y-81591500D01*
X181196180Y-81590170D01*
X181172211Y-81586659D01*
X181122353Y-81591021D01*
X181111372Y-81591500D01*
X181105820Y-81591500D01*
X181102185Y-81591924D01*
X181102165Y-81591926D01*
X181074709Y-81595135D01*
X181071068Y-81595507D01*
X180994251Y-81602228D01*
X180975139Y-81606465D01*
X180902653Y-81632846D01*
X180899198Y-81634047D01*
X180825995Y-81658305D01*
X180808373Y-81666837D01*
X180743927Y-81709224D01*
X180740838Y-81711192D01*
X180675218Y-81751667D01*
X180660036Y-81764034D01*
X180607087Y-81820156D01*
X180604534Y-81822783D01*
X179343667Y-83083650D01*
X179281355Y-83117676D01*
X179280771Y-83117801D01*
X179217714Y-83131205D01*
X179043246Y-83208883D01*
X178888747Y-83321133D01*
X178760958Y-83463057D01*
X178665472Y-83628443D01*
X178606458Y-83810070D01*
X178586496Y-83999999D01*
X178606458Y-84189929D01*
X178665472Y-84371556D01*
X178760958Y-84536942D01*
X178846433Y-84631872D01*
X178888747Y-84678866D01*
X179043248Y-84791118D01*
X179217712Y-84868794D01*
X179404513Y-84908500D01*
X179404515Y-84908500D01*
X179595485Y-84908500D01*
X179595487Y-84908500D01*
X179782288Y-84868794D01*
X179956752Y-84791118D01*
X180111253Y-84678866D01*
X180231336Y-84545500D01*
X180247902Y-84527102D01*
X180250291Y-84529253D01*
X180286511Y-84494712D01*
X180356224Y-84481268D01*
X180422137Y-84507649D01*
X180437889Y-84522382D01*
X180488747Y-84578866D01*
X180643248Y-84691118D01*
X180817712Y-84768794D01*
X181004513Y-84808500D01*
X181004515Y-84808500D01*
X181195485Y-84808500D01*
X181195487Y-84808500D01*
X181382288Y-84768794D01*
X181556752Y-84691118D01*
X181711253Y-84578866D01*
X181839040Y-84436944D01*
X181934527Y-84271556D01*
X181989388Y-84102712D01*
X182020123Y-84052556D01*
X182127276Y-83945404D01*
X182189590Y-83911379D01*
X182216372Y-83908500D01*
X187453000Y-83908500D01*
X187521121Y-83928502D01*
X187567614Y-83982158D01*
X187579000Y-84034500D01*
X187579000Y-84347047D01*
X187558998Y-84415168D01*
X187505342Y-84461661D01*
X187488490Y-84467945D01*
X187480982Y-84470149D01*
X187463429Y-84473968D01*
X187436541Y-84477834D01*
X187411842Y-84489114D01*
X187395007Y-84495393D01*
X187368947Y-84503046D01*
X187346093Y-84517732D01*
X187330327Y-84526341D01*
X187305625Y-84537623D01*
X187285103Y-84555405D01*
X187270717Y-84566174D01*
X187247871Y-84580856D01*
X187230083Y-84601383D01*
X187217383Y-84614083D01*
X187196856Y-84631871D01*
X187182174Y-84654717D01*
X187171405Y-84669103D01*
X187153623Y-84689625D01*
X187142341Y-84714327D01*
X187133732Y-84730093D01*
X187119046Y-84752947D01*
X187111393Y-84779007D01*
X187105114Y-84795842D01*
X187093834Y-84820541D01*
X187089968Y-84847429D01*
X187086149Y-84864985D01*
X187078500Y-84891039D01*
X187078500Y-87065500D01*
X187058498Y-87133621D01*
X187004842Y-87180114D01*
X186952500Y-87191500D01*
X172316371Y-87191500D01*
X172248250Y-87171498D01*
X172227276Y-87154595D01*
X169920126Y-84847445D01*
X169889388Y-84797286D01*
X169834527Y-84628444D01*
X169739041Y-84463057D01*
X169611252Y-84321133D01*
X169497307Y-84238347D01*
X169456752Y-84208882D01*
X169282288Y-84131206D01*
X169095487Y-84091500D01*
X168904513Y-84091500D01*
X168779979Y-84117970D01*
X168717711Y-84131206D01*
X168543246Y-84208883D01*
X168388747Y-84321133D01*
X168260958Y-84463057D01*
X168165472Y-84628443D01*
X168106458Y-84810070D01*
X168086496Y-84999999D01*
X168106458Y-85189929D01*
X168165472Y-85371556D01*
X168260958Y-85536942D01*
X168319966Y-85602477D01*
X168388747Y-85678866D01*
X168543248Y-85791118D01*
X168717712Y-85868794D01*
X168780771Y-85882197D01*
X168843244Y-85915926D01*
X168843668Y-85916349D01*
X171368092Y-88440773D01*
X171380060Y-88454620D01*
X171389248Y-88466962D01*
X171394531Y-88474058D01*
X171432870Y-88506228D01*
X171440974Y-88513655D01*
X171444899Y-88517580D01*
X171466931Y-88535001D01*
X171469453Y-88536995D01*
X171472292Y-88539308D01*
X171531382Y-88588890D01*
X171547889Y-88599406D01*
X171617806Y-88632008D01*
X171621043Y-88633574D01*
X171688812Y-88667609D01*
X171688814Y-88667609D01*
X171690014Y-88668212D01*
X171708488Y-88674633D01*
X171709792Y-88674902D01*
X171709794Y-88674903D01*
X171784078Y-88690241D01*
X171787630Y-88691029D01*
X171861344Y-88708500D01*
X171861346Y-88708500D01*
X171862641Y-88708807D01*
X171882114Y-88710797D01*
X171883439Y-88710758D01*
X171883442Y-88710759D01*
X171957477Y-88708604D01*
X171959259Y-88708553D01*
X171962923Y-88708500D01*
X187453000Y-88708500D01*
X187521121Y-88728502D01*
X187567614Y-88782158D01*
X187579000Y-88834500D01*
X187579000Y-105175047D01*
X187558998Y-105243168D01*
X187505342Y-105289661D01*
X187488490Y-105295945D01*
X187480982Y-105298149D01*
X187463429Y-105301968D01*
X187436541Y-105305834D01*
X187411842Y-105317114D01*
X187395007Y-105323393D01*
X187368947Y-105331046D01*
X187346093Y-105345732D01*
X187330327Y-105354341D01*
X187305625Y-105365623D01*
X187285103Y-105383405D01*
X187270717Y-105394174D01*
X187247871Y-105408856D01*
X187230083Y-105429383D01*
X187217383Y-105442083D01*
X187196856Y-105459871D01*
X187182174Y-105482717D01*
X187171405Y-105497103D01*
X187153623Y-105517625D01*
X187142341Y-105542327D01*
X187133732Y-105558093D01*
X187119046Y-105580947D01*
X187111393Y-105607007D01*
X187105114Y-105623842D01*
X187093834Y-105648541D01*
X187089968Y-105675429D01*
X187086149Y-105692985D01*
X187078500Y-105719039D01*
X187078500Y-116975500D01*
X187058498Y-117043621D01*
X187004842Y-117090114D01*
X186952500Y-117101500D01*
X164326772Y-117101500D01*
X164258651Y-117081498D01*
X164212158Y-117027842D01*
X164200772Y-116975500D01*
X164200772Y-110209766D01*
X168145787Y-110209766D01*
X168175413Y-110479015D01*
X168175414Y-110479018D01*
X168243928Y-110741088D01*
X168349870Y-110990390D01*
X168490982Y-111221610D01*
X168664255Y-111429820D01*
X168664256Y-111429821D01*
X168664258Y-111429823D01*
X168865993Y-111610578D01*
X168865995Y-111610579D01*
X168865998Y-111610582D01*
X169091910Y-111760044D01*
X169224104Y-111822014D01*
X169337171Y-111875018D01*
X169337173Y-111875018D01*
X169337176Y-111875020D01*
X169596569Y-111953060D01*
X169596572Y-111953060D01*
X169596574Y-111953061D01*
X169864558Y-111992500D01*
X169864561Y-111992500D01*
X170065330Y-111992500D01*
X170067631Y-111992500D01*
X170270156Y-111977677D01*
X170534553Y-111918780D01*
X170787558Y-111822014D01*
X171023777Y-111689441D01*
X171238177Y-111523888D01*
X171426186Y-111328881D01*
X171583799Y-111108579D01*
X171707656Y-110867675D01*
X171795118Y-110611305D01*
X171844319Y-110344933D01*
X171854212Y-110074235D01*
X171824586Y-109804982D01*
X171756072Y-109542912D01*
X171650130Y-109293610D01*
X171509018Y-109062390D01*
X171335745Y-108854180D01*
X171230759Y-108760112D01*
X171134006Y-108673421D01*
X171134003Y-108673419D01*
X171134002Y-108673418D01*
X170908090Y-108523956D01*
X170908086Y-108523954D01*
X170662828Y-108408981D01*
X170403425Y-108330938D01*
X170135442Y-108291500D01*
X170135439Y-108291500D01*
X169932369Y-108291500D01*
X169930099Y-108291666D01*
X169930075Y-108291667D01*
X169729839Y-108306323D01*
X169465449Y-108365219D01*
X169212441Y-108461985D01*
X168976225Y-108594557D01*
X168761820Y-108760114D01*
X168573815Y-108955117D01*
X168416200Y-109175422D01*
X168292342Y-109416328D01*
X168204882Y-109672693D01*
X168155681Y-109939065D01*
X168145787Y-110209766D01*
X164200772Y-110209766D01*
X164200772Y-108639116D01*
X138019489Y-108639116D01*
X138019489Y-116975500D01*
X137999487Y-117043621D01*
X137945831Y-117090114D01*
X137893489Y-117101500D01*
X112894500Y-117101500D01*
X112826379Y-117081498D01*
X112779886Y-117027842D01*
X112768500Y-116975500D01*
X112768500Y-110209766D01*
X125645787Y-110209766D01*
X125675413Y-110479015D01*
X125675414Y-110479018D01*
X125743928Y-110741088D01*
X125849870Y-110990390D01*
X125990982Y-111221610D01*
X126164255Y-111429820D01*
X126164256Y-111429821D01*
X126164258Y-111429823D01*
X126365993Y-111610578D01*
X126365995Y-111610579D01*
X126365998Y-111610582D01*
X126591910Y-111760044D01*
X126724104Y-111822014D01*
X126837171Y-111875018D01*
X126837173Y-111875018D01*
X126837176Y-111875020D01*
X127096569Y-111953060D01*
X127096572Y-111953060D01*
X127096574Y-111953061D01*
X127364558Y-111992500D01*
X127364561Y-111992500D01*
X127565330Y-111992500D01*
X127567631Y-111992500D01*
X127770156Y-111977677D01*
X128034553Y-111918780D01*
X128287558Y-111822014D01*
X128523777Y-111689441D01*
X128738177Y-111523888D01*
X128926186Y-111328881D01*
X129083799Y-111108579D01*
X129207656Y-110867675D01*
X129295118Y-110611305D01*
X129344319Y-110344933D01*
X129354212Y-110074235D01*
X129324586Y-109804982D01*
X129256072Y-109542912D01*
X129150130Y-109293610D01*
X129009018Y-109062390D01*
X128835745Y-108854180D01*
X128730759Y-108760112D01*
X128634006Y-108673421D01*
X128634003Y-108673419D01*
X128634002Y-108673418D01*
X128408090Y-108523956D01*
X128408086Y-108523954D01*
X128162828Y-108408981D01*
X127903425Y-108330938D01*
X127635442Y-108291500D01*
X127635439Y-108291500D01*
X127432369Y-108291500D01*
X127430099Y-108291666D01*
X127430075Y-108291667D01*
X127229839Y-108306323D01*
X126965449Y-108365219D01*
X126712441Y-108461985D01*
X126476225Y-108594557D01*
X126261820Y-108760114D01*
X126073815Y-108955117D01*
X125916200Y-109175422D01*
X125792342Y-109416328D01*
X125704882Y-109672693D01*
X125655681Y-109939065D01*
X125645787Y-110209766D01*
X112768500Y-110209766D01*
X112768500Y-94168681D01*
X119130737Y-94168681D01*
X119160763Y-94441568D01*
X119188253Y-94546718D01*
X119230204Y-94707182D01*
X119337577Y-94959852D01*
X119480595Y-95194196D01*
X119656209Y-95405218D01*
X119860677Y-95588423D01*
X120089641Y-95739904D01*
X120338221Y-95856433D01*
X120601119Y-95935527D01*
X120601122Y-95935527D01*
X120601124Y-95935528D01*
X120872729Y-95975500D01*
X120872731Y-95975500D01*
X121076246Y-95975500D01*
X121078547Y-95975500D01*
X121283805Y-95960477D01*
X121551775Y-95900784D01*
X121808198Y-95802711D01*
X122047609Y-95668347D01*
X122047608Y-95668347D01*
X122047611Y-95668346D01*
X122180862Y-95565452D01*
X122247003Y-95539649D01*
X122316595Y-95553702D01*
X122367542Y-95603148D01*
X122383669Y-95672289D01*
X122375161Y-95711212D01*
X122356226Y-95759457D01*
X122296928Y-96019258D01*
X122277014Y-96285000D01*
X122296928Y-96550741D01*
X122356227Y-96810545D01*
X122453585Y-97058610D01*
X122586828Y-97289393D01*
X122635439Y-97350348D01*
X122635440Y-97350349D01*
X123341155Y-96644633D01*
X123430577Y-96786948D01*
X123558052Y-96914423D01*
X123700364Y-97003843D01*
X122994044Y-97710163D01*
X122994044Y-97710165D01*
X123168506Y-97829110D01*
X123408601Y-97944735D01*
X123663245Y-98023281D01*
X123926759Y-98063000D01*
X124193241Y-98063000D01*
X124456754Y-98023281D01*
X124711398Y-97944735D01*
X124951493Y-97829110D01*
X125125954Y-97710165D01*
X125125954Y-97710163D01*
X124419634Y-97003843D01*
X124561948Y-96914423D01*
X124689423Y-96786948D01*
X124778843Y-96644634D01*
X125484558Y-97350349D01*
X125484559Y-97350348D01*
X125533171Y-97289394D01*
X125666414Y-97058610D01*
X125763772Y-96810545D01*
X125823071Y-96550741D01*
X125842985Y-96284999D01*
X125823071Y-96019258D01*
X125763772Y-95759454D01*
X125666414Y-95511389D01*
X125533171Y-95280606D01*
X125484559Y-95219650D01*
X125484558Y-95219649D01*
X124778843Y-95925364D01*
X124689423Y-95783052D01*
X124561948Y-95655577D01*
X124419633Y-95566155D01*
X125125954Y-94859835D01*
X125125954Y-94859833D01*
X124951495Y-94740890D01*
X124711395Y-94625263D01*
X124456754Y-94546718D01*
X124193241Y-94507000D01*
X123926759Y-94507000D01*
X123663245Y-94546718D01*
X123408601Y-94625264D01*
X123168506Y-94740889D01*
X122965374Y-94879381D01*
X122897822Y-94901228D01*
X122829183Y-94883086D01*
X122781248Y-94830715D01*
X122769237Y-94760741D01*
X122775145Y-94734592D01*
X122786073Y-94702559D01*
X122829370Y-94575646D01*
X122879236Y-94305674D01*
X122889262Y-94031320D01*
X122859236Y-93758429D01*
X122789796Y-93492818D01*
X122682423Y-93240148D01*
X122539405Y-93005804D01*
X122363791Y-92794782D01*
X122159323Y-92611577D01*
X121930359Y-92460096D01*
X121681779Y-92343567D01*
X121623515Y-92326038D01*
X121418875Y-92264471D01*
X121147271Y-92224500D01*
X121147269Y-92224500D01*
X120941453Y-92224500D01*
X120939183Y-92224666D01*
X120939159Y-92224667D01*
X120736191Y-92239523D01*
X120468226Y-92299215D01*
X120211801Y-92397288D01*
X119972388Y-92531653D01*
X119755097Y-92699441D01*
X119564547Y-92897082D01*
X119404803Y-93120364D01*
X119279271Y-93364524D01*
X119190630Y-93624352D01*
X119140764Y-93894325D01*
X119130737Y-94168681D01*
X112768500Y-94168681D01*
X112768500Y-91560000D01*
X126084647Y-91560000D01*
X126104022Y-91781467D01*
X126155274Y-91972738D01*
X126161560Y-91996196D01*
X126181288Y-92038502D01*
X126255512Y-92197678D01*
X126383025Y-92379784D01*
X126540215Y-92536974D01*
X126722321Y-92664487D01*
X126722322Y-92664487D01*
X126722323Y-92664488D01*
X126923804Y-92758440D01*
X127059418Y-92794778D01*
X127138532Y-92815977D01*
X127138533Y-92815977D01*
X127138537Y-92815978D01*
X127360000Y-92835353D01*
X127581463Y-92815978D01*
X127796196Y-92758440D01*
X127997677Y-92664488D01*
X128179781Y-92536977D01*
X128336977Y-92379781D01*
X128464488Y-92197677D01*
X128558440Y-91996196D01*
X128615978Y-91781463D01*
X128635353Y-91560000D01*
X128624168Y-91432158D01*
X128638157Y-91362557D01*
X128660591Y-91332088D01*
X128813867Y-91178812D01*
X128876177Y-91144788D01*
X128946992Y-91149853D01*
X128992055Y-91178814D01*
X129080215Y-91266974D01*
X129262321Y-91394487D01*
X129262322Y-91394487D01*
X129262323Y-91394488D01*
X129372375Y-91445806D01*
X129425659Y-91492722D01*
X129445120Y-91560999D01*
X129424578Y-91628959D01*
X129372374Y-91674194D01*
X129342991Y-91687895D01*
X129262322Y-91725512D01*
X129080215Y-91853025D01*
X128923025Y-92010215D01*
X128795512Y-92192322D01*
X128701559Y-92393807D01*
X128644022Y-92608532D01*
X128624647Y-92830000D01*
X128644022Y-93051467D01*
X128680292Y-93186823D01*
X128701560Y-93266196D01*
X128747410Y-93364521D01*
X128795512Y-93467678D01*
X128923025Y-93649784D01*
X129080215Y-93806974D01*
X129262321Y-93934487D01*
X129262322Y-93934487D01*
X129262323Y-93934488D01*
X129463804Y-94028440D01*
X129614739Y-94068883D01*
X129678532Y-94085977D01*
X129678533Y-94085977D01*
X129678537Y-94085978D01*
X129900000Y-94105353D01*
X130121463Y-94085978D01*
X130336196Y-94028440D01*
X130537677Y-93934488D01*
X130719781Y-93806977D01*
X130876977Y-93649781D01*
X131004488Y-93467677D01*
X131098440Y-93266196D01*
X131155978Y-93051463D01*
X131175353Y-92830000D01*
X131155978Y-92608537D01*
X131154666Y-92603642D01*
X131126027Y-92496761D01*
X131098440Y-92393804D01*
X131004488Y-92192324D01*
X130983648Y-92162562D01*
X130876974Y-92010215D01*
X130719784Y-91853025D01*
X130537677Y-91725512D01*
X130427626Y-91674194D01*
X130374341Y-91627276D01*
X130354880Y-91558999D01*
X130375422Y-91491039D01*
X130427624Y-91445806D01*
X130537677Y-91394488D01*
X130719781Y-91266977D01*
X130876977Y-91109781D01*
X131004488Y-90927677D01*
X131098440Y-90726196D01*
X131155978Y-90511463D01*
X131175353Y-90290000D01*
X131155978Y-90068537D01*
X131154666Y-90063642D01*
X131104160Y-89875152D01*
X131098440Y-89853804D01*
X131004488Y-89652324D01*
X130995179Y-89639030D01*
X130876974Y-89470215D01*
X130719784Y-89313025D01*
X130537678Y-89185512D01*
X130482649Y-89159852D01*
X130427624Y-89134193D01*
X130374341Y-89087278D01*
X130354880Y-89019001D01*
X130375422Y-88951041D01*
X130427624Y-88905806D01*
X130537677Y-88854488D01*
X130719781Y-88726977D01*
X130876977Y-88569781D01*
X130882265Y-88562228D01*
X130937723Y-88517901D01*
X130985478Y-88508500D01*
X133283629Y-88508500D01*
X133351750Y-88528502D01*
X133372724Y-88545405D01*
X133908092Y-89080773D01*
X133920060Y-89094620D01*
X133934531Y-89114058D01*
X133958529Y-89134195D01*
X133972870Y-89146228D01*
X133980974Y-89153655D01*
X133984899Y-89157580D01*
X134009453Y-89176995D01*
X134012292Y-89179308D01*
X134071378Y-89228886D01*
X134087887Y-89239403D01*
X134089090Y-89239964D01*
X134089094Y-89239967D01*
X134157867Y-89272035D01*
X134161036Y-89273570D01*
X134228812Y-89307609D01*
X134230001Y-89308206D01*
X134248493Y-89314633D01*
X134249790Y-89314900D01*
X134249793Y-89314902D01*
X134324066Y-89330237D01*
X134327530Y-89331004D01*
X134401344Y-89348500D01*
X134401347Y-89348500D01*
X134402642Y-89348807D01*
X134422111Y-89350796D01*
X134423438Y-89350757D01*
X134423442Y-89350758D01*
X134497697Y-89348597D01*
X134499224Y-89348553D01*
X134502888Y-89348500D01*
X137616280Y-89348500D01*
X137684401Y-89368502D01*
X137723520Y-89408352D01*
X137753028Y-89456192D01*
X137788472Y-89513655D01*
X137913844Y-89639027D01*
X137913846Y-89639028D01*
X137913848Y-89639030D01*
X138064762Y-89732115D01*
X138176628Y-89769183D01*
X138234998Y-89809596D01*
X138262254Y-89875152D01*
X138249741Y-89945038D01*
X138201431Y-89997064D01*
X138176628Y-90008390D01*
X138094002Y-90035770D01*
X138027262Y-90057885D01*
X137876344Y-90150972D01*
X137750972Y-90276344D01*
X137679514Y-90392196D01*
X137657885Y-90427262D01*
X137628767Y-90515133D01*
X137588355Y-90573504D01*
X137522799Y-90600760D01*
X137509164Y-90601500D01*
X135912504Y-90601500D01*
X135844383Y-90581498D01*
X135809291Y-90547771D01*
X135746038Y-90457437D01*
X135582562Y-90293961D01*
X135393173Y-90161349D01*
X135183635Y-90063641D01*
X134960322Y-90003803D01*
X134730000Y-89983653D01*
X134499677Y-90003803D01*
X134276366Y-90063641D01*
X134276365Y-90063641D01*
X134276363Y-90063642D01*
X134089087Y-90150970D01*
X134066823Y-90161352D01*
X133877439Y-90293959D01*
X133713959Y-90457439D01*
X133581352Y-90646823D01*
X133581350Y-90646826D01*
X133581350Y-90646827D01*
X133493262Y-90835734D01*
X133483641Y-90856366D01*
X133423803Y-91079677D01*
X133403653Y-91309999D01*
X133423803Y-91540322D01*
X133483641Y-91763635D01*
X133581349Y-91973173D01*
X133713961Y-92162562D01*
X133877437Y-92326038D01*
X133877440Y-92326040D01*
X133877441Y-92326041D01*
X134066826Y-92458650D01*
X134082170Y-92465805D01*
X134135455Y-92512721D01*
X134154917Y-92580998D01*
X134134376Y-92648958D01*
X134082173Y-92694194D01*
X134066825Y-92701351D01*
X133877439Y-92833959D01*
X133713959Y-92997439D01*
X133581352Y-93186823D01*
X133483641Y-93396366D01*
X133423803Y-93619677D01*
X133403653Y-93850000D01*
X133423803Y-94080322D01*
X133483641Y-94303635D01*
X133581349Y-94513173D01*
X133713961Y-94702562D01*
X133877437Y-94866038D01*
X133877440Y-94866040D01*
X133877441Y-94866041D01*
X134066826Y-94998650D01*
X134276363Y-95096358D01*
X134374826Y-95122741D01*
X134499677Y-95156196D01*
X134499678Y-95156196D01*
X134499682Y-95156197D01*
X134730000Y-95176347D01*
X134960318Y-95156197D01*
X135183637Y-95096358D01*
X135393174Y-94998650D01*
X135582559Y-94866041D01*
X135746041Y-94702559D01*
X135878650Y-94513174D01*
X135976358Y-94303637D01*
X136036197Y-94080318D01*
X136056347Y-93850000D01*
X136036197Y-93619682D01*
X135976358Y-93396363D01*
X135878650Y-93186827D01*
X135783870Y-93051467D01*
X135746040Y-92997439D01*
X135582562Y-92833961D01*
X135393173Y-92701349D01*
X135377830Y-92694195D01*
X135324545Y-92647279D01*
X135305083Y-92579002D01*
X135325624Y-92511042D01*
X135377830Y-92465805D01*
X135383847Y-92462999D01*
X135393174Y-92458650D01*
X135582559Y-92326041D01*
X135746041Y-92162559D01*
X135790605Y-92098913D01*
X135809291Y-92072229D01*
X135864748Y-92027901D01*
X135912504Y-92018500D01*
X137615788Y-92018500D01*
X137683909Y-92038502D01*
X137723028Y-92078352D01*
X137750971Y-92123654D01*
X137876344Y-92249027D01*
X137876346Y-92249028D01*
X137876348Y-92249030D01*
X138027262Y-92342115D01*
X138195574Y-92397887D01*
X138271637Y-92405658D01*
X138296253Y-92408173D01*
X138296255Y-92408173D01*
X138299455Y-92408500D01*
X139100544Y-92408499D01*
X139204426Y-92397887D01*
X139372738Y-92342115D01*
X139523652Y-92249030D01*
X139610906Y-92161775D01*
X139673216Y-92127752D01*
X139744032Y-92132816D01*
X139789093Y-92161775D01*
X139876348Y-92249030D01*
X140027262Y-92342115D01*
X140195574Y-92397887D01*
X140271637Y-92405658D01*
X140296253Y-92408173D01*
X140296255Y-92408173D01*
X140299455Y-92408500D01*
X141100544Y-92408499D01*
X141204426Y-92397887D01*
X141372738Y-92342115D01*
X141523652Y-92249030D01*
X141649030Y-92123652D01*
X141742115Y-91972738D01*
X141797887Y-91804426D01*
X141808500Y-91700545D01*
X141808499Y-90699456D01*
X141797887Y-90595574D01*
X141742115Y-90427262D01*
X141649030Y-90276348D01*
X141649028Y-90276346D01*
X141649027Y-90276344D01*
X141523652Y-90150969D01*
X141468353Y-90116860D01*
X141420875Y-90064074D01*
X141408500Y-90009620D01*
X141408500Y-89918924D01*
X141428502Y-89850803D01*
X141482158Y-89804310D01*
X141552432Y-89794206D01*
X141617012Y-89823700D01*
X141623595Y-89829829D01*
X142954595Y-91160829D01*
X142988621Y-91223141D01*
X142991500Y-91249924D01*
X142991500Y-96444262D01*
X142990893Y-96456613D01*
X142986619Y-96500001D01*
X143006090Y-96697700D01*
X143032098Y-96783432D01*
X143063758Y-96887802D01*
X143157404Y-97063004D01*
X143283433Y-97216569D01*
X143317135Y-97244227D01*
X143326298Y-97252532D01*
X145247461Y-99173695D01*
X145255766Y-99182857D01*
X145283434Y-99216571D01*
X145436992Y-99342593D01*
X145436996Y-99342595D01*
X145612196Y-99436241D01*
X145707247Y-99465074D01*
X145802298Y-99493908D01*
X145999998Y-99513380D01*
X145999999Y-99513379D01*
X146000000Y-99513380D01*
X146043384Y-99509106D01*
X146055735Y-99508500D01*
X164444263Y-99508500D01*
X164456612Y-99509106D01*
X164500000Y-99513380D01*
X164500000Y-99513379D01*
X164500001Y-99513380D01*
X164697701Y-99493909D01*
X164902440Y-99431801D01*
X164912754Y-99422904D01*
X165063004Y-99342595D01*
X165216568Y-99216568D01*
X165244235Y-99182854D01*
X165252519Y-99173713D01*
X166173719Y-98252514D01*
X166182849Y-98244239D01*
X166216568Y-98216568D01*
X166342595Y-98063004D01*
X166409947Y-97936997D01*
X166436242Y-97887803D01*
X166493909Y-97697700D01*
X166513380Y-97500000D01*
X166509107Y-97456613D01*
X166508500Y-97444262D01*
X166508500Y-85469923D01*
X166528502Y-85401802D01*
X166545400Y-85380833D01*
X168380828Y-83545405D01*
X168443141Y-83511379D01*
X168469924Y-83508500D01*
X176546455Y-83508500D01*
X176549547Y-83508500D01*
X176697701Y-83493908D01*
X176887804Y-83436241D01*
X177063004Y-83342595D01*
X177063005Y-83342593D01*
X177063007Y-83342593D01*
X177216568Y-83216568D01*
X177342593Y-83063007D01*
X177370086Y-83011571D01*
X177436241Y-82887804D01*
X177493908Y-82697701D01*
X177513380Y-82500000D01*
X177493908Y-82302299D01*
X177436241Y-82112196D01*
X177342595Y-81936996D01*
X177342593Y-81936992D01*
X177216568Y-81783431D01*
X177063007Y-81657406D01*
X176887802Y-81563758D01*
X176697701Y-81506091D01*
X176552627Y-81491803D01*
X176552619Y-81491802D01*
X176549547Y-81491500D01*
X176546455Y-81491500D01*
X168055737Y-81491500D01*
X168043387Y-81490893D01*
X168039905Y-81490550D01*
X167999998Y-81486619D01*
X167802300Y-81506090D01*
X167711546Y-81533621D01*
X167656442Y-81550337D01*
X167612196Y-81563759D01*
X167612194Y-81563759D01*
X167612194Y-81563760D01*
X167436995Y-81657404D01*
X167283430Y-81783433D01*
X167255765Y-81817142D01*
X167247463Y-81826301D01*
X164826301Y-84247463D01*
X164817142Y-84255765D01*
X164783433Y-84283430D01*
X164657404Y-84436995D01*
X164609443Y-84526727D01*
X164563758Y-84612197D01*
X164506090Y-84802298D01*
X164486619Y-84999998D01*
X164490893Y-85043385D01*
X164491500Y-85055736D01*
X164491500Y-97030074D01*
X164471498Y-97098195D01*
X164454596Y-97119169D01*
X164119171Y-97454595D01*
X164056858Y-97488620D01*
X164030075Y-97491500D01*
X146469924Y-97491500D01*
X146401803Y-97471498D01*
X146380829Y-97454595D01*
X145045405Y-96119171D01*
X145011379Y-96056859D01*
X145008500Y-96030076D01*
X145008500Y-90835734D01*
X145009107Y-90823382D01*
X145013380Y-90779998D01*
X144993908Y-90582298D01*
X144936241Y-90392197D01*
X144936241Y-90392196D01*
X144889111Y-90304022D01*
X144842595Y-90216996D01*
X144779581Y-90140213D01*
X144716570Y-90063434D01*
X144709806Y-90057883D01*
X144682862Y-90035770D01*
X144673701Y-90027466D01*
X143113197Y-88466962D01*
X143079171Y-88404650D01*
X143084236Y-88333835D01*
X143113194Y-88288774D01*
X143782673Y-87619295D01*
X143788183Y-87614110D01*
X143793845Y-87609094D01*
X143833715Y-87573773D01*
X143868291Y-87523679D01*
X143872735Y-87517640D01*
X143910275Y-87469726D01*
X143914460Y-87460426D01*
X143925659Y-87440569D01*
X143931454Y-87432175D01*
X143953022Y-87375302D01*
X143955923Y-87368297D01*
X143980889Y-87312829D01*
X143982727Y-87302794D01*
X143988852Y-87280827D01*
X143992465Y-87271301D01*
X143999799Y-87210898D01*
X144000934Y-87203441D01*
X144011902Y-87143593D01*
X144010010Y-87112324D01*
X144008230Y-87082890D01*
X144008000Y-87075282D01*
X144008000Y-85374558D01*
X144008230Y-85366950D01*
X144011902Y-85306244D01*
X144009682Y-85294128D01*
X144000935Y-85246400D01*
X143999793Y-85238891D01*
X143998674Y-85229677D01*
X143992465Y-85178535D01*
X143988849Y-85169002D01*
X143982727Y-85147038D01*
X143980889Y-85137007D01*
X143955920Y-85081529D01*
X143953025Y-85074540D01*
X143931454Y-85017661D01*
X143925660Y-85009267D01*
X143914457Y-84989404D01*
X143910275Y-84980112D01*
X143910275Y-84980111D01*
X143872771Y-84932241D01*
X143868272Y-84926126D01*
X143844052Y-84891039D01*
X143833715Y-84876063D01*
X143788182Y-84835724D01*
X143782641Y-84830507D01*
X141745404Y-82793269D01*
X141711378Y-82730957D01*
X141708499Y-82704174D01*
X141708499Y-82302661D01*
X141708499Y-82302660D01*
X141708499Y-82299456D01*
X141697887Y-82195574D01*
X141642115Y-82027262D01*
X141549030Y-81876348D01*
X141549028Y-81876346D01*
X141549027Y-81876344D01*
X141423655Y-81750972D01*
X141423652Y-81750970D01*
X141272738Y-81657885D01*
X141104426Y-81602113D01*
X141104423Y-81602112D01*
X141104421Y-81602112D01*
X141003746Y-81591826D01*
X141003725Y-81591824D01*
X141000545Y-81591500D01*
X140997339Y-81591500D01*
X140202661Y-81591500D01*
X140202641Y-81591500D01*
X140199456Y-81591501D01*
X140196279Y-81591825D01*
X140196270Y-81591826D01*
X140095573Y-81602113D01*
X139927262Y-81657885D01*
X139776346Y-81750971D01*
X139689095Y-81838222D01*
X139626783Y-81872247D01*
X139555967Y-81867181D01*
X139510905Y-81838222D01*
X139423653Y-81750971D01*
X139423652Y-81750970D01*
X139272738Y-81657885D01*
X139104426Y-81602113D01*
X139104423Y-81602112D01*
X139104421Y-81602112D01*
X139003746Y-81591826D01*
X139003725Y-81591824D01*
X139000545Y-81591500D01*
X138997339Y-81591500D01*
X138202661Y-81591500D01*
X138202641Y-81591500D01*
X138199456Y-81591501D01*
X138196279Y-81591825D01*
X138196270Y-81591826D01*
X138095573Y-81602113D01*
X137927262Y-81657885D01*
X137776344Y-81750972D01*
X137650972Y-81876344D01*
X137613564Y-81936992D01*
X137557885Y-82027262D01*
X137525453Y-82125134D01*
X137485041Y-82183504D01*
X137419484Y-82210760D01*
X137405850Y-82211500D01*
X135912504Y-82211500D01*
X135844383Y-82191498D01*
X135809291Y-82157771D01*
X135746038Y-82067437D01*
X135582562Y-81903961D01*
X135393173Y-81771349D01*
X135183635Y-81673641D01*
X134960322Y-81613803D01*
X134776063Y-81597682D01*
X134730000Y-81593653D01*
X134729999Y-81593653D01*
X134499677Y-81613803D01*
X134276366Y-81673641D01*
X134276365Y-81673641D01*
X134276363Y-81673642D01*
X134080447Y-81764999D01*
X134066823Y-81771352D01*
X133877439Y-81903959D01*
X133713959Y-82067439D01*
X133581352Y-82256823D01*
X133581350Y-82256826D01*
X133581350Y-82256827D01*
X133484593Y-82464325D01*
X133483641Y-82466366D01*
X133423803Y-82689677D01*
X133403653Y-82920000D01*
X133423803Y-83150322D01*
X133483641Y-83373635D01*
X133581349Y-83583173D01*
X133713961Y-83772562D01*
X133877437Y-83936038D01*
X133877440Y-83936040D01*
X133877441Y-83936041D01*
X133968784Y-84000000D01*
X134066826Y-84068650D01*
X134082170Y-84075805D01*
X134135455Y-84122721D01*
X134154917Y-84190998D01*
X134134376Y-84258958D01*
X134082173Y-84304194D01*
X134066825Y-84311351D01*
X133877439Y-84443959D01*
X133713959Y-84607439D01*
X133581352Y-84796823D01*
X133581350Y-84796826D01*
X133581350Y-84796827D01*
X133486697Y-84999813D01*
X133483641Y-85006366D01*
X133423803Y-85229677D01*
X133403653Y-85460000D01*
X133423803Y-85690322D01*
X133483641Y-85913635D01*
X133581349Y-86123173D01*
X133713961Y-86312562D01*
X133877437Y-86476038D01*
X133877440Y-86476040D01*
X133877441Y-86476041D01*
X134066826Y-86608650D01*
X134276363Y-86706358D01*
X134374826Y-86732741D01*
X134499677Y-86766196D01*
X134499678Y-86766196D01*
X134499682Y-86766197D01*
X134730000Y-86786347D01*
X134960318Y-86766197D01*
X135183637Y-86706358D01*
X135393174Y-86608650D01*
X135582559Y-86476041D01*
X135746041Y-86312559D01*
X135878650Y-86123174D01*
X135976358Y-85913637D01*
X136036197Y-85690318D01*
X136056347Y-85460000D01*
X136036197Y-85229682D01*
X136034680Y-85224022D01*
X136010409Y-85133442D01*
X135976358Y-85006363D01*
X135878650Y-84796827D01*
X135807280Y-84694899D01*
X135746040Y-84607439D01*
X135582562Y-84443961D01*
X135393173Y-84311349D01*
X135377830Y-84304195D01*
X135324545Y-84257279D01*
X135305083Y-84189002D01*
X135325624Y-84121042D01*
X135377830Y-84075805D01*
X135389084Y-84070557D01*
X135393174Y-84068650D01*
X135582559Y-83936041D01*
X135746041Y-83772559D01*
X135790605Y-83708913D01*
X135809291Y-83682229D01*
X135864748Y-83637901D01*
X135912504Y-83628500D01*
X137521956Y-83628500D01*
X137590077Y-83648502D01*
X137629196Y-83688352D01*
X137650971Y-83723654D01*
X137776344Y-83849027D01*
X137776346Y-83849028D01*
X137776348Y-83849030D01*
X137927262Y-83942115D01*
X138095574Y-83997887D01*
X138171637Y-84005658D01*
X138196253Y-84008173D01*
X138196255Y-84008173D01*
X138199455Y-84008500D01*
X139000544Y-84008499D01*
X139104426Y-83997887D01*
X139272738Y-83942115D01*
X139423652Y-83849030D01*
X139462612Y-83810070D01*
X139510905Y-83761778D01*
X139573217Y-83727752D01*
X139644032Y-83732817D01*
X139689095Y-83761778D01*
X139776344Y-83849027D01*
X139776346Y-83849028D01*
X139776348Y-83849030D01*
X139927262Y-83942115D01*
X140095574Y-83997887D01*
X140171637Y-84005658D01*
X140196253Y-84008173D01*
X140196255Y-84008173D01*
X140199455Y-84008500D01*
X140904503Y-84008499D01*
X140972624Y-84028501D01*
X140993598Y-84045404D01*
X142554095Y-85605901D01*
X142588121Y-85668213D01*
X142591000Y-85694996D01*
X142591000Y-86754838D01*
X142570998Y-86822959D01*
X142554095Y-86843934D01*
X141928433Y-87469595D01*
X141866121Y-87503620D01*
X141795305Y-87498555D01*
X141738470Y-87456008D01*
X141713659Y-87389488D01*
X141728750Y-87320114D01*
X141732097Y-87314352D01*
X141804159Y-87197521D01*
X141859893Y-87029327D01*
X141870174Y-86928692D01*
X141870500Y-86922302D01*
X141870500Y-86654000D01*
X140647000Y-86654000D01*
X140578879Y-86633998D01*
X140532386Y-86580342D01*
X140521000Y-86528000D01*
X140521000Y-85167000D01*
X141029000Y-85167000D01*
X141029000Y-86146000D01*
X141870500Y-86146000D01*
X141870500Y-85877697D01*
X141870174Y-85871307D01*
X141859893Y-85770672D01*
X141804159Y-85602477D01*
X141711132Y-85451657D01*
X141585842Y-85326367D01*
X141435022Y-85233340D01*
X141266827Y-85177606D01*
X141166192Y-85167325D01*
X141159803Y-85167000D01*
X141029000Y-85167000D01*
X140521000Y-85167000D01*
X140390197Y-85167000D01*
X140383807Y-85167325D01*
X140283172Y-85177606D01*
X140114977Y-85233340D01*
X139964157Y-85326367D01*
X139828451Y-85462074D01*
X139825555Y-85459178D01*
X139792241Y-85489140D01*
X139722165Y-85500538D01*
X139657052Y-85472241D01*
X139647494Y-85461210D01*
X139646944Y-85461761D01*
X139511155Y-85325972D01*
X139479171Y-85306244D01*
X139360238Y-85232885D01*
X139191926Y-85177113D01*
X139191923Y-85177112D01*
X139191921Y-85177112D01*
X139091246Y-85166826D01*
X139091225Y-85166824D01*
X139088045Y-85166500D01*
X139084839Y-85166500D01*
X138315161Y-85166500D01*
X138315141Y-85166500D01*
X138311956Y-85166501D01*
X138308779Y-85166825D01*
X138308770Y-85166826D01*
X138208073Y-85177113D01*
X138039762Y-85232885D01*
X137888844Y-85325972D01*
X137763472Y-85451344D01*
X137734540Y-85498250D01*
X137670385Y-85602262D01*
X137639657Y-85694996D01*
X137614612Y-85770578D01*
X137604326Y-85871253D01*
X137604324Y-85871275D01*
X137604000Y-85874455D01*
X137604000Y-85877659D01*
X137604000Y-85877660D01*
X137604000Y-86922338D01*
X137604000Y-86922357D01*
X137604001Y-86925544D01*
X137604325Y-86928721D01*
X137604326Y-86928729D01*
X137605250Y-86937770D01*
X137614613Y-87029426D01*
X137670385Y-87197738D01*
X137763470Y-87348652D01*
X137845723Y-87430905D01*
X137879747Y-87493215D01*
X137874683Y-87564031D01*
X137845723Y-87609094D01*
X137788471Y-87666346D01*
X137723521Y-87771647D01*
X137670735Y-87819125D01*
X137616280Y-87831500D01*
X134856371Y-87831500D01*
X134788250Y-87811498D01*
X134767276Y-87794595D01*
X134231909Y-87259228D01*
X134219937Y-87245375D01*
X134205470Y-87225943D01*
X134167127Y-87193769D01*
X134159024Y-87186343D01*
X134157694Y-87185013D01*
X134155101Y-87182420D01*
X134152235Y-87180153D01*
X134152224Y-87180144D01*
X134130530Y-87162991D01*
X134127708Y-87160692D01*
X134069640Y-87111968D01*
X134069639Y-87111967D01*
X134068621Y-87111113D01*
X134052110Y-87100594D01*
X133982205Y-87067996D01*
X133978909Y-87066401D01*
X133909996Y-87031792D01*
X133891504Y-87025365D01*
X133815942Y-87009762D01*
X133812367Y-87008969D01*
X133737356Y-86991191D01*
X133717885Y-86989202D01*
X133640741Y-86991447D01*
X133637077Y-86991500D01*
X130985478Y-86991500D01*
X130917357Y-86971498D01*
X130882264Y-86937770D01*
X130876973Y-86930214D01*
X130719784Y-86773025D01*
X130537678Y-86645512D01*
X130458626Y-86608650D01*
X130427624Y-86594193D01*
X130374341Y-86547278D01*
X130354880Y-86479001D01*
X130375422Y-86411041D01*
X130427624Y-86365806D01*
X130537677Y-86314488D01*
X130719781Y-86186977D01*
X130876977Y-86029781D01*
X131004488Y-85847677D01*
X131098440Y-85646196D01*
X131155978Y-85431463D01*
X131175353Y-85210000D01*
X131155978Y-84988537D01*
X131153720Y-84980111D01*
X131124071Y-84869459D01*
X131098440Y-84773804D01*
X131004488Y-84572324D01*
X130992641Y-84555405D01*
X130914606Y-84443959D01*
X130876977Y-84390219D01*
X130876976Y-84390218D01*
X130876974Y-84390215D01*
X130719784Y-84233025D01*
X130537678Y-84105512D01*
X130458626Y-84068650D01*
X130336196Y-84011560D01*
X130293054Y-84000000D01*
X130121467Y-83954022D01*
X129900000Y-83934647D01*
X129678532Y-83954022D01*
X129463807Y-84011559D01*
X129463806Y-84011559D01*
X129463804Y-84011560D01*
X129427474Y-84028501D01*
X129262322Y-84105512D01*
X129080215Y-84233025D01*
X128923025Y-84390215D01*
X128795512Y-84572322D01*
X128738354Y-84694899D01*
X128703897Y-84768794D01*
X128701559Y-84773807D01*
X128644022Y-84988532D01*
X128624647Y-85210000D01*
X128644022Y-85431467D01*
X128689788Y-85602262D01*
X128701560Y-85646196D01*
X128724316Y-85694996D01*
X128795512Y-85847678D01*
X128923025Y-86029784D01*
X129080215Y-86186974D01*
X129262321Y-86314487D01*
X129262322Y-86314487D01*
X129262323Y-86314488D01*
X129372375Y-86365806D01*
X129425659Y-86412722D01*
X129445120Y-86480999D01*
X129424578Y-86548959D01*
X129372374Y-86594194D01*
X129342991Y-86607895D01*
X129262322Y-86645512D01*
X129080215Y-86773025D01*
X128923025Y-86930215D01*
X128795512Y-87112322D01*
X128753034Y-87203418D01*
X128702014Y-87312832D01*
X128701559Y-87313807D01*
X128644022Y-87528532D01*
X128624647Y-87750001D01*
X128635830Y-87877838D01*
X128621840Y-87947443D01*
X128599404Y-87977913D01*
X128446133Y-88131184D01*
X128383821Y-88165210D01*
X128313006Y-88160145D01*
X128267943Y-88131184D01*
X128179784Y-88043025D01*
X127997678Y-87915512D01*
X127947247Y-87891996D01*
X127887624Y-87864193D01*
X127834341Y-87817278D01*
X127814880Y-87749001D01*
X127835422Y-87681041D01*
X127887624Y-87635806D01*
X127997677Y-87584488D01*
X128179781Y-87456977D01*
X128336977Y-87299781D01*
X128464488Y-87117677D01*
X128558440Y-86916196D01*
X128615978Y-86701463D01*
X128635353Y-86480000D01*
X128615978Y-86258537D01*
X128558440Y-86043804D01*
X128464488Y-85842324D01*
X128336977Y-85660219D01*
X128336976Y-85660218D01*
X128336974Y-85660215D01*
X128179784Y-85503025D01*
X127997676Y-85375511D01*
X127891438Y-85325972D01*
X127887034Y-85323918D01*
X127833749Y-85277002D01*
X127814288Y-85208725D01*
X127834830Y-85140765D01*
X127887035Y-85095529D01*
X127997425Y-85044053D01*
X128060603Y-84999814D01*
X128060603Y-84999812D01*
X127443316Y-84382525D01*
X127494138Y-84374865D01*
X127616357Y-84316007D01*
X127715798Y-84223740D01*
X127783625Y-84106260D01*
X127802550Y-84023341D01*
X128419812Y-84640603D01*
X128419814Y-84640603D01*
X128464052Y-84577427D01*
X128557968Y-84376024D01*
X128615482Y-84161376D01*
X128634850Y-83939999D01*
X128615482Y-83718623D01*
X128557968Y-83503975D01*
X128464051Y-83302571D01*
X128419815Y-83239395D01*
X128419813Y-83239395D01*
X127804844Y-83854364D01*
X127803673Y-83838735D01*
X127754113Y-83712459D01*
X127669535Y-83606401D01*
X127557453Y-83529984D01*
X127445376Y-83495413D01*
X128060603Y-82880185D01*
X128060603Y-82880184D01*
X127997426Y-82835947D01*
X127796024Y-82742031D01*
X127581376Y-82684517D01*
X127360000Y-82665149D01*
X127138623Y-82684517D01*
X126923975Y-82742031D01*
X126722572Y-82835948D01*
X126659394Y-82880185D01*
X127276683Y-83497474D01*
X127225862Y-83505135D01*
X127103643Y-83563993D01*
X127004202Y-83656260D01*
X126936375Y-83773740D01*
X126917449Y-83856658D01*
X126300185Y-83239394D01*
X126255948Y-83302572D01*
X126162031Y-83503975D01*
X126104517Y-83718623D01*
X126085149Y-83939999D01*
X126104517Y-84161376D01*
X126162031Y-84376024D01*
X126255947Y-84577426D01*
X126300184Y-84640603D01*
X126300185Y-84640603D01*
X126915155Y-84025632D01*
X126916327Y-84041265D01*
X126965887Y-84167541D01*
X127050465Y-84273599D01*
X127162547Y-84350016D01*
X127274623Y-84384586D01*
X126659395Y-84999813D01*
X126659395Y-84999814D01*
X126722573Y-85044052D01*
X126832965Y-85095529D01*
X126886250Y-85142446D01*
X126905711Y-85210724D01*
X126885169Y-85278683D01*
X126832965Y-85323919D01*
X126722323Y-85375512D01*
X126540215Y-85503025D01*
X126383025Y-85660215D01*
X126255512Y-85842322D01*
X126161559Y-86043807D01*
X126104022Y-86258532D01*
X126084647Y-86480000D01*
X126104022Y-86701467D01*
X126136577Y-86822959D01*
X126161560Y-86916196D01*
X126212341Y-87025097D01*
X126255512Y-87117678D01*
X126383025Y-87299784D01*
X126540215Y-87456974D01*
X126540218Y-87456976D01*
X126540219Y-87456977D01*
X126564573Y-87474030D01*
X126722321Y-87584487D01*
X126722322Y-87584487D01*
X126722323Y-87584488D01*
X126832375Y-87635806D01*
X126885659Y-87682722D01*
X126905120Y-87750999D01*
X126884578Y-87818959D01*
X126832374Y-87864194D01*
X126803116Y-87877838D01*
X126722322Y-87915512D01*
X126540215Y-88043025D01*
X126383025Y-88200215D01*
X126255512Y-88382322D01*
X126197734Y-88506228D01*
X126182856Y-88538136D01*
X126161559Y-88583807D01*
X126104022Y-88798532D01*
X126084647Y-89020000D01*
X126104022Y-89241467D01*
X126138062Y-89368502D01*
X126161560Y-89456196D01*
X126206130Y-89551777D01*
X126255512Y-89657678D01*
X126383025Y-89839784D01*
X126540215Y-89996974D01*
X126540218Y-89996976D01*
X126540219Y-89996977D01*
X126547554Y-90002113D01*
X126722321Y-90124487D01*
X126722322Y-90124487D01*
X126722323Y-90124488D01*
X126832375Y-90175806D01*
X126885659Y-90222722D01*
X126905120Y-90290999D01*
X126884578Y-90358959D01*
X126832374Y-90404194D01*
X126802991Y-90417895D01*
X126722322Y-90455512D01*
X126540215Y-90583025D01*
X126383025Y-90740215D01*
X126255512Y-90922322D01*
X126189707Y-91063442D01*
X126179104Y-91086182D01*
X126161559Y-91123807D01*
X126104022Y-91338532D01*
X126084647Y-91560000D01*
X112768500Y-91560000D01*
X112768500Y-82738681D01*
X119130737Y-82738681D01*
X119160763Y-83011568D01*
X119160764Y-83011571D01*
X119230204Y-83277182D01*
X119337577Y-83529852D01*
X119480595Y-83764196D01*
X119656209Y-83975218D01*
X119656210Y-83975219D01*
X119656212Y-83975221D01*
X119693354Y-84008500D01*
X119860677Y-84158423D01*
X120089641Y-84309904D01*
X120338221Y-84426433D01*
X120601119Y-84505527D01*
X120601122Y-84505527D01*
X120601124Y-84505528D01*
X120872729Y-84545500D01*
X120872731Y-84545500D01*
X121076246Y-84545500D01*
X121078547Y-84545500D01*
X121283805Y-84530477D01*
X121551775Y-84470784D01*
X121808198Y-84372711D01*
X121920110Y-84309903D01*
X122047611Y-84238346D01*
X122218667Y-84106260D01*
X122264904Y-84070557D01*
X122455454Y-83872916D01*
X122615196Y-83649637D01*
X122740727Y-83405479D01*
X122829370Y-83145646D01*
X122879236Y-82875674D01*
X122889262Y-82601320D01*
X122859236Y-82328429D01*
X122789796Y-82062818D01*
X122783174Y-82047235D01*
X122774941Y-81976718D01*
X122806140Y-81912943D01*
X122866865Y-81876160D01*
X122937836Y-81878047D01*
X122970116Y-81893851D01*
X123168506Y-82029110D01*
X123408601Y-82144735D01*
X123663245Y-82223281D01*
X123926759Y-82263000D01*
X124193241Y-82263000D01*
X124456754Y-82223281D01*
X124711398Y-82144735D01*
X124951493Y-82029110D01*
X125125954Y-81910165D01*
X125125954Y-81910163D01*
X124419634Y-81203844D01*
X124561948Y-81114423D01*
X124689423Y-80986948D01*
X124778844Y-80844634D01*
X125484558Y-81550349D01*
X125484559Y-81550348D01*
X125533171Y-81489394D01*
X125666414Y-81258610D01*
X125763772Y-81010545D01*
X125823071Y-80750741D01*
X125842985Y-80484999D01*
X125823071Y-80219258D01*
X125763772Y-79959454D01*
X125666414Y-79711389D01*
X125533171Y-79480606D01*
X125484559Y-79419650D01*
X125484558Y-79419649D01*
X124778843Y-80125363D01*
X124689423Y-79983052D01*
X124561948Y-79855577D01*
X124419634Y-79766155D01*
X125125954Y-79059835D01*
X125125954Y-79059833D01*
X124951495Y-78940890D01*
X124711395Y-78825263D01*
X124456754Y-78746718D01*
X124193241Y-78707000D01*
X123926759Y-78707000D01*
X123663245Y-78746718D01*
X123408604Y-78825263D01*
X123168509Y-78940888D01*
X122994044Y-79059834D01*
X122994044Y-79059835D01*
X123700365Y-79766155D01*
X123558052Y-79855577D01*
X123430577Y-79983052D01*
X123341155Y-80125365D01*
X122635441Y-79419650D01*
X122635439Y-79419650D01*
X122586828Y-79480607D01*
X122453585Y-79711390D01*
X122356227Y-79959454D01*
X122296928Y-80219258D01*
X122277014Y-80485000D01*
X122296928Y-80750741D01*
X122356227Y-81010545D01*
X122372665Y-81052428D01*
X122378933Y-81123148D01*
X122345972Y-81186029D01*
X122284247Y-81221108D01*
X122213356Y-81217248D01*
X122171293Y-81192302D01*
X122159326Y-81181580D01*
X122159327Y-81181580D01*
X122159323Y-81181577D01*
X121930359Y-81030096D01*
X121681779Y-80913567D01*
X121672499Y-80910775D01*
X121418875Y-80834471D01*
X121147271Y-80794500D01*
X121147269Y-80794500D01*
X120941453Y-80794500D01*
X120939183Y-80794666D01*
X120939159Y-80794667D01*
X120736191Y-80809523D01*
X120468226Y-80869215D01*
X120211801Y-80967288D01*
X119972388Y-81101653D01*
X119755097Y-81269441D01*
X119564547Y-81467082D01*
X119404803Y-81690364D01*
X119279271Y-81934524D01*
X119190630Y-82194352D01*
X119140764Y-82464325D01*
X119130737Y-82738681D01*
X112768500Y-82738681D01*
X112768500Y-66709766D01*
X125645787Y-66709766D01*
X125675413Y-66979015D01*
X125675414Y-66979018D01*
X125743928Y-67241088D01*
X125849870Y-67490390D01*
X125990982Y-67721610D01*
X126164255Y-67929820D01*
X126164256Y-67929821D01*
X126164258Y-67929823D01*
X126365993Y-68110578D01*
X126365995Y-68110579D01*
X126365998Y-68110582D01*
X126591910Y-68260044D01*
X126724104Y-68322014D01*
X126837171Y-68375018D01*
X126837173Y-68375018D01*
X126837176Y-68375020D01*
X127096569Y-68453060D01*
X127096572Y-68453060D01*
X127096574Y-68453061D01*
X127364558Y-68492500D01*
X127364561Y-68492500D01*
X127565330Y-68492500D01*
X127567631Y-68492500D01*
X127770156Y-68477677D01*
X128034553Y-68418780D01*
X128287558Y-68322014D01*
X128523777Y-68189441D01*
X128738177Y-68023888D01*
X128926186Y-67828881D01*
X129083799Y-67608579D01*
X129207656Y-67367675D01*
X129295118Y-67111305D01*
X129344319Y-66844933D01*
X129354212Y-66574235D01*
X129324586Y-66304982D01*
X129256072Y-66042912D01*
X129150130Y-65793610D01*
X129009018Y-65562390D01*
X128835745Y-65354180D01*
X128730759Y-65260112D01*
X128634006Y-65173421D01*
X128634003Y-65173419D01*
X128634002Y-65173418D01*
X128408090Y-65023956D01*
X128408086Y-65023954D01*
X128162828Y-64908981D01*
X127903425Y-64830938D01*
X127791001Y-64814393D01*
X145184102Y-64814393D01*
X145184641Y-64822221D01*
X145184770Y-64852955D01*
X145184281Y-64861098D01*
X145184959Y-64897789D01*
X145185113Y-64934433D01*
X145185785Y-64942547D01*
X145186289Y-64969768D01*
X145185853Y-64979673D01*
X145187113Y-65014377D01*
X145187754Y-65049054D01*
X145188729Y-65058900D01*
X145189461Y-65079044D01*
X145189159Y-65093113D01*
X145190949Y-65121290D01*
X145191119Y-65124697D01*
X145192144Y-65152923D01*
X145193848Y-65166899D01*
X145194757Y-65181201D01*
X145194973Y-65192296D01*
X145194762Y-65200834D01*
X145196902Y-65218864D01*
X145196975Y-65247241D01*
X145198128Y-65253854D01*
X145200000Y-65275492D01*
X145200000Y-68000000D01*
X152900000Y-68000000D01*
X152900000Y-66709766D01*
X168145787Y-66709766D01*
X168175413Y-66979015D01*
X168175414Y-66979018D01*
X168243928Y-67241088D01*
X168349870Y-67490390D01*
X168490982Y-67721610D01*
X168664255Y-67929820D01*
X168664256Y-67929821D01*
X168664258Y-67929823D01*
X168865993Y-68110578D01*
X168865995Y-68110579D01*
X168865998Y-68110582D01*
X169091910Y-68260044D01*
X169224104Y-68322014D01*
X169337171Y-68375018D01*
X169337173Y-68375018D01*
X169337176Y-68375020D01*
X169596569Y-68453060D01*
X169596572Y-68453060D01*
X169596574Y-68453061D01*
X169864558Y-68492500D01*
X169864561Y-68492500D01*
X170065330Y-68492500D01*
X170067631Y-68492500D01*
X170270156Y-68477677D01*
X170534553Y-68418780D01*
X170787558Y-68322014D01*
X171023777Y-68189441D01*
X171238177Y-68023888D01*
X171426186Y-67828881D01*
X171583799Y-67608579D01*
X171707656Y-67367675D01*
X171795118Y-67111305D01*
X171844319Y-66844933D01*
X171854212Y-66574235D01*
X171824586Y-66304982D01*
X171756072Y-66042912D01*
X171650130Y-65793610D01*
X171509018Y-65562390D01*
X171335745Y-65354180D01*
X171230759Y-65260112D01*
X171134006Y-65173421D01*
X171134003Y-65173419D01*
X171134002Y-65173418D01*
X170908090Y-65023956D01*
X170908086Y-65023954D01*
X170662828Y-64908981D01*
X170403425Y-64830938D01*
X170135442Y-64791500D01*
X170135439Y-64791500D01*
X169932369Y-64791500D01*
X169930099Y-64791666D01*
X169930075Y-64791667D01*
X169729839Y-64806323D01*
X169465449Y-64865219D01*
X169212441Y-64961985D01*
X168976225Y-65094557D01*
X168761820Y-65260114D01*
X168573815Y-65455117D01*
X168416200Y-65675422D01*
X168292342Y-65916328D01*
X168204882Y-66172693D01*
X168155681Y-66439065D01*
X168145787Y-66709766D01*
X152900000Y-66709766D01*
X152900000Y-60900000D01*
X145200000Y-60900000D01*
X145200000Y-64338413D01*
X145199507Y-64344043D01*
X145199649Y-64344048D01*
X145198716Y-64373373D01*
X145198346Y-64379813D01*
X145196838Y-64397938D01*
X145195026Y-64411173D01*
X145194506Y-64413888D01*
X145193346Y-64438884D01*
X145193048Y-64443488D01*
X145190976Y-64468386D01*
X145191141Y-64471137D01*
X145191231Y-64484496D01*
X145190470Y-64500898D01*
X145189238Y-64512359D01*
X145188450Y-64543820D01*
X145188355Y-64546497D01*
X145186893Y-64578028D01*
X145187304Y-64589554D01*
X145186702Y-64613561D01*
X145185925Y-64622323D01*
X145185584Y-64658214D01*
X145184683Y-64694201D01*
X145185159Y-64703001D01*
X145184879Y-64732527D01*
X145184297Y-64740375D01*
X145184453Y-64777425D01*
X145184102Y-64814393D01*
X127791001Y-64814393D01*
X127635442Y-64791500D01*
X127635439Y-64791500D01*
X127432369Y-64791500D01*
X127430099Y-64791666D01*
X127430075Y-64791667D01*
X127229839Y-64806323D01*
X126965449Y-64865219D01*
X126712441Y-64961985D01*
X126476225Y-65094557D01*
X126261820Y-65260114D01*
X126073815Y-65455117D01*
X125916200Y-65675422D01*
X125792342Y-65916328D01*
X125704882Y-66172693D01*
X125655681Y-66439065D01*
X125645787Y-66709766D01*
X112768500Y-66709766D01*
X112768500Y-59808500D01*
X112788502Y-59740379D01*
X112842158Y-59693886D01*
X112894500Y-59682500D01*
X186952500Y-59682500D01*
X187020621Y-59702502D01*
G37*
%TD.AperFunction*%
%TD*%
M02*
