%TF.GenerationSoftware,KiCad,Pcbnew,7.0.2*%
%TF.CreationDate,2024-05-19T00:21:07+02:00*%
%TF.ProjectId,dsoxlan,64736f78-6c61-46e2-9e6b-696361645f70,rev?*%
%TF.SameCoordinates,Original*%
%TF.FileFunction,Legend,Top*%
%TF.FilePolarity,Positive*%
%FSLAX46Y46*%
G04 Gerber Fmt 4.6, Leading zero omitted, Abs format (unit mm)*
G04 Created by KiCad (PCBNEW 7.0.2) date 2024-05-19 00:21:07*
%MOMM*%
%LPD*%
G01*
G04 APERTURE LIST*
%ADD10C,0.150000*%
%ADD11C,0.254000*%
%ADD12C,0.120000*%
G04 APERTURE END LIST*
D10*
%TO.C,C2*%
X140733333Y-78667380D02*
X140685714Y-78715000D01*
X140685714Y-78715000D02*
X140542857Y-78762619D01*
X140542857Y-78762619D02*
X140447619Y-78762619D01*
X140447619Y-78762619D02*
X140304762Y-78715000D01*
X140304762Y-78715000D02*
X140209524Y-78619761D01*
X140209524Y-78619761D02*
X140161905Y-78524523D01*
X140161905Y-78524523D02*
X140114286Y-78334047D01*
X140114286Y-78334047D02*
X140114286Y-78191190D01*
X140114286Y-78191190D02*
X140161905Y-78000714D01*
X140161905Y-78000714D02*
X140209524Y-77905476D01*
X140209524Y-77905476D02*
X140304762Y-77810238D01*
X140304762Y-77810238D02*
X140447619Y-77762619D01*
X140447619Y-77762619D02*
X140542857Y-77762619D01*
X140542857Y-77762619D02*
X140685714Y-77810238D01*
X140685714Y-77810238D02*
X140733333Y-77857857D01*
X141114286Y-77857857D02*
X141161905Y-77810238D01*
X141161905Y-77810238D02*
X141257143Y-77762619D01*
X141257143Y-77762619D02*
X141495238Y-77762619D01*
X141495238Y-77762619D02*
X141590476Y-77810238D01*
X141590476Y-77810238D02*
X141638095Y-77857857D01*
X141638095Y-77857857D02*
X141685714Y-77953095D01*
X141685714Y-77953095D02*
X141685714Y-78048333D01*
X141685714Y-78048333D02*
X141638095Y-78191190D01*
X141638095Y-78191190D02*
X141066667Y-78762619D01*
X141066667Y-78762619D02*
X141685714Y-78762619D01*
%TO.C,P2*%
X187416619Y-99688094D02*
X186416619Y-99688094D01*
X186416619Y-99688094D02*
X186416619Y-99307142D01*
X186416619Y-99307142D02*
X186464238Y-99211904D01*
X186464238Y-99211904D02*
X186511857Y-99164285D01*
X186511857Y-99164285D02*
X186607095Y-99116666D01*
X186607095Y-99116666D02*
X186749952Y-99116666D01*
X186749952Y-99116666D02*
X186845190Y-99164285D01*
X186845190Y-99164285D02*
X186892809Y-99211904D01*
X186892809Y-99211904D02*
X186940428Y-99307142D01*
X186940428Y-99307142D02*
X186940428Y-99688094D01*
X186511857Y-98735713D02*
X186464238Y-98688094D01*
X186464238Y-98688094D02*
X186416619Y-98592856D01*
X186416619Y-98592856D02*
X186416619Y-98354761D01*
X186416619Y-98354761D02*
X186464238Y-98259523D01*
X186464238Y-98259523D02*
X186511857Y-98211904D01*
X186511857Y-98211904D02*
X186607095Y-98164285D01*
X186607095Y-98164285D02*
X186702333Y-98164285D01*
X186702333Y-98164285D02*
X186845190Y-98211904D01*
X186845190Y-98211904D02*
X187416619Y-98783332D01*
X187416619Y-98783332D02*
X187416619Y-98164285D01*
%TO.C,R1*%
X139433333Y-88012619D02*
X139100000Y-87536428D01*
X138861905Y-88012619D02*
X138861905Y-87012619D01*
X138861905Y-87012619D02*
X139242857Y-87012619D01*
X139242857Y-87012619D02*
X139338095Y-87060238D01*
X139338095Y-87060238D02*
X139385714Y-87107857D01*
X139385714Y-87107857D02*
X139433333Y-87203095D01*
X139433333Y-87203095D02*
X139433333Y-87345952D01*
X139433333Y-87345952D02*
X139385714Y-87441190D01*
X139385714Y-87441190D02*
X139338095Y-87488809D01*
X139338095Y-87488809D02*
X139242857Y-87536428D01*
X139242857Y-87536428D02*
X138861905Y-87536428D01*
X140385714Y-88012619D02*
X139814286Y-88012619D01*
X140100000Y-88012619D02*
X140100000Y-87012619D01*
X140100000Y-87012619D02*
X140004762Y-87155476D01*
X140004762Y-87155476D02*
X139909524Y-87250714D01*
X139909524Y-87250714D02*
X139814286Y-87298333D01*
%TO.C,R2*%
X139633333Y-76212619D02*
X139300000Y-75736428D01*
X139061905Y-76212619D02*
X139061905Y-75212619D01*
X139061905Y-75212619D02*
X139442857Y-75212619D01*
X139442857Y-75212619D02*
X139538095Y-75260238D01*
X139538095Y-75260238D02*
X139585714Y-75307857D01*
X139585714Y-75307857D02*
X139633333Y-75403095D01*
X139633333Y-75403095D02*
X139633333Y-75545952D01*
X139633333Y-75545952D02*
X139585714Y-75641190D01*
X139585714Y-75641190D02*
X139538095Y-75688809D01*
X139538095Y-75688809D02*
X139442857Y-75736428D01*
X139442857Y-75736428D02*
X139061905Y-75736428D01*
X140014286Y-75307857D02*
X140061905Y-75260238D01*
X140061905Y-75260238D02*
X140157143Y-75212619D01*
X140157143Y-75212619D02*
X140395238Y-75212619D01*
X140395238Y-75212619D02*
X140490476Y-75260238D01*
X140490476Y-75260238D02*
X140538095Y-75307857D01*
X140538095Y-75307857D02*
X140585714Y-75403095D01*
X140585714Y-75403095D02*
X140585714Y-75498333D01*
X140585714Y-75498333D02*
X140538095Y-75641190D01*
X140538095Y-75641190D02*
X139966667Y-76212619D01*
X139966667Y-76212619D02*
X140585714Y-76212619D01*
%TO.C,R3*%
X140733333Y-84462619D02*
X140400000Y-83986428D01*
X140161905Y-84462619D02*
X140161905Y-83462619D01*
X140161905Y-83462619D02*
X140542857Y-83462619D01*
X140542857Y-83462619D02*
X140638095Y-83510238D01*
X140638095Y-83510238D02*
X140685714Y-83557857D01*
X140685714Y-83557857D02*
X140733333Y-83653095D01*
X140733333Y-83653095D02*
X140733333Y-83795952D01*
X140733333Y-83795952D02*
X140685714Y-83891190D01*
X140685714Y-83891190D02*
X140638095Y-83938809D01*
X140638095Y-83938809D02*
X140542857Y-83986428D01*
X140542857Y-83986428D02*
X140161905Y-83986428D01*
X141066667Y-83462619D02*
X141685714Y-83462619D01*
X141685714Y-83462619D02*
X141352381Y-83843571D01*
X141352381Y-83843571D02*
X141495238Y-83843571D01*
X141495238Y-83843571D02*
X141590476Y-83891190D01*
X141590476Y-83891190D02*
X141638095Y-83938809D01*
X141638095Y-83938809D02*
X141685714Y-84034047D01*
X141685714Y-84034047D02*
X141685714Y-84272142D01*
X141685714Y-84272142D02*
X141638095Y-84367380D01*
X141638095Y-84367380D02*
X141590476Y-84415000D01*
X141590476Y-84415000D02*
X141495238Y-84462619D01*
X141495238Y-84462619D02*
X141209524Y-84462619D01*
X141209524Y-84462619D02*
X141114286Y-84415000D01*
X141114286Y-84415000D02*
X141066667Y-84367380D01*
D11*
%TO.C,P1*%
X130562526Y-82857381D02*
X129292526Y-82857381D01*
X129292526Y-82857381D02*
X129292526Y-82373571D01*
X129292526Y-82373571D02*
X129353002Y-82252619D01*
X129353002Y-82252619D02*
X129413478Y-82192142D01*
X129413478Y-82192142D02*
X129534430Y-82131666D01*
X129534430Y-82131666D02*
X129715859Y-82131666D01*
X129715859Y-82131666D02*
X129836811Y-82192142D01*
X129836811Y-82192142D02*
X129897288Y-82252619D01*
X129897288Y-82252619D02*
X129957764Y-82373571D01*
X129957764Y-82373571D02*
X129957764Y-82857381D01*
X130562526Y-80922142D02*
X130562526Y-81647857D01*
X130562526Y-81285000D02*
X129292526Y-81285000D01*
X129292526Y-81285000D02*
X129473954Y-81405952D01*
X129473954Y-81405952D02*
X129594907Y-81526904D01*
X129594907Y-81526904D02*
X129655383Y-81647857D01*
D12*
%TO.C,C2*%
X143136252Y-80745000D02*
X142613748Y-80745000D01*
X143136252Y-79275000D02*
X142613748Y-79275000D01*
%TO.C,R1*%
X139827064Y-86635000D02*
X139372936Y-86635000D01*
X139827064Y-85165000D02*
X139372936Y-85165000D01*
%TO.C,R2*%
X140027064Y-74835000D02*
X139572936Y-74835000D01*
X140027064Y-73365000D02*
X139572936Y-73365000D01*
%TO.C,R3*%
X143102064Y-82935000D02*
X142647936Y-82935000D01*
X143102064Y-81465000D02*
X142647936Y-81465000D01*
D11*
%TO.C,P1*%
X113210000Y-89440000D02*
X116226000Y-89440000D01*
X122963000Y-89440000D02*
X133923000Y-89440000D01*
X135740000Y-85241000D02*
X135740000Y-77326000D01*
X113210000Y-73130000D02*
X116191000Y-73130000D01*
X122928000Y-73130000D02*
X133957000Y-73130000D01*
X131658000Y-90310000D02*
G75*
G03*
X131658000Y-90310000I-67000J0D01*
G01*
%TD*%
M02*
