%TF.GenerationSoftware,KiCad,Pcbnew,7.0.2*%
%TF.CreationDate,2024-05-18T17:34:20+02:00*%
%TF.ProjectId,dsoxlan,64736f78-6c61-46e2-9e6b-696361645f70,rev?*%
%TF.SameCoordinates,Original*%
%TF.FileFunction,Soldermask,Bot*%
%TF.FilePolarity,Negative*%
%FSLAX46Y46*%
G04 Gerber Fmt 4.6, Leading zero omitted, Abs format (unit mm)*
G04 Created by KiCad (PCBNEW 7.0.2) date 2024-05-18 17:34:20*
%MOMM*%
%LPD*%
G01*
G04 APERTURE LIST*
%ADD10C,3.200000*%
%ADD11C,1.600000*%
%ADD12C,2.200000*%
%ADD13R,3.600000X0.550000*%
%ADD14C,1.200000*%
G04 APERTURE END LIST*
D10*
%TO.C,P1*%
X120650000Y-75565000D03*
X120650000Y-86995000D03*
D11*
X127000000Y-76835000D03*
X129540000Y-78105000D03*
X127000000Y-79375000D03*
X129540000Y-80645000D03*
X127000000Y-81915000D03*
X129540000Y-83185000D03*
X127000000Y-84455000D03*
X129540000Y-85725000D03*
D12*
X123698000Y-73533000D03*
X123698000Y-89027000D03*
D11*
X118110000Y-74498200D03*
X116078000Y-74498200D03*
X118110000Y-88061800D03*
X116078000Y-88061800D03*
%TD*%
D13*
%TO.C,P2*%
X190754000Y-104750000D03*
X190754000Y-103950000D03*
X190754000Y-103150000D03*
X190754000Y-102350000D03*
X190754000Y-101550000D03*
X190754000Y-100750000D03*
X190754000Y-99950000D03*
X190754000Y-99150000D03*
X190754000Y-98350000D03*
X190754000Y-97550000D03*
X190754000Y-96750000D03*
X190754000Y-95950000D03*
X190754000Y-95150000D03*
X190754000Y-94350000D03*
X190754000Y-93550000D03*
X190754000Y-92750000D03*
X190754000Y-91950000D03*
X190754000Y-91150000D03*
X190754000Y-90350000D03*
X190754000Y-89550000D03*
X190754000Y-88750000D03*
X190754000Y-87950000D03*
X190754000Y-83950000D03*
X190754000Y-83150000D03*
X190754000Y-82350000D03*
X190754000Y-81550000D03*
X190754000Y-80750000D03*
X190754000Y-79950000D03*
X190754000Y-79150000D03*
X190754000Y-78350000D03*
X190754000Y-77550000D03*
X190754000Y-76750000D03*
X190754000Y-75950000D03*
X190754000Y-75150000D03*
X190754000Y-74350000D03*
X190754000Y-73550000D03*
X190754000Y-72750000D03*
X190754000Y-71950000D03*
X190754000Y-71150000D03*
X190754000Y-70350000D03*
%TD*%
D10*
%TO.C,H104*%
X184150000Y-114300000D03*
%TD*%
%TO.C,H103*%
X184150000Y-62484000D03*
%TD*%
%TO.C,H102*%
X115570000Y-114300000D03*
%TD*%
%TO.C,H101*%
X115570000Y-62484000D03*
%TD*%
D14*
X138430000Y-85725000D03*
X177165000Y-80010000D03*
X138430000Y-80645000D03*
X183515000Y-86995000D03*
X183515000Y-84455000D03*
X181610000Y-84455000D03*
X181610000Y-80010000D03*
X181610000Y-78105000D03*
X184150000Y-76200000D03*
X118110000Y-70485000D03*
X118110000Y-91440000D03*
X177165000Y-81915000D03*
M02*
